# MagicaVoxel @ Ephtracy

# group
o 

# material
mtllib inside_classroom_divide_outside_corridor.mtl
usemtl palette

# normals
vn -1 0 0
vn 1 0 0
vn 0 0 1
vn 0 0 -1
vn 0 -1 0
vn 0 1 0

# texcoords
vt 0.310547 0.5
vt 0.345703 0.5
vt 0.349609 0.5

# verts
v -6.4 0 1.6
v -6.4 0 0.8
v -6.4 4 1.6
v -6.4 4 1.3
v -6.4 4 1.1
v -6.4 4 0.8
v -6.4 4.5 1.6
v -6.4 4.5 1.3
v -6.4 4.5 1.1
v -6.4 4.5 0.8
v -6.4 4.8 1.6
v -6.4 4.8 0.8
v -5.1 2.8 1.4
v -5.1 2.8 1.3
v -5.1 2.9 1.4
v -5.1 2.9 1.3
v -4 1.7 1.3
v -4 1.7 1.2
v -4 2.8 1.3
v -4 2.8 1.2
v -2.9 1.7 1.3
v -2.9 1.7 1.2
v -2.9 2.8 1.3
v -2.9 2.8 1.2
v -1.8 1.7 1.3
v -1.8 1.7 1.2
v -1.8 2.8 1.3
v -1.8 2.8 1.2
v -0.7 1.7 1.3
v -0.7 1.7 1.2
v -0.7 2.8 1.3
v -0.7 2.8 1.2
v -0.6 1.6 1.2
v -0.6 1.6 1.1
v -0.6 2.9 1.2
v -0.6 2.9 1.1
v 0 0 1.6
v 0 0 1.3
v 0 0 1.1
v 0 0 0.8
v 0 4 1.6
v 0 4 1.3
v 0 4 1.1
v 0 4 0.8
v 0 4.1 1.1
v 0 4.5 1.6
v 0 4.5 1.3
v 0 4.5 1.1
v 0 4.5 0.8
v 2.3 2.4 1.1
v 2.3 2.4 1
v 2.3 2.7 1.1
v 2.3 2.7 1
v 4.7 0 1.3
v 4.7 0 1.2
v 4.7 0 1.1
v 4.7 2.6 1.3
v 4.7 2.6 1.2
v 4.7 2.6 1.1
v -5.6 0 1.6
v -5.6 0 1.3
v -5.6 0 1.1
v -5.6 0 0.8
v -5.6 4 1.6
v -5.6 4 1.3
v -5.6 4 1.1
v -5.6 4 0.8
v -5.6 4.1 1.1
v -5.6 4.5 1.6
v -5.6 4.5 1.3
v -5.6 4.5 1.1
v -5.6 4.5 0.8
v -5 1.6 1.2
v -5 1.6 1.1
v -5 2.9 1.2
v -5 2.9 1.1
v -4.9 1.7 1.3
v -4.9 1.7 1.2
v -4.9 2.8 1.3
v -4.9 2.8 1.2
v -3.8 1.7 1.3
v -3.8 1.7 1.2
v -3.8 2.8 1.3
v -3.8 2.8 1.2
v -2.7 1.7 1.3
v -2.7 1.7 1.2
v -2.7 2.8 1.3
v -2.7 2.8 1.2
v -1.6 1.7 1.3
v -1.6 1.7 1.2
v -1.6 2.8 1.3
v -1.6 2.8 1.2
v -0.5 2.8 1.4
v -0.5 2.8 1.3
v -0.5 2.9 1.4
v -0.5 2.9 1.3
v 0.8 0 1.6
v 0.8 0 1.3
v 0.8 0 1.1
v 0.8 0 0.8
v 0.8 4 1.6
v 0.8 4 1.3
v 0.8 4 1.1
v 0.8 4 0.8
v 0.8 4.5 1.6
v 0.8 4.5 1.3
v 0.8 4.5 1.1
v 0.8 4.5 0.8
v 2.5 2.4 1.1
v 2.5 2.4 1
v 2.5 2.7 1.1
v 2.5 2.7 1
v 3.1 0 1.3
v 3.1 0 1.2
v 3.1 0 1.1
v 3.1 2.6 1.3
v 3.1 2.6 1.2
v 3.1 2.6 1.1
v 6.4 0 1.3
v 6.4 0 1.1
v 6.4 4 1.3
v 6.4 4 1.2
v 6.4 4 1.1
v 6.4 4.5 1.6
v 6.4 4.5 1.3
v 6.4 4.5 1.2
v 6.4 4.5 1.1
v 6.4 4.5 0.8
v 6.4 4.8 1.6
v 6.4 4.8 0.8
v -6.4 0 1.6
v -6.4 4 1.6
v -6.4 4.5 1.6
v -6.4 4.8 1.6
v -5.6 0 1.6
v -5.6 4 1.6
v -5.6 4.5 1.6
v 0 0 1.6
v 0 4 1.6
v 0 4.5 1.6
v 0.8 0 1.6
v 0.8 4 1.6
v 0.8 4.5 1.6
v 6.4 4.5 1.6
v 6.4 4.8 1.6
v -5.1 2.8 1.4
v -5.1 2.9 1.4
v -0.5 2.8 1.4
v -0.5 2.9 1.4
v -5.6 0 1.3
v -5.6 4 1.3
v -5.6 4.5 1.3
v -5.1 2.8 1.3
v -5.1 2.9 1.3
v -5 1.6 1.3
v -5 2.8 1.3
v -5 2.9 1.3
v -5 3 1.3
v -4.9 1.7 1.3
v -4.9 2.8 1.3
v -4 1.7 1.3
v -4 2.8 1.3
v -3.8 1.7 1.3
v -3.8 2.8 1.3
v -2.9 1.7 1.3
v -2.9 2.8 1.3
v -2.7 1.7 1.3
v -2.7 2.8 1.3
v -1.8 1.7 1.3
v -1.8 2.8 1.3
v -1.6 1.7 1.3
v -1.6 2.8 1.3
v -0.7 1.7 1.3
v -0.7 2.8 1.3
v -0.6 1.6 1.3
v -0.6 2.8 1.3
v -0.6 2.9 1.3
v -0.6 3 1.3
v -0.5 2.8 1.3
v -0.5 2.9 1.3
v 0 0 1.3
v 0 4 1.3
v 0 4.5 1.3
v 0.8 0 1.3
v 0.8 4 1.3
v 0.8 4.5 1.3
v 2.9 0 1.3
v 2.9 2.8 1.3
v 3.1 0 1.3
v 3.1 2.6 1.3
v 4.7 0 1.3
v 4.7 2.6 1.3
v 4.9 0 1.3
v 4.9 2.8 1.3
v 6.4 0 1.3
v 6.4 4 1.3
v 6.4 4.5 1.3
v -5 1.6 1.2
v -5 2.9 1.2
v -4.9 1.7 1.2
v -4.9 2.8 1.2
v -4 1.7 1.2
v -4 2.8 1.2
v -3.8 1.7 1.2
v -3.8 2.8 1.2
v -2.9 1.7 1.2
v -2.9 2.8 1.2
v -2.7 1.7 1.2
v -2.7 2.8 1.2
v -1.8 1.7 1.2
v -1.8 2.8 1.2
v -1.6 1.7 1.2
v -1.6 2.8 1.2
v -0.7 1.7 1.2
v -0.7 2.8 1.2
v -0.6 1.6 1.2
v -0.6 2.9 1.2
v -5.6 0 1.1
v -5.6 4 1.1
v -5.6 4.1 1.1
v -5.6 4.5 1.1
v -5 1.6 1.1
v -5 2.9 1.1
v -0.6 1.6 1.1
v -0.6 2.9 1.1
v 0 0 1.1
v 0 4 1.1
v 0 4.1 1.1
v 0 4.5 1.1
v 0.8 0 1.1
v 0.8 4 1.1
v 0.8 4.5 1.1
v 2.3 2.4 1.1
v 2.3 2.7 1.1
v 2.3 4 1.1
v 2.4 2.7 1.1
v 2.4 4 1.1
v 2.5 2.4 1.1
v 2.5 2.7 1.1
v 2.9 0 1.1
v 2.9 2.8 1.1
v 3.1 0 1.1
v 3.1 2.6 1.1
v 4.7 0 1.1
v 4.7 2.6 1.1
v 4.9 0 1.1
v 4.9 2.8 1.1
v 6.4 0 1.1
v 6.4 4 1.1
v 6.4 4.5 1.1
v 2.3 2.4 1
v 2.3 2.7 1
v 2.5 2.4 1
v 2.5 2.7 1
v -6.4 0 0.8
v -6.4 4 0.8
v -6.4 4.5 0.8
v -6.4 4.8 0.8
v -5.6 0 0.8
v -5.6 4 0.8
v -5.6 4.5 0.8
v 0 0 0.8
v 0 4 0.8
v 0 4.5 0.8
v 0.8 0 0.8
v 0.8 4 0.8
v 0.8 4.5 0.8
v 6.4 4.5 0.8
v 6.4 4.8 0.8
v -6.4 0 1.6
v -5.6 0 1.6
v 0 0 1.6
v 0.8 0 1.6
v -5.6 0 1.3
v 0 0 1.3
v 0.8 0 1.3
v 2.9 0 1.3
v 3.1 0 1.3
v 4.7 0 1.3
v 4.9 0 1.3
v 6.4 0 1.3
v 2.9 0 1.2
v 3.1 0 1.2
v 4.7 0 1.2
v 4.9 0 1.2
v -5.6 0 1.1
v 0 0 1.1
v 0.8 0 1.1
v 2.9 0 1.1
v 3.1 0 1.1
v 4.7 0 1.1
v 4.9 0 1.1
v 6.4 0 1.1
v -6.4 0 0.8
v -5.6 0 0.8
v 0 0 0.8
v 0.8 0 0.8
v 2.3 2.4 1.1
v 2.5 2.4 1.1
v 2.3 2.4 1
v 2.5 2.4 1
v 3.1 2.6 1.3
v 4.7 2.6 1.3
v 3.1 2.6 1.2
v 4.7 2.6 1.2
v 3.1 2.6 1.1
v 4.7 2.6 1.1
v -5.1 2.8 1.4
v -0.5 2.8 1.4
v -5.1 2.8 1.3
v -5 2.8 1.3
v -4.9 2.8 1.3
v -4 2.8 1.3
v -3.8 2.8 1.3
v -2.9 2.8 1.3
v -2.7 2.8 1.3
v -1.8 2.8 1.3
v -1.6 2.8 1.3
v -0.7 2.8 1.3
v -0.6 2.8 1.3
v -0.5 2.8 1.3
v -4.9 2.8 1.2
v -4 2.8 1.2
v -3.8 2.8 1.2
v -2.9 2.8 1.2
v -2.7 2.8 1.2
v -1.8 2.8 1.2
v -1.6 2.8 1.2
v -0.7 2.8 1.2
v -5 2.9 1.2
v -0.6 2.9 1.2
v -5 2.9 1.1
v -0.6 2.9 1.1
v -5.6 4.5 1.6
v 0 4.5 1.6
v 0.8 4.5 1.6
v 6.4 4.5 1.6
v -5.6 4.5 1.3
v 0 4.5 1.3
v 0.8 4.5 1.3
v 6.4 4.5 1.3
v -5.6 4.5 1.1
v 0 4.5 1.1
v 0.8 4.5 1.1
v 6.4 4.5 1.1
v -5.6 4.5 0.8
v 0 4.5 0.8
v 0.8 4.5 0.8
v 6.4 4.5 0.8
v -5 1.6 1.2
v -0.6 1.6 1.2
v -5 1.6 1.1
v -0.6 1.6 1.1
v -4.9 1.7 1.3
v -4 1.7 1.3
v -3.8 1.7 1.3
v -2.9 1.7 1.3
v -2.7 1.7 1.3
v -1.8 1.7 1.3
v -1.6 1.7 1.3
v -0.7 1.7 1.3
v -4.9 1.7 1.2
v -4 1.7 1.2
v -3.8 1.7 1.2
v -2.9 1.7 1.2
v -2.7 1.7 1.2
v -1.8 1.7 1.2
v -1.6 1.7 1.2
v -0.7 1.7 1.2
v 2.3 2.7 1.1
v 2.4 2.7 1.1
v 2.5 2.7 1.1
v 2.3 2.7 1
v 2.5 2.7 1
v -5.1 2.9 1.4
v -0.5 2.9 1.4
v -5.1 2.9 1.3
v -5 2.9 1.3
v -0.6 2.9 1.3
v -0.5 2.9 1.3
v -6.4 4.8 1.6
v 6.4 4.8 1.6
v -6.4 4.8 0.8
v 6.4 4.8 0.8

# faces
f 3/3/1 2/3/1 1/3/1
f 4/3/1 2/3/1 3/3/1
f 5/3/1 2/3/1 4/3/1
f 6/3/1 2/3/1 5/3/1
f 7/1/1 4/1/1 3/1/1
f 8/3/1 5/3/1 4/3/1
f 8/1/1 4/1/1 7/1/1
f 9/2/1 6/2/1 5/2/1
f 9/3/1 5/3/1 8/3/1
f 10/2/1 6/2/1 9/2/1
f 11/3/1 8/3/1 7/3/1
f 11/3/1 9/3/1 8/3/1
f 11/3/1 10/3/1 9/3/1
f 12/3/1 10/3/1 11/3/1
f 15/1/1 14/1/1 13/1/1
f 16/1/1 14/1/1 15/1/1
f 19/1/1 18/1/1 17/1/1
f 20/1/1 18/1/1 19/1/1
f 23/1/1 22/1/1 21/1/1
f 24/1/1 22/1/1 23/1/1
f 27/1/1 26/1/1 25/1/1
f 28/1/1 26/1/1 27/1/1
f 31/1/1 30/1/1 29/1/1
f 32/1/1 30/1/1 31/1/1
f 35/3/1 34/3/1 33/3/1
f 36/3/1 34/3/1 35/3/1
f 41/3/1 38/3/1 37/3/1
f 42/3/1 38/3/1 41/3/1
f 43/3/1 40/3/1 39/3/1
f 44/3/1 40/3/1 43/3/1
f 45/2/1 44/2/1 43/2/1
f 46/1/1 42/1/1 41/1/1
f 47/1/1 42/1/1 46/1/1
f 48/2/1 44/2/1 45/2/1
f 49/2/1 44/2/1 48/2/1
f 52/3/1 51/3/1 50/3/1
f 53/3/1 51/3/1 52/3/1
f 57/1/1 55/1/1 54/1/1
f 58/2/1 56/2/1 55/2/1
f 58/1/1 55/1/1 57/1/1
f 59/2/1 56/2/1 58/2/1
f 60/3/2 61/3/2 64/3/2
f 64/3/2 61/3/2 65/3/2
f 62/3/2 63/3/2 66/3/2
f 66/3/2 63/3/2 67/3/2
f 66/2/2 67/2/2 68/2/2
f 64/1/2 65/1/2 69/1/2
f 69/1/2 65/1/2 70/1/2
f 68/2/2 67/2/2 71/2/2
f 71/2/2 67/2/2 72/2/2
f 73/3/2 74/3/2 75/3/2
f 75/3/2 74/3/2 76/3/2
f 77/1/2 78/1/2 79/1/2
f 79/1/2 78/1/2 80/1/2
f 81/1/2 82/1/2 83/1/2
f 83/1/2 82/1/2 84/1/2
f 85/1/2 86/1/2 87/1/2
f 87/1/2 86/1/2 88/1/2
f 89/1/2 90/1/2 91/1/2
f 91/1/2 90/1/2 92/1/2
f 93/1/2 94/1/2 95/1/2
f 95/1/2 94/1/2 96/1/2
f 97/3/2 98/3/2 101/3/2
f 101/3/2 98/3/2 102/3/2
f 99/3/2 100/3/2 103/3/2
f 103/3/2 100/3/2 104/3/2
f 101/1/2 102/1/2 105/1/2
f 105/1/2 102/1/2 106/1/2
f 103/2/2 104/2/2 107/2/2
f 107/2/2 104/2/2 108/2/2
f 109/3/2 110/3/2 111/3/2
f 111/3/2 110/3/2 112/3/2
f 113/1/2 114/1/2 116/1/2
f 114/2/2 115/2/2 117/2/2
f 116/1/2 114/1/2 117/1/2
f 117/2/2 115/2/2 118/2/2
f 119/3/2 120/3/2 121/3/2
f 121/3/2 120/3/2 122/3/2
f 122/3/2 120/3/2 123/3/2
f 121/1/2 122/1/2 125/1/2
f 122/2/2 123/2/2 126/2/2
f 125/1/2 122/1/2 126/1/2
f 126/2/2 123/2/2 127/2/2
f 126/3/2 127/3/2 129/3/2
f 127/3/2 128/3/2 129/3/2
f 125/3/2 126/3/2 129/3/2
f 124/3/2 125/3/2 129/3/2
f 129/3/2 128/3/2 130/3/2
f 135/3/3 132/3/3 131/3/3
f 136/1/3 133/1/3 132/1/3
f 136/3/3 132/3/3 135/3/3
f 137/3/3 134/3/3 133/3/3
f 137/1/3 133/1/3 136/1/3
f 140/3/3 134/3/3 137/3/3
f 141/3/3 139/3/3 138/3/3
f 142/1/3 140/1/3 139/1/3
f 142/3/3 139/3/3 141/3/3
f 143/3/3 134/3/3 140/3/3
f 143/1/3 140/1/3 142/1/3
f 144/3/3 134/3/3 143/3/3
f 145/3/3 134/3/3 144/3/3
f 148/1/3 147/1/3 146/1/3
f 149/1/3 147/1/3 148/1/3
f 153/3/3 151/3/3 150/3/3
f 154/3/3 151/3/3 153/3/3
f 155/3/3 153/3/3 150/3/3
f 156/3/3 153/3/3 155/3/3
f 157/3/3 151/3/3 154/3/3
f 158/3/3 151/3/3 157/3/3
f 159/1/3 156/1/3 155/1/3
f 160/1/3 156/1/3 159/1/3
f 161/1/3 159/1/3 155/1/3
f 163/1/3 161/1/3 155/1/3
f 163/1/3 162/1/3 161/1/3
f 164/1/3 162/1/3 163/1/3
f 165/1/3 163/1/3 155/1/3
f 167/1/3 165/1/3 155/1/3
f 167/1/3 166/1/3 165/1/3
f 168/1/3 166/1/3 167/1/3
f 169/1/3 167/1/3 155/1/3
f 171/1/3 169/1/3 155/1/3
f 171/1/3 170/1/3 169/1/3
f 172/1/3 170/1/3 171/1/3
f 173/1/3 171/1/3 155/1/3
f 175/3/3 155/3/3 150/3/3
f 175/1/3 174/1/3 173/1/3
f 175/1/3 173/1/3 155/1/3
f 176/1/3 174/1/3 175/1/3
f 177/1/3 158/1/3 157/1/3
f 178/3/3 151/3/3 158/3/3
f 178/1/3 158/1/3 177/1/3
f 179/3/3 176/3/3 175/3/3
f 180/3/3 178/3/3 177/3/3
f 181/3/3 175/3/3 150/3/3
f 181/3/3 180/3/3 179/3/3
f 181/3/3 179/3/3 175/3/3
f 182/1/3 152/1/3 151/1/3
f 182/3/3 180/3/3 181/3/3
f 182/3/3 151/3/3 178/3/3
f 182/3/3 178/3/3 180/3/3
f 183/1/3 152/1/3 182/1/3
f 187/3/3 185/3/3 184/3/3
f 188/3/3 185/3/3 187/3/3
f 189/1/3 188/1/3 187/1/3
f 190/1/3 188/1/3 189/1/3
f 192/1/3 188/1/3 190/1/3
f 193/1/3 192/1/3 191/1/3
f 194/3/3 185/3/3 188/3/3
f 194/1/3 192/1/3 193/1/3
f 194/1/3 188/1/3 192/1/3
f 195/3/3 194/3/3 193/3/3
f 196/1/3 186/1/3 185/1/3
f 196/3/3 194/3/3 195/3/3
f 196/3/3 185/3/3 194/3/3
f 197/1/3 186/1/3 196/1/3
f 198/1/4 199/1/4 200/1/4
f 200/1/4 199/1/4 201/1/4
f 198/1/4 200/1/4 202/1/4
f 201/1/4 199/1/4 203/1/4
f 198/1/4 202/1/4 204/1/4
f 202/1/4 203/1/4 204/1/4
f 203/1/4 199/1/4 205/1/4
f 204/1/4 203/1/4 205/1/4
f 198/1/4 204/1/4 206/1/4
f 205/1/4 199/1/4 207/1/4
f 198/1/4 206/1/4 208/1/4
f 206/1/4 207/1/4 208/1/4
f 207/1/4 199/1/4 209/1/4
f 208/1/4 207/1/4 209/1/4
f 198/1/4 208/1/4 210/1/4
f 209/1/4 199/1/4 211/1/4
f 198/1/4 210/1/4 212/1/4
f 210/1/4 211/1/4 212/1/4
f 211/1/4 199/1/4 213/1/4
f 212/1/4 211/1/4 213/1/4
f 198/1/4 212/1/4 214/1/4
f 213/1/4 199/1/4 215/1/4
f 198/1/4 214/1/4 216/1/4
f 214/1/4 215/1/4 216/1/4
f 215/1/4 199/1/4 217/1/4
f 216/1/4 215/1/4 217/1/4
f 218/3/4 219/3/4 222/3/4
f 219/3/4 220/3/4 222/3/4
f 222/3/4 220/3/4 223/3/4
f 218/3/4 222/3/4 224/3/4
f 223/3/4 220/3/4 225/3/4
f 218/3/4 224/3/4 226/3/4
f 224/3/4 225/3/4 226/3/4
f 225/3/4 220/3/4 227/3/4
f 226/3/4 225/3/4 227/3/4
f 220/2/4 221/2/4 228/2/4
f 227/3/4 220/3/4 228/3/4
f 228/2/4 221/2/4 229/2/4
f 230/3/4 231/3/4 233/3/4
f 233/3/4 231/3/4 234/3/4
f 231/2/4 232/2/4 235/2/4
f 234/3/4 231/3/4 235/3/4
f 234/1/4 235/1/4 236/1/4
f 235/2/4 232/2/4 237/2/4
f 236/1/4 235/1/4 237/1/4
f 230/3/4 233/3/4 238/3/4
f 236/3/4 237/3/4 239/3/4
f 230/3/4 238/3/4 240/3/4
f 238/3/4 239/3/4 240/3/4
f 239/3/4 237/3/4 241/3/4
f 240/3/4 239/3/4 241/3/4
f 240/2/4 241/2/4 242/2/4
f 242/2/4 241/2/4 243/2/4
f 243/2/4 241/2/4 245/2/4
f 244/2/4 245/2/4 246/2/4
f 241/3/4 237/3/4 247/3/4
f 246/2/4 245/2/4 247/2/4
f 245/2/4 241/2/4 247/2/4
f 246/3/4 247/3/4 248/3/4
f 237/2/4 232/2/4 249/2/4
f 248/3/4 247/3/4 249/3/4
f 247/3/4 237/3/4 249/3/4
f 249/2/4 232/2/4 250/2/4
f 251/3/4 252/3/4 253/3/4
f 253/3/4 252/3/4 254/3/4
f 255/3/4 256/3/4 259/3/4
f 256/2/4 257/2/4 260/2/4
f 259/3/4 256/3/4 260/3/4
f 257/3/4 258/3/4 261/3/4
f 260/2/4 257/2/4 261/2/4
f 261/3/4 258/3/4 264/3/4
f 262/3/4 263/3/4 265/3/4
f 263/2/4 264/2/4 266/2/4
f 265/3/4 263/3/4 266/3/4
f 264/3/4 258/3/4 267/3/4
f 266/2/4 264/2/4 267/2/4
f 267/3/4 258/3/4 268/3/4
f 268/3/4 258/3/4 269/3/4
f 274/3/5 271/3/5 270/3/5
f 275/3/5 273/3/5 272/3/5
f 276/3/5 273/3/5 275/3/5
f 282/3/5 275/3/5 274/3/5
f 282/3/5 276/3/5 275/3/5
f 282/3/5 277/3/5 276/3/5
f 282/1/5 278/1/5 277/1/5
f 283/1/5 278/1/5 282/1/5
f 284/1/5 280/1/5 279/1/5
f 285/3/5 281/3/5 280/3/5
f 285/1/5 280/1/5 284/1/5
f 286/3/5 274/3/5 270/3/5
f 286/3/5 282/3/5 274/3/5
f 287/3/5 282/3/5 286/3/5
f 288/3/5 282/3/5 287/3/5
f 289/2/5 283/2/5 282/2/5
f 289/3/5 282/3/5 288/3/5
f 290/2/5 283/2/5 289/2/5
f 291/2/5 285/2/5 284/2/5
f 292/3/5 281/3/5 285/3/5
f 292/2/5 285/2/5 291/2/5
f 293/3/5 281/3/5 292/3/5
f 294/3/5 286/3/5 270/3/5
f 295/3/5 286/3/5 294/3/5
f 296/3/5 288/3/5 287/3/5
f 297/3/5 288/3/5 296/3/5
f 300/3/5 299/3/5 298/3/5
f 301/3/5 299/3/5 300/3/5
f 304/1/5 303/1/5 302/1/5
f 305/1/5 303/1/5 304/1/5
f 306/2/5 305/2/5 304/2/5
f 307/2/5 305/2/5 306/2/5
f 310/1/5 309/1/5 308/1/5
f 311/1/5 309/1/5 310/1/5
f 312/1/5 309/1/5 311/1/5
f 313/1/5 309/1/5 312/1/5
f 314/1/5 309/1/5 313/1/5
f 315/1/5 309/1/5 314/1/5
f 316/1/5 309/1/5 315/1/5
f 317/1/5 309/1/5 316/1/5
f 318/1/5 309/1/5 317/1/5
f 319/1/5 309/1/5 318/1/5
f 320/1/5 309/1/5 319/1/5
f 321/1/5 309/1/5 320/1/5
f 322/1/5 313/1/5 312/1/5
f 323/1/5 313/1/5 322/1/5
f 324/1/5 315/1/5 314/1/5
f 325/1/5 315/1/5 324/1/5
f 326/1/5 317/1/5 316/1/5
f 327/1/5 317/1/5 326/1/5
f 328/1/5 319/1/5 318/1/5
f 329/1/5 319/1/5 328/1/5
f 332/3/5 331/3/5 330/3/5
f 333/3/5 331/3/5 332/3/5
f 338/3/5 335/3/5 334/3/5
f 339/3/5 335/3/5 338/3/5
f 340/3/5 337/3/5 336/3/5
f 341/3/5 337/3/5 340/3/5
f 346/3/5 343/3/5 342/3/5
f 347/3/5 343/3/5 346/3/5
f 348/3/5 345/3/5 344/3/5
f 349/3/5 345/3/5 348/3/5
f 350/3/6 351/3/6 352/3/6
f 352/3/6 351/3/6 353/3/6
f 354/1/6 355/1/6 362/1/6
f 362/1/6 355/1/6 363/1/6
f 356/1/6 357/1/6 364/1/6
f 364/1/6 357/1/6 365/1/6
f 358/1/6 359/1/6 366/1/6
f 366/1/6 359/1/6 367/1/6
f 360/1/6 361/1/6 368/1/6
f 368/1/6 361/1/6 369/1/6
f 370/3/6 371/3/6 373/3/6
f 371/3/6 372/3/6 373/3/6
f 373/3/6 372/3/6 374/3/6
f 375/1/6 376/1/6 377/1/6
f 377/1/6 376/1/6 378/1/6
f 378/1/6 376/1/6 379/1/6
f 379/1/6 376/1/6 380/1/6
f 381/3/6 382/3/6 383/3/6
f 383/3/6 382/3/6 384/3/6
