# MagicaVoxel @ Ephtracy

# group
o 

# material
mtllib penghubung_outside_corridor_1_tembok.mtl
usemtl palette

# normals
vn -1 0 0
vn 1 0 0
vn 0 0 1
vn 0 0 -1
vn 0 -1 0
vn 0 1 0

# texcoords
vt 0.310547 0.5
vt 0.349609 0.5

# verts
v 0.8 0 -5.4
v 0.8 0 -5.6
v 0.8 4 -5.4
v 0.8 4 -5.6
v 0.8 4.5 -5.1
v 0.8 4.5 -5.4
v 0.8 4.5 -5.6
v 0.8 4.5 -5.9
v 0.8 4.8 -5.1
v 0.8 4.8 -5.9
v 6.4 0 -5.4
v 6.4 0 -5.6
v 6.4 4 -5.4
v 6.4 4 -5.6
v 6.4 4.5 -5.1
v 6.4 4.5 -5.4
v 6.4 4.5 -5.6
v 6.4 4.5 -5.9
v 6.4 4.8 -5.1
v 6.4 4.8 -5.9
v 0.8 4.5 -5.1
v 0.8 4.8 -5.1
v 6.4 4.5 -5.1
v 6.4 4.8 -5.1
v 0.8 0 -5.4
v 0.8 4 -5.4
v 0.8 4.5 -5.4
v 6.4 0 -5.4
v 6.4 4 -5.4
v 6.4 4.5 -5.4
v 0.8 0 -5.6
v 0.8 4 -5.6
v 0.8 4.5 -5.6
v 6.4 0 -5.6
v 6.4 4 -5.6
v 6.4 4.5 -5.6
v 0.8 4.5 -5.9
v 0.8 4.8 -5.9
v 6.4 4.5 -5.9
v 6.4 4.8 -5.9
v 0.8 0 -5.4
v 6.4 0 -5.4
v 0.8 0 -5.6
v 6.4 0 -5.6
v 0.8 4.5 -5.1
v 6.4 4.5 -5.1
v 0.8 4.5 -5.4
v 6.4 4.5 -5.4
v 0.8 4.5 -5.6
v 6.4 4.5 -5.6
v 0.8 4.5 -5.9
v 6.4 4.5 -5.9
v 0.8 4.8 -5.1
v 6.4 4.8 -5.1
v 0.8 4.8 -5.9
v 6.4 4.8 -5.9

# faces
f 3/2/1 2/2/1 1/2/1
f 4/2/1 2/2/1 3/2/1
f 6/1/1 4/1/1 3/1/1
f 7/1/1 4/1/1 6/1/1
f 9/2/1 7/2/1 6/2/1
f 9/2/1 8/2/1 7/2/1
f 9/2/1 6/2/1 5/2/1
f 10/2/1 8/2/1 9/2/1
f 11/2/2 12/2/2 13/2/2
f 13/2/2 12/2/2 14/2/2
f 13/1/2 14/1/2 16/1/2
f 16/1/2 14/1/2 17/1/2
f 16/2/2 17/2/2 19/2/2
f 17/2/2 18/2/2 19/2/2
f 15/2/2 16/2/2 19/2/2
f 19/2/2 18/2/2 20/2/2
f 23/2/3 22/2/3 21/2/3
f 24/2/3 22/2/3 23/2/3
f 28/2/3 26/2/3 25/2/3
f 29/1/3 27/1/3 26/1/3
f 29/2/3 26/2/3 28/2/3
f 30/1/3 27/1/3 29/1/3
f 31/2/4 32/2/4 34/2/4
f 32/1/4 33/1/4 35/1/4
f 34/2/4 32/2/4 35/2/4
f 35/1/4 33/1/4 36/1/4
f 37/2/4 38/2/4 39/2/4
f 39/2/4 38/2/4 40/2/4
f 43/2/5 42/2/5 41/2/5
f 44/2/5 42/2/5 43/2/5
f 47/2/5 46/2/5 45/2/5
f 48/2/5 46/2/5 47/2/5
f 51/2/5 50/2/5 49/2/5
f 52/2/5 50/2/5 51/2/5
f 53/2/6 54/2/6 55/2/6
f 55/2/6 54/2/6 56/2/6
