# MagicaVoxel @ Ephtracy

# group
o 

# material
mtllib penghubung_outside_corridor.mtl
usemtl palette

# normals
vn -1 0 0
vn 1 0 0
vn 0 0 1
vn 0 0 -1
vn 0 -1 0
vn 0 1 0

# texcoords
vt 0.310547 0.5
vt 0.349609 0.5

# verts
v -6.4 0 -5.1
v -6.4 0 -5.9
v -6.4 4 -5.1
v -6.4 4 -5.9
v -6.4 4.5 -5.1
v -6.4 4.5 -5.9
v -6.4 4.8 -5.1
v -6.4 4.8 -5.9
v 0 0 -5.1
v 0 0 -5.4
v 0 0 -5.6
v 0 0 -5.9
v 0 4 -5.1
v 0 4 -5.4
v 0 4 -5.6
v 0 4 -5.9
v 0 4.5 -5.1
v 0 4.5 -5.4
v 0 4.5 -5.6
v 0 4.5 -5.9
v -5.6 0 -5.1
v -5.6 0 -5.4
v -5.6 0 -5.6
v -5.6 0 -5.9
v -5.6 4 -5.1
v -5.6 4 -5.4
v -5.6 4 -5.6
v -5.6 4 -5.9
v -5.6 4.5 -5.1
v -5.6 4.5 -5.4
v -5.6 4.5 -5.6
v -5.6 4.5 -5.9
v 0.8 0 -5.1
v 0.8 0 -5.4
v 0.8 0 -5.6
v 0.8 0 -5.9
v 0.8 4 -5.1
v 0.8 4 -5.4
v 0.8 4 -5.6
v 0.8 4 -5.9
v 0.8 4.5 -5.1
v 0.8 4.5 -5.4
v 0.8 4.5 -5.6
v 0.8 4.5 -5.9
v 6.4 0 -5.4
v 6.4 0 -5.6
v 6.4 4 -5.4
v 6.4 4 -5.6
v 6.4 4.5 -5.1
v 6.4 4.5 -5.4
v 6.4 4.5 -5.6
v 6.4 4.5 -5.9
v 6.4 4.8 -5.1
v 6.4 4.8 -5.9
v -6.4 0 -5.1
v -6.4 4 -5.1
v -6.4 4.5 -5.1
v -6.4 4.8 -5.1
v -5.6 0 -5.1
v -5.6 4 -5.1
v -5.6 4.5 -5.1
v 0 0 -5.1
v 0 4 -5.1
v 0 4.5 -5.1
v 0.8 0 -5.1
v 0.8 4 -5.1
v 0.8 4.5 -5.1
v 6.4 4.5 -5.1
v 6.4 4.8 -5.1
v -5.6 0 -5.4
v -5.6 4 -5.4
v -5.6 4.5 -5.4
v 0 0 -5.4
v 0 4 -5.4
v 0 4.5 -5.4
v 0.8 0 -5.4
v 0.8 4 -5.4
v 0.8 4.5 -5.4
v 6.4 0 -5.4
v 6.4 4 -5.4
v 6.4 4.5 -5.4
v -5.6 0 -5.6
v -5.6 4 -5.6
v -5.6 4.5 -5.6
v 0 0 -5.6
v 0 4 -5.6
v 0 4.5 -5.6
v 0.8 0 -5.6
v 0.8 4 -5.6
v 0.8 4.5 -5.6
v 6.4 0 -5.6
v 6.4 4 -5.6
v 6.4 4.5 -5.6
v -6.4 0 -5.9
v -6.4 4 -5.9
v -6.4 4.5 -5.9
v -6.4 4.8 -5.9
v -5.6 0 -5.9
v -5.6 4 -5.9
v -5.6 4.5 -5.9
v 0 0 -5.9
v 0 4 -5.9
v 0 4.5 -5.9
v 0.8 0 -5.9
v 0.8 4 -5.9
v 0.8 4.5 -5.9
v 6.4 4.5 -5.9
v 6.4 4.8 -5.9
v -6.4 0 -5.1
v -5.6 0 -5.1
v 0 0 -5.1
v 0.8 0 -5.1
v -5.6 0 -5.4
v 0 0 -5.4
v 0.8 0 -5.4
v 6.4 0 -5.4
v -5.6 0 -5.6
v 0 0 -5.6
v 0.8 0 -5.6
v 6.4 0 -5.6
v -6.4 0 -5.9
v -5.6 0 -5.9
v 0 0 -5.9
v 0.8 0 -5.9
v -5.6 4.5 -5.1
v 0 4.5 -5.1
v 0.8 4.5 -5.1
v 6.4 4.5 -5.1
v -5.6 4.5 -5.4
v 0 4.5 -5.4
v 0.8 4.5 -5.4
v 6.4 4.5 -5.4
v -5.6 4.5 -5.6
v 0 4.5 -5.6
v 0.8 4.5 -5.6
v 6.4 4.5 -5.6
v -5.6 4.5 -5.9
v 0 4.5 -5.9
v 0.8 4.5 -5.9
v 6.4 4.5 -5.9
v -6.4 4.8 -5.1
v 6.4 4.8 -5.1
v -6.4 4.8 -5.9
v 6.4 4.8 -5.9

# faces
f 3/2/1 2/2/1 1/2/1
f 4/2/1 2/2/1 3/2/1
f 5/1/1 4/1/1 3/1/1
f 6/1/1 4/1/1 5/1/1
f 7/2/1 6/2/1 5/2/1
f 8/2/1 6/2/1 7/2/1
f 13/2/1 10/2/1 9/2/1
f 14/2/1 10/2/1 13/2/1
f 15/2/1 12/2/1 11/2/1
f 16/2/1 12/2/1 15/2/1
f 17/1/1 14/1/1 13/1/1
f 18/1/1 14/1/1 17/1/1
f 19/1/1 16/1/1 15/1/1
f 20/1/1 16/1/1 19/1/1
f 21/2/2 22/2/2 25/2/2
f 25/2/2 22/2/2 26/2/2
f 23/2/2 24/2/2 27/2/2
f 27/2/2 24/2/2 28/2/2
f 25/1/2 26/1/2 29/1/2
f 29/1/2 26/1/2 30/1/2
f 27/1/2 28/1/2 31/1/2
f 31/1/2 28/1/2 32/1/2
f 33/2/2 34/2/2 37/2/2
f 37/2/2 34/2/2 38/2/2
f 35/2/2 36/2/2 39/2/2
f 39/2/2 36/2/2 40/2/2
f 37/1/2 38/1/2 41/1/2
f 41/1/2 38/1/2 42/1/2
f 39/1/2 40/1/2 43/1/2
f 43/1/2 40/1/2 44/1/2
f 45/2/2 46/2/2 47/2/2
f 47/2/2 46/2/2 48/2/2
f 47/1/2 48/1/2 50/1/2
f 50/1/2 48/1/2 51/1/2
f 50/2/2 51/2/2 53/2/2
f 51/2/2 52/2/2 53/2/2
f 49/2/2 50/2/2 53/2/2
f 53/2/2 52/2/2 54/2/2
f 59/2/3 56/2/3 55/2/3
f 60/1/3 57/1/3 56/1/3
f 60/2/3 56/2/3 59/2/3
f 61/2/3 58/2/3 57/2/3
f 61/1/3 57/1/3 60/1/3
f 64/2/3 58/2/3 61/2/3
f 65/2/3 63/2/3 62/2/3
f 66/1/3 64/1/3 63/1/3
f 66/2/3 63/2/3 65/2/3
f 67/2/3 58/2/3 64/2/3
f 67/1/3 64/1/3 66/1/3
f 68/2/3 58/2/3 67/2/3
f 69/2/3 58/2/3 68/2/3
f 73/2/3 71/2/3 70/2/3
f 74/1/3 72/1/3 71/1/3
f 74/2/3 71/2/3 73/2/3
f 75/1/3 72/1/3 74/1/3
f 79/2/3 77/2/3 76/2/3
f 80/1/3 78/1/3 77/1/3
f 80/2/3 77/2/3 79/2/3
f 81/1/3 78/1/3 80/1/3
f 82/2/4 83/2/4 85/2/4
f 83/1/4 84/1/4 86/1/4
f 85/2/4 83/2/4 86/2/4
f 86/1/4 84/1/4 87/1/4
f 88/2/4 89/2/4 91/2/4
f 89/1/4 90/1/4 92/1/4
f 91/2/4 89/2/4 92/2/4
f 92/1/4 90/1/4 93/1/4
f 94/2/4 95/2/4 98/2/4
f 95/1/4 96/1/4 99/1/4
f 98/2/4 95/2/4 99/2/4
f 96/2/4 97/2/4 100/2/4
f 99/1/4 96/1/4 100/1/4
f 100/2/4 97/2/4 103/2/4
f 101/2/4 102/2/4 104/2/4
f 102/1/4 103/1/4 105/1/4
f 104/2/4 102/2/4 105/2/4
f 103/2/4 97/2/4 106/2/4
f 105/1/4 103/1/4 106/1/4
f 106/2/4 97/2/4 107/2/4
f 107/2/4 97/2/4 108/2/4
f 113/2/5 110/2/5 109/2/5
f 114/2/5 112/2/5 111/2/5
f 115/2/5 112/2/5 114/2/5
f 117/2/5 113/2/5 109/2/5
f 117/2/5 116/2/5 115/2/5
f 117/2/5 115/2/5 114/2/5
f 117/2/5 114/2/5 113/2/5
f 118/2/5 116/2/5 117/2/5
f 119/2/5 116/2/5 118/2/5
f 120/2/5 116/2/5 119/2/5
f 121/2/5 117/2/5 109/2/5
f 122/2/5 117/2/5 121/2/5
f 123/2/5 119/2/5 118/2/5
f 124/2/5 119/2/5 123/2/5
f 129/2/5 126/2/5 125/2/5
f 130/2/5 126/2/5 129/2/5
f 131/2/5 128/2/5 127/2/5
f 132/2/5 128/2/5 131/2/5
f 137/2/5 134/2/5 133/2/5
f 138/2/5 134/2/5 137/2/5
f 139/2/5 136/2/5 135/2/5
f 140/2/5 136/2/5 139/2/5
f 141/2/6 142/2/6 143/2/6
f 143/2/6 142/2/6 144/2/6
