# MagicaVoxel @ Ephtracy

# group
o 

# material
mtllib inside_classroom_lantai_3_divide_corridor.mtl
usemtl palette

# normals
vn -1 0 0
vn 1 0 0
vn 0 0 1
vn 0 0 -1
vn 0 -1 0
vn 0 1 0

# texcoords
vt 0.310547 0.5
vt 0.349609 0.5
vt 0.443359 0.5
vt 0.728516 0.5

# verts
v -6.4 0 1.6
v -6.4 0 0.8
v -6.4 4 1.6
v -6.4 4 1.3
v -6.4 4 1.1
v -6.4 4 0.8
v -6.4 4.5 1.6
v -6.4 4.5 1.3
v -6.4 4.5 1.1
v -6.4 4.5 0.8
v -6.4 4.8 1.6
v -6.4 4.8 0.8
v -5.1 2.8 1.4
v -5.1 2.8 1.3
v -5.1 2.9 1.4
v -5.1 2.9 1.3
v -4 1.7 1.3
v -4 1.7 1.2
v -4 2.8 1.3
v -4 2.8 1.2
v -2.9 1.7 1.3
v -2.9 1.7 1.2
v -2.9 2.8 1.3
v -2.9 2.8 1.2
v -1.8 1.7 1.3
v -1.8 1.7 1.2
v -1.8 2.8 1.3
v -1.8 2.8 1.2
v -0.7 1.7 1.3
v -0.7 1.7 1.2
v -0.7 2.8 1.3
v -0.7 2.8 1.2
v -0.6 1.6 1.2
v -0.6 1.6 1.1
v -0.6 2.9 1.2
v -0.6 2.9 1.1
v 0 0 1.6
v 0 0 1.3
v 0 0 1.1
v 0 0 0.8
v 0 4 1.6
v 0 4 1.3
v 0 4 1.1
v 0 4 0.8
v 0 4.1 1.1
v 0 4.5 1.6
v 0 4.5 1.3
v 0 4.5 1.1
v 0 4.5 0.8
v 2.3 2.4 1.1
v 2.3 2.4 1
v 2.3 2.7 1.1
v 2.3 2.7 1
v 4.7 0 1.3
v 4.7 0 1.2
v 4.7 0 1.1
v 4.7 2.6 1.3
v 4.7 2.6 1.2
v 4.7 2.6 1.1
v -5.6 0 1.6
v -5.6 0 1.3
v -5.6 0 1.1
v -5.6 0 0.8
v -5.6 4 1.6
v -5.6 4 1.3
v -5.6 4 1.1
v -5.6 4 0.8
v -5.6 4.1 1.1
v -5.6 4.5 1.6
v -5.6 4.5 1.3
v -5.6 4.5 1.1
v -5.6 4.5 0.8
v -5 1.6 1.2
v -5 1.6 1.1
v -5 2.9 1.2
v -5 2.9 1.1
v -4.9 1.7 1.3
v -4.9 1.7 1.2
v -4.9 2.8 1.3
v -4.9 2.8 1.2
v -3.8 1.7 1.3
v -3.8 1.7 1.2
v -3.8 2.8 1.3
v -3.8 2.8 1.2
v -2.7 1.7 1.3
v -2.7 1.7 1.2
v -2.7 2.8 1.3
v -2.7 2.8 1.2
v -1.6 1.7 1.3
v -1.6 1.7 1.2
v -1.6 2.8 1.3
v -1.6 2.8 1.2
v -0.5 2.8 1.4
v -0.5 2.8 1.3
v -0.5 2.9 1.4
v -0.5 2.9 1.3
v 0.8 0 1.6
v 0.8 0 1.3
v 0.8 0 1.1
v 0.8 0 0.8
v 0.8 4 1.6
v 0.8 4 1.3
v 0.8 4 1.1
v 0.8 4 0.8
v 0.8 4.5 1.6
v 0.8 4.5 1.3
v 0.8 4.5 1.1
v 0.8 4.5 0.8
v 2.5 2.4 1.1
v 2.5 2.4 1
v 2.5 2.7 1.1
v 2.5 2.7 1
v 3.1 0 1.3
v 3.1 0 1.2
v 3.1 0 1.1
v 3.1 2.6 1.3
v 3.1 2.6 1.2
v 3.1 2.6 1.1
v 6.4 0 1.3
v 6.4 0 1.1
v 6.4 4 1.3
v 6.4 4 1.2
v 6.4 4 1.1
v 6.4 4.5 1.6
v 6.4 4.5 1.3
v 6.4 4.5 1.2
v 6.4 4.5 1.1
v 6.4 4.5 0.8
v 6.4 4.8 1.6
v 6.4 4.8 0.8
v -6.4 0 1.6
v -6.4 4 1.6
v -6.4 4.5 1.6
v -6.4 4.8 1.6
v -5.6 0 1.6
v -5.6 4 1.6
v -5.6 4.5 1.6
v 0 0 1.6
v 0 4 1.6
v 0 4.5 1.6
v 0.8 0 1.6
v 0.8 4 1.6
v 0.8 4.5 1.6
v 6.4 4.5 1.6
v 6.4 4.8 1.6
v -5.1 2.8 1.4
v -5.1 2.9 1.4
v -0.5 2.8 1.4
v -0.5 2.9 1.4
v -5.6 0 1.3
v -5.6 4 1.3
v -5.6 4.5 1.3
v -5.1 2.8 1.3
v -5.1 2.9 1.3
v -5 1.6 1.3
v -5 2.8 1.3
v -5 2.9 1.3
v -5 3 1.3
v -4.9 1.7 1.3
v -4.9 2.8 1.3
v -4 1.7 1.3
v -4 2.8 1.3
v -3.8 1.7 1.3
v -3.8 2.8 1.3
v -2.9 1.7 1.3
v -2.9 2.8 1.3
v -2.7 1.7 1.3
v -2.7 2.8 1.3
v -1.8 1.7 1.3
v -1.8 2.8 1.3
v -1.6 1.7 1.3
v -1.6 2.8 1.3
v -0.7 1.7 1.3
v -0.7 2.8 1.3
v -0.6 1.6 1.3
v -0.6 2.8 1.3
v -0.6 2.9 1.3
v -0.6 3 1.3
v -0.5 2.8 1.3
v -0.5 2.9 1.3
v 0 0 1.3
v 0 4 1.3
v 0 4.5 1.3
v 0.8 0 1.3
v 0.8 4 1.3
v 0.8 4.5 1.3
v 2.9 0 1.3
v 2.9 2.8 1.3
v 3.1 0 1.3
v 3.1 2.6 1.3
v 4.7 0 1.3
v 4.7 2.6 1.3
v 4.9 0 1.3
v 4.9 2.8 1.3
v 6.4 0 1.3
v 6.4 4 1.3
v 6.4 4.5 1.3
v -5 1.6 1.2
v -5 2.9 1.2
v -4.9 1.7 1.2
v -4.9 2.8 1.2
v -4 1.7 1.2
v -4 2.8 1.2
v -3.8 1.7 1.2
v -3.8 2.8 1.2
v -2.9 1.7 1.2
v -2.9 2.8 1.2
v -2.7 1.7 1.2
v -2.7 2.8 1.2
v -1.8 1.7 1.2
v -1.8 2.8 1.2
v -1.6 1.7 1.2
v -1.6 2.8 1.2
v -0.7 1.7 1.2
v -0.7 2.8 1.2
v -0.6 1.6 1.2
v -0.6 2.9 1.2
v -5.6 0 1.1
v -5.6 4 1.1
v -5.6 4.1 1.1
v -5.6 4.5 1.1
v -5 1.6 1.1
v -5 2.9 1.1
v -0.6 1.6 1.1
v -0.6 2.9 1.1
v 0 0 1.1
v 0 4 1.1
v 0 4.1 1.1
v 0 4.5 1.1
v 0.8 0 1.1
v 0.8 4 1.1
v 0.8 4.5 1.1
v 2.3 2.4 1.1
v 2.3 2.7 1.1
v 2.3 4 1.1
v 2.4 2.7 1.1
v 2.4 4 1.1
v 2.5 2.4 1.1
v 2.5 2.7 1.1
v 2.9 0 1.1
v 2.9 2.8 1.1
v 3.1 0 1.1
v 3.1 2.6 1.1
v 4.7 0 1.1
v 4.7 2.6 1.1
v 4.9 0 1.1
v 4.9 2.8 1.1
v 6.4 0 1.1
v 6.4 4 1.1
v 6.4 4.5 1.1
v 2.3 2.4 1
v 2.3 2.7 1
v 2.5 2.4 1
v 2.5 2.7 1
v -6.4 0 0.8
v -6.4 4 0.8
v -6.4 4.5 0.8
v -6.4 4.8 0.8
v -5.6 0 0.8
v -5.6 4 0.8
v -5.6 4.5 0.8
v 0 0 0.8
v 0 4 0.8
v 0 4.5 0.8
v 0.8 0 0.8
v 0.8 4 0.8
v 0.8 4.5 0.8
v 6.4 4.5 0.8
v 6.4 4.8 0.8
v -6.4 0 1.6
v -5.6 0 1.6
v 0 0 1.6
v 0.8 0 1.6
v -5.6 0 1.3
v 0 0 1.3
v 0.8 0 1.3
v 2.9 0 1.3
v 3.1 0 1.3
v 4.7 0 1.3
v 4.9 0 1.3
v 6.4 0 1.3
v 2.9 0 1.2
v 3.1 0 1.2
v 4.7 0 1.2
v 4.9 0 1.2
v -5.6 0 1.1
v 0 0 1.1
v 0.8 0 1.1
v 2.9 0 1.1
v 3.1 0 1.1
v 4.7 0 1.1
v 4.9 0 1.1
v 6.4 0 1.1
v -6.4 0 0.8
v -5.6 0 0.8
v 0 0 0.8
v 0.8 0 0.8
v 2.3 2.4 1.1
v 2.5 2.4 1.1
v 2.3 2.4 1
v 2.5 2.4 1
v 3.1 2.6 1.3
v 4.7 2.6 1.3
v 3.1 2.6 1.2
v 4.7 2.6 1.2
v 3.1 2.6 1.1
v 4.7 2.6 1.1
v -5.1 2.8 1.4
v -0.5 2.8 1.4
v -5.1 2.8 1.3
v -5 2.8 1.3
v -4.9 2.8 1.3
v -4 2.8 1.3
v -3.8 2.8 1.3
v -2.9 2.8 1.3
v -2.7 2.8 1.3
v -1.8 2.8 1.3
v -1.6 2.8 1.3
v -0.7 2.8 1.3
v -0.6 2.8 1.3
v -0.5 2.8 1.3
v -4.9 2.8 1.2
v -4 2.8 1.2
v -3.8 2.8 1.2
v -2.9 2.8 1.2
v -2.7 2.8 1.2
v -1.8 2.8 1.2
v -1.6 2.8 1.2
v -0.7 2.8 1.2
v -5 2.9 1.2
v -0.6 2.9 1.2
v -5 2.9 1.1
v -0.6 2.9 1.1
v -5.6 4.5 1.6
v 0 4.5 1.6
v 0.8 4.5 1.6
v 6.4 4.5 1.6
v -5.6 4.5 1.3
v 0 4.5 1.3
v 0.8 4.5 1.3
v 6.4 4.5 1.3
v -5.6 4.5 1.1
v 0 4.5 1.1
v 0.8 4.5 1.1
v 6.4 4.5 1.1
v -5.6 4.5 0.8
v 0 4.5 0.8
v 0.8 4.5 0.8
v 6.4 4.5 0.8
v -5 1.6 1.2
v -0.6 1.6 1.2
v -5 1.6 1.1
v -0.6 1.6 1.1
v -4.9 1.7 1.3
v -4 1.7 1.3
v -3.8 1.7 1.3
v -2.9 1.7 1.3
v -2.7 1.7 1.3
v -1.8 1.7 1.3
v -1.6 1.7 1.3
v -0.7 1.7 1.3
v -4.9 1.7 1.2
v -4 1.7 1.2
v -3.8 1.7 1.2
v -2.9 1.7 1.2
v -2.7 1.7 1.2
v -1.8 1.7 1.2
v -1.6 1.7 1.2
v -0.7 1.7 1.2
v 2.3 2.7 1.1
v 2.4 2.7 1.1
v 2.5 2.7 1.1
v 2.3 2.7 1
v 2.5 2.7 1
v -5.1 2.9 1.4
v -0.5 2.9 1.4
v -5.1 2.9 1.3
v -5 2.9 1.3
v -0.6 2.9 1.3
v -0.5 2.9 1.3
v -6.4 4.8 1.6
v 6.4 4.8 1.6
v -6.4 4.8 0.8
v 6.4 4.8 0.8

# faces
f 3/2/1 2/2/1 1/2/1
f 4/2/1 2/2/1 3/2/1
f 5/2/1 2/2/1 4/2/1
f 6/2/1 2/2/1 5/2/1
f 7/3/1 4/3/1 3/3/1
f 8/2/1 5/2/1 4/2/1
f 8/3/1 4/3/1 7/3/1
f 9/4/1 6/4/1 5/4/1
f 9/2/1 5/2/1 8/2/1
f 10/4/1 6/4/1 9/4/1
f 11/2/1 8/2/1 7/2/1
f 11/2/1 9/2/1 8/2/1
f 11/2/1 10/2/1 9/2/1
f 12/2/1 10/2/1 11/2/1
f 15/3/1 14/3/1 13/3/1
f 16/3/1 14/3/1 15/3/1
f 19/3/1 18/3/1 17/3/1
f 20/3/1 18/3/1 19/3/1
f 23/3/1 22/3/1 21/3/1
f 24/3/1 22/3/1 23/3/1
f 27/3/1 26/3/1 25/3/1
f 28/3/1 26/3/1 27/3/1
f 31/3/1 30/3/1 29/3/1
f 32/3/1 30/3/1 31/3/1
f 35/2/1 34/2/1 33/2/1
f 36/2/1 34/2/1 35/2/1
f 41/2/1 38/2/1 37/2/1
f 42/2/1 38/2/1 41/2/1
f 43/2/1 40/2/1 39/2/1
f 44/2/1 40/2/1 43/2/1
f 45/4/1 44/4/1 43/4/1
f 46/3/1 42/3/1 41/3/1
f 47/3/1 42/3/1 46/3/1
f 48/4/1 44/4/1 45/4/1
f 49/4/1 44/4/1 48/4/1
f 52/2/1 51/2/1 50/2/1
f 53/2/1 51/2/1 52/2/1
f 57/3/1 55/3/1 54/3/1
f 58/4/1 56/4/1 55/4/1
f 58/3/1 55/3/1 57/3/1
f 59/4/1 56/4/1 58/4/1
f 60/2/2 61/2/2 64/2/2
f 64/2/2 61/2/2 65/2/2
f 62/2/2 63/2/2 66/2/2
f 66/2/2 63/2/2 67/2/2
f 66/4/2 67/4/2 68/4/2
f 64/3/2 65/3/2 69/3/2
f 69/3/2 65/3/2 70/3/2
f 68/4/2 67/4/2 71/4/2
f 71/4/2 67/4/2 72/4/2
f 73/2/2 74/2/2 75/2/2
f 75/2/2 74/2/2 76/2/2
f 77/3/2 78/3/2 79/3/2
f 79/3/2 78/3/2 80/3/2
f 81/3/2 82/3/2 83/3/2
f 83/3/2 82/3/2 84/3/2
f 85/3/2 86/3/2 87/3/2
f 87/3/2 86/3/2 88/3/2
f 89/3/2 90/3/2 91/3/2
f 91/3/2 90/3/2 92/3/2
f 93/3/2 94/3/2 95/3/2
f 95/3/2 94/3/2 96/3/2
f 97/2/2 98/2/2 101/2/2
f 101/2/2 98/2/2 102/2/2
f 99/2/2 100/2/2 103/2/2
f 103/2/2 100/2/2 104/2/2
f 101/3/2 102/3/2 105/3/2
f 105/3/2 102/3/2 106/3/2
f 103/4/2 104/4/2 107/4/2
f 107/4/2 104/4/2 108/4/2
f 109/2/2 110/2/2 111/2/2
f 111/2/2 110/2/2 112/2/2
f 113/3/2 114/3/2 116/3/2
f 114/4/2 115/4/2 117/4/2
f 116/3/2 114/3/2 117/3/2
f 117/4/2 115/4/2 118/4/2
f 119/2/2 120/2/2 121/2/2
f 121/2/2 120/2/2 122/2/2
f 122/2/2 120/2/2 123/2/2
f 121/3/2 122/3/2 125/3/2
f 122/4/2 123/4/2 126/4/2
f 125/3/2 122/3/2 126/3/2
f 126/4/2 123/4/2 127/4/2
f 126/2/2 127/2/2 129/2/2
f 127/2/2 128/2/2 129/2/2
f 125/2/2 126/2/2 129/2/2
f 124/2/2 125/2/2 129/2/2
f 129/2/2 128/2/2 130/2/2
f 135/2/3 132/2/3 131/2/3
f 136/3/3 133/3/3 132/3/3
f 136/2/3 132/2/3 135/2/3
f 137/2/3 134/2/3 133/2/3
f 137/3/3 133/3/3 136/3/3
f 140/2/3 134/2/3 137/2/3
f 141/2/3 139/2/3 138/2/3
f 142/3/3 140/3/3 139/3/3
f 142/2/3 139/2/3 141/2/3
f 143/2/3 134/2/3 140/2/3
f 143/3/3 140/3/3 142/3/3
f 144/2/3 134/2/3 143/2/3
f 145/2/3 134/2/3 144/2/3
f 148/3/3 147/3/3 146/3/3
f 149/3/3 147/3/3 148/3/3
f 153/2/3 151/2/3 150/2/3
f 154/2/3 151/2/3 153/2/3
f 155/2/3 153/2/3 150/2/3
f 156/2/3 153/2/3 155/2/3
f 157/2/3 151/2/3 154/2/3
f 158/2/3 151/2/3 157/2/3
f 159/3/3 156/3/3 155/3/3
f 160/3/3 156/3/3 159/3/3
f 161/3/3 159/3/3 155/3/3
f 163/3/3 161/3/3 155/3/3
f 163/3/3 162/3/3 161/3/3
f 164/3/3 162/3/3 163/3/3
f 165/3/3 163/3/3 155/3/3
f 167/3/3 165/3/3 155/3/3
f 167/3/3 166/3/3 165/3/3
f 168/3/3 166/3/3 167/3/3
f 169/3/3 167/3/3 155/3/3
f 171/3/3 169/3/3 155/3/3
f 171/3/3 170/3/3 169/3/3
f 172/3/3 170/3/3 171/3/3
f 173/3/3 171/3/3 155/3/3
f 175/2/3 155/2/3 150/2/3
f 175/3/3 174/3/3 173/3/3
f 175/3/3 173/3/3 155/3/3
f 176/3/3 174/3/3 175/3/3
f 177/3/3 158/3/3 157/3/3
f 178/2/3 151/2/3 158/2/3
f 178/3/3 158/3/3 177/3/3
f 179/2/3 176/2/3 175/2/3
f 180/2/3 178/2/3 177/2/3
f 181/2/3 175/2/3 150/2/3
f 181/2/3 180/2/3 179/2/3
f 181/2/3 179/2/3 175/2/3
f 182/3/3 152/3/3 151/3/3
f 182/2/3 180/2/3 181/2/3
f 182/2/3 151/2/3 178/2/3
f 182/2/3 178/2/3 180/2/3
f 183/3/3 152/3/3 182/3/3
f 187/2/3 185/2/3 184/2/3
f 188/2/3 185/2/3 187/2/3
f 189/3/3 188/3/3 187/3/3
f 190/3/3 188/3/3 189/3/3
f 192/3/3 188/3/3 190/3/3
f 193/3/3 192/3/3 191/3/3
f 194/2/3 185/2/3 188/2/3
f 194/3/3 192/3/3 193/3/3
f 194/3/3 188/3/3 192/3/3
f 195/2/3 194/2/3 193/2/3
f 196/3/3 186/3/3 185/3/3
f 196/2/3 194/2/3 195/2/3
f 196/2/3 185/2/3 194/2/3
f 197/3/3 186/3/3 196/3/3
f 198/3/4 199/3/4 200/3/4
f 200/3/4 199/3/4 201/3/4
f 198/3/4 200/3/4 202/3/4
f 201/3/4 199/3/4 203/3/4
f 198/3/4 202/3/4 204/3/4
f 202/3/4 203/3/4 204/3/4
f 203/3/4 199/3/4 205/3/4
f 204/3/4 203/3/4 205/3/4
f 198/3/4 204/3/4 206/3/4
f 205/3/4 199/3/4 207/3/4
f 198/3/4 206/3/4 208/3/4
f 206/3/4 207/3/4 208/3/4
f 207/3/4 199/3/4 209/3/4
f 208/3/4 207/3/4 209/3/4
f 198/3/4 208/3/4 210/3/4
f 209/3/4 199/3/4 211/3/4
f 198/3/4 210/3/4 212/3/4
f 210/3/4 211/3/4 212/3/4
f 211/3/4 199/3/4 213/3/4
f 212/3/4 211/3/4 213/3/4
f 198/3/4 212/3/4 214/3/4
f 213/3/4 199/3/4 215/3/4
f 198/3/4 214/3/4 216/3/4
f 214/3/4 215/3/4 216/3/4
f 215/3/4 199/3/4 217/3/4
f 216/3/4 215/3/4 217/3/4
f 218/2/4 219/2/4 222/2/4
f 219/2/4 220/2/4 222/2/4
f 222/2/4 220/2/4 223/2/4
f 218/2/4 222/2/4 224/2/4
f 223/2/4 220/2/4 225/2/4
f 218/2/4 224/2/4 226/2/4
f 224/2/4 225/2/4 226/2/4
f 225/2/4 220/2/4 227/2/4
f 226/2/4 225/2/4 227/2/4
f 220/4/4 221/4/4 228/4/4
f 227/2/4 220/2/4 228/2/4
f 228/4/4 221/4/4 229/4/4
f 230/2/4 231/2/4 233/2/4
f 233/2/4 231/2/4 234/2/4
f 231/4/4 232/4/4 235/4/4
f 234/2/4 231/2/4 235/2/4
f 234/1/4 235/1/4 236/1/4
f 235/4/4 232/4/4 237/4/4
f 236/1/4 235/1/4 237/1/4
f 230/2/4 233/2/4 238/2/4
f 236/2/4 237/2/4 239/2/4
f 230/2/4 238/2/4 240/2/4
f 238/2/4 239/2/4 240/2/4
f 239/2/4 237/2/4 241/2/4
f 240/2/4 239/2/4 241/2/4
f 240/4/4 241/4/4 242/4/4
f 242/4/4 241/4/4 243/4/4
f 243/4/4 241/4/4 245/4/4
f 244/4/4 245/4/4 246/4/4
f 241/2/4 237/2/4 247/2/4
f 246/4/4 245/4/4 247/4/4
f 245/4/4 241/4/4 247/4/4
f 246/2/4 247/2/4 248/2/4
f 237/4/4 232/4/4 249/4/4
f 248/2/4 247/2/4 249/2/4
f 247/2/4 237/2/4 249/2/4
f 249/4/4 232/4/4 250/4/4
f 251/2/4 252/2/4 253/2/4
f 253/2/4 252/2/4 254/2/4
f 255/2/4 256/2/4 259/2/4
f 256/4/4 257/4/4 260/4/4
f 259/2/4 256/2/4 260/2/4
f 257/2/4 258/2/4 261/2/4
f 260/4/4 257/4/4 261/4/4
f 261/2/4 258/2/4 264/2/4
f 262/2/4 263/2/4 265/2/4
f 263/4/4 264/4/4 266/4/4
f 265/2/4 263/2/4 266/2/4
f 264/2/4 258/2/4 267/2/4
f 266/4/4 264/4/4 267/4/4
f 267/2/4 258/2/4 268/2/4
f 268/2/4 258/2/4 269/2/4
f 274/2/5 271/2/5 270/2/5
f 275/2/5 273/2/5 272/2/5
f 276/2/5 273/2/5 275/2/5
f 282/2/5 275/2/5 274/2/5
f 282/2/5 276/2/5 275/2/5
f 282/2/5 277/2/5 276/2/5
f 282/3/5 278/3/5 277/3/5
f 283/3/5 278/3/5 282/3/5
f 284/3/5 280/3/5 279/3/5
f 285/2/5 281/2/5 280/2/5
f 285/3/5 280/3/5 284/3/5
f 286/2/5 274/2/5 270/2/5
f 286/2/5 282/2/5 274/2/5
f 287/2/5 282/2/5 286/2/5
f 288/2/5 282/2/5 287/2/5
f 289/4/5 283/4/5 282/4/5
f 289/2/5 282/2/5 288/2/5
f 290/4/5 283/4/5 289/4/5
f 291/4/5 285/4/5 284/4/5
f 292/2/5 281/2/5 285/2/5
f 292/4/5 285/4/5 291/4/5
f 293/2/5 281/2/5 292/2/5
f 294/2/5 286/2/5 270/2/5
f 295/2/5 286/2/5 294/2/5
f 296/2/5 288/2/5 287/2/5
f 297/2/5 288/2/5 296/2/5
f 300/2/5 299/2/5 298/2/5
f 301/2/5 299/2/5 300/2/5
f 304/3/5 303/3/5 302/3/5
f 305/3/5 303/3/5 304/3/5
f 306/4/5 305/4/5 304/4/5
f 307/4/5 305/4/5 306/4/5
f 310/3/5 309/3/5 308/3/5
f 311/3/5 309/3/5 310/3/5
f 312/3/5 309/3/5 311/3/5
f 313/3/5 309/3/5 312/3/5
f 314/3/5 309/3/5 313/3/5
f 315/3/5 309/3/5 314/3/5
f 316/3/5 309/3/5 315/3/5
f 317/3/5 309/3/5 316/3/5
f 318/3/5 309/3/5 317/3/5
f 319/3/5 309/3/5 318/3/5
f 320/3/5 309/3/5 319/3/5
f 321/3/5 309/3/5 320/3/5
f 322/3/5 313/3/5 312/3/5
f 323/3/5 313/3/5 322/3/5
f 324/3/5 315/3/5 314/3/5
f 325/3/5 315/3/5 324/3/5
f 326/3/5 317/3/5 316/3/5
f 327/3/5 317/3/5 326/3/5
f 328/3/5 319/3/5 318/3/5
f 329/3/5 319/3/5 328/3/5
f 332/2/5 331/2/5 330/2/5
f 333/2/5 331/2/5 332/2/5
f 338/2/5 335/2/5 334/2/5
f 339/2/5 335/2/5 338/2/5
f 340/2/5 337/2/5 336/2/5
f 341/2/5 337/2/5 340/2/5
f 346/2/5 343/2/5 342/2/5
f 347/2/5 343/2/5 346/2/5
f 348/2/5 345/2/5 344/2/5
f 349/2/5 345/2/5 348/2/5
f 350/2/6 351/2/6 352/2/6
f 352/2/6 351/2/6 353/2/6
f 354/3/6 355/3/6 362/3/6
f 362/3/6 355/3/6 363/3/6
f 356/3/6 357/3/6 364/3/6
f 364/3/6 357/3/6 365/3/6
f 358/3/6 359/3/6 366/3/6
f 366/3/6 359/3/6 367/3/6
f 360/3/6 361/3/6 368/3/6
f 368/3/6 361/3/6 369/3/6
f 370/2/6 371/2/6 373/2/6
f 371/2/6 372/2/6 373/2/6
f 373/2/6 372/2/6 374/2/6
f 375/3/6 376/3/6 377/3/6
f 377/3/6 376/3/6 378/3/6
f 378/3/6 376/3/6 379/3/6
f 379/3/6 376/3/6 380/3/6
f 381/2/6 382/2/6 383/2/6
f 383/2/6 382/2/6 384/2/6
