# MagicaVoxel @ Ephtracy

# group
o 

# material
mtllib penghubung_corridor_toilet_lantai_3.mtl
usemtl palette

# normals
vn -1 0 0
vn 1 0 0
vn 0 0 1
vn 0 0 -1
vn 0 -1 0
vn 0 1 0

# texcoords
vt 0.349609 0.5
vt 0.443359 0.5
vt 0.728516 0.5

# verts
v -6.4 0 1.6
v -6.4 0 0.8
v -6.4 2.8 1.6
v -6.4 2.8 1.3
v -6.4 2.8 1.1
v -6.4 2.8 0.8
v -6.4 3.3 1.6
v -6.4 3.3 1.3
v -6.4 3.3 1.1
v -6.4 3.3 0.8
v -6.4 3.6 1.6
v -6.4 3.6 0.8
v -5.1 2.3 1.4
v -5.1 2.3 1.3
v -5.1 2.4 1.4
v -5.1 2.4 1.3
v -4 1.2 1.3
v -4 1.2 1.2
v -4 2.3 1.3
v -4 2.3 1.2
v -2.9 1.2 1.3
v -2.9 1.2 1.2
v -2.9 2.3 1.3
v -2.9 2.3 1.2
v -1.8 1.2 1.3
v -1.8 1.2 1.2
v -1.8 2.3 1.3
v -1.8 2.3 1.2
v -0.7 1.2 1.3
v -0.7 1.2 1.2
v -0.7 2.3 1.3
v -0.7 2.3 1.2
v -0.6 1.1 1.2
v -0.6 1.1 1.1
v -0.6 2.4 1.2
v -0.6 2.4 1.1
v 0 0 1.6
v 0 0 1.3
v 0 0 1.1
v 0 0 0.8
v 0 2.8 1.6
v 0 2.8 1.3
v 0 2.8 1.1
v 0 2.8 0.8
v 0 2.9 1.1
v 0 3.3 1.6
v 0 3.3 1.3
v 0 3.3 1.1
v 0 3.3 0.8
v 2.3 1.2 1.1
v 2.3 1.2 1
v 2.3 1.5 1.1
v 2.3 1.5 1
v 4.7 0 1.3
v 4.7 0 1.2
v 4.7 0 1.1
v 4.7 2.1 1.3
v 4.7 2.1 1.2
v 4.7 2.1 1.1
v -5.6 0 1.6
v -5.6 0 1.3
v -5.6 0 1.1
v -5.6 0 0.8
v -5.6 2.8 1.6
v -5.6 2.8 1.3
v -5.6 2.8 1.1
v -5.6 2.8 0.8
v -5.6 2.9 1.1
v -5.6 3.3 1.6
v -5.6 3.3 1.3
v -5.6 3.3 1.1
v -5.6 3.3 0.8
v -5 1.1 1.2
v -5 1.1 1.1
v -5 2.4 1.2
v -5 2.4 1.1
v -4.9 1.2 1.3
v -4.9 1.2 1.2
v -4.9 2.3 1.3
v -4.9 2.3 1.2
v -3.8 1.2 1.3
v -3.8 1.2 1.2
v -3.8 2.3 1.3
v -3.8 2.3 1.2
v -2.7 1.2 1.3
v -2.7 1.2 1.2
v -2.7 2.3 1.3
v -2.7 2.3 1.2
v -1.6 1.2 1.3
v -1.6 1.2 1.2
v -1.6 2.3 1.3
v -1.6 2.3 1.2
v -0.5 2.3 1.4
v -0.5 2.3 1.3
v -0.5 2.4 1.4
v -0.5 2.4 1.3
v 0.8 0 1.6
v 0.8 0 1.3
v 0.8 0 1.1
v 0.8 0 0.8
v 0.8 2.8 1.6
v 0.8 2.8 1.3
v 0.8 2.8 1.1
v 0.8 2.8 0.8
v 0.8 3.3 1.6
v 0.8 3.3 1.3
v 0.8 3.3 1.1
v 0.8 3.3 0.8
v 2.5 1.2 1.1
v 2.5 1.2 1
v 2.5 1.5 1.1
v 2.5 1.5 1
v 3.1 0 1.3
v 3.1 0 1.2
v 3.1 0 1.1
v 3.1 2.1 1.3
v 3.1 2.1 1.2
v 3.1 2.1 1.1
v 6.4 0 1.3
v 6.4 0 1.1
v 6.4 2.8 1.3
v 6.4 2.8 1.2
v 6.4 2.8 1.1
v 6.4 3.3 1.6
v 6.4 3.3 1.3
v 6.4 3.3 1.2
v 6.4 3.3 1.1
v 6.4 3.3 0.8
v 6.4 3.6 1.6
v 6.4 3.6 0.8
v -6.4 0 1.6
v -6.4 2.8 1.6
v -6.4 3.3 1.6
v -6.4 3.6 1.6
v -5.6 0 1.6
v -5.6 2.8 1.6
v -5.6 3.3 1.6
v 0 0 1.6
v 0 2.8 1.6
v 0 3.3 1.6
v 0.8 0 1.6
v 0.8 2.8 1.6
v 0.8 3.3 1.6
v 6.4 3.3 1.6
v 6.4 3.6 1.6
v -5.1 2.3 1.4
v -5.1 2.4 1.4
v -0.5 2.3 1.4
v -0.5 2.4 1.4
v -5.6 0 1.3
v -5.6 2.8 1.3
v -5.6 3.3 1.3
v -5.1 2.3 1.3
v -5.1 2.4 1.3
v -5 1.1 1.3
v -5 2.3 1.3
v -5 2.4 1.3
v -5 2.5 1.3
v -4.9 1.2 1.3
v -4.9 2.3 1.3
v -4 1.2 1.3
v -4 2.3 1.3
v -3.8 1.2 1.3
v -3.8 2.3 1.3
v -2.9 1.2 1.3
v -2.9 2.3 1.3
v -2.7 1.2 1.3
v -2.7 2.3 1.3
v -1.8 1.2 1.3
v -1.8 2.3 1.3
v -1.6 1.2 1.3
v -1.6 2.3 1.3
v -0.7 1.2 1.3
v -0.7 2.3 1.3
v -0.6 1.1 1.3
v -0.6 2.3 1.3
v -0.6 2.4 1.3
v -0.6 2.5 1.3
v -0.5 2.3 1.3
v -0.5 2.4 1.3
v 0 0 1.3
v 0 2.8 1.3
v 0 3.3 1.3
v 0.8 0 1.3
v 0.8 2.8 1.3
v 0.8 3.3 1.3
v 2.9 0 1.3
v 2.9 2.3 1.3
v 3.1 0 1.3
v 3.1 2.1 1.3
v 4.7 0 1.3
v 4.7 2.1 1.3
v 4.9 0 1.3
v 4.9 2.3 1.3
v 6.4 0 1.3
v 6.4 2.8 1.3
v 6.4 3.3 1.3
v -5 1.1 1.2
v -5 2.4 1.2
v -4.9 1.2 1.2
v -4.9 2.3 1.2
v -4 1.2 1.2
v -4 2.3 1.2
v -3.8 1.2 1.2
v -3.8 2.3 1.2
v -2.9 1.2 1.2
v -2.9 2.3 1.2
v -2.7 1.2 1.2
v -2.7 2.3 1.2
v -1.8 1.2 1.2
v -1.8 2.3 1.2
v -1.6 1.2 1.2
v -1.6 2.3 1.2
v -0.7 1.2 1.2
v -0.7 2.3 1.2
v -0.6 1.1 1.2
v -0.6 2.4 1.2
v -5.6 0 1.1
v -5.6 2.8 1.1
v -5.6 2.9 1.1
v -5.6 3.3 1.1
v -5 1.1 1.1
v -5 2.4 1.1
v -0.6 1.1 1.1
v -0.6 2.4 1.1
v 0 0 1.1
v 0 2.8 1.1
v 0 2.9 1.1
v 0 3.3 1.1
v 0.8 0 1.1
v 0.8 2.8 1.1
v 0.8 3.3 1.1
v 2.3 1.2 1.1
v 2.3 1.5 1.1
v 2.3 2.8 1.1
v 2.4 1.5 1.1
v 2.4 2.8 1.1
v 2.5 1.2 1.1
v 2.5 1.5 1.1
v 2.9 0 1.1
v 2.9 2.3 1.1
v 3.1 0 1.1
v 3.1 2.1 1.1
v 4.7 0 1.1
v 4.7 2.1 1.1
v 4.9 0 1.1
v 4.9 2.3 1.1
v 6.4 0 1.1
v 6.4 2.8 1.1
v 6.4 3.3 1.1
v 2.3 1.2 1
v 2.3 1.5 1
v 2.5 1.2 1
v 2.5 1.5 1
v -6.4 0 0.8
v -6.4 2.8 0.8
v -6.4 3.3 0.8
v -6.4 3.6 0.8
v -5.6 0 0.8
v -5.6 2.8 0.8
v -5.6 3.3 0.8
v 0 0 0.8
v 0 2.8 0.8
v 0 3.3 0.8
v 0.8 0 0.8
v 0.8 2.8 0.8
v 0.8 3.3 0.8
v 6.4 3.3 0.8
v 6.4 3.6 0.8
v -6.4 0 1.6
v -5.6 0 1.6
v 0 0 1.6
v 0.8 0 1.6
v -5.6 0 1.3
v 0 0 1.3
v 0.8 0 1.3
v 2.9 0 1.3
v 3.1 0 1.3
v 4.7 0 1.3
v 4.9 0 1.3
v 6.4 0 1.3
v 2.9 0 1.2
v 3.1 0 1.2
v 4.7 0 1.2
v 4.9 0 1.2
v -5.6 0 1.1
v 0 0 1.1
v 0.8 0 1.1
v 2.9 0 1.1
v 3.1 0 1.1
v 4.7 0 1.1
v 4.9 0 1.1
v 6.4 0 1.1
v -6.4 0 0.8
v -5.6 0 0.8
v 0 0 0.8
v 0.8 0 0.8
v 2.3 1.2 1.1
v 2.5 1.2 1.1
v 2.3 1.2 1
v 2.5 1.2 1
v 3.1 2.1 1.3
v 4.7 2.1 1.3
v 3.1 2.1 1.2
v 4.7 2.1 1.2
v 3.1 2.1 1.1
v 4.7 2.1 1.1
v -5.1 2.3 1.4
v -0.5 2.3 1.4
v -5.1 2.3 1.3
v -5 2.3 1.3
v -4.9 2.3 1.3
v -4 2.3 1.3
v -3.8 2.3 1.3
v -2.9 2.3 1.3
v -2.7 2.3 1.3
v -1.8 2.3 1.3
v -1.6 2.3 1.3
v -0.7 2.3 1.3
v -0.6 2.3 1.3
v -0.5 2.3 1.3
v -4.9 2.3 1.2
v -4 2.3 1.2
v -3.8 2.3 1.2
v -2.9 2.3 1.2
v -2.7 2.3 1.2
v -1.8 2.3 1.2
v -1.6 2.3 1.2
v -0.7 2.3 1.2
v -5 2.4 1.2
v -0.6 2.4 1.2
v -5 2.4 1.1
v -0.6 2.4 1.1
v -5.6 3.3 1.6
v 0 3.3 1.6
v 0.8 3.3 1.6
v 6.4 3.3 1.6
v -5.6 3.3 1.3
v 0 3.3 1.3
v 0.8 3.3 1.3
v 6.4 3.3 1.3
v -5.6 3.3 1.1
v 0 3.3 1.1
v 0.8 3.3 1.1
v 6.4 3.3 1.1
v -5.6 3.3 0.8
v 0 3.3 0.8
v 0.8 3.3 0.8
v 6.4 3.3 0.8
v -5 1.1 1.2
v -0.6 1.1 1.2
v -5 1.1 1.1
v -0.6 1.1 1.1
v -4.9 1.2 1.3
v -4 1.2 1.3
v -3.8 1.2 1.3
v -2.9 1.2 1.3
v -2.7 1.2 1.3
v -1.8 1.2 1.3
v -1.6 1.2 1.3
v -0.7 1.2 1.3
v -4.9 1.2 1.2
v -4 1.2 1.2
v -3.8 1.2 1.2
v -2.9 1.2 1.2
v -2.7 1.2 1.2
v -1.8 1.2 1.2
v -1.6 1.2 1.2
v -0.7 1.2 1.2
v 2.3 1.5 1.1
v 2.4 1.5 1.1
v 2.5 1.5 1.1
v 2.3 1.5 1
v 2.5 1.5 1
v -5.1 2.4 1.4
v -0.5 2.4 1.4
v -5.1 2.4 1.3
v -5 2.4 1.3
v -0.6 2.4 1.3
v -0.5 2.4 1.3
v -6.4 3.6 1.6
v 6.4 3.6 1.6
v -6.4 3.6 0.8
v 6.4 3.6 0.8

# faces
f 3/1/1 2/1/1 1/1/1
f 4/1/1 2/1/1 3/1/1
f 5/1/1 2/1/1 4/1/1
f 6/1/1 2/1/1 5/1/1
f 7/2/1 4/2/1 3/2/1
f 8/1/1 5/1/1 4/1/1
f 8/2/1 4/2/1 7/2/1
f 9/3/1 6/3/1 5/3/1
f 9/1/1 5/1/1 8/1/1
f 10/3/1 6/3/1 9/3/1
f 11/1/1 8/1/1 7/1/1
f 11/1/1 9/1/1 8/1/1
f 11/1/1 10/1/1 9/1/1
f 12/1/1 10/1/1 11/1/1
f 15/2/1 14/2/1 13/2/1
f 16/2/1 14/2/1 15/2/1
f 19/2/1 18/2/1 17/2/1
f 20/2/1 18/2/1 19/2/1
f 23/2/1 22/2/1 21/2/1
f 24/2/1 22/2/1 23/2/1
f 27/2/1 26/2/1 25/2/1
f 28/2/1 26/2/1 27/2/1
f 31/2/1 30/2/1 29/2/1
f 32/2/1 30/2/1 31/2/1
f 35/1/1 34/1/1 33/1/1
f 36/1/1 34/1/1 35/1/1
f 41/1/1 38/1/1 37/1/1
f 42/1/1 38/1/1 41/1/1
f 43/1/1 40/1/1 39/1/1
f 44/1/1 40/1/1 43/1/1
f 45/3/1 44/3/1 43/3/1
f 46/2/1 42/2/1 41/2/1
f 47/2/1 42/2/1 46/2/1
f 48/3/1 44/3/1 45/3/1
f 49/3/1 44/3/1 48/3/1
f 52/1/1 51/1/1 50/1/1
f 53/1/1 51/1/1 52/1/1
f 57/2/1 55/2/1 54/2/1
f 58/3/1 56/3/1 55/3/1
f 58/2/1 55/2/1 57/2/1
f 59/3/1 56/3/1 58/3/1
f 60/1/2 61/1/2 64/1/2
f 64/1/2 61/1/2 65/1/2
f 62/1/2 63/1/2 66/1/2
f 66/1/2 63/1/2 67/1/2
f 66/3/2 67/3/2 68/3/2
f 64/2/2 65/2/2 69/2/2
f 69/2/2 65/2/2 70/2/2
f 68/3/2 67/3/2 71/3/2
f 71/3/2 67/3/2 72/3/2
f 73/1/2 74/1/2 75/1/2
f 75/1/2 74/1/2 76/1/2
f 77/2/2 78/2/2 79/2/2
f 79/2/2 78/2/2 80/2/2
f 81/2/2 82/2/2 83/2/2
f 83/2/2 82/2/2 84/2/2
f 85/2/2 86/2/2 87/2/2
f 87/2/2 86/2/2 88/2/2
f 89/2/2 90/2/2 91/2/2
f 91/2/2 90/2/2 92/2/2
f 93/2/2 94/2/2 95/2/2
f 95/2/2 94/2/2 96/2/2
f 97/1/2 98/1/2 101/1/2
f 101/1/2 98/1/2 102/1/2
f 99/1/2 100/1/2 103/1/2
f 103/1/2 100/1/2 104/1/2
f 101/2/2 102/2/2 105/2/2
f 105/2/2 102/2/2 106/2/2
f 103/3/2 104/3/2 107/3/2
f 107/3/2 104/3/2 108/3/2
f 109/1/2 110/1/2 111/1/2
f 111/1/2 110/1/2 112/1/2
f 113/2/2 114/2/2 116/2/2
f 114/3/2 115/3/2 117/3/2
f 116/2/2 114/2/2 117/2/2
f 117/3/2 115/3/2 118/3/2
f 119/1/2 120/1/2 121/1/2
f 121/1/2 120/1/2 122/1/2
f 122/1/2 120/1/2 123/1/2
f 121/2/2 122/2/2 125/2/2
f 122/3/2 123/3/2 126/3/2
f 125/2/2 122/2/2 126/2/2
f 126/3/2 123/3/2 127/3/2
f 126/1/2 127/1/2 129/1/2
f 127/1/2 128/1/2 129/1/2
f 125/1/2 126/1/2 129/1/2
f 124/1/2 125/1/2 129/1/2
f 129/1/2 128/1/2 130/1/2
f 135/1/3 132/1/3 131/1/3
f 136/2/3 133/2/3 132/2/3
f 136/1/3 132/1/3 135/1/3
f 137/1/3 134/1/3 133/1/3
f 137/2/3 133/2/3 136/2/3
f 140/1/3 134/1/3 137/1/3
f 141/1/3 139/1/3 138/1/3
f 142/2/3 140/2/3 139/2/3
f 142/1/3 139/1/3 141/1/3
f 143/1/3 134/1/3 140/1/3
f 143/2/3 140/2/3 142/2/3
f 144/1/3 134/1/3 143/1/3
f 145/1/3 134/1/3 144/1/3
f 148/2/3 147/2/3 146/2/3
f 149/2/3 147/2/3 148/2/3
f 153/1/3 151/1/3 150/1/3
f 154/1/3 151/1/3 153/1/3
f 155/1/3 153/1/3 150/1/3
f 156/1/3 153/1/3 155/1/3
f 157/1/3 151/1/3 154/1/3
f 158/1/3 151/1/3 157/1/3
f 159/2/3 156/2/3 155/2/3
f 160/2/3 156/2/3 159/2/3
f 161/2/3 159/2/3 155/2/3
f 163/2/3 161/2/3 155/2/3
f 163/2/3 162/2/3 161/2/3
f 164/2/3 162/2/3 163/2/3
f 165/2/3 163/2/3 155/2/3
f 167/2/3 165/2/3 155/2/3
f 167/2/3 166/2/3 165/2/3
f 168/2/3 166/2/3 167/2/3
f 169/2/3 167/2/3 155/2/3
f 171/2/3 169/2/3 155/2/3
f 171/2/3 170/2/3 169/2/3
f 172/2/3 170/2/3 171/2/3
f 173/2/3 171/2/3 155/2/3
f 175/1/3 155/1/3 150/1/3
f 175/2/3 174/2/3 173/2/3
f 175/2/3 173/2/3 155/2/3
f 176/2/3 174/2/3 175/2/3
f 177/2/3 158/2/3 157/2/3
f 178/1/3 151/1/3 158/1/3
f 178/2/3 158/2/3 177/2/3
f 179/1/3 176/1/3 175/1/3
f 180/1/3 178/1/3 177/1/3
f 181/1/3 175/1/3 150/1/3
f 181/1/3 180/1/3 179/1/3
f 181/1/3 179/1/3 175/1/3
f 182/2/3 152/2/3 151/2/3
f 182/1/3 180/1/3 181/1/3
f 182/1/3 151/1/3 178/1/3
f 182/1/3 178/1/3 180/1/3
f 183/2/3 152/2/3 182/2/3
f 187/1/3 185/1/3 184/1/3
f 188/1/3 185/1/3 187/1/3
f 189/2/3 188/2/3 187/2/3
f 190/2/3 188/2/3 189/2/3
f 192/2/3 188/2/3 190/2/3
f 193/2/3 192/2/3 191/2/3
f 194/1/3 185/1/3 188/1/3
f 194/2/3 192/2/3 193/2/3
f 194/2/3 188/2/3 192/2/3
f 195/1/3 194/1/3 193/1/3
f 196/2/3 186/2/3 185/2/3
f 196/1/3 194/1/3 195/1/3
f 196/1/3 185/1/3 194/1/3
f 197/2/3 186/2/3 196/2/3
f 198/2/4 199/2/4 200/2/4
f 200/2/4 199/2/4 201/2/4
f 198/2/4 200/2/4 202/2/4
f 201/2/4 199/2/4 203/2/4
f 198/2/4 202/2/4 204/2/4
f 202/2/4 203/2/4 204/2/4
f 203/2/4 199/2/4 205/2/4
f 204/2/4 203/2/4 205/2/4
f 198/2/4 204/2/4 206/2/4
f 205/2/4 199/2/4 207/2/4
f 198/2/4 206/2/4 208/2/4
f 206/2/4 207/2/4 208/2/4
f 207/2/4 199/2/4 209/2/4
f 208/2/4 207/2/4 209/2/4
f 198/2/4 208/2/4 210/2/4
f 209/2/4 199/2/4 211/2/4
f 198/2/4 210/2/4 212/2/4
f 210/2/4 211/2/4 212/2/4
f 211/2/4 199/2/4 213/2/4
f 212/2/4 211/2/4 213/2/4
f 198/2/4 212/2/4 214/2/4
f 213/2/4 199/2/4 215/2/4
f 198/2/4 214/2/4 216/2/4
f 214/2/4 215/2/4 216/2/4
f 215/2/4 199/2/4 217/2/4
f 216/2/4 215/2/4 217/2/4
f 218/1/4 219/1/4 222/1/4
f 219/1/4 220/1/4 222/1/4
f 222/1/4 220/1/4 223/1/4
f 218/1/4 222/1/4 224/1/4
f 223/1/4 220/1/4 225/1/4
f 218/1/4 224/1/4 226/1/4
f 224/1/4 225/1/4 226/1/4
f 225/1/4 220/1/4 227/1/4
f 226/1/4 225/1/4 227/1/4
f 220/3/4 221/3/4 228/3/4
f 227/1/4 220/1/4 228/1/4
f 228/3/4 221/3/4 229/3/4
f 230/1/4 231/1/4 233/1/4
f 233/1/4 231/1/4 234/1/4
f 231/3/4 232/3/4 235/3/4
f 234/1/4 231/1/4 235/1/4
f 234/2/4 235/2/4 236/2/4
f 235/3/4 232/3/4 237/3/4
f 236/2/4 235/2/4 237/2/4
f 230/1/4 233/1/4 238/1/4
f 236/1/4 237/1/4 239/1/4
f 230/1/4 238/1/4 240/1/4
f 238/1/4 239/1/4 240/1/4
f 239/1/4 237/1/4 241/1/4
f 240/1/4 239/1/4 241/1/4
f 240/3/4 241/3/4 242/3/4
f 242/3/4 241/3/4 243/3/4
f 243/3/4 241/3/4 245/3/4
f 244/3/4 245/3/4 246/3/4
f 241/1/4 237/1/4 247/1/4
f 246/3/4 245/3/4 247/3/4
f 245/3/4 241/3/4 247/3/4
f 246/1/4 247/1/4 248/1/4
f 237/3/4 232/3/4 249/3/4
f 248/1/4 247/1/4 249/1/4
f 247/1/4 237/1/4 249/1/4
f 249/3/4 232/3/4 250/3/4
f 251/1/4 252/1/4 253/1/4
f 253/1/4 252/1/4 254/1/4
f 255/1/4 256/1/4 259/1/4
f 256/3/4 257/3/4 260/3/4
f 259/1/4 256/1/4 260/1/4
f 257/1/4 258/1/4 261/1/4
f 260/3/4 257/3/4 261/3/4
f 261/1/4 258/1/4 264/1/4
f 262/1/4 263/1/4 265/1/4
f 263/3/4 264/3/4 266/3/4
f 265/1/4 263/1/4 266/1/4
f 264/1/4 258/1/4 267/1/4
f 266/3/4 264/3/4 267/3/4
f 267/1/4 258/1/4 268/1/4
f 268/1/4 258/1/4 269/1/4
f 274/1/5 271/1/5 270/1/5
f 275/1/5 273/1/5 272/1/5
f 276/1/5 273/1/5 275/1/5
f 282/1/5 275/1/5 274/1/5
f 282/1/5 276/1/5 275/1/5
f 282/1/5 277/1/5 276/1/5
f 282/2/5 278/2/5 277/2/5
f 283/2/5 278/2/5 282/2/5
f 284/2/5 280/2/5 279/2/5
f 285/1/5 281/1/5 280/1/5
f 285/2/5 280/2/5 284/2/5
f 286/1/5 274/1/5 270/1/5
f 286/1/5 282/1/5 274/1/5
f 287/1/5 282/1/5 286/1/5
f 288/1/5 282/1/5 287/1/5
f 289/3/5 283/3/5 282/3/5
f 289/1/5 282/1/5 288/1/5
f 290/3/5 283/3/5 289/3/5
f 291/3/5 285/3/5 284/3/5
f 292/1/5 281/1/5 285/1/5
f 292/3/5 285/3/5 291/3/5
f 293/1/5 281/1/5 292/1/5
f 294/1/5 286/1/5 270/1/5
f 295/1/5 286/1/5 294/1/5
f 296/1/5 288/1/5 287/1/5
f 297/1/5 288/1/5 296/1/5
f 300/1/5 299/1/5 298/1/5
f 301/1/5 299/1/5 300/1/5
f 304/2/5 303/2/5 302/2/5
f 305/2/5 303/2/5 304/2/5
f 306/3/5 305/3/5 304/3/5
f 307/3/5 305/3/5 306/3/5
f 310/2/5 309/2/5 308/2/5
f 311/2/5 309/2/5 310/2/5
f 312/2/5 309/2/5 311/2/5
f 313/2/5 309/2/5 312/2/5
f 314/2/5 309/2/5 313/2/5
f 315/2/5 309/2/5 314/2/5
f 316/2/5 309/2/5 315/2/5
f 317/2/5 309/2/5 316/2/5
f 318/2/5 309/2/5 317/2/5
f 319/2/5 309/2/5 318/2/5
f 320/2/5 309/2/5 319/2/5
f 321/2/5 309/2/5 320/2/5
f 322/2/5 313/2/5 312/2/5
f 323/2/5 313/2/5 322/2/5
f 324/2/5 315/2/5 314/2/5
f 325/2/5 315/2/5 324/2/5
f 326/2/5 317/2/5 316/2/5
f 327/2/5 317/2/5 326/2/5
f 328/2/5 319/2/5 318/2/5
f 329/2/5 319/2/5 328/2/5
f 332/1/5 331/1/5 330/1/5
f 333/1/5 331/1/5 332/1/5
f 338/1/5 335/1/5 334/1/5
f 339/1/5 335/1/5 338/1/5
f 340/1/5 337/1/5 336/1/5
f 341/1/5 337/1/5 340/1/5
f 346/1/5 343/1/5 342/1/5
f 347/1/5 343/1/5 346/1/5
f 348/1/5 345/1/5 344/1/5
f 349/1/5 345/1/5 348/1/5
f 350/1/6 351/1/6 352/1/6
f 352/1/6 351/1/6 353/1/6
f 354/2/6 355/2/6 362/2/6
f 362/2/6 355/2/6 363/2/6
f 356/2/6 357/2/6 364/2/6
f 364/2/6 357/2/6 365/2/6
f 358/2/6 359/2/6 366/2/6
f 366/2/6 359/2/6 367/2/6
f 360/2/6 361/2/6 368/2/6
f 368/2/6 361/2/6 369/2/6
f 370/1/6 371/1/6 373/1/6
f 371/1/6 372/1/6 373/1/6
f 373/1/6 372/1/6 374/1/6
f 375/2/6 376/2/6 377/2/6
f 377/2/6 376/2/6 378/2/6
f 378/2/6 376/2/6 379/2/6
f 379/2/6 376/2/6 380/2/6
f 381/1/6 382/1/6 383/1/6
f 383/1/6 382/1/6 384/1/6
