# MagicaVoxel @ Ephtracy

# group
o 

# material
mtllib outside_ceiling_lamp.mtl
usemtl palette

# normals
vn -1 0 0
vn 1 0 0
vn 0 0 1
vn 0 0 -1
vn 0 -1 0
vn 0 1 0

# texcoords
vt 0.169922 0.5
vt 0.173828 0.5
vt 0.302734 0.5
vt 0.306641 0.5
vt 0.310547 0.5

# verts
v -3.2 3.8 4.8
v -3.2 3.8 0.0999999
v -3.2 3.8 -0.0999999
v -3.2 3.8 -4.8
v -3.2 3.9 0.0999999
v -3.2 3.9 -0.0999999
v -3.2 4 4.8
v -3.2 4 -4.8
v -0.7 3.6 0.2
v -0.7 3.6 -0.2
v -0.7 3.8 0.2
v -0.7 3.8 0.0999999
v -0.7 3.8 -0.0999999
v -0.7 3.8 -0.2
v -0.6 3.6 0.4
v -0.6 3.6 0.2
v -0.6 3.6 -0.2
v -0.6 3.6 -0.4
v -0.6 3.8 0.4
v -0.6 3.8 0.2
v -0.6 3.8 -0.2
v -0.6 3.8 -0.4
v -0.5 3.6 0.5
v -0.5 3.6 0.4
v -0.5 3.6 -0.4
v -0.5 3.6 -0.5
v -0.5 3.8 0.5
v -0.5 3.8 0.4
v -0.5 3.8 -0.4
v -0.5 3.8 -0.5
v -0.4 3.6 0.6
v -0.4 3.6 0.5
v -0.4 3.6 -0.5
v -0.4 3.6 -0.6
v -0.4 3.8 0.6
v -0.4 3.8 0.5
v -0.4 3.8 -0.5
v -0.4 3.8 -0.6
v -0.2 3.6 0.7
v -0.2 3.6 0.6
v -0.2 3.6 -0.6
v -0.2 3.6 -0.7
v -0.2 3.8 0.7
v -0.2 3.8 0.6
v -0.2 3.8 -0.6
v -0.2 3.8 -0.7
v 0.2 3.6 0.6
v 0.2 3.6 0.5
v 0.2 3.6 -0.5
v 0.2 3.6 -0.6
v 0.2 3.7 0.6
v 0.2 3.7 0.5
v 0.2 3.7 -0.5
v 0.2 3.7 -0.6
v 0.4 3.6 0.5
v 0.4 3.6 0.4
v 0.4 3.6 -0.4
v 0.4 3.6 -0.5
v 0.4 3.7 0.5
v 0.4 3.7 0.4
v 0.4 3.7 -0.4
v 0.4 3.7 -0.5
v 0.5 3.6 0.4
v 0.5 3.6 0.2
v 0.5 3.6 -0.2
v 0.5 3.6 -0.4
v 0.5 3.7 0.4
v 0.5 3.7 0.2
v 0.5 3.7 -0.2
v 0.5 3.7 -0.4
v 0.6 3.6 0.2
v 0.6 3.6 -0.2
v 0.6 3.7 0.2
v 0.6 3.7 -0.2
v -0.6 3.6 0.2
v -0.6 3.6 -0.2
v -0.6 3.7 0.2
v -0.6 3.7 -0.2
v -0.5 3.6 0.4
v -0.5 3.6 0.2
v -0.5 3.6 -0.2
v -0.5 3.6 -0.4
v -0.5 3.7 0.4
v -0.5 3.7 0.2
v -0.5 3.7 -0.2
v -0.5 3.7 -0.4
v -0.4 3.6 0.5
v -0.4 3.6 0.4
v -0.4 3.6 -0.4
v -0.4 3.6 -0.5
v -0.4 3.7 0.5
v -0.4 3.7 0.4
v -0.4 3.7 -0.4
v -0.4 3.7 -0.5
v -0.2 3.6 0.6
v -0.2 3.6 0.5
v -0.2 3.6 -0.5
v -0.2 3.6 -0.6
v -0.2 3.7 0.6
v -0.2 3.7 0.5
v -0.2 3.7 -0.5
v -0.2 3.7 -0.6
v 0.2 3.6 0.7
v 0.2 3.6 0.6
v 0.2 3.6 -0.6
v 0.2 3.6 -0.7
v 0.2 3.8 0.7
v 0.2 3.8 0.6
v 0.2 3.8 -0.6
v 0.2 3.8 -0.7
v 0.4 3.6 0.6
v 0.4 3.6 0.5
v 0.4 3.6 -0.5
v 0.4 3.6 -0.6
v 0.4 3.8 0.6
v 0.4 3.8 0.5
v 0.4 3.8 -0.5
v 0.4 3.8 -0.6
v 0.5 3.6 0.5
v 0.5 3.6 0.4
v 0.5 3.6 -0.4
v 0.5 3.6 -0.5
v 0.5 3.8 0.5
v 0.5 3.8 0.4
v 0.5 3.8 -0.4
v 0.5 3.8 -0.5
v 0.6 3.6 0.4
v 0.6 3.6 0.2
v 0.6 3.6 -0.2
v 0.6 3.6 -0.4
v 0.6 3.8 0.4
v 0.6 3.8 0.2
v 0.6 3.8 -0.2
v 0.6 3.8 -0.4
v 0.7 3.6 0.2
v 0.7 3.6 -0.2
v 0.7 3.8 0.2
v 0.7 3.8 0.0999999
v 0.7 3.8 -0.0999999
v 0.7 3.8 -0.2
v 3.2 3.8 4.8
v 3.2 3.8 0.0999999
v 3.2 3.8 -0.0999999
v 3.2 3.8 -4.8
v 3.2 3.9 0.0999999
v 3.2 3.9 -0.0999999
v 3.2 4 4.8
v 3.2 4 -4.8
v -3.2 3.8 4.8
v -3.2 4 4.8
v 3.2 3.8 4.8
v 3.2 4 4.8
v -0.2 3.6 0.7
v -0.2 3.8 0.7
v 0.2 3.6 0.7
v 0.2 3.8 0.7
v -0.4 3.6 0.6
v -0.4 3.8 0.6
v -0.2 3.6 0.6
v -0.2 3.8 0.6
v 0.2 3.6 0.6
v 0.2 3.8 0.6
v 0.4 3.6 0.6
v 0.4 3.8 0.6
v -0.5 3.6 0.5
v -0.5 3.8 0.5
v -0.4 3.6 0.5
v -0.4 3.8 0.5
v 0.4 3.6 0.5
v 0.4 3.8 0.5
v 0.5 3.6 0.5
v 0.5 3.8 0.5
v -0.6 3.6 0.4
v -0.6 3.8 0.4
v -0.5 3.6 0.4
v -0.5 3.8 0.4
v 0.5 3.6 0.4
v 0.5 3.8 0.4
v 0.6 3.6 0.4
v 0.6 3.8 0.4
v -0.7 3.6 0.2
v -0.7 3.8 0.2
v -0.6 3.6 0.2
v -0.6 3.8 0.2
v 0.6 3.6 0.2
v 0.6 3.8 0.2
v 0.7 3.6 0.2
v 0.7 3.8 0.2
v -0.6 3.6 -0.2
v -0.6 3.7 -0.2
v -0.5 3.6 -0.2
v -0.5 3.7 -0.2
v 0.5 3.6 -0.2
v 0.5 3.7 -0.2
v 0.6 3.6 -0.2
v 0.6 3.7 -0.2
v -0.5 3.6 -0.4
v -0.5 3.7 -0.4
v -0.4 3.6 -0.4
v -0.4 3.7 -0.4
v 0.4 3.6 -0.4
v 0.4 3.7 -0.4
v 0.5 3.6 -0.4
v 0.5 3.7 -0.4
v -0.4 3.6 -0.5
v -0.4 3.7 -0.5
v -0.2 3.6 -0.5
v -0.2 3.7 -0.5
v 0.2 3.6 -0.5
v 0.2 3.7 -0.5
v 0.4 3.6 -0.5
v 0.4 3.7 -0.5
v -0.2 3.6 -0.6
v -0.2 3.7 -0.6
v 0.2 3.6 -0.6
v 0.2 3.7 -0.6
v -0.2 3.6 0.6
v -0.2 3.7 0.6
v 0.2 3.6 0.6
v 0.2 3.7 0.6
v -0.4 3.6 0.5
v -0.4 3.7 0.5
v -0.2 3.6 0.5
v -0.2 3.7 0.5
v 0.2 3.6 0.5
v 0.2 3.7 0.5
v 0.4 3.6 0.5
v 0.4 3.7 0.5
v -0.5 3.6 0.4
v -0.5 3.7 0.4
v -0.4 3.6 0.4
v -0.4 3.7 0.4
v 0.4 3.6 0.4
v 0.4 3.7 0.4
v 0.5 3.6 0.4
v 0.5 3.7 0.4
v -0.6 3.6 0.2
v -0.6 3.7 0.2
v -0.5 3.6 0.2
v -0.5 3.7 0.2
v 0.5 3.6 0.2
v 0.5 3.7 0.2
v 0.6 3.6 0.2
v 0.6 3.7 0.2
v -0.7 3.6 -0.2
v -0.7 3.8 -0.2
v -0.6 3.6 -0.2
v -0.6 3.8 -0.2
v 0.6 3.6 -0.2
v 0.6 3.8 -0.2
v 0.7 3.6 -0.2
v 0.7 3.8 -0.2
v -0.6 3.6 -0.4
v -0.6 3.8 -0.4
v -0.5 3.6 -0.4
v -0.5 3.8 -0.4
v 0.5 3.6 -0.4
v 0.5 3.8 -0.4
v 0.6 3.6 -0.4
v 0.6 3.8 -0.4
v -0.5 3.6 -0.5
v -0.5 3.8 -0.5
v -0.4 3.6 -0.5
v -0.4 3.8 -0.5
v 0.4 3.6 -0.5
v 0.4 3.8 -0.5
v 0.5 3.6 -0.5
v 0.5 3.8 -0.5
v -0.4 3.6 -0.6
v -0.4 3.8 -0.6
v -0.2 3.6 -0.6
v -0.2 3.8 -0.6
v 0.2 3.6 -0.6
v 0.2 3.8 -0.6
v 0.4 3.6 -0.6
v 0.4 3.8 -0.6
v -0.2 3.6 -0.7
v -0.2 3.8 -0.7
v 0.2 3.6 -0.7
v 0.2 3.8 -0.7
v -3.2 3.8 -4.8
v -3.2 4 -4.8
v 3.2 3.8 -4.8
v 3.2 4 -4.8
v -0.2 3.6 0.7
v 0.2 3.6 0.7
v -0.4 3.6 0.6
v -0.2 3.6 0.6
v 0.2 3.6 0.6
v 0.4 3.6 0.6
v -0.5 3.6 0.5
v -0.4 3.6 0.5
v -0.2 3.6 0.5
v 0.2 3.6 0.5
v 0.4 3.6 0.5
v 0.5 3.6 0.5
v -0.6 3.6 0.4
v -0.5 3.6 0.4
v -0.4 3.6 0.4
v 0.4 3.6 0.4
v 0.5 3.6 0.4
v 0.6 3.6 0.4
v -0.7 3.6 0.2
v -0.6 3.6 0.2
v -0.5 3.6 0.2
v 0.5 3.6 0.2
v 0.6 3.6 0.2
v 0.7 3.6 0.2
v -0.7 3.6 -0.2
v -0.6 3.6 -0.2
v -0.5 3.6 -0.2
v 0.5 3.6 -0.2
v 0.6 3.6 -0.2
v 0.7 3.6 -0.2
v -0.6 3.6 -0.4
v -0.5 3.6 -0.4
v -0.4 3.6 -0.4
v 0.4 3.6 -0.4
v 0.5 3.6 -0.4
v 0.6 3.6 -0.4
v -0.5 3.6 -0.5
v -0.4 3.6 -0.5
v -0.2 3.6 -0.5
v 0.2 3.6 -0.5
v 0.4 3.6 -0.5
v 0.5 3.6 -0.5
v -0.4 3.6 -0.6
v -0.2 3.6 -0.6
v 0.2 3.6 -0.6
v 0.4 3.6 -0.6
v -0.2 3.6 -0.7
v 0.2 3.6 -0.7
v -0.2 3.7 0.6
v 0.2 3.7 0.6
v -0.4 3.7 0.5
v -0.2 3.7 0.5
v 0.2 3.7 0.5
v 0.4 3.7 0.5
v -0.5 3.7 0.4
v -0.4 3.7 0.4
v 0.4 3.7 0.4
v 0.5 3.7 0.4
v -0.0999999 3.7 0.3
v 0.1 3.7 0.3
v -0.6 3.7 0.2
v -0.5 3.7 0.2
v -0.2 3.7 0.2
v -0.0999999 3.7 0.2
v 0.1 3.7 0.2
v 0.2 3.7 0.2
v 0.5 3.7 0.2
v 0.6 3.7 0.2
v -0.3 3.7 0.0999999
v -0.2 3.7 0.0999999
v 0.2 3.7 0.0999999
v 0.3 3.7 0.0999999
v -0.3 3.7 -0.0999999
v -0.2 3.7 -0.0999999
v 0.2 3.7 -0.0999999
v 0.3 3.7 -0.0999999
v -0.6 3.7 -0.2
v -0.5 3.7 -0.2
v -0.2 3.7 -0.2
v -0.0999999 3.7 -0.2
v 0.1 3.7 -0.2
v 0.2 3.7 -0.2
v 0.5 3.7 -0.2
v 0.6 3.7 -0.2
v -0.0999999 3.7 -0.3
v 0.1 3.7 -0.3
v -0.5 3.7 -0.4
v -0.4 3.7 -0.4
v 0.4 3.7 -0.4
v 0.5 3.7 -0.4
v -0.4 3.7 -0.5
v -0.2 3.7 -0.5
v 0.2 3.7 -0.5
v 0.4 3.7 -0.5
v -0.2 3.7 -0.6
v 0.2 3.7 -0.6
v -3.2 3.8 4.8
v 3.2 3.8 4.8
v -0.2 3.8 0.7
v 0.2 3.8 0.7
v -0.4 3.8 0.6
v -0.2 3.8 0.6
v 0.2 3.8 0.6
v 0.4 3.8 0.6
v -0.5 3.8 0.5
v -0.4 3.8 0.5
v 0.4 3.8 0.5
v 0.5 3.8 0.5
v -0.6 3.8 0.4
v -0.5 3.8 0.4
v 0.5 3.8 0.4
v 0.6 3.8 0.4
v -0.7 3.8 0.2
v -0.6 3.8 0.2
v 0.6 3.8 0.2
v 0.7 3.8 0.2
v -3.2 3.8 0.0999999
v -0.7 3.8 0.0999999
v 0.7 3.8 0.0999999
v 3.2 3.8 0.0999999
v -3.2 3.8 -0.0999999
v -0.7 3.8 -0.0999999
v 0.7 3.8 -0.0999999
v 3.2 3.8 -0.0999999
v -0.7 3.8 -0.2
v -0.6 3.8 -0.2
v 0.6 3.8 -0.2
v 0.7 3.8 -0.2
v -0.6 3.8 -0.4
v -0.5 3.8 -0.4
v 0.5 3.8 -0.4
v 0.6 3.8 -0.4
v -0.5 3.8 -0.5
v -0.4 3.8 -0.5
v 0.4 3.8 -0.5
v 0.5 3.8 -0.5
v -0.4 3.8 -0.6
v -0.2 3.8 -0.6
v 0.2 3.8 -0.6
v 0.4 3.8 -0.6
v -0.2 3.8 -0.7
v 0.2 3.8 -0.7
v -3.2 3.8 -4.8
v 3.2 3.8 -4.8
v -3.2 4 4.8
v 3.2 4 4.8
v -3.2 4 -4.8
v 3.2 4 -4.8

# faces
f 5/3/1 2/3/1 1/3/1
f 5/5/1 3/5/1 2/5/1
f 6/3/1 4/3/1 3/3/1
f 6/5/1 3/5/1 5/5/1
f 7/3/1 5/3/1 1/3/1
f 7/3/1 6/3/1 5/3/1
f 8/3/1 4/3/1 6/3/1
f 8/3/1 6/3/1 7/3/1
f 11/4/1 10/4/1 9/4/1
f 12/4/1 10/4/1 11/4/1
f 13/4/1 10/4/1 12/4/1
f 14/4/1 10/4/1 13/4/1
f 19/4/1 16/4/1 15/4/1
f 20/4/1 16/4/1 19/4/1
f 21/4/1 18/4/1 17/4/1
f 22/4/1 18/4/1 21/4/1
f 27/4/1 24/4/1 23/4/1
f 28/4/1 24/4/1 27/4/1
f 29/4/1 26/4/1 25/4/1
f 30/4/1 26/4/1 29/4/1
f 35/4/1 32/4/1 31/4/1
f 36/4/1 32/4/1 35/4/1
f 37/4/1 34/4/1 33/4/1
f 38/4/1 34/4/1 37/4/1
f 43/4/1 40/4/1 39/4/1
f 44/4/1 40/4/1 43/4/1
f 45/4/1 42/4/1 41/4/1
f 46/4/1 42/4/1 45/4/1
f 51/4/1 48/4/1 47/4/1
f 52/4/1 48/4/1 51/4/1
f 53/4/1 50/4/1 49/4/1
f 54/4/1 50/4/1 53/4/1
f 59/4/1 56/4/1 55/4/1
f 60/4/1 56/4/1 59/4/1
f 61/4/1 58/4/1 57/4/1
f 62/4/1 58/4/1 61/4/1
f 67/4/1 64/4/1 63/4/1
f 68/4/1 64/4/1 67/4/1
f 69/4/1 66/4/1 65/4/1
f 70/4/1 66/4/1 69/4/1
f 73/4/1 72/4/1 71/4/1
f 74/4/1 72/4/1 73/4/1
f 75/4/2 76/4/2 77/4/2
f 77/4/2 76/4/2 78/4/2
f 79/4/2 80/4/2 83/4/2
f 83/4/2 80/4/2 84/4/2
f 81/4/2 82/4/2 85/4/2
f 85/4/2 82/4/2 86/4/2
f 87/4/2 88/4/2 91/4/2
f 91/4/2 88/4/2 92/4/2
f 89/4/2 90/4/2 93/4/2
f 93/4/2 90/4/2 94/4/2
f 95/4/2 96/4/2 99/4/2
f 99/4/2 96/4/2 100/4/2
f 97/4/2 98/4/2 101/4/2
f 101/4/2 98/4/2 102/4/2
f 103/4/2 104/4/2 107/4/2
f 107/4/2 104/4/2 108/4/2
f 105/4/2 106/4/2 109/4/2
f 109/4/2 106/4/2 110/4/2
f 111/4/2 112/4/2 115/4/2
f 115/4/2 112/4/2 116/4/2
f 113/4/2 114/4/2 117/4/2
f 117/4/2 114/4/2 118/4/2
f 119/4/2 120/4/2 123/4/2
f 123/4/2 120/4/2 124/4/2
f 121/4/2 122/4/2 125/4/2
f 125/4/2 122/4/2 126/4/2
f 127/4/2 128/4/2 131/4/2
f 131/4/2 128/4/2 132/4/2
f 129/4/2 130/4/2 133/4/2
f 133/4/2 130/4/2 134/4/2
f 135/4/2 136/4/2 137/4/2
f 137/4/2 136/4/2 138/4/2
f 138/4/2 136/4/2 139/4/2
f 139/4/2 136/4/2 140/4/2
f 141/3/2 142/3/2 145/3/2
f 142/5/2 143/5/2 145/5/2
f 143/3/2 144/3/2 146/3/2
f 145/5/2 143/5/2 146/5/2
f 141/3/2 145/3/2 147/3/2
f 145/3/2 146/3/2 147/3/2
f 146/3/2 144/3/2 148/3/2
f 147/3/2 146/3/2 148/3/2
f 151/3/3 150/3/3 149/3/3
f 152/3/3 150/3/3 151/3/3
f 155/4/3 154/4/3 153/4/3
f 156/4/3 154/4/3 155/4/3
f 159/4/3 158/4/3 157/4/3
f 160/4/3 158/4/3 159/4/3
f 163/4/3 162/4/3 161/4/3
f 164/4/3 162/4/3 163/4/3
f 167/4/3 166/4/3 165/4/3
f 168/4/3 166/4/3 167/4/3
f 171/4/3 170/4/3 169/4/3
f 172/4/3 170/4/3 171/4/3
f 175/4/3 174/4/3 173/4/3
f 176/4/3 174/4/3 175/4/3
f 179/4/3 178/4/3 177/4/3
f 180/4/3 178/4/3 179/4/3
f 183/4/3 182/4/3 181/4/3
f 184/4/3 182/4/3 183/4/3
f 187/4/3 186/4/3 185/4/3
f 188/4/3 186/4/3 187/4/3
f 191/4/3 190/4/3 189/4/3
f 192/4/3 190/4/3 191/4/3
f 195/4/3 194/4/3 193/4/3
f 196/4/3 194/4/3 195/4/3
f 199/4/3 198/4/3 197/4/3
f 200/4/3 198/4/3 199/4/3
f 203/4/3 202/4/3 201/4/3
f 204/4/3 202/4/3 203/4/3
f 207/4/3 206/4/3 205/4/3
f 208/4/3 206/4/3 207/4/3
f 211/4/3 210/4/3 209/4/3
f 212/4/3 210/4/3 211/4/3
f 215/4/3 214/4/3 213/4/3
f 216/4/3 214/4/3 215/4/3
f 217/4/4 218/4/4 219/4/4
f 219/4/4 218/4/4 220/4/4
f 221/4/4 222/4/4 223/4/4
f 223/4/4 222/4/4 224/4/4
f 225/4/4 226/4/4 227/4/4
f 227/4/4 226/4/4 228/4/4
f 229/4/4 230/4/4 231/4/4
f 231/4/4 230/4/4 232/4/4
f 233/4/4 234/4/4 235/4/4
f 235/4/4 234/4/4 236/4/4
f 237/4/4 238/4/4 239/4/4
f 239/4/4 238/4/4 240/4/4
f 241/4/4 242/4/4 243/4/4
f 243/4/4 242/4/4 244/4/4
f 245/4/4 246/4/4 247/4/4
f 247/4/4 246/4/4 248/4/4
f 249/4/4 250/4/4 251/4/4
f 251/4/4 250/4/4 252/4/4
f 253/4/4 254/4/4 255/4/4
f 255/4/4 254/4/4 256/4/4
f 257/4/4 258/4/4 259/4/4
f 259/4/4 258/4/4 260/4/4
f 261/4/4 262/4/4 263/4/4
f 263/4/4 262/4/4 264/4/4
f 265/4/4 266/4/4 267/4/4
f 267/4/4 266/4/4 268/4/4
f 269/4/4 270/4/4 271/4/4
f 271/4/4 270/4/4 272/4/4
f 273/4/4 274/4/4 275/4/4
f 275/4/4 274/4/4 276/4/4
f 277/4/4 278/4/4 279/4/4
f 279/4/4 278/4/4 280/4/4
f 281/3/4 282/3/4 283/3/4
f 283/3/4 282/3/4 284/3/4
f 288/4/5 286/4/5 285/4/5
f 289/4/5 286/4/5 288/4/5
f 292/4/5 288/4/5 287/4/5
f 293/4/5 288/4/5 292/4/5
f 294/4/5 290/4/5 289/4/5
f 295/4/5 290/4/5 294/4/5
f 298/4/5 292/4/5 291/4/5
f 299/4/5 292/4/5 298/4/5
f 300/4/5 296/4/5 295/4/5
f 301/4/5 296/4/5 300/4/5
f 304/4/5 298/4/5 297/4/5
f 305/4/5 298/4/5 304/4/5
f 306/4/5 302/4/5 301/4/5
f 307/4/5 302/4/5 306/4/5
f 309/4/5 304/4/5 303/4/5
f 310/4/5 304/4/5 309/4/5
f 313/4/5 308/4/5 307/4/5
f 314/4/5 308/4/5 313/4/5
f 315/4/5 311/4/5 310/4/5
f 316/4/5 311/4/5 315/4/5
f 319/4/5 313/4/5 312/4/5
f 320/4/5 313/4/5 319/4/5
f 321/4/5 317/4/5 316/4/5
f 322/4/5 317/4/5 321/4/5
f 325/4/5 319/4/5 318/4/5
f 326/4/5 319/4/5 325/4/5
f 327/4/5 323/4/5 322/4/5
f 328/4/5 323/4/5 327/4/5
f 329/4/5 325/4/5 324/4/5
f 330/4/5 325/4/5 329/4/5
f 331/4/5 329/4/5 328/4/5
f 332/4/5 329/4/5 331/4/5
f 336/2/5 334/2/5 333/2/5
f 337/2/5 334/2/5 336/2/5
f 340/2/5 336/2/5 335/2/5
f 340/2/5 338/2/5 337/2/5
f 340/2/5 337/2/5 336/2/5
f 341/2/5 338/2/5 340/2/5
f 343/2/5 340/2/5 339/2/5
f 343/2/5 342/2/5 341/2/5
f 343/2/5 341/2/5 340/2/5
f 344/2/5 342/2/5 343/2/5
f 346/2/5 343/2/5 339/2/5
f 347/2/5 343/2/5 346/2/5
f 348/1/5 344/1/5 343/1/5
f 348/2/5 343/2/5 347/2/5
f 349/2/5 342/2/5 344/2/5
f 349/1/5 344/1/5 348/1/5
f 350/2/5 342/2/5 349/2/5
f 351/2/5 342/2/5 350/2/5
f 353/2/5 347/2/5 346/2/5
f 353/2/5 346/2/5 345/2/5
f 354/1/5 348/1/5 347/1/5
f 354/2/5 347/2/5 353/2/5
f 354/1/5 349/1/5 348/1/5
f 354/1/5 350/1/5 349/1/5
f 355/2/5 352/2/5 351/2/5
f 355/1/5 350/1/5 354/1/5
f 355/2/5 351/2/5 350/2/5
f 356/2/5 352/2/5 355/2/5
f 357/2/5 353/2/5 345/2/5
f 357/1/5 354/1/5 353/1/5
f 357/1/5 356/1/5 355/1/5
f 357/1/5 355/1/5 354/1/5
f 358/1/5 356/1/5 357/1/5
f 359/1/5 356/1/5 358/1/5
f 360/2/5 352/2/5 356/2/5
f 360/1/5 356/1/5 359/1/5
f 361/2/5 357/2/5 345/2/5
f 361/2/5 358/2/5 357/2/5
f 362/2/5 358/2/5 361/2/5
f 363/1/5 359/1/5 358/1/5
f 363/2/5 358/2/5 362/2/5
f 364/1/5 359/1/5 363/1/5
f 365/1/5 359/1/5 364/1/5
f 366/2/5 360/2/5 359/2/5
f 366/1/5 359/1/5 365/1/5
f 367/2/5 352/2/5 360/2/5
f 367/2/5 360/2/5 366/2/5
f 368/2/5 352/2/5 367/2/5
f 369/1/5 365/1/5 364/1/5
f 369/2/5 363/2/5 362/2/5
f 369/2/5 364/2/5 363/2/5
f 370/2/5 366/2/5 365/2/5
f 370/1/5 365/1/5 369/1/5
f 370/2/5 367/2/5 366/2/5
f 371/2/5 369/2/5 362/2/5
f 371/2/5 370/2/5 369/2/5
f 372/2/5 370/2/5 371/2/5
f 373/2/5 367/2/5 370/2/5
f 373/2/5 370/2/5 372/2/5
f 374/2/5 367/2/5 373/2/5
f 375/2/5 373/2/5 372/2/5
f 376/2/5 373/2/5 375/2/5
f 377/2/5 373/2/5 376/2/5
f 378/2/5 373/2/5 377/2/5
f 379/2/5 377/2/5 376/2/5
f 380/2/5 377/2/5 379/2/5
f 383/3/5 382/3/5 381/3/5
f 384/3/5 382/3/5 383/3/5
f 385/3/5 383/3/5 381/3/5
f 386/3/5 383/3/5 385/3/5
f 387/3/5 382/3/5 384/3/5
f 388/3/5 382/3/5 387/3/5
f 389/3/5 385/3/5 381/3/5
f 390/3/5 385/3/5 389/3/5
f 391/3/5 382/3/5 388/3/5
f 392/3/5 382/3/5 391/3/5
f 393/3/5 389/3/5 381/3/5
f 394/3/5 389/3/5 393/3/5
f 395/3/5 382/3/5 392/3/5
f 396/3/5 382/3/5 395/3/5
f 397/3/5 393/3/5 381/3/5
f 398/3/5 393/3/5 397/3/5
f 399/3/5 382/3/5 396/3/5
f 400/3/5 382/3/5 399/3/5
f 401/3/5 397/3/5 381/3/5
f 402/3/5 397/3/5 401/3/5
f 403/3/5 382/3/5 400/3/5
f 404/3/5 382/3/5 403/3/5
f 405/5/5 402/5/5 401/5/5
f 406/5/5 402/5/5 405/5/5
f 407/5/5 404/5/5 403/5/5
f 408/5/5 404/5/5 407/5/5
f 409/3/5 406/3/5 405/3/5
f 412/3/5 408/3/5 407/3/5
f 413/3/5 410/3/5 409/3/5
f 416/3/5 412/3/5 411/3/5
f 417/3/5 414/3/5 413/3/5
f 420/3/5 416/3/5 415/3/5
f 421/3/5 418/3/5 417/3/5
f 424/3/5 420/3/5 419/3/5
f 425/3/5 422/3/5 421/3/5
f 426/3/5 424/3/5 423/3/5
f 427/3/5 425/3/5 421/3/5
f 427/3/5 426/3/5 425/3/5
f 427/3/5 409/3/5 405/3/5
f 427/3/5 413/3/5 409/3/5
f 427/3/5 417/3/5 413/3/5
f 427/3/5 421/3/5 417/3/5
f 428/3/5 424/3/5 426/3/5
f 428/3/5 426/3/5 427/3/5
f 428/3/5 408/3/5 412/3/5
f 428/3/5 416/3/5 420/3/5
f 428/3/5 420/3/5 424/3/5
f 428/3/5 412/3/5 416/3/5
f 429/3/6 430/3/6 431/3/6
f 431/3/6 430/3/6 432/3/6
