# MagicaVoxel @ Ephtracy

# group
o 

# material
mtllib outside_corridor_concrete.mtl
usemtl palette

# normals
vn -1 0 0
vn 1 0 0
vn 0 0 1
vn 0 0 -1
vn 0 -1 0
vn 0 1 0

# texcoords
vt 0.302734 0.5
vt 0.306641 0.5

# verts
v -4.8 0 3.2
v -4.8 0 -3.2
v -4.8 0.4 3.2
v -4.8 0.4 -3.2
v 4.8 0 3.2
v 4.8 0 -3.2
v 4.8 0.4 3.2
v 4.8 0.4 -3.2
v -4.8 0 3.2
v -4.8 0.4 3.2
v -4.4 0 3.2
v -4.4 0.4 3.2
v 4.4 0 3.2
v 4.4 0.4 3.2
v 4.8 0 3.2
v 4.8 0.4 3.2
v -4.8 0 -3.2
v -4.8 0.4 -3.2
v -4.4 0 -3.2
v -4.4 0.4 -3.2
v -4.1 0 -3.2
v -4.1 0.4 -3.2
v 4.1 0 -3.2
v 4.1 0.4 -3.2
v 4.4 0 -3.2
v 4.4 0.4 -3.2
v 4.8 0 -3.2
v 4.8 0.4 -3.2
v -4.8 0 3.2
v -4.4 0 3.2
v 4.4 0 3.2
v 4.8 0 3.2
v -4.1 0 3
v 4.1 0 3
v -4.8 0 -3.2
v -4.4 0 -3.2
v -4.1 0 -3.2
v 4.1 0 -3.2
v 4.4 0 -3.2
v 4.8 0 -3.2
v -4.8 0.4 3.2
v -4.4 0.4 3.2
v 4.4 0.4 3.2
v 4.8 0.4 3.2
v -4.1 0.4 2.9
v 4.1 0.4 2.9
v -4.8 0.4 -3.2
v -4.4 0.4 -3.2
v -4.1 0.4 -3.2
v 4.1 0.4 -3.2
v 4.4 0.4 -3.2
v 4.8 0.4 -3.2

# faces
f 3/1/1 2/1/1 1/1/1
f 4/1/1 2/1/1 3/1/1
f 5/1/2 6/1/2 7/1/2
f 7/1/2 6/1/2 8/1/2
f 11/1/3 10/1/3 9/1/3
f 12/1/3 10/1/3 11/1/3
f 13/2/3 12/2/3 11/2/3
f 14/2/3 12/2/3 13/2/3
f 15/1/3 14/1/3 13/1/3
f 16/1/3 14/1/3 15/1/3
f 17/1/4 18/1/4 19/1/4
f 19/1/4 18/1/4 20/1/4
f 19/2/4 20/2/4 21/2/4
f 21/2/4 20/2/4 22/2/4
f 21/1/4 22/1/4 23/1/4
f 23/1/4 22/1/4 24/1/4
f 23/2/4 24/2/4 25/2/4
f 25/2/4 24/2/4 26/2/4
f 25/1/4 26/1/4 27/1/4
f 27/1/4 26/1/4 28/1/4
f 33/2/5 31/2/5 30/2/5
f 34/2/5 31/2/5 33/2/5
f 35/1/5 30/1/5 29/1/5
f 36/2/5 33/2/5 30/2/5
f 36/1/5 30/1/5 35/1/5
f 37/1/5 34/1/5 33/1/5
f 37/2/5 33/2/5 36/2/5
f 38/2/5 31/2/5 34/2/5
f 38/1/5 34/1/5 37/1/5
f 39/1/5 32/1/5 31/1/5
f 39/2/5 31/2/5 38/2/5
f 40/1/5 32/1/5 39/1/5
f 42/2/6 43/2/6 45/2/6
f 45/2/6 43/2/6 46/2/6
f 41/1/6 42/1/6 47/1/6
f 42/2/6 45/2/6 48/2/6
f 47/1/6 42/1/6 48/1/6
f 45/1/6 46/1/6 49/1/6
f 48/2/6 45/2/6 49/2/6
f 46/2/6 43/2/6 50/2/6
f 49/1/6 46/1/6 50/1/6
f 43/1/6 44/1/6 51/1/6
f 50/2/6 43/2/6 51/2/6
f 51/1/6 44/1/6 52/1/6
