# MagicaVoxel @ Ephtracy

# group
o 

# material
mtllib Loker Room.mtl
usemtl palette

# normals
vn -1 0 0
vn 1 0 0
vn 0 0 1
vn 0 0 -1
vn 0 -1 0
vn 0 1 0

# texcoords
vt 0.958984 0.5
vt 0.974609 0.5
vt 0.978516 0.5
vt 0.986328 0.5
vt 0.994141 0.5

# verts
v 0.4 1.2 0.3
v 0.4 1.2 -0.5
v 0.4 1.3 0.2
v 0.4 1.3 -0.4
v 0.4 2.3 0.2
v 0.4 2.3 -0.4
v 0.4 2.4 0.3
v 0.4 2.4 -0.5
v 0.4 2.5 0.3
v 0.4 2.5 -0.5
v 0.4 2.6 0.2
v 0.4 2.6 -0.4
v 0.4 3.6 0.2
v 0.4 3.6 -0.4
v 0.4 3.7 0.3
v 0.4 3.7 -0.5
v 0.5 0.1 0.4
v 0.5 0.1 -0.6
v 0.5 1.2 0.3
v 0.5 1.2 -0.5
v 0.5 1.3 0.2
v 0.5 1.3 -0.4
v 0.5 1.5 -0.1
v 0.5 1.5 -0.3
v 0.5 1.7 -0.1
v 0.5 1.7 -0.3
v 0.5 1.9 0.1
v 0.5 1.9 -0.3
v 0.5 2 0.1
v 0.5 2 -0.3
v 0.5 2.1 0.1
v 0.5 2.1 -0.3
v 0.5 2.2 0.1
v 0.5 2.2 -0.3
v 0.5 2.3 0.2
v 0.5 2.3 -0.4
v 0.5 2.4 0.3
v 0.5 2.4 -0.5
v 0.5 2.5 0.3
v 0.5 2.5 -0.5
v 0.5 2.6 0.2
v 0.5 2.6 -0.4
v 0.5 2.8 -0.1
v 0.5 2.8 -0.3
v 0.5 3 -0.1
v 0.5 3 -0.3
v 0.5 3.2 0.1
v 0.5 3.2 -0.3
v 0.5 3.3 0.1
v 0.5 3.3 -0.3
v 0.5 3.4 0.1
v 0.5 3.4 -0.3
v 0.5 3.5 0.1
v 0.5 3.5 -0.3
v 0.5 3.6 0.2
v 0.5 3.6 -0.4
v 0.5 3.7 0.3
v 0.5 3.7 -0.5
v 0.5 3.8 0.4
v 0.5 3.8 0.3
v 0.5 3.8 -0.5
v 0.5 3.8 -0.6
v 0.5 3.9 0.3
v 0.5 3.9 0.1
v 0.5 3.9 -0.3
v 0.5 3.9 -0.5
v 0.5 4 0.1
v 0.5 4 -0.3
v 0.6 0 0.3
v 0.6 0 -0.5
v 0.6 0.1 0.3
v 0.6 0.1 -0.5
v 0.6 3.8 0.4
v 0.6 3.8 0.3
v 0.6 3.8 -0.5
v 0.6 3.8 -0.6
v 0.6 3.9 0.4
v 0.6 3.9 0.3
v 0.6 3.9 0.1
v 0.6 3.9 -0.3
v 0.6 3.9 -0.5
v 0.6 3.9 -0.6
v 0.6 4 0.3
v 0.6 4 0.1
v 0.6 4 -0.3
v 0.6 4 -0.5
v 0.8 3.9 0.4
v 0.8 3.9 0.3
v 0.8 3.9 -0.5
v 0.8 3.9 -0.6
v 0.8 4 0.4
v 0.8 4 0.3
v 0.8 4 -0.5
v 0.8 4 -0.6
v 1.2 3.9 0.4
v 1.2 3.9 0.3
v 1.2 3.9 -0.5
v 1.2 3.9 -0.6
v 1.2 4 0.4
v 1.2 4 0.3
v 1.2 4 -0.5
v 1.2 4 -0.6
v 1.4 0 0.3
v 1.4 0 -0.5
v 1.4 0.1 0.3
v 1.4 0.1 -0.5
v 1.4 3.8 0.4
v 1.4 3.8 0.3
v 1.4 3.8 -0.5
v 1.4 3.8 -0.6
v 1.4 3.9 0.4
v 1.4 3.9 0.3
v 1.4 3.9 0.1
v 1.4 3.9 -0.3
v 1.4 3.9 -0.5
v 1.4 3.9 -0.6
v 1.4 4 0.3
v 1.4 4 0.1
v 1.4 4 -0.3
v 1.4 4 -0.5
v 1.5 0.1 0.4
v 1.5 0.1 -0.6
v 1.5 3.8 0.4
v 1.5 3.8 0.3
v 1.5 3.8 -0.5
v 1.5 3.8 -0.6
v 1.5 3.9 0.3
v 1.5 3.9 0.1
v 1.5 3.9 -0.3
v 1.5 3.9 -0.5
v 1.5 4 0.1
v 1.5 4 -0.3
v 0.5 0.1 0.4
v 0.5 3.8 0.4
v 0.6 3.8 0.4
v 0.6 3.9 0.4
v 0.8 3.9 0.4
v 0.8 4 0.4
v 1.2 3.9 0.4
v 1.2 4 0.4
v 1.4 3.8 0.4
v 1.4 3.9 0.4
v 1.5 0.1 0.4
v 1.5 3.8 0.4
v 0.4 1.2 0.3
v 0.4 2.4 0.3
v 0.4 2.5 0.3
v 0.4 3.7 0.3
v 0.5 1.2 0.3
v 0.5 2.4 0.3
v 0.5 2.5 0.3
v 0.5 3.7 0.3
v 0.5 3.8 0.3
v 0.5 3.9 0.3
v 0.6 0 0.3
v 0.6 0.1 0.3
v 0.6 3.8 0.3
v 0.6 3.9 0.3
v 0.6 4 0.3
v 0.8 3.9 0.3
v 0.8 4 0.3
v 1.2 3.9 0.3
v 1.2 4 0.3
v 1.4 0 0.3
v 1.4 0.1 0.3
v 1.4 3.8 0.3
v 1.4 3.9 0.3
v 1.4 4 0.3
v 1.5 3.8 0.3
v 1.5 3.9 0.3
v 0.5 3.9 0.1
v 0.5 4 0.1
v 0.6 3.9 0.1
v 0.6 4 0.1
v 1.4 3.9 0.1
v 1.4 4 0.1
v 1.5 3.9 0.1
v 1.5 4 0.1
v 0.4 1.3 -0.4
v 0.4 2.3 -0.4
v 0.4 2.6 -0.4
v 0.4 3.6 -0.4
v 0.5 1.3 -0.4
v 0.5 2.3 -0.4
v 0.5 2.6 -0.4
v 0.5 3.6 -0.4
v 0.4 1.3 0.2
v 0.4 2.3 0.2
v 0.4 2.6 0.2
v 0.4 3.6 0.2
v 0.5 1.3 0.2
v 0.5 2.3 0.2
v 0.5 2.6 0.2
v 0.5 3.6 0.2
v 0.5 3.9 -0.3
v 0.5 4 -0.3
v 0.6 3.9 -0.3
v 0.6 4 -0.3
v 1.4 3.9 -0.3
v 1.4 4 -0.3
v 1.5 3.9 -0.3
v 1.5 4 -0.3
v 0.4 1.2 -0.5
v 0.4 2.4 -0.5
v 0.4 2.5 -0.5
v 0.4 3.7 -0.5
v 0.5 1.2 -0.5
v 0.5 2.4 -0.5
v 0.5 2.5 -0.5
v 0.5 3.7 -0.5
v 0.5 3.8 -0.5
v 0.5 3.9 -0.5
v 0.6 0 -0.5
v 0.6 0.1 -0.5
v 0.6 3.8 -0.5
v 0.6 3.9 -0.5
v 0.6 4 -0.5
v 0.8 3.9 -0.5
v 0.8 4 -0.5
v 1.2 3.9 -0.5
v 1.2 4 -0.5
v 1.4 0 -0.5
v 1.4 0.1 -0.5
v 1.4 3.8 -0.5
v 1.4 3.9 -0.5
v 1.4 4 -0.5
v 1.5 3.8 -0.5
v 1.5 3.9 -0.5
v 0.5 0.1 -0.6
v 0.5 3.8 -0.6
v 0.6 3.8 -0.6
v 0.6 3.9 -0.6
v 0.8 3.9 -0.6
v 0.8 4 -0.6
v 1.2 3.9 -0.6
v 1.2 4 -0.6
v 1.4 3.8 -0.6
v 1.4 3.9 -0.6
v 1.5 0.1 -0.6
v 1.5 3.8 -0.6
v 0.6 0 0.3
v 1.4 0 0.3
v 0.6 0 -0.5
v 1.4 0 -0.5
v 0.5 0.1 0.4
v 1.5 0.1 0.4
v 0.6 0.1 0.3
v 1.4 0.1 0.3
v 0.6 0.1 -0.5
v 1.4 0.1 -0.5
v 0.5 0.1 -0.6
v 1.5 0.1 -0.6
v 0.4 1.2 0.3
v 0.5 1.2 0.3
v 0.4 1.2 -0.5
v 0.5 1.2 -0.5
v 0.4 2.3 0.2
v 0.5 2.3 0.2
v 0.4 2.3 -0.4
v 0.5 2.3 -0.4
v 0.4 2.5 0.3
v 0.5 2.5 0.3
v 0.4 2.5 -0.5
v 0.5 2.5 -0.5
v 0.4 3.6 0.2
v 0.5 3.6 0.2
v 0.4 3.6 -0.4
v 0.5 3.6 -0.4
v 0.4 1.3 0.2
v 0.5 1.3 0.2
v 0.4 1.3 -0.4
v 0.5 1.3 -0.4
v 0.4 2.4 0.3
v 0.5 2.4 0.3
v 0.4 2.4 -0.5
v 0.5 2.4 -0.5
v 0.4 2.6 0.2
v 0.5 2.6 0.2
v 0.4 2.6 -0.4
v 0.5 2.6 -0.4
v 0.4 3.7 0.3
v 0.5 3.7 0.3
v 0.4 3.7 -0.5
v 0.5 3.7 -0.5
v 0.5 3.8 0.4
v 0.6 3.8 0.4
v 1.4 3.8 0.4
v 1.5 3.8 0.4
v 0.5 3.8 0.3
v 0.6 3.8 0.3
v 1.4 3.8 0.3
v 1.5 3.8 0.3
v 0.5 3.8 -0.5
v 0.6 3.8 -0.5
v 1.4 3.8 -0.5
v 1.5 3.8 -0.5
v 0.5 3.8 -0.6
v 0.6 3.8 -0.6
v 1.4 3.8 -0.6
v 1.5 3.8 -0.6
v 0.6 3.9 0.4
v 0.8 3.9 0.4
v 1.2 3.9 0.4
v 1.4 3.9 0.4
v 0.5 3.9 0.3
v 0.6 3.9 0.3
v 0.8 3.9 0.3
v 1.2 3.9 0.3
v 1.4 3.9 0.3
v 1.5 3.9 0.3
v 0.5 3.9 0.1
v 0.6 3.9 0.1
v 1.4 3.9 0.1
v 1.5 3.9 0.1
v 0.5 3.9 -0.3
v 0.6 3.9 -0.3
v 1.4 3.9 -0.3
v 1.5 3.9 -0.3
v 0.5 3.9 -0.5
v 0.6 3.9 -0.5
v 0.8 3.9 -0.5
v 1.2 3.9 -0.5
v 1.4 3.9 -0.5
v 1.5 3.9 -0.5
v 0.6 3.9 -0.6
v 0.8 3.9 -0.6
v 1.2 3.9 -0.6
v 1.4 3.9 -0.6
v 0.8 4 0.4
v 1.2 4 0.4
v 0.6 4 0.3
v 0.8 4 0.3
v 1.2 4 0.3
v 1.4 4 0.3
v 0.5 4 0.1
v 0.6 4 0.1
v 1.4 4 0.1
v 1.5 4 0.1
v 0.5 4 -0.3
v 0.6 4 -0.3
v 1.4 4 -0.3
v 1.5 4 -0.3
v 0.6 4 -0.5
v 0.8 4 -0.5
v 1.2 4 -0.5
v 1.4 4 -0.5
v 0.8 4 -0.6
v 1.2 4 -0.6

# faces
f 3/5/1 2/5/1 1/5/1
f 4/5/1 2/5/1 3/5/1
f 5/5/1 3/5/1 1/5/1
f 6/5/1 2/5/1 4/5/1
f 7/5/1 5/5/1 1/5/1
f 7/5/1 6/5/1 5/5/1
f 8/5/1 2/5/1 6/5/1
f 8/5/1 6/5/1 7/5/1
f 11/5/1 10/5/1 9/5/1
f 12/5/1 10/5/1 11/5/1
f 13/5/1 11/5/1 9/5/1
f 14/5/1 10/5/1 12/5/1
f 15/5/1 13/5/1 9/5/1
f 15/5/1 14/5/1 13/5/1
f 16/5/1 10/5/1 14/5/1
f 16/5/1 14/5/1 15/5/1
f 19/4/1 18/4/1 17/4/1
f 20/4/1 18/4/1 19/4/1
f 23/4/1 22/4/1 21/4/1
f 24/4/1 22/4/1 23/4/1
f 25/4/1 23/4/1 21/4/1
f 25/5/1 24/5/1 23/5/1
f 26/4/1 22/4/1 24/4/1
f 26/5/1 24/5/1 25/5/1
f 27/4/1 25/4/1 21/4/1
f 27/4/1 26/4/1 25/4/1
f 28/4/1 22/4/1 26/4/1
f 28/4/1 26/4/1 27/4/1
f 29/4/1 27/4/1 21/4/1
f 29/1/1 28/1/1 27/1/1
f 30/4/1 22/4/1 28/4/1
f 30/1/1 28/1/1 29/1/1
f 31/4/1 29/4/1 21/4/1
f 31/4/1 30/4/1 29/4/1
f 32/4/1 22/4/1 30/4/1
f 32/4/1 30/4/1 31/4/1
f 33/4/1 31/4/1 21/4/1
f 33/1/1 32/1/1 31/1/1
f 34/4/1 22/4/1 32/4/1
f 34/1/1 32/1/1 33/1/1
f 35/4/1 33/4/1 21/4/1
f 35/4/1 34/4/1 33/4/1
f 36/4/1 22/4/1 34/4/1
f 36/4/1 34/4/1 35/4/1
f 37/4/1 19/4/1 17/4/1
f 38/4/1 18/4/1 20/4/1
f 39/4/1 37/4/1 17/4/1
f 39/4/1 38/4/1 37/4/1
f 40/4/1 18/4/1 38/4/1
f 40/4/1 38/4/1 39/4/1
f 43/4/1 42/4/1 41/4/1
f 44/4/1 42/4/1 43/4/1
f 45/4/1 43/4/1 41/4/1
f 45/5/1 44/5/1 43/5/1
f 46/4/1 42/4/1 44/4/1
f 46/5/1 44/5/1 45/5/1
f 47/4/1 45/4/1 41/4/1
f 47/4/1 46/4/1 45/4/1
f 48/4/1 42/4/1 46/4/1
f 48/4/1 46/4/1 47/4/1
f 49/4/1 47/4/1 41/4/1
f 49/1/1 48/1/1 47/1/1
f 50/4/1 42/4/1 48/4/1
f 50/1/1 48/1/1 49/1/1
f 51/4/1 49/4/1 41/4/1
f 51/4/1 50/4/1 49/4/1
f 52/4/1 42/4/1 50/4/1
f 52/4/1 50/4/1 51/4/1
f 53/4/1 51/4/1 41/4/1
f 53/1/1 52/1/1 51/1/1
f 54/4/1 42/4/1 52/4/1
f 54/1/1 52/1/1 53/1/1
f 55/4/1 53/4/1 41/4/1
f 55/4/1 54/4/1 53/4/1
f 56/4/1 42/4/1 54/4/1
f 56/4/1 54/4/1 55/4/1
f 57/4/1 39/4/1 17/4/1
f 58/4/1 18/4/1 40/4/1
f 59/4/1 57/4/1 17/4/1
f 59/4/1 58/4/1 57/4/1
f 60/4/1 58/4/1 59/4/1
f 61/4/1 18/4/1 58/4/1
f 61/4/1 58/4/1 60/4/1
f 62/4/1 18/4/1 61/4/1
f 63/4/1 61/4/1 60/4/1
f 64/4/1 61/4/1 63/4/1
f 65/4/1 61/4/1 64/4/1
f 66/4/1 61/4/1 65/4/1
f 67/4/1 65/4/1 64/4/1
f 68/4/1 65/4/1 67/4/1
f 71/3/1 70/3/1 69/3/1
f 72/3/1 70/3/1 71/3/1
f 77/4/1 74/4/1 73/4/1
f 78/4/1 74/4/1 77/4/1
f 81/4/1 76/4/1 75/4/1
f 82/4/1 76/4/1 81/4/1
f 83/4/1 79/4/1 78/4/1
f 84/4/1 79/4/1 83/4/1
f 85/4/1 81/4/1 80/4/1
f 86/4/1 81/4/1 85/4/1
f 91/4/1 88/4/1 87/4/1
f 92/4/1 88/4/1 91/4/1
f 93/4/1 90/4/1 89/4/1
f 94/4/1 90/4/1 93/4/1
f 95/4/2 96/4/2 99/4/2
f 99/4/2 96/4/2 100/4/2
f 97/4/2 98/4/2 101/4/2
f 101/4/2 98/4/2 102/4/2
f 103/3/2 104/3/2 105/3/2
f 105/3/2 104/3/2 106/3/2
f 107/4/2 108/4/2 111/4/2
f 111/4/2 108/4/2 112/4/2
f 109/4/2 110/4/2 115/4/2
f 115/4/2 110/4/2 116/4/2
f 112/4/2 113/4/2 117/4/2
f 117/4/2 113/4/2 118/4/2
f 114/4/2 115/4/2 119/4/2
f 119/4/2 115/4/2 120/4/2
f 121/4/2 122/4/2 123/4/2
f 123/4/2 122/4/2 124/4/2
f 124/4/2 122/4/2 125/4/2
f 125/4/2 122/4/2 126/4/2
f 124/4/2 125/4/2 127/4/2
f 127/4/2 125/4/2 128/4/2
f 128/4/2 125/4/2 129/4/2
f 129/4/2 125/4/2 130/4/2
f 128/4/2 129/4/2 131/4/2
f 131/4/2 129/4/2 132/4/2
f 135/4/3 134/4/3 133/4/3
f 137/4/3 136/4/3 135/4/3
f 139/4/3 137/4/3 135/4/3
f 139/4/3 138/4/3 137/4/3
f 140/4/3 138/4/3 139/4/3
f 141/4/3 135/4/3 133/4/3
f 141/4/3 139/4/3 135/4/3
f 142/4/3 139/4/3 141/4/3
f 143/4/3 141/4/3 133/4/3
f 144/4/3 141/4/3 143/4/3
f 149/5/3 146/5/3 145/5/3
f 150/5/3 146/5/3 149/5/3
f 151/5/3 148/5/3 147/5/3
f 152/5/3 148/5/3 151/5/3
f 157/4/3 154/4/3 153/4/3
f 158/4/3 154/4/3 157/4/3
f 160/4/3 159/4/3 158/4/3
f 161/4/3 159/4/3 160/4/3
f 164/3/3 156/3/3 155/3/3
f 165/3/3 156/3/3 164/3/3
f 167/4/3 163/4/3 162/4/3
f 168/4/3 163/4/3 167/4/3
f 169/4/3 167/4/3 166/4/3
f 170/4/3 167/4/3 169/4/3
f 173/4/3 172/4/3 171/4/3
f 174/4/3 172/4/3 173/4/3
f 177/4/3 176/4/3 175/4/3
f 178/4/3 176/4/3 177/4/3
f 183/5/3 180/5/3 179/5/3
f 184/5/3 180/5/3 183/5/3
f 185/5/3 182/5/3 181/5/3
f 186/5/3 182/5/3 185/5/3
f 187/5/4 188/5/4 191/5/4
f 191/5/4 188/5/4 192/5/4
f 189/5/4 190/5/4 193/5/4
f 193/5/4 190/5/4 194/5/4
f 195/4/4 196/4/4 197/4/4
f 197/4/4 196/4/4 198/4/4
f 199/4/4 200/4/4 201/4/4
f 201/4/4 200/4/4 202/4/4
f 203/5/4 204/5/4 207/5/4
f 207/5/4 204/5/4 208/5/4
f 205/5/4 206/5/4 209/5/4
f 209/5/4 206/5/4 210/5/4
f 211/4/4 212/4/4 215/4/4
f 215/4/4 212/4/4 216/4/4
f 216/4/4 217/4/4 218/4/4
f 218/4/4 217/4/4 219/4/4
f 213/3/4 214/3/4 222/3/4
f 222/3/4 214/3/4 223/3/4
f 220/4/4 221/4/4 225/4/4
f 225/4/4 221/4/4 226/4/4
f 224/4/4 225/4/4 227/4/4
f 227/4/4 225/4/4 228/4/4
f 229/4/4 230/4/4 231/4/4
f 231/4/4 232/4/4 233/4/4
f 231/4/4 233/4/4 235/4/4
f 233/4/4 234/4/4 235/4/4
f 235/4/4 234/4/4 236/4/4
f 229/4/4 231/4/4 237/4/4
f 231/4/4 235/4/4 237/4/4
f 237/4/4 235/4/4 238/4/4
f 229/4/4 237/4/4 239/4/4
f 239/4/4 237/4/4 240/4/4
f 243/3/5 242/3/5 241/3/5
f 244/3/5 242/3/5 243/3/5
f 247/4/5 246/4/5 245/4/5
f 248/4/5 246/4/5 247/4/5
f 249/4/5 247/4/5 245/4/5
f 250/4/5 246/4/5 248/4/5
f 251/4/5 249/4/5 245/4/5
f 251/4/5 250/4/5 249/4/5
f 252/4/5 246/4/5 250/4/5
f 252/4/5 250/4/5 251/4/5
f 255/5/5 254/5/5 253/5/5
f 256/5/5 254/5/5 255/5/5
f 259/5/5 258/5/5 257/5/5
f 260/5/5 258/5/5 259/5/5
f 263/5/5 262/5/5 261/5/5
f 264/5/5 262/5/5 263/5/5
f 267/5/5 266/5/5 265/5/5
f 268/5/5 266/5/5 267/5/5
f 269/5/6 270/5/6 271/5/6
f 271/5/6 270/5/6 272/5/6
f 273/5/6 274/5/6 275/5/6
f 275/5/6 274/5/6 276/5/6
f 277/5/6 278/5/6 279/5/6
f 279/5/6 278/5/6 280/5/6
f 281/5/6 282/5/6 283/5/6
f 283/5/6 282/5/6 284/5/6
f 285/4/6 286/4/6 289/4/6
f 289/4/6 286/4/6 290/4/6
f 287/4/6 288/4/6 291/4/6
f 291/4/6 288/4/6 292/4/6
f 293/4/6 294/4/6 297/4/6
f 297/4/6 294/4/6 298/4/6
f 295/4/6 296/4/6 299/4/6
f 299/4/6 296/4/6 300/4/6
f 301/4/6 302/4/6 306/4/6
f 306/4/6 302/4/6 307/4/6
f 303/4/6 304/4/6 308/4/6
f 308/4/6 304/4/6 309/4/6
f 305/4/6 306/4/6 311/4/6
f 311/4/6 306/4/6 312/4/6
f 309/4/6 310/4/6 313/4/6
f 313/4/6 310/4/6 314/4/6
f 315/4/6 316/4/6 319/4/6
f 319/4/6 316/4/6 320/4/6
f 317/4/6 318/4/6 323/4/6
f 323/4/6 318/4/6 324/4/6
f 320/4/6 321/4/6 325/4/6
f 325/4/6 321/4/6 326/4/6
f 322/4/6 323/4/6 327/4/6
f 327/4/6 323/4/6 328/4/6
f 329/4/6 330/4/6 332/4/6
f 332/4/6 330/4/6 333/4/6
f 331/4/6 332/4/6 336/4/6
f 333/4/6 334/4/6 336/4/6
f 332/4/6 333/4/6 336/4/6
f 336/4/6 334/4/6 337/4/6
f 335/4/6 336/4/6 339/4/6
f 337/4/6 338/4/6 339/4/6
f 336/4/6 337/4/6 339/4/6
f 339/4/6 338/4/6 340/4/6
f 340/4/6 338/4/6 341/4/6
f 341/4/6 338/4/6 342/4/6
f 340/4/6 341/4/6 343/4/6
f 343/4/6 341/4/6 344/4/6
f 344/4/6 341/4/6 345/4/6
f 345/4/6 341/4/6 346/4/6
f 344/4/6 345/4/6 347/4/6
f 347/4/6 345/4/6 348/4/6
