# MagicaVoxel @ Ephtracy

# group
o 

# material
mtllib papan_gantung.mtl
usemtl palette

# normals
vn -1 0 0
vn 1 0 0
vn 0 0 1
vn 0 0 -1
vn 0 -1 0
vn 0 1 0

# texcoords
vt 0.0644531 0.5
vt 0.0683594 0.5
vt 0.0722656 0.5
vt 0.0761719 0.5
vt 0.0800781 0.5
vt 0.263672 0.5

# verts
v -1.8 0.1 -0.4
v -1.8 0.1 -0.5
v -1.8 4.5 -0.4
v -1.8 4.5 -0.5
v -1.7 0.3 -0.3
v -1.7 0.3 -0.4
v -1.7 4.4 -0.3
v -1.7 4.4 -0.4
v 1.7 0.3 -0.3
v 1.7 0.3 -0.4
v 1.7 4.4 -0.3
v 1.7 4.4 -0.4
v 1.8 0.1 -0.4
v 1.8 0.1 -0.5
v 1.8 4.5 -0.4
v 1.8 4.5 -0.5
v -1.7 0.3 -0.3
v -1.7 4.4 -0.3
v -1.6 0.4 -0.3
v -1.6 1.1 -0.3
v -1.6 1.8 -0.3
v -1.6 2.5 -0.3
v -1.6 3.4 -0.3
v -1.6 4.3 -0.3
v 1.6 0.4 -0.3
v 1.6 1.1 -0.3
v 1.6 1.8 -0.3
v 1.6 2.5 -0.3
v 1.6 3.4 -0.3
v 1.6 4.3 -0.3
v 1.7 0.3 -0.3
v 1.7 4.4 -0.3
v -1.8 0.1 -0.4
v -1.8 4.5 -0.4
v -1.7 0.3 -0.4
v -1.7 4.4 -0.4
v 1.7 0.3 -0.4
v 1.7 4.4 -0.4
v 1.8 0.1 -0.4
v 1.8 4.5 -0.4
v -1.8 0.1 -0.5
v -1.8 4.5 -0.5
v 1.8 0.1 -0.5
v 1.8 4.5 -0.5
v -1.8 0.1 -0.4
v 1.8 0.1 -0.4
v -1.8 0.1 -0.5
v 1.8 0.1 -0.5
v -1.7 0.3 -0.3
v 1.7 0.3 -0.3
v -1.7 0.3 -0.4
v 1.7 0.3 -0.4
v -1.7 4.4 -0.3
v 1.7 4.4 -0.3
v -1.7 4.4 -0.4
v 1.7 4.4 -0.4
v -1.8 4.5 -0.4
v 1.8 4.5 -0.4
v -1.8 4.5 -0.5
v 1.8 4.5 -0.5

# faces
f 3/6/1 2/6/1 1/6/1
f 4/6/1 2/6/1 3/6/1
f 7/6/1 6/6/1 5/6/1
f 8/6/1 6/6/1 7/6/1
f 9/6/2 10/6/2 11/6/2
f 11/6/2 10/6/2 12/6/2
f 13/6/2 14/6/2 15/6/2
f 15/6/2 14/6/2 16/6/2
f 19/6/3 18/6/3 17/6/3
f 20/6/3 18/6/3 19/6/3
f 21/6/3 18/6/3 20/6/3
f 22/6/3 18/6/3 21/6/3
f 23/6/3 18/6/3 22/6/3
f 24/6/3 18/6/3 23/6/3
f 25/6/3 19/6/3 17/6/3
f 25/5/3 20/5/3 19/5/3
f 26/4/3 21/4/3 20/4/3
f 26/5/3 20/5/3 25/5/3
f 27/3/3 22/3/3 21/3/3
f 27/4/3 21/4/3 26/4/3
f 28/2/3 23/2/3 22/2/3
f 28/3/3 22/3/3 27/3/3
f 29/1/3 24/1/3 23/1/3
f 29/2/3 23/2/3 28/2/3
f 30/6/3 18/6/3 24/6/3
f 30/1/3 24/1/3 29/1/3
f 31/6/3 29/6/3 28/6/3
f 31/6/3 28/6/3 27/6/3
f 31/6/3 30/6/3 29/6/3
f 31/6/3 27/6/3 26/6/3
f 31/6/3 26/6/3 25/6/3
f 31/6/3 25/6/3 17/6/3
f 32/6/3 18/6/3 30/6/3
f 32/6/3 30/6/3 31/6/3
f 35/6/3 34/6/3 33/6/3
f 36/6/3 34/6/3 35/6/3
f 37/6/3 35/6/3 33/6/3
f 38/6/3 34/6/3 36/6/3
f 39/6/3 37/6/3 33/6/3
f 39/6/3 38/6/3 37/6/3
f 40/6/3 34/6/3 38/6/3
f 40/6/3 38/6/3 39/6/3
f 41/6/4 42/6/4 43/6/4
f 43/6/4 42/6/4 44/6/4
f 47/6/5 46/6/5 45/6/5
f 48/6/5 46/6/5 47/6/5
f 51/6/5 50/6/5 49/6/5
f 52/6/5 50/6/5 51/6/5
f 53/6/6 54/6/6 55/6/6
f 55/6/6 54/6/6 56/6/6
f 57/6/6 58/6/6 59/6/6
f 59/6/6 58/6/6 60/6/6
