# MagicaVoxel @ Ephtracy

# group
o 

# material
mtllib papan_gantung_1.mtl
usemtl palette

# normals
vn -1 0 0
vn 1 0 0
vn 0 0 1
vn 0 0 -1
vn 0 -1 0
vn 0 1 0

# texcoords
vt 0.0761719 0.5
vt 0.220703 0.5
vt 0.228516 0.5
vt 0.255859 0.5
vt 0.263672 0.5
vt 0.283203 0.5
vt 0.287109 0.5
vt 0.376953 0.5
vt 0.380859 0.5
vt 0.384766 0.5

# verts
v -1.8 0.1 -0.4
v -1.8 0.1 -0.5
v -1.8 4.5 -0.4
v -1.8 4.5 -0.5
v -1.7 0.3 -0.3
v -1.7 0.3 -0.4
v -1.7 4.4 -0.3
v -1.7 4.4 -0.4
v 1.7 0.3 -0.3
v 1.7 0.3 -0.4
v 1.7 4.4 -0.3
v 1.7 4.4 -0.4
v 1.8 0.1 -0.4
v 1.8 0.1 -0.5
v 1.8 4.5 -0.4
v 1.8 4.5 -0.5
v -1.7 0.3 -0.3
v -1.7 4.4 -0.3
v -1.6 0.4 -0.3
v -1.6 1 -0.3
v -1.6 2 -0.3
v -1.6 4.3 -0.3
v -1.4 2.7 -0.3
v -1.4 2.9 -0.3
v -1.3 2.6 -0.3
v -1.3 2.7 -0.3
v -1.3 2.9 -0.3
v -1.3 3 -0.3
v -1.2 1 -0.3
v -1.2 1.1 -0.3
v -1.2 2.5 -0.3
v -1.2 2.6 -0.3
v -1.2 3 -0.3
v -1.2 3.1 -0.3
v -1.1 1.9 -0.3
v -1.1 2 -0.3
v -1.1 2.6 -0.3
v -1.1 2.9 -0.3
v -1 2.8 -0.3
v -1 3.1 -0.3
v -0.9 2.6 -0.3
v -0.9 2.8 -0.3
v -0.9 2.9 -0.3
v -0.9 3 -0.3
v -0.8 1.9 -0.3
v -0.8 2 -0.3
v -0.8 2.5 -0.3
v -0.8 2.6 -0.3
v -0.8 2.9 -0.3
v -0.8 3 -0.3
v -0.7 1.1 -0.3
v -0.7 1.2 -0.3
v -0.7 2 -0.3
v -0.7 2.1 -0.3
v -0.7 2.8 -0.3
v -0.7 3.1 -0.3
v -0.6 2.6 -0.3
v -0.6 2.8 -0.3
v -0.4 1.2 -0.3
v -0.4 1.3 -0.3
v -0.4 2 -0.3
v -0.4 2.1 -0.3
v -0.2 1.9 -0.3
v -0.2 2 -0.3
v -0.0999999 2 -0.3
v -0.0999999 2.3 -0.3
v -0.0999999 3.3 -0.3
v -0.0999999 3.6 -0.3
v 0 0.4 -0.3
v 0 1.3 -0.3
v 0 1.9 -0.3
v 0 2 -0.3
v 0 3.6 -0.3
v 0 4.3 -0.3
v 0.6 0.4 -0.3
v 0.6 1.2 -0.3
v 0.6 1.9 -0.3
v 0.6 2 -0.3
v 0.6 3.6 -0.3
v 0.6 4.3 -0.3
v 0.7 2 -0.3
v 0.7 2.3 -0.3
v 0.7 3.3 -0.3
v 0.7 3.6 -0.3
v 1.1 1.1 -0.3
v 1.1 1.2 -0.3
v 1.4 1.8 -0.3
v 1.4 1.9 -0.3
v 1.5 1 -0.3
v 1.5 1.1 -0.3
v 1.5 1.7 -0.3
v 1.5 1.8 -0.3
v 1.6 0.4 -0.3
v 1.6 1 -0.3
v 1.6 1.7 -0.3
v 1.6 4.3 -0.3
v 1.7 0.3 -0.3
v 1.7 4.4 -0.3
v -1.8 0.1 -0.4
v -1.8 4.5 -0.4
v -1.7 0.3 -0.4
v -1.7 4.4 -0.4
v 1.7 0.3 -0.4
v 1.7 4.4 -0.4
v 1.8 0.1 -0.4
v 1.8 4.5 -0.4
v -1.8 0.1 -0.5
v -1.8 4.5 -0.5
v 1.8 0.1 -0.5
v 1.8 4.5 -0.5
v -1.8 0.1 -0.4
v 1.8 0.1 -0.4
v -1.8 0.1 -0.5
v 1.8 0.1 -0.5
v -1.7 0.3 -0.3
v 1.7 0.3 -0.3
v -1.7 0.3 -0.4
v 1.7 0.3 -0.4
v -1.7 4.4 -0.3
v 1.7 4.4 -0.3
v -1.7 4.4 -0.4
v 1.7 4.4 -0.4
v -1.8 4.5 -0.4
v 1.8 4.5 -0.4
v -1.8 4.5 -0.5
v 1.8 4.5 -0.5

# faces
f 3/5/1 2/5/1 1/5/1
f 4/5/1 2/5/1 3/5/1
f 7/5/1 6/5/1 5/5/1
f 8/5/1 6/5/1 7/5/1
f 9/5/2 10/5/2 11/5/2
f 11/5/2 10/5/2 12/5/2
f 13/5/2 14/5/2 15/5/2
f 15/5/2 14/5/2 16/5/2
f 19/5/3 18/5/3 17/5/3
f 20/5/3 18/5/3 19/5/3
f 21/5/3 18/5/3 20/5/3
f 22/5/3 18/5/3 21/5/3
f 23/1/3 22/1/3 21/1/3
f 24/1/3 22/1/3 23/1/3
f 25/1/3 23/1/3 21/1/3
f 26/7/3 24/7/3 23/7/3
f 26/1/3 23/1/3 25/1/3
f 27/1/3 22/1/3 24/1/3
f 27/7/3 24/7/3 26/7/3
f 28/1/3 22/1/3 27/1/3
f 29/3/3 20/3/3 19/3/3
f 29/8/3 21/8/3 20/8/3
f 30/8/3 21/8/3 29/8/3
f 31/1/3 25/1/3 21/1/3
f 32/7/3 26/7/3 25/7/3
f 32/1/3 25/1/3 31/1/3
f 32/7/3 27/7/3 26/7/3
f 33/1/3 22/1/3 28/1/3
f 33/6/3 28/6/3 27/6/3
f 34/1/3 22/1/3 33/1/3
f 35/8/3 21/8/3 30/8/3
f 36/1/3 31/1/3 21/1/3
f 36/8/3 21/8/3 35/8/3
f 37/7/3 27/7/3 32/7/3
f 37/6/3 32/6/3 31/6/3
f 38/6/3 33/6/3 27/6/3
f 38/7/3 27/7/3 37/7/3
f 38/6/3 34/6/3 33/6/3
f 39/6/3 38/6/3 37/6/3
f 40/1/3 22/1/3 34/1/3
f 40/6/3 38/6/3 39/6/3
f 40/6/3 34/6/3 38/6/3
f 41/6/3 39/6/3 37/6/3
f 41/6/3 37/6/3 31/6/3
f 42/9/3 40/9/3 39/9/3
f 42/6/3 39/6/3 41/6/3
f 43/9/3 40/9/3 42/9/3
f 44/9/3 40/9/3 43/9/3
f 45/1/3 36/1/3 35/1/3
f 45/8/3 35/8/3 30/8/3
f 46/1/3 31/1/3 36/1/3
f 46/1/3 36/1/3 45/1/3
f 47/6/3 41/6/3 31/6/3
f 47/1/3 31/1/3 46/1/3
f 48/4/3 42/4/3 41/4/3
f 48/6/3 41/6/3 47/6/3
f 49/10/3 44/10/3 43/10/3
f 49/9/3 43/9/3 42/9/3
f 50/9/3 40/9/3 44/9/3
f 50/10/3 44/10/3 49/10/3
f 51/8/3 45/8/3 30/8/3
f 51/3/3 30/3/3 29/3/3
f 51/8/3 46/8/3 45/8/3
f 52/8/3 46/8/3 51/8/3
f 53/1/3 48/1/3 47/1/3
f 53/8/3 46/8/3 52/8/3
f 53/1/3 47/1/3 46/1/3
f 54/1/3 48/1/3 53/1/3
f 55/9/3 49/9/3 42/9/3
f 55/4/3 42/4/3 48/4/3
f 55/9/3 50/9/3 49/9/3
f 56/9/3 40/9/3 50/9/3
f 56/9/3 50/9/3 55/9/3
f 56/1/3 22/1/3 40/1/3
f 57/4/3 55/4/3 48/4/3
f 57/1/3 48/1/3 54/1/3
f 58/1/3 56/1/3 55/1/3
f 58/4/3 55/4/3 57/4/3
f 59/8/3 54/8/3 53/8/3
f 59/8/3 53/8/3 52/8/3
f 59/3/3 52/3/3 51/3/3
f 60/8/3 54/8/3 59/8/3
f 61/8/3 54/8/3 60/8/3
f 62/1/3 57/1/3 54/1/3
f 62/8/3 54/8/3 61/8/3
f 62/1/3 58/1/3 57/1/3
f 63/8/3 61/8/3 60/8/3
f 64/1/3 62/1/3 61/1/3
f 64/8/3 61/8/3 63/8/3
f 65/1/3 64/1/3 63/1/3
f 65/1/3 62/1/3 64/1/3
f 66/1/3 58/1/3 62/1/3
f 66/1/3 62/1/3 65/1/3
f 67/1/3 22/1/3 56/1/3
f 67/1/3 58/1/3 66/1/3
f 67/1/3 56/1/3 58/1/3
f 68/1/3 22/1/3 67/1/3
f 69/5/3 19/5/3 17/5/3
f 69/3/3 51/3/3 29/3/3
f 69/3/3 60/3/3 59/3/3
f 69/3/3 29/3/3 19/3/3
f 69/3/3 59/3/3 51/3/3
f 70/8/3 63/8/3 60/8/3
f 70/3/3 60/3/3 69/3/3
f 71/1/3 65/1/3 63/1/3
f 71/8/3 63/8/3 70/8/3
f 72/2/3 66/2/3 65/2/3
f 72/1/3 65/1/3 71/1/3
f 73/1/3 22/1/3 68/1/3
f 73/2/3 68/2/3 67/2/3
f 74/5/3 18/5/3 22/5/3
f 74/1/3 22/1/3 73/1/3
f 75/2/3 71/2/3 70/2/3
f 75/2/3 70/2/3 69/2/3
f 75/5/3 69/5/3 17/5/3
f 75/2/3 72/2/3 71/2/3
f 76/2/3 72/2/3 75/2/3
f 77/2/3 72/2/3 76/2/3
f 78/2/3 66/2/3 72/2/3
f 78/2/3 72/2/3 77/2/3
f 79/2/3 74/2/3 73/2/3
f 79/2/3 73/2/3 67/2/3
f 80/5/3 18/5/3 74/5/3
f 80/2/3 74/2/3 79/2/3
f 81/2/3 66/2/3 78/2/3
f 81/1/3 78/1/3 77/1/3
f 82/1/3 67/1/3 66/1/3
f 82/2/3 66/2/3 81/2/3
f 83/2/3 79/2/3 67/2/3
f 83/1/3 67/1/3 82/1/3
f 84/1/3 80/1/3 79/1/3
f 84/2/3 79/2/3 83/2/3
f 85/3/3 76/3/3 75/3/3
f 86/8/3 77/8/3 76/8/3
f 86/3/3 76/3/3 85/3/3
f 87/8/3 86/8/3 85/8/3
f 87/8/3 77/8/3 86/8/3
f 88/1/3 82/1/3 81/1/3
f 88/8/3 77/8/3 87/8/3
f 88/1/3 83/1/3 82/1/3
f 88/1/3 84/1/3 83/1/3
f 88/1/3 81/1/3 77/1/3
f 89/3/3 85/3/3 75/3/3
f 90/8/3 87/8/3 85/8/3
f 90/3/3 85/3/3 89/3/3
f 91/8/3 87/8/3 90/8/3
f 92/1/3 88/1/3 87/1/3
f 92/8/3 87/8/3 91/8/3
f 93/3/3 89/3/3 75/3/3
f 93/5/3 75/5/3 17/5/3
f 94/8/3 91/8/3 90/8/3
f 94/3/3 89/3/3 93/3/3
f 94/8/3 90/8/3 89/8/3
f 95/1/3 92/1/3 91/1/3
f 95/8/3 91/8/3 94/8/3
f 96/1/3 84/1/3 88/1/3
f 96/1/3 92/1/3 95/1/3
f 96/1/3 88/1/3 92/1/3
f 96/5/3 18/5/3 80/5/3
f 96/1/3 80/1/3 84/1/3
f 97/5/3 95/5/3 94/5/3
f 97/5/3 93/5/3 17/5/3
f 97/5/3 96/5/3 95/5/3
f 97/5/3 94/5/3 93/5/3
f 98/5/3 18/5/3 96/5/3
f 98/5/3 96/5/3 97/5/3
f 101/5/3 100/5/3 99/5/3
f 102/5/3 100/5/3 101/5/3
f 103/5/3 101/5/3 99/5/3
f 104/5/3 100/5/3 102/5/3
f 105/5/3 103/5/3 99/5/3
f 105/5/3 104/5/3 103/5/3
f 106/5/3 100/5/3 104/5/3
f 106/5/3 104/5/3 105/5/3
f 107/5/4 108/5/4 109/5/4
f 109/5/4 108/5/4 110/5/4
f 113/5/5 112/5/5 111/5/5
f 114/5/5 112/5/5 113/5/5
f 117/5/5 116/5/5 115/5/5
f 118/5/5 116/5/5 117/5/5
f 119/5/6 120/5/6 121/5/6
f 121/5/6 120/5/6 122/5/6
f 123/5/6 124/5/6 125/5/6
f 125/5/6 124/5/6 126/5/6
