# MagicaVoxel @ Ephtracy

# group
o 

# material
mtllib papan_gantung_2.mtl
usemtl palette

# normals
vn -1 0 0
vn 1 0 0
vn 0 0 1
vn 0 0 -1
vn 0 -1 0
vn 0 1 0

# texcoords
vt 0.0371094 0.5
vt 0.158203 0.5
vt 0.162109 0.5
vt 0.263672 0.5
vt 0.287109 0.5
vt 0.361328 0.5

# verts
v -1.8 0.1 -0.4
v -1.8 0.1 -0.5
v -1.8 4.5 -0.4
v -1.8 4.5 -0.5
v -1.7 0.3 -0.3
v -1.7 0.3 -0.4
v -1.7 4.4 -0.3
v -1.7 4.4 -0.4
v 1.7 0.3 -0.3
v 1.7 0.3 -0.4
v 1.7 4.4 -0.3
v 1.7 4.4 -0.4
v 1.8 0.1 -0.4
v 1.8 0.1 -0.5
v 1.8 4.5 -0.4
v 1.8 4.5 -0.5
v -1.7 0.3 -0.3
v -1.7 4.4 -0.3
v -1.6 0.4 -0.3
v -1.6 4.3 -0.3
v -1.1 1.9 -0.3
v -1.1 2.1 -0.3
v -0.9 0.7 -0.3
v -0.9 0.9 -0.3
v -0.9 2.1 -0.3
v -0.9 2.3 -0.3
v -0.9 2.6 -0.3
v -0.9 3.2 -0.3
v -0.7 0.9 -0.3
v -0.7 1.1 -0.3
v -0.7 1.5 -0.3
v -0.7 1.7 -0.3
v -0.7 1.9 -0.3
v -0.7 2.3 -0.3
v -0.7 2.5 -0.3
v -0.7 2.8 -0.3
v -0.7 3.2 -0.3
v -0.7 3.4 -0.3
v -0.7 4 -0.3
v -0.5 1.5 -0.3
v -0.5 1.7 -0.3
v -0.5 1.9 -0.3
v -0.5 2.6 -0.3
v -0.5 2.8 -0.3
v -0.5 3.2 -0.3
v -0.3 0.7 -0.3
v -0.3 1.1 -0.3
v -0.3 1.9 -0.3
v -0.3 2.1 -0.3
v -0.3 2.5 -0.3
v -0.3 3 -0.3
v -0.3 3.2 -0.3
v -0.0999999 1.1 -0.3
v -0.0999999 1.3 -0.3
v -0.0999999 1.9 -0.3
v -0.0999999 2.1 -0.3
v -0.0999999 2.5 -0.3
v 0 2.8 -0.3
v 0 3 -0.3
v 0 3.2 -0.3
v 0 3.4 -0.3
v 0.1 1.1 -0.3
v 0.1 1.3 -0.3
v 0.1 1.9 -0.3
v 0.1 2.1 -0.3
v 0.1 2.5 -0.3
v 0.2 2.6 -0.3
v 0.2 2.8 -0.3
v 0.2 3 -0.3
v 0.2 3.4 -0.3
v 0.3 0.7 -0.3
v 0.3 1.1 -0.3
v 0.3 1.9 -0.3
v 0.3 2.1 -0.3
v 0.3 2.5 -0.3
v 0.4 2.8 -0.3
v 0.4 3 -0.3
v 0.4 3.4 -0.3
v 0.4 3.7 -0.3
v 0.4 4 -0.3
v 0.5 1.5 -0.3
v 0.5 1.7 -0.3
v 0.5 1.9 -0.3
v 0.6 2.8 -0.3
v 0.6 3 -0.3
v 0.7 0.9 -0.3
v 0.7 1.1 -0.3
v 0.7 1.5 -0.3
v 0.7 1.7 -0.3
v 0.7 1.9 -0.3
v 0.7 2.3 -0.3
v 0.7 2.5 -0.3
v 0.8 3.4 -0.3
v 0.8 3.7 -0.3
v 0.9 0.7 -0.3
v 0.9 0.9 -0.3
v 0.9 2.1 -0.3
v 0.9 2.3 -0.3
v 0.9 2.6 -0.3
v 0.9 2.8 -0.3
v 1.1 1.9 -0.3
v 1.1 2.1 -0.3
v 1.6 0.4 -0.3
v 1.6 4.3 -0.3
v 1.7 0.3 -0.3
v 1.7 4.4 -0.3
v -1.8 0.1 -0.4
v -1.8 4.5 -0.4
v -1.7 0.3 -0.4
v -1.7 4.4 -0.4
v 1.7 0.3 -0.4
v 1.7 4.4 -0.4
v 1.8 0.1 -0.4
v 1.8 4.5 -0.4
v -1.8 0.1 -0.5
v -1.8 4.5 -0.5
v 1.8 0.1 -0.5
v 1.8 4.5 -0.5
v -1.8 0.1 -0.4
v 1.8 0.1 -0.4
v -1.8 0.1 -0.5
v 1.8 0.1 -0.5
v -1.7 0.3 -0.3
v 1.7 0.3 -0.3
v -1.7 0.3 -0.4
v 1.7 0.3 -0.4
v -1.7 4.4 -0.3
v 1.7 4.4 -0.3
v -1.7 4.4 -0.4
v 1.7 4.4 -0.4
v -1.8 4.5 -0.4
v 1.8 4.5 -0.4
v -1.8 4.5 -0.5
v 1.8 4.5 -0.5

# faces
f 3/4/1 2/4/1 1/4/1
f 4/4/1 2/4/1 3/4/1
f 7/4/1 6/4/1 5/4/1
f 8/4/1 6/4/1 7/4/1
f 9/4/2 10/4/2 11/4/2
f 11/4/2 10/4/2 12/4/2
f 13/4/2 14/4/2 15/4/2
f 15/4/2 14/4/2 16/4/2
f 19/4/3 18/4/3 17/4/3
f 20/4/3 18/4/3 19/4/3
f 21/1/3 20/1/3 19/1/3
f 22/1/3 20/1/3 21/1/3
f 23/1/3 21/1/3 19/1/3
f 24/1/3 21/1/3 23/1/3
f 25/1/3 20/1/3 22/1/3
f 25/5/3 22/5/3 21/5/3
f 26/1/3 20/1/3 25/1/3
f 27/1/3 20/1/3 26/1/3
f 28/1/3 20/1/3 27/1/3
f 29/1/3 21/1/3 24/1/3
f 29/4/3 24/4/3 23/4/3
f 30/1/3 21/1/3 29/1/3
f 31/1/3 21/1/3 30/1/3
f 32/1/3 21/1/3 31/1/3
f 33/5/3 25/5/3 21/5/3
f 33/1/3 21/1/3 32/1/3
f 33/5/3 26/5/3 25/5/3
f 34/1/3 27/1/3 26/1/3
f 34/5/3 26/5/3 33/5/3
f 35/1/3 27/1/3 34/1/3
f 36/4/3 28/4/3 27/4/3
f 37/1/3 20/1/3 28/1/3
f 37/4/3 28/4/3 36/4/3
f 38/1/3 20/1/3 37/1/3
f 39/1/3 20/1/3 38/1/3
f 40/1/3 32/1/3 31/1/3
f 40/2/3 31/2/3 30/2/3
f 41/5/3 33/5/3 32/5/3
f 41/1/3 32/1/3 40/1/3
f 41/5/3 34/5/3 33/5/3
f 41/5/3 35/5/3 34/5/3
f 42/5/3 35/5/3 41/5/3
f 43/4/3 36/4/3 27/4/3
f 43/1/3 27/1/3 35/1/3
f 44/1/3 37/1/3 36/1/3
f 44/4/3 36/4/3 43/4/3
f 45/4/3 38/4/3 37/4/3
f 45/1/3 37/1/3 44/1/3
f 46/1/3 23/1/3 19/1/3
f 46/4/3 29/4/3 23/4/3
f 46/4/3 30/4/3 29/4/3
f 47/2/3 42/2/3 41/2/3
f 47/4/3 30/4/3 46/4/3
f 47/2/3 40/2/3 30/2/3
f 47/2/3 41/2/3 40/2/3
f 48/5/3 35/5/3 42/5/3
f 48/2/3 42/2/3 47/2/3
f 49/5/3 35/5/3 48/5/3
f 50/1/3 43/1/3 35/1/3
f 50/5/3 35/5/3 49/5/3
f 50/1/3 44/1/3 43/1/3
f 51/4/3 45/4/3 44/4/3
f 52/4/3 38/4/3 45/4/3
f 52/4/3 45/4/3 51/4/3
f 53/1/3 47/1/3 46/1/3
f 53/2/3 48/2/3 47/2/3
f 54/2/3 48/2/3 53/2/3
f 55/3/3 49/3/3 48/3/3
f 55/2/3 48/2/3 54/2/3
f 56/2/3 50/2/3 49/2/3
f 56/3/3 49/3/3 55/3/3
f 57/1/3 44/1/3 50/1/3
f 57/2/3 50/2/3 56/2/3
f 58/4/3 51/4/3 44/4/3
f 58/1/3 44/1/3 57/1/3
f 58/1/3 57/1/3 56/1/3
f 59/1/3 52/1/3 51/1/3
f 59/4/3 51/4/3 58/4/3
f 60/4/3 38/4/3 52/4/3
f 60/1/3 52/1/3 59/1/3
f 61/5/3 39/5/3 38/5/3
f 61/4/3 38/4/3 60/4/3
f 62/1/3 53/1/3 46/1/3
f 62/1/3 54/1/3 53/1/3
f 63/2/3 56/2/3 55/2/3
f 63/1/3 54/1/3 62/1/3
f 63/2/3 55/2/3 54/2/3
f 64/2/3 56/2/3 63/2/3
f 65/1/3 59/1/3 58/1/3
f 65/2/3 56/2/3 64/2/3
f 65/1/3 60/1/3 59/1/3
f 65/1/3 61/1/3 60/1/3
f 65/1/3 58/1/3 56/1/3
f 66/1/3 61/1/3 65/1/3
f 67/1/3 61/1/3 66/1/3
f 68/1/3 61/1/3 67/1/3
f 69/1/3 61/1/3 68/1/3
f 70/5/3 39/5/3 61/5/3
f 70/1/3 61/1/3 69/1/3
f 71/1/3 46/1/3 19/1/3
f 71/1/3 62/1/3 46/1/3
f 72/2/3 64/2/3 63/2/3
f 72/1/3 62/1/3 71/1/3
f 72/2/3 63/2/3 62/2/3
f 73/3/3 65/3/3 64/3/3
f 73/2/3 64/2/3 72/2/3
f 74/2/3 66/2/3 65/2/3
f 74/3/3 65/3/3 73/3/3
f 75/1/3 67/1/3 66/1/3
f 75/2/3 66/2/3 74/2/3
f 76/1/3 69/1/3 68/1/3
f 76/4/3 68/4/3 67/4/3
f 77/6/3 70/6/3 69/6/3
f 77/1/3 69/1/3 76/1/3
f 78/5/3 39/5/3 70/5/3
f 78/6/3 70/6/3 77/6/3
f 79/5/3 39/5/3 78/5/3
f 80/1/3 20/1/3 39/1/3
f 80/5/3 39/5/3 79/5/3
f 81/2/3 73/2/3 72/2/3
f 82/2/3 73/2/3 81/2/3
f 83/5/3 75/5/3 74/5/3
f 83/2/3 73/2/3 82/2/3
f 83/5/3 74/5/3 73/5/3
f 84/4/3 77/4/3 76/4/3
f 84/4/3 76/4/3 67/4/3
f 85/1/3 78/1/3 77/1/3
f 85/4/3 77/4/3 84/4/3
f 86/4/3 72/4/3 71/4/3
f 87/2/3 81/2/3 72/2/3
f 87/4/3 72/4/3 86/4/3
f 88/1/3 82/1/3 81/1/3
f 88/2/3 81/2/3 87/2/3
f 89/5/3 83/5/3 82/5/3
f 89/1/3 82/1/3 88/1/3
f 90/5/3 75/5/3 83/5/3
f 90/5/3 83/5/3 89/5/3
f 91/5/3 75/5/3 90/5/3
f 92/1/3 67/1/3 75/1/3
f 92/5/3 75/5/3 91/5/3
f 93/5/3 79/5/3 78/5/3
f 93/1/3 78/1/3 85/1/3
f 93/1/3 85/1/3 84/1/3
f 94/1/3 80/1/3 79/1/3
f 94/5/3 79/5/3 93/5/3
f 95/1/3 71/1/3 19/1/3
f 95/4/3 86/4/3 71/4/3
f 96/1/3 89/1/3 88/1/3
f 96/4/3 86/4/3 95/4/3
f 96/1/3 87/1/3 86/1/3
f 96/1/3 90/1/3 89/1/3
f 96/1/3 88/1/3 87/1/3
f 97/5/3 91/5/3 90/5/3
f 98/1/3 92/1/3 91/1/3
f 98/5/3 91/5/3 97/5/3
f 99/1/3 67/1/3 92/1/3
f 99/1/3 92/1/3 98/1/3
f 99/4/3 84/4/3 67/4/3
f 100/1/3 93/1/3 84/1/3
f 100/4/3 84/4/3 99/4/3
f 100/1/3 94/1/3 93/1/3
f 101/1/3 90/1/3 96/1/3
f 101/1/3 96/1/3 95/1/3
f 101/5/3 97/5/3 90/5/3
f 102/1/3 98/1/3 97/1/3
f 102/5/3 97/5/3 101/5/3
f 102/1/3 99/1/3 98/1/3
f 102/1/3 100/1/3 99/1/3
f 103/4/3 19/4/3 17/4/3
f 103/1/3 95/1/3 19/1/3
f 103/1/3 102/1/3 101/1/3
f 103/1/3 101/1/3 95/1/3
f 104/1/3 100/1/3 102/1/3
f 104/1/3 102/1/3 103/1/3
f 104/4/3 18/4/3 20/4/3
f 104/1/3 94/1/3 100/1/3
f 104/1/3 20/1/3 80/1/3
f 104/1/3 80/1/3 94/1/3
f 105/4/3 103/4/3 17/4/3
f 105/4/3 104/4/3 103/4/3
f 106/4/3 18/4/3 104/4/3
f 106/4/3 104/4/3 105/4/3
f 109/4/3 108/4/3 107/4/3
f 110/4/3 108/4/3 109/4/3
f 111/4/3 109/4/3 107/4/3
f 112/4/3 108/4/3 110/4/3
f 113/4/3 111/4/3 107/4/3
f 113/4/3 112/4/3 111/4/3
f 114/4/3 108/4/3 112/4/3
f 114/4/3 112/4/3 113/4/3
f 115/4/4 116/4/4 117/4/4
f 117/4/4 116/4/4 118/4/4
f 121/4/5 120/4/5 119/4/5
f 122/4/5 120/4/5 121/4/5
f 125/4/5 124/4/5 123/4/5
f 126/4/5 124/4/5 125/4/5
f 127/4/6 128/4/6 129/4/6
f 129/4/6 128/4/6 130/4/6
f 131/4/6 132/4/6 133/4/6
f 133/4/6 132/4/6 134/4/6
