# MagicaVoxel @ Ephtracy

# group
o 

# material
mtllib student_desk.mtl
usemtl palette

# normals
vn -1 0 0
vn 1 0 0
vn 0 0 1
vn 0 0 -1
vn 0 -1 0
vn 0 1 0

# texcoords
vt 0.111328 0.5
vt 0.115234 0.5

# verts
v -1.9 2.9 0.7
v -1.9 2.9 -1.4
v -1.9 3.1 0.7
v -1.9 3.1 -1.4
v -1.8 0 0.6
v -1.8 0 -1.3
v -1.8 0.2 0.4
v -1.8 0.2 -0.8
v -1.8 2.6 0.4
v -1.8 2.6 -0.8
v -1.8 2.9 0.6
v -1.8 2.9 -1.3
v -1.5 2.4 0.4
v -1.5 2.4 -0.8
v -1.5 2.6 0.4
v -1.5 2.6 -0.8
v 1.4 2.5 0.6
v 1.4 2.5 -0.9
v 1.4 2.9 0.6
v 1.4 2.9 -0.9
v 1.5 0 0.6
v 1.5 0 -1.3
v 1.5 0.2 0.4
v 1.5 0.2 -0.8
v 1.5 2.4 0.6
v 1.5 2.4 0.4
v 1.5 2.4 -0.8
v 1.5 2.4 -1.3
v -1.5 0 0.6
v -1.5 0 -1.3
v -1.5 0.2 0.4
v -1.5 0.2 -0.8
v -1.5 2.4 0.6
v -1.5 2.4 0.4
v -1.5 2.4 -0.8
v -1.5 2.4 -1.3
v -1.4 2.5 0.6
v -1.4 2.5 -0.9
v -1.4 2.9 0.6
v -1.4 2.9 -0.9
v 1.5 2.4 0.4
v 1.5 2.4 -0.8
v 1.5 2.6 0.4
v 1.5 2.6 -0.8
v 1.8 0 0.6
v 1.8 0 -1.3
v 1.8 0.2 0.4
v 1.8 0.2 -0.8
v 1.8 2.6 0.4
v 1.8 2.6 -0.8
v 1.8 2.9 0.6
v 1.8 2.9 -1.3
v 1.9 2.9 0.7
v 1.9 2.9 -1.4
v 1.9 3.1 0.7
v 1.9 3.1 -1.4
v -1.9 2.9 0.7
v -1.9 3.1 0.7
v 1.9 2.9 0.7
v 1.9 3.1 0.7
v -1.8 0 0.6
v -1.8 2.9 0.6
v -1.5 0 0.6
v -1.5 2.4 0.6
v -1.5 2.9 0.6
v -1.4 2.5 0.6
v -1.4 2.9 0.6
v 1.4 2.5 0.6
v 1.4 2.9 0.6
v 1.5 0 0.6
v 1.5 2.4 0.6
v 1.5 2.9 0.6
v 1.8 0 0.6
v 1.8 2.9 0.6
v -1.8 0.2 -0.8
v -1.8 2.6 -0.8
v -1.5 0.2 -0.8
v -1.5 2.4 -0.8
v -1.5 2.6 -0.8
v 1.5 0.2 -0.8
v 1.5 2.4 -0.8
v 1.5 2.6 -0.8
v 1.8 0.2 -0.8
v 1.8 2.6 -0.8
v -1.4 2.5 -0.9
v -1.4 2.9 -0.9
v 1.4 2.5 -0.9
v 1.4 2.9 -0.9
v -1.8 0.2 0.4
v -1.8 2.6 0.4
v -1.5 0.2 0.4
v -1.5 2.4 0.4
v -1.5 2.6 0.4
v 1.5 0.2 0.4
v 1.5 2.4 0.4
v 1.5 2.6 0.4
v 1.8 0.2 0.4
v 1.8 2.6 0.4
v -1.8 0 -1.3
v -1.8 2.9 -1.3
v -1.5 0 -1.3
v -1.5 2.4 -1.3
v -1.5 2.9 -1.3
v 1.5 0 -1.3
v 1.5 2.4 -1.3
v 1.5 2.9 -1.3
v 1.8 0 -1.3
v 1.8 2.9 -1.3
v -1.9 2.9 -1.4
v -1.9 3.1 -1.4
v 1.9 2.9 -1.4
v 1.9 3.1 -1.4
v -1.8 0 0.6
v -1.5 0 0.6
v 1.5 0 0.6
v 1.8 0 0.6
v -1.8 0 -1.3
v -1.5 0 -1.3
v 1.5 0 -1.3
v 1.8 0 -1.3
v -1.5 2.4 0.6
v 1.5 2.4 0.6
v -1.5 2.4 0.4
v 1.5 2.4 0.4
v -1.5 2.4 -0.8
v 1.5 2.4 -0.8
v -1.5 2.4 -1.3
v 1.5 2.4 -1.3
v -1.8 2.6 0.4
v -1.5 2.6 0.4
v 1.5 2.6 0.4
v 1.8 2.6 0.4
v -1.8 2.6 -0.8
v -1.5 2.6 -0.8
v 1.5 2.6 -0.8
v 1.8 2.6 -0.8
v -1.9 2.9 0.7
v 1.9 2.9 0.7
v -1.8 2.9 0.6
v -1.5 2.9 0.6
v -1.4 2.9 0.6
v 1.4 2.9 0.6
v 1.5 2.9 0.6
v 1.8 2.9 0.6
v -1.4 2.9 -0.9
v 1.4 2.9 -0.9
v -1.8 2.9 -1.3
v -1.5 2.9 -1.3
v 1.5 2.9 -1.3
v 1.8 2.9 -1.3
v -1.9 2.9 -1.4
v 1.9 2.9 -1.4
v -1.8 0.2 0.4
v -1.5 0.2 0.4
v 1.5 0.2 0.4
v 1.8 0.2 0.4
v -1.8 0.2 -0.8
v -1.5 0.2 -0.8
v 1.5 0.2 -0.8
v 1.8 0.2 -0.8
v -1.4 2.5 0.6
v 1.4 2.5 0.6
v -1.4 2.5 -0.9
v 1.4 2.5 -0.9
v -1.9 3.1 0.7
v 1.9 3.1 0.7
v -1.9 3.1 -1.4
v 1.9 3.1 -1.4

# faces
f 3/1/1 2/1/1 1/1/1
f 4/1/1 2/1/1 3/1/1
f 7/2/1 6/2/1 5/2/1
f 8/2/1 6/2/1 7/2/1
f 9/2/1 7/2/1 5/2/1
f 10/2/1 6/2/1 8/2/1
f 11/2/1 9/2/1 5/2/1
f 11/2/1 10/2/1 9/2/1
f 12/2/1 6/2/1 10/2/1
f 12/2/1 10/2/1 11/2/1
f 15/1/1 14/1/1 13/1/1
f 16/1/1 14/1/1 15/1/1
f 19/1/1 18/1/1 17/1/1
f 20/1/1 18/1/1 19/1/1
f 23/2/1 22/2/1 21/2/1
f 24/2/1 22/2/1 23/2/1
f 25/2/1 23/2/1 21/2/1
f 26/2/1 23/2/1 25/2/1
f 27/2/1 22/2/1 24/2/1
f 28/2/1 22/2/1 27/2/1
f 29/2/2 30/2/2 31/2/2
f 31/2/2 30/2/2 32/2/2
f 29/2/2 31/2/2 33/2/2
f 33/2/2 31/2/2 34/2/2
f 32/2/2 30/2/2 35/2/2
f 35/2/2 30/2/2 36/2/2
f 37/1/2 38/1/2 39/1/2
f 39/1/2 38/1/2 40/1/2
f 41/1/2 42/1/2 43/1/2
f 43/1/2 42/1/2 44/1/2
f 45/2/2 46/2/2 47/2/2
f 47/2/2 46/2/2 48/2/2
f 45/2/2 47/2/2 49/2/2
f 48/2/2 46/2/2 50/2/2
f 45/2/2 49/2/2 51/2/2
f 49/2/2 50/2/2 51/2/2
f 50/2/2 46/2/2 52/2/2
f 51/2/2 50/2/2 52/2/2
f 53/1/2 54/1/2 55/1/2
f 55/1/2 54/1/2 56/1/2
f 59/1/3 58/1/3 57/1/3
f 60/1/3 58/1/3 59/1/3
f 63/2/3 62/2/3 61/2/3
f 64/2/3 62/2/3 63/2/3
f 65/2/3 62/2/3 64/2/3
f 66/1/3 65/1/3 64/1/3
f 67/1/3 65/1/3 66/1/3
f 68/1/3 66/1/3 64/1/3
f 71/1/3 68/1/3 64/1/3
f 71/1/3 69/1/3 68/1/3
f 72/1/3 69/1/3 71/1/3
f 73/2/3 71/2/3 70/2/3
f 73/2/3 72/2/3 71/2/3
f 74/2/3 72/2/3 73/2/3
f 77/2/3 76/2/3 75/2/3
f 78/2/3 76/2/3 77/2/3
f 79/2/3 76/2/3 78/2/3
f 83/2/3 81/2/3 80/2/3
f 83/2/3 82/2/3 81/2/3
f 84/2/3 82/2/3 83/2/3
f 87/1/3 86/1/3 85/1/3
f 88/1/3 86/1/3 87/1/3
f 89/2/4 90/2/4 91/2/4
f 91/2/4 90/2/4 92/2/4
f 92/2/4 90/2/4 93/2/4
f 94/2/4 95/2/4 97/2/4
f 95/2/4 96/2/4 97/2/4
f 97/2/4 96/2/4 98/2/4
f 99/2/4 100/2/4 101/2/4
f 101/2/4 100/2/4 102/2/4
f 102/2/4 100/2/4 103/2/4
f 102/1/4 103/1/4 105/1/4
f 105/1/4 103/1/4 106/1/4
f 104/2/4 105/2/4 107/2/4
f 105/2/4 106/2/4 107/2/4
f 107/2/4 106/2/4 108/2/4
f 109/1/4 110/1/4 111/1/4
f 111/1/4 110/1/4 112/1/4
f 117/2/5 114/2/5 113/2/5
f 118/2/5 114/2/5 117/2/5
f 119/2/5 116/2/5 115/2/5
f 120/2/5 116/2/5 119/2/5
f 123/1/5 122/1/5 121/1/5
f 124/1/5 122/1/5 123/1/5
f 125/1/5 124/1/5 123/1/5
f 126/1/5 124/1/5 125/1/5
f 127/1/5 126/1/5 125/1/5
f 128/1/5 126/1/5 127/1/5
f 133/2/5 130/2/5 129/2/5
f 134/2/5 130/2/5 133/2/5
f 135/2/5 132/2/5 131/2/5
f 136/2/5 132/2/5 135/2/5
f 139/1/5 138/1/5 137/1/5
f 140/1/5 138/1/5 139/1/5
f 141/1/5 138/1/5 140/1/5
f 142/1/5 138/1/5 141/1/5
f 143/1/5 138/1/5 142/1/5
f 144/1/5 138/1/5 143/1/5
f 145/1/5 142/1/5 141/1/5
f 146/1/5 142/1/5 145/1/5
f 147/1/5 139/1/5 137/1/5
f 150/1/5 138/1/5 144/1/5
f 151/1/5 148/1/5 147/1/5
f 151/1/5 150/1/5 149/1/5
f 151/1/5 149/1/5 148/1/5
f 151/1/5 147/1/5 137/1/5
f 152/1/5 138/1/5 150/1/5
f 152/1/5 150/1/5 151/1/5
f 153/2/6 154/2/6 157/2/6
f 157/2/6 154/2/6 158/2/6
f 155/2/6 156/2/6 159/2/6
f 159/2/6 156/2/6 160/2/6
f 161/1/6 162/1/6 163/1/6
f 163/1/6 162/1/6 164/1/6
f 165/1/6 166/1/6 167/1/6
f 167/1/6 166/1/6 168/1/6
