# MagicaVoxel @ Ephtracy

# group
o 

# material
mtllib student_chair.mtl
usemtl palette

# normals
vn -1 0 0
vn 1 0 0
vn 0 0 1
vn 0 0 -1
vn 0 -1 0
vn 0 1 0

# texcoords
vt 0.0644531 0.5
vt 0.103516 0.5
vt 0.115234 0.5

# verts
v -1.1 0 0.9
v -1.1 0 0.7
v -1.1 0 -0.8
v -1.1 0 -1
v -1.1 0.2 0.9
v -1.1 0.2 0.7
v -1.1 0.2 -0.8
v -1.1 0.2 -1
v -1.1 1.6 1
v -1.1 1.6 0.9
v -1.1 1.7 1.1
v -1.1 1.7 1
v -1.1 1.7 0.7
v -1.1 1.7 -0.8
v -1.1 1.8 1.2
v -1.1 1.8 1.1
v -1.1 1.8 0.9
v -1.1 1.8 -1
v -1.1 1.9 1.1
v -1.1 1.9 0.9
v -1.1 1.9 -1
v -1.1 3.6 1.2
v -1.1 3.6 1.1
v -1 1.6 0.7
v -1 1.6 -0.8
v -1 1.7 0.7
v -1 1.7 -0.8
v -0.9 3.2 1.1
v -0.9 3.2 1
v -0.9 3.6 1.1
v -0.9 3.6 1
v -0.8 3.1 1.1
v -0.8 3.1 1
v -0.8 3.2 1.1
v -0.8 3.2 1
v -0.8 3.6 1.1
v -0.8 3.6 1
v -0.8 3.7 1.1
v -0.8 3.7 1
v 0.8 2 1.2
v 0.8 2 1.1
v 0.8 2.5 1.2
v 0.8 2.5 1.1
v 0.8 2.7 1.2
v 0.8 2.7 1.1
v 0.8 3.1 1.1
v 0.8 3.2 1.2
v 0.8 3.2 1.1
v 0.9 0 0.9
v 0.9 0 0.7
v 0.9 0 -0.8
v 0.9 0 -1
v 0.9 0.2 0.9
v 0.9 0.2 0.7
v 0.9 0.2 -0.8
v 0.9 0.2 -1
v 0.9 1.6 0.9
v 0.9 1.6 0.7
v 0.9 1.6 -0.8
v 0.9 1.6 -0.9
v 0.9 1.7 -0.9
v 0.9 1.7 -1
v -0.9 0 0.9
v -0.9 0 0.7
v -0.9 0 -0.8
v -0.9 0 -1
v -0.9 0.2 0.9
v -0.9 0.2 0.7
v -0.9 0.2 -0.8
v -0.9 0.2 -1
v -0.9 1.6 0.9
v -0.9 1.6 0.7
v -0.9 1.6 -0.8
v -0.9 1.6 -0.9
v -0.9 1.7 -0.9
v -0.9 1.7 -1
v -0.8 2 1.2
v -0.8 2 1.1
v -0.8 2.5 1.2
v -0.8 2.5 1.1
v -0.8 2.7 1.2
v -0.8 2.7 1.1
v -0.8 3.1 1.1
v -0.8 3.2 1.2
v -0.8 3.2 1.1
v 0.8 3.1 1.1
v 0.8 3.1 1
v 0.8 3.2 1.1
v 0.8 3.2 1
v 0.8 3.6 1.1
v 0.8 3.6 1
v 0.8 3.7 1.1
v 0.8 3.7 1
v 0.9 3.2 1.1
v 0.9 3.2 1
v 0.9 3.6 1.1
v 0.9 3.6 1
v 1 1.6 0.7
v 1 1.6 -0.8
v 1 1.7 0.7
v 1 1.7 -0.8
v 1.1 0 0.9
v 1.1 0 0.7
v 1.1 0 -0.8
v 1.1 0 -1
v 1.1 0.2 0.9
v 1.1 0.2 0.7
v 1.1 0.2 -0.8
v 1.1 0.2 -1
v 1.1 1.6 1
v 1.1 1.6 0.9
v 1.1 1.7 1.1
v 1.1 1.7 1
v 1.1 1.7 0.7
v 1.1 1.7 -0.8
v 1.1 1.8 1.2
v 1.1 1.8 1.1
v 1.1 1.8 0.9
v 1.1 1.8 -1
v 1.1 1.9 1.1
v 1.1 1.9 0.9
v 1.1 1.9 -1
v 1.1 3.6 1.2
v 1.1 3.6 1.1
v -1.1 1.8 1.2
v -1.1 3.6 1.2
v -0.8 2 1.2
v -0.8 2.5 1.2
v -0.8 2.7 1.2
v -0.8 3.2 1.2
v 0.8 2 1.2
v 0.8 2.5 1.2
v 0.8 2.7 1.2
v 0.8 3.2 1.2
v 1.1 1.8 1.2
v 1.1 3.6 1.2
v -1.1 1.7 1.1
v -1.1 1.8 1.1
v -0.8 3.1 1.1
v -0.8 3.2 1.1
v -0.8 3.6 1.1
v -0.8 3.7 1.1
v 0.8 3.1 1.1
v 0.8 3.2 1.1
v 0.8 3.6 1.1
v 0.8 3.7 1.1
v 1.1 1.7 1.1
v 1.1 1.8 1.1
v -1.1 1.6 1
v -1.1 1.7 1
v 1.1 1.6 1
v 1.1 1.7 1
v -1.1 0 0.9
v -1.1 0.2 0.9
v -1.1 1.6 0.9
v -0.9 0 0.9
v -0.9 0.2 0.9
v -0.9 1.6 0.9
v 0.9 0 0.9
v 0.9 0.2 0.9
v 0.9 1.6 0.9
v 1.1 0 0.9
v 1.1 0.2 0.9
v 1.1 1.6 0.9
v -1.1 0 -0.8
v -1.1 0.2 -0.8
v -1.1 1.7 -0.8
v -1 1.6 -0.8
v -1 1.7 -0.8
v -0.9 0 -0.8
v -0.9 0.2 -0.8
v -0.9 1.6 -0.8
v 0.9 0 -0.8
v 0.9 0.2 -0.8
v 0.9 1.6 -0.8
v 1 1.6 -0.8
v 1 1.7 -0.8
v 1.1 0 -0.8
v 1.1 0.2 -0.8
v 1.1 1.7 -0.8
v -1.1 1.9 1.1
v -1.1 3.6 1.1
v -0.9 3.2 1.1
v -0.9 3.6 1.1
v -0.8 2 1.1
v -0.8 2.5 1.1
v -0.8 2.7 1.1
v -0.8 3.1 1.1
v -0.8 3.2 1.1
v 0.8 2 1.1
v 0.8 2.5 1.1
v 0.8 2.7 1.1
v 0.8 3.1 1.1
v 0.8 3.2 1.1
v 0.9 3.2 1.1
v 0.9 3.6 1.1
v 1.1 1.9 1.1
v 1.1 3.6 1.1
v -0.9 3.2 1
v -0.9 3.6 1
v -0.8 3.1 1
v -0.8 3.2 1
v -0.8 3.6 1
v -0.8 3.7 1
v 0.8 3.1 1
v 0.8 3.2 1
v 0.8 3.6 1
v 0.8 3.7 1
v 0.9 3.2 1
v 0.9 3.6 1
v -1.1 0 0.7
v -1.1 0.2 0.7
v -1.1 1.7 0.7
v -1 1.6 0.7
v -1 1.7 0.7
v -0.9 0 0.7
v -0.9 0.2 0.7
v -0.9 1.6 0.7
v 0.9 0 0.7
v 0.9 0.2 0.7
v 0.9 1.6 0.7
v 1 1.6 0.7
v 1 1.7 0.7
v 1.1 0 0.7
v 1.1 0.2 0.7
v 1.1 1.7 0.7
v -0.9 1.6 -0.9
v -0.9 1.7 -0.9
v 0.9 1.6 -0.9
v 0.9 1.7 -0.9
v -1.1 0 -1
v -1.1 0.2 -1
v -1.1 1.8 -1
v -1.1 1.9 -1
v -0.9 0 -1
v -0.9 0.2 -1
v -0.9 1.7 -1
v 0.9 0 -1
v 0.9 0.2 -1
v 0.9 1.7 -1
v 1.1 0 -1
v 1.1 0.2 -1
v 1.1 1.8 -1
v 1.1 1.9 -1
v -1.1 0 0.9
v -0.9 0 0.9
v 0.9 0 0.9
v 1.1 0 0.9
v -1.1 0 0.7
v -0.9 0 0.7
v 0.9 0 0.7
v 1.1 0 0.7
v -1.1 0 -0.8
v -0.9 0 -0.8
v 0.9 0 -0.8
v 1.1 0 -0.8
v -1.1 0 -1
v -0.9 0 -1
v 0.9 0 -1
v 1.1 0 -1
v -1.1 1.6 1
v 1.1 1.6 1
v -1.1 1.6 0.9
v -0.9 1.6 0.9
v 0.9 1.6 0.9
v 1.1 1.6 0.9
v -1 1.6 0.7
v -0.9 1.6 0.7
v 0.9 1.6 0.7
v 1 1.6 0.7
v -1 1.6 -0.8
v -0.9 1.6 -0.8
v 0.9 1.6 -0.8
v 1 1.6 -0.8
v -0.9 1.6 -0.9
v 0.9 1.6 -0.9
v -1.1 1.7 1.1
v 1.1 1.7 1.1
v -1.1 1.7 1
v 1.1 1.7 1
v -1.1 1.7 0.7
v -1 1.7 0.7
v 1 1.7 0.7
v 1.1 1.7 0.7
v -1.1 1.7 -0.8
v -1 1.7 -0.8
v 1 1.7 -0.8
v 1.1 1.7 -0.8
v -0.9 1.7 -0.9
v 0.9 1.7 -0.9
v -0.9 1.7 -1
v 0.9 1.7 -1
v -1.1 1.8 1.2
v 1.1 1.8 1.2
v -1.1 1.8 1.1
v 1.1 1.8 1.1
v -0.8 2.5 1.2
v 0.8 2.5 1.2
v -0.8 2.5 1.1
v 0.8 2.5 1.1
v -0.8 3.1 1.1
v 0.8 3.1 1.1
v -0.8 3.1 1
v 0.8 3.1 1
v -0.8 3.2 1.2
v 0.8 3.2 1.2
v -0.9 3.2 1.1
v -0.8 3.2 1.1
v 0.8 3.2 1.1
v 0.9 3.2 1.1
v -0.9 3.2 1
v -0.8 3.2 1
v 0.8 3.2 1
v 0.9 3.2 1
v -1.1 1.9 1.1
v 1.1 1.9 1.1
v -1.1 1.9 0.9
v 1.1 1.9 0.9
v -1.1 1.9 -1
v 1.1 1.9 -1
v -0.8 2 1.2
v 0.8 2 1.2
v -0.8 2 1.1
v 0.8 2 1.1
v -0.8 2.7 1.2
v 0.8 2.7 1.2
v -0.8 2.7 1.1
v 0.8 2.7 1.1
v -1.1 3.6 1.2
v 1.1 3.6 1.2
v -1.1 3.6 1.1
v -0.9 3.6 1.1
v -0.8 3.6 1.1
v 0.8 3.6 1.1
v 0.9 3.6 1.1
v 1.1 3.6 1.1
v -0.9 3.6 1
v -0.8 3.6 1
v 0.8 3.6 1
v 0.9 3.6 1
v -0.8 3.7 1.1
v 0.8 3.7 1.1
v -0.8 3.7 1
v 0.8 3.7 1

# faces
f 5/1/1 2/1/1 1/1/1
f 6/1/1 2/1/1 5/1/1
f 7/1/1 4/1/1 3/1/1
f 8/1/1 4/1/1 7/1/1
f 10/3/1 6/3/1 5/3/1
f 12/3/1 10/3/1 9/3/1
f 13/3/1 6/3/1 10/3/1
f 13/3/1 10/3/1 12/3/1
f 14/3/1 8/3/1 7/3/1
f 16/3/1 13/3/1 12/3/1
f 16/3/1 14/3/1 13/3/1
f 16/3/1 12/3/1 11/3/1
f 17/3/1 14/3/1 16/3/1
f 18/3/1 8/3/1 14/3/1
f 18/3/1 14/3/1 17/3/1
f 19/3/1 17/3/1 16/3/1
f 19/3/1 16/3/1 15/3/1
f 20/2/1 18/2/1 17/2/1
f 20/3/1 17/3/1 19/3/1
f 21/2/1 18/2/1 20/2/1
f 22/3/1 19/3/1 15/3/1
f 23/3/1 19/3/1 22/3/1
f 26/3/1 25/3/1 24/3/1
f 27/3/1 25/3/1 26/3/1
f 30/2/1 29/2/1 28/2/1
f 31/2/1 29/2/1 30/2/1
f 34/2/1 33/2/1 32/2/1
f 35/2/1 33/2/1 34/2/1
f 38/2/1 37/2/1 36/2/1
f 39/2/1 37/2/1 38/2/1
f 42/3/1 41/3/1 40/3/1
f 43/3/1 41/3/1 42/3/1
f 46/3/1 45/3/1 44/3/1
f 47/3/1 46/3/1 44/3/1
f 48/3/1 46/3/1 47/3/1
f 53/1/1 50/1/1 49/1/1
f 54/1/1 50/1/1 53/1/1
f 55/1/1 52/1/1 51/1/1
f 56/1/1 52/1/1 55/1/1
f 57/3/1 54/3/1 53/3/1
f 58/3/1 54/3/1 57/3/1
f 59/3/1 56/3/1 55/3/1
f 60/3/1 56/3/1 59/3/1
f 61/3/1 56/3/1 60/3/1
f 62/3/1 56/3/1 61/3/1
f 63/1/2 64/1/2 67/1/2
f 67/1/2 64/1/2 68/1/2
f 65/1/2 66/1/2 69/1/2
f 69/1/2 66/1/2 70/1/2
f 67/3/2 68/3/2 71/3/2
f 71/3/2 68/3/2 72/3/2
f 69/3/2 70/3/2 73/3/2
f 73/3/2 70/3/2 74/3/2
f 74/3/2 70/3/2 75/3/2
f 75/3/2 70/3/2 76/3/2
f 77/3/2 78/3/2 79/3/2
f 79/3/2 78/3/2 80/3/2
f 81/3/2 82/3/2 83/3/2
f 81/3/2 83/3/2 84/3/2
f 84/3/2 83/3/2 85/3/2
f 86/2/2 87/2/2 88/2/2
f 88/2/2 87/2/2 89/2/2
f 90/2/2 91/2/2 92/2/2
f 92/2/2 91/2/2 93/2/2
f 94/2/2 95/2/2 96/2/2
f 96/2/2 95/2/2 97/2/2
f 98/3/2 99/3/2 100/3/2
f 100/3/2 99/3/2 101/3/2
f 102/1/2 103/1/2 106/1/2
f 106/1/2 103/1/2 107/1/2
f 104/1/2 105/1/2 108/1/2
f 108/1/2 105/1/2 109/1/2
f 106/3/2 107/3/2 111/3/2
f 110/3/2 111/3/2 113/3/2
f 111/3/2 107/3/2 114/3/2
f 113/3/2 111/3/2 114/3/2
f 108/3/2 109/3/2 115/3/2
f 113/3/2 114/3/2 117/3/2
f 114/3/2 115/3/2 117/3/2
f 112/3/2 113/3/2 117/3/2
f 117/3/2 115/3/2 118/3/2
f 115/3/2 109/3/2 119/3/2
f 118/3/2 115/3/2 119/3/2
f 117/3/2 118/3/2 120/3/2
f 116/3/2 117/3/2 120/3/2
f 118/2/2 119/2/2 121/2/2
f 120/3/2 118/3/2 121/3/2
f 121/2/2 119/2/2 122/2/2
f 116/3/2 120/3/2 123/3/2
f 123/3/2 120/3/2 124/3/2
f 127/3/3 126/3/3 125/3/3
f 128/3/3 126/3/3 127/3/3
f 129/3/3 126/3/3 128/3/3
f 130/3/3 126/3/3 129/3/3
f 131/3/3 127/3/3 125/3/3
f 132/3/3 129/3/3 128/3/3
f 133/3/3 129/3/3 132/3/3
f 134/3/3 126/3/3 130/3/3
f 135/3/3 133/3/3 132/3/3
f 135/3/3 134/3/3 133/3/3
f 135/3/3 131/3/3 125/3/3
f 135/3/3 132/3/3 131/3/3
f 136/3/3 126/3/3 134/3/3
f 136/3/3 134/3/3 135/3/3
f 143/2/3 140/2/3 139/2/3
f 144/2/3 140/2/3 143/2/3
f 145/2/3 142/2/3 141/2/3
f 146/2/3 142/2/3 145/2/3
f 147/3/3 138/3/3 137/3/3
f 148/3/3 138/3/3 147/3/3
f 151/3/3 150/3/3 149/3/3
f 152/3/3 150/3/3 151/3/3
f 156/1/3 154/1/3 153/1/3
f 157/3/3 155/3/3 154/3/3
f 157/1/3 154/1/3 156/1/3
f 158/3/3 155/3/3 157/3/3
f 162/1/3 160/1/3 159/1/3
f 163/3/3 161/3/3 160/3/3
f 163/1/3 160/1/3 162/1/3
f 164/3/3 161/3/3 163/3/3
f 168/3/3 167/3/3 166/3/3
f 169/3/3 167/3/3 168/3/3
f 170/1/3 166/1/3 165/1/3
f 171/3/3 168/3/3 166/3/3
f 171/1/3 166/1/3 170/1/3
f 172/3/3 168/3/3 171/3/3
f 176/3/3 175/3/3 174/3/3
f 178/1/3 174/1/3 173/1/3
f 179/3/3 176/3/3 174/3/3
f 179/1/3 174/1/3 178/1/3
f 179/3/3 177/3/3 176/3/3
f 180/3/3 177/3/3 179/3/3
f 181/3/4 182/3/4 183/3/4
f 183/3/4 182/3/4 184/3/4
f 181/3/4 183/3/4 185/3/4
f 185/3/4 183/3/4 186/3/4
f 186/3/4 183/3/4 187/3/4
f 187/3/4 183/3/4 188/3/4
f 188/3/4 183/3/4 189/3/4
f 181/3/4 185/3/4 190/3/4
f 186/3/4 187/3/4 191/3/4
f 191/3/4 187/3/4 192/3/4
f 190/3/4 191/3/4 195/3/4
f 193/3/4 194/3/4 195/3/4
f 192/3/4 193/3/4 195/3/4
f 191/3/4 192/3/4 195/3/4
f 190/3/4 195/3/4 197/3/4
f 195/3/4 196/3/4 197/3/4
f 181/3/4 190/3/4 197/3/4
f 197/3/4 196/3/4 198/3/4
f 199/2/4 200/2/4 202/2/4
f 202/2/4 200/2/4 203/2/4
f 201/2/4 202/2/4 205/2/4
f 203/2/4 204/2/4 205/2/4
f 202/2/4 203/2/4 205/2/4
f 205/2/4 204/2/4 206/2/4
f 206/2/4 204/2/4 207/2/4
f 207/2/4 204/2/4 208/2/4
f 206/2/4 207/2/4 209/2/4
f 209/2/4 207/2/4 210/2/4
f 212/3/4 213/3/4 214/3/4
f 214/3/4 213/3/4 215/3/4
f 211/1/4 212/1/4 216/1/4
f 212/3/4 214/3/4 217/3/4
f 216/1/4 212/1/4 217/1/4
f 217/3/4 214/3/4 218/3/4
f 220/3/4 221/3/4 222/3/4
f 219/1/4 220/1/4 224/1/4
f 220/3/4 222/3/4 225/3/4
f 224/1/4 220/1/4 225/1/4
f 222/3/4 223/3/4 225/3/4
f 225/3/4 223/3/4 226/3/4
f 227/3/4 228/3/4 229/3/4
f 229/3/4 228/3/4 230/3/4
f 231/1/4 232/1/4 235/1/4
f 232/3/4 233/3/4 236/3/4
f 235/1/4 232/1/4 236/1/4
f 236/3/4 233/3/4 237/3/4
f 237/3/4 233/3/4 240/3/4
f 238/1/4 239/1/4 241/1/4
f 239/3/4 240/3/4 242/3/4
f 241/1/4 239/1/4 242/1/4
f 233/2/4 234/2/4 243/2/4
f 242/3/4 240/3/4 243/3/4
f 240/3/4 233/3/4 243/3/4
f 243/2/4 234/2/4 244/2/4
f 249/1/5 246/1/5 245/1/5
f 250/1/5 246/1/5 249/1/5
f 251/1/5 248/1/5 247/1/5
f 252/1/5 248/1/5 251/1/5
f 257/1/5 254/1/5 253/1/5
f 258/1/5 254/1/5 257/1/5
f 259/1/5 256/1/5 255/1/5
f 260/1/5 256/1/5 259/1/5
f 263/3/5 262/3/5 261/3/5
f 264/3/5 262/3/5 263/3/5
f 265/3/5 262/3/5 264/3/5
f 266/3/5 262/3/5 265/3/5
f 268/3/5 265/3/5 264/3/5
f 269/3/5 265/3/5 268/3/5
f 271/3/5 268/3/5 267/3/5
f 271/3/5 270/3/5 269/3/5
f 271/3/5 269/3/5 268/3/5
f 272/3/5 270/3/5 271/3/5
f 273/3/5 270/3/5 272/3/5
f 274/3/5 270/3/5 273/3/5
f 275/3/5 273/3/5 272/3/5
f 276/3/5 273/3/5 275/3/5
f 279/3/5 278/3/5 277/3/5
f 280/3/5 278/3/5 279/3/5
f 285/3/5 282/3/5 281/3/5
f 286/3/5 282/3/5 285/3/5
f 287/3/5 284/3/5 283/3/5
f 288/3/5 284/3/5 287/3/5
f 291/3/5 290/3/5 289/3/5
f 292/3/5 290/3/5 291/3/5
f 295/3/5 294/3/5 293/3/5
f 296/3/5 294/3/5 295/3/5
f 299/3/5 298/3/5 297/3/5
f 300/3/5 298/3/5 299/3/5
f 303/2/5 302/2/5 301/2/5
f 304/2/5 302/2/5 303/2/5
f 308/3/5 306/3/5 305/3/5
f 309/3/5 306/3/5 308/3/5
f 311/2/5 308/2/5 307/2/5
f 312/2/5 308/2/5 311/2/5
f 313/2/5 310/2/5 309/2/5
f 314/2/5 310/2/5 313/2/5
f 315/3/6 316/3/6 317/3/6
f 317/3/6 316/3/6 318/3/6
f 317/2/6 318/2/6 319/2/6
f 319/2/6 318/2/6 320/2/6
f 321/3/6 322/3/6 323/3/6
f 323/3/6 322/3/6 324/3/6
f 325/3/6 326/3/6 327/3/6
f 327/3/6 326/3/6 328/3/6
f 329/3/6 330/3/6 331/3/6
f 331/3/6 330/3/6 332/3/6
f 332/3/6 330/3/6 333/3/6
f 333/3/6 330/3/6 334/3/6
f 334/3/6 330/3/6 335/3/6
f 335/3/6 330/3/6 336/3/6
f 332/2/6 333/2/6 337/2/6
f 337/2/6 333/2/6 338/2/6
f 334/2/6 335/2/6 339/2/6
f 339/2/6 335/2/6 340/2/6
f 341/2/6 342/2/6 343/2/6
f 343/2/6 342/2/6 344/2/6
