# MagicaVoxel @ Ephtracy

# group
o 

# material
mtllib Vending.mtl
usemtl palette

# normals
vn -1 0 0
vn 1 0 0
vn 0 0 1
vn 0 0 -1
vn 0 -1 0
vn 0 1 0

# texcoords
vt 0.0214844 0.5
vt 0.158203 0.5
vt 0.259766 0.5
vt 0.279297 0.5
vt 0.404297 0.5
vt 0.435547 0.5
vt 0.458984 0.5
vt 0.498047 0.5
vt 0.541016 0.5
vt 0.580078 0.5
vt 0.587891 0.5
vt 0.716797 0.5
vt 0.748047 0.5
vt 0.841797 0.5
vt 0.845703 0.5
vt 0.849609 0.5
vt 0.853516 0.5
vt 0.865234 0.5
vt 0.892578 0.5
vt 0.919922 0.5
vt 0.951172 0.5
vt 0.958984 0.5
vt 0.982422 0.5
vt 0.986328 0.5
vt 0.994141 0.5

# verts
v 0.3 1.8 1.2
v 0.3 1.8 0.9
v 0.3 1.9 1.1
v 0.3 1.9 1
v 0.3 2 1.1
v 0.3 2 1
v 0.3 2.2 1.1
v 0.3 2.2 1
v 0.3 2.5 1.1
v 0.3 2.5 1
v 0.3 2.6 1.2
v 0.3 2.6 0.9
v 0.3 4.5 0.7
v 0.3 4.5 -1.5
v 0.3 4.8 0.7
v 0.3 4.8 -1.5
v 0.4 0 1.3
v 0.4 0 -1.7
v 0.4 0.4 1.1
v 0.4 0.4 -1.5
v 0.4 0.5 1
v 0.4 0.5 -1.4
v 0.4 0.9 1
v 0.4 0.9 -1.4
v 0.4 1 1.1
v 0.4 1 -1.5
v 0.4 1.2 -0.7
v 0.4 1.2 -1.5
v 0.4 1.3 -0.5
v 0.4 1.3 -0.7
v 0.4 1.4 -0.3
v 0.4 1.4 -0.5
v 0.4 1.5 -0.3
v 0.4 1.5 -1.5
v 0.4 1.8 1.2
v 0.4 1.8 0.9
v 0.4 1.8 0.7
v 0.4 1.8 -1.5
v 0.4 1.9 0.7
v 0.4 1.9 -1.5
v 0.4 2.6 1.2
v 0.4 2.6 0.9
v 0.4 4.5 0.7
v 0.4 4.5 -1.5
v 0.4 4.8 1.3
v 0.4 4.8 0.7
v 0.4 4.8 -1.5
v 0.4 4.8 -1.7
v 0.5 0.5 1
v 0.5 0.5 -1.4
v 0.5 0.9 1
v 0.5 0.9 -1.4
v 0.7 2.2 0.7
v 0.7 2.2 -1.5
v 0.7 2.3 0.4
v 0.7 2.3 0.2
v 0.7 2.3 -0.0999999
v 0.7 2.3 -0.3
v 0.7 2.3 -0.6
v 0.7 2.3 -0.8
v 0.7 2.3 -1.1
v 0.7 2.3 -1.3
v 0.7 2.4 0.4
v 0.7 2.4 0.2
v 0.7 2.4 -0.0999999
v 0.7 2.4 -0.3
v 0.7 2.4 -0.6
v 0.7 2.4 -0.8
v 0.7 2.4 -1.1
v 0.7 2.4 -1.3
v 0.7 2.5 0.7
v 0.7 2.5 -1.5
v 0.7 3.3 0.7
v 0.7 3.3 -1.5
v 0.7 3.4 0.4
v 0.7 3.4 0.2
v 0.7 3.4 -0.0999999
v 0.7 3.4 -0.3
v 0.7 3.4 -0.6
v 0.7 3.4 -0.8
v 0.7 3.4 -1.1
v 0.7 3.4 -1.3
v 0.7 3.5 0.4
v 0.7 3.5 0.2
v 0.7 3.5 -0.0999999
v 0.7 3.5 -0.3
v 0.7 3.5 -0.6
v 0.7 3.5 -0.8
v 0.7 3.5 -1.1
v 0.7 3.5 -1.3
v 0.7 3.6 0.7
v 0.7 3.6 -1.5
v 0.9 2.5 0.5
v 0.9 2.5 0.1
v 0.9 2.5 -0.0999999
v 0.9 2.5 -0.3
v 0.9 2.5 -0.6
v 0.9 2.5 -0.8
v 0.9 2.5 -1.1
v 0.9 2.5 -1.3
v 0.9 2.6 0.5
v 0.9 2.6 0.4
v 0.9 2.6 0.2
v 0.9 2.6 0.1
v 0.9 2.6 -0.0999999
v 0.9 2.6 -0.3
v 0.9 2.6 -0.6
v 0.9 2.6 -0.8
v 0.9 2.6 -1.1
v 0.9 2.6 -1.2
v 0.9 2.7 -0.0999999
v 0.9 2.7 -0.2
v 0.9 2.7 -1.1
v 0.9 2.7 -1.2
v 0.9 2.7 -1.3
v 0.9 2.8 0.5
v 0.9 2.8 0.4
v 0.9 2.8 0.2
v 0.9 2.8 0.1
v 0.9 2.8 -0.0999999
v 0.9 2.8 -0.2
v 0.9 2.8 -0.3
v 0.9 2.8 -1.2
v 0.9 2.8 -1.3
v 0.9 2.9 0.5
v 0.9 2.9 0.1
v 0.9 2.9 -0.0999999
v 0.9 2.9 -0.2
v 0.9 2.9 -0.6
v 0.9 2.9 -0.8
v 0.9 2.9 -1.1
v 0.9 2.9 -1.3
v 0.9 3 -0.0999999
v 0.9 3 -0.3
v 0.9 3.6 0.5
v 0.9 3.6 0.1
v 0.9 3.6 1.19209e-07
v 0.9 3.6 -0.4
v 0.9 3.6 -0.5
v 0.9 3.6 -0.9
v 0.9 3.6 -1
v 0.9 3.6 -1.4
v 0.9 3.7 0.5
v 0.9 3.7 0.1
v 0.9 3.7 1.19209e-07
v 0.9 3.7 -0.0999999
v 0.9 3.7 -0.2
v 0.9 3.7 -0.4
v 0.9 3.7 -0.5
v 0.9 3.7 -0.6
v 0.9 3.7 -0.7
v 0.9 3.7 -0.9
v 0.9 3.7 -1
v 0.9 3.7 -1.1
v 0.9 3.7 -1.2
v 0.9 3.7 -1.4
v 0.9 3.8 0.4
v 0.9 3.8 0.2
v 0.9 3.8 -0.2
v 0.9 3.8 -0.3
v 0.9 3.8 -0.6
v 0.9 3.8 -0.7
v 0.9 3.8 -0.8
v 0.9 3.8 -1.1
v 0.9 3.8 -1.2
v 0.9 3.8 -1.3
v 0.9 3.9 0.5
v 0.9 3.9 0.4
v 0.9 3.9 0.2
v 0.9 3.9 0.1
v 0.9 3.9 1.19209e-07
v 0.9 3.9 -0.0999999
v 0.9 3.9 -0.3
v 0.9 3.9 -0.4
v 0.9 3.9 -0.5
v 0.9 3.9 -0.7
v 0.9 3.9 -0.8
v 0.9 3.9 -0.9
v 0.9 3.9 -1
v 0.9 3.9 -1.2
v 0.9 3.9 -1.3
v 0.9 3.9 -1.4
v 0.9 4 0.5
v 0.9 4 0.1
v 0.9 4 1.19209e-07
v 0.9 4 -0.4
v 0.9 4 -0.5
v 0.9 4 -0.9
v 0.9 4 -1
v 0.9 4 -1.1
v 0.9 4 -1.3
v 0.9 4 -1.4
v 0.9 4.1 -1.1
v 0.9 4.1 -1.3
v 1 2.5 1.19209e-07
v 1 2.5 -0.0999999
v 1 2.5 -0.3
v 1 2.5 -0.4
v 1 2.5 -0.5
v 1 2.5 -0.6
v 1 2.5 -0.8
v 1 2.5 -0.9
v 1 2.5 -1
v 1 2.5 -1.1
v 1 2.5 -1.3
v 1 2.5 -1.4
v 1 2.6 0.5
v 1 2.6 0.4
v 1 2.6 0.2
v 1 2.6 0.1
v 1 2.6 1.19209e-07
v 1 2.6 -0.0999999
v 1 2.6 -0.3
v 1 2.6 -0.4
v 1 2.6 -0.5
v 1 2.6 -0.6
v 1 2.6 -0.8
v 1 2.6 -0.9
v 1 2.6 -1.1
v 1 2.7 -0.0999999
v 1 2.7 -1.1
v 1 2.7 -1.3
v 1 2.8 0.5
v 1 2.8 0.4
v 1 2.8 0.2
v 1 2.8 0.1
v 1 2.8 -0.0999999
v 1 2.8 -0.3
v 1 2.8 -0.5
v 1 2.8 -0.6
v 1 2.8 -0.8
v 1 2.8 -0.9
v 1 2.8 -1
v 1 2.8 -1.1
v 1 2.8 -1.3
v 1 2.8 -1.4
v 1 2.9 1.19209e-07
v 1 2.9 -0.0999999
v 1 2.9 -0.3
v 1 2.9 -0.4
v 1 2.9 -0.5
v 1 2.9 -0.6
v 1 2.9 -0.8
v 1 2.9 -0.9
v 1 2.9 -1
v 1 2.9 -1.1
v 1 2.9 -1.3
v 1 2.9 -1.4
v 1 3 -0.6
v 1 3 -0.8
v 1 3 -1.1
v 1 3 -1.3
v 2.2 1.8 0.7
v 2.2 1.8 -1.5
v 2.2 2.2 0.7
v 2.2 2.2 -1.5
v 2.2 2.5 0.7
v 2.2 2.5 -1.5
v 2.2 3.3 0.7
v 2.2 3.3 -1.5
v 2.2 3.6 0.7
v 2.2 3.6 -1.5
v 2.2 4.5 0.7
v 2.2 4.5 -1.5
v 0.6 1.8 0.7
v 0.6 1.8 -1.5
v 0.6 1.9 0.7
v 0.6 1.9 -1.5
v 1 3.6 0.5
v 1 3.6 0.1
v 1 3.6 1.19209e-07
v 1 3.6 -0.4
v 1 3.6 -0.5
v 1 3.6 -0.9
v 1 3.6 -1
v 1 3.6 -1.4
v 1 3.7 0.5
v 1 3.7 0.1
v 1 3.7 1.19209e-07
v 1 3.7 -0.0999999
v 1 3.7 -0.2
v 1 3.7 -0.4
v 1 3.7 -0.5
v 1 3.7 -0.6
v 1 3.7 -0.7
v 1 3.7 -0.9
v 1 3.7 -1
v 1 3.7 -1.1
v 1 3.7 -1.2
v 1 3.7 -1.4
v 1 3.8 0.4
v 1 3.8 0.2
v 1 3.8 -0.2
v 1 3.8 -0.3
v 1 3.8 -0.6
v 1 3.8 -0.7
v 1 3.8 -0.8
v 1 3.8 -1.1
v 1 3.8 -1.2
v 1 3.8 -1.3
v 1 3.9 0.5
v 1 3.9 0.4
v 1 3.9 0.2
v 1 3.9 0.1
v 1 3.9 1.19209e-07
v 1 3.9 -0.0999999
v 1 3.9 -0.3
v 1 3.9 -0.4
v 1 3.9 -0.5
v 1 3.9 -0.7
v 1 3.9 -0.8
v 1 3.9 -0.9
v 1 3.9 -1
v 1 3.9 -1.2
v 1 3.9 -1.3
v 1 3.9 -1.4
v 1 4 0.5
v 1 4 0.1
v 1 4 1.19209e-07
v 1 4 -0.4
v 1 4 -0.5
v 1 4 -0.9
v 1 4 -1
v 1 4 -1.1
v 1 4 -1.3
v 1 4 -1.4
v 1 4.1 -1.1
v 1 4.1 -1.3
v 1.1 2.5 0.5
v 1.1 2.5 0.4
v 1.1 2.5 0.2
v 1.1 2.5 0.1
v 1.1 2.5 1.19209e-07
v 1.1 2.5 -0.0999999
v 1.1 2.5 -0.3
v 1.1 2.5 -0.4
v 1.1 2.5 -0.5
v 1.1 2.5 -0.6
v 1.1 2.5 -0.8
v 1.1 2.5 -0.9
v 1.1 2.5 -1
v 1.1 2.5 -1.1
v 1.1 2.5 -1.3
v 1.1 2.5 -1.4
v 1.1 2.6 1.19209e-07
v 1.1 2.6 -0.0999999
v 1.1 2.6 -0.3
v 1.1 2.6 -0.4
v 1.1 2.6 -0.5
v 1.1 2.6 -0.6
v 1.1 2.6 -0.8
v 1.1 2.6 -0.9
v 1.1 2.8 -0.5
v 1.1 2.8 -0.6
v 1.1 2.8 -0.8
v 1.1 2.8 -0.9
v 1.1 2.8 -1
v 1.1 2.8 -1.1
v 1.1 2.8 -1.3
v 1.1 2.8 -1.4
v 1.1 2.9 0.5
v 1.1 2.9 0.4
v 1.1 2.9 0.2
v 1.1 2.9 0.1
v 1.1 2.9 1.19209e-07
v 1.1 2.9 -0.0999999
v 1.1 2.9 -0.3
v 1.1 2.9 -0.4
v 1.1 2.9 -0.5
v 1.1 2.9 -0.6
v 1.1 2.9 -0.8
v 1.1 2.9 -0.9
v 1.1 2.9 -1
v 1.1 2.9 -1.1
v 1.1 2.9 -1.3
v 1.1 2.9 -1.4
v 1.1 3 -0.6
v 1.1 3 -0.8
v 1.1 3 -1.1
v 1.1 3 -1.3
v 1.2 2.5 0.4
v 1.2 2.5 0.2
v 1.2 2.5 -0.0999999
v 1.2 2.5 -0.3
v 1.2 2.5 -0.6
v 1.2 2.5 -0.8
v 1.2 2.5 -1.1
v 1.2 2.5 -1.3
v 1.2 2.9 0.4
v 1.2 2.9 0.2
v 1.2 2.9 -0.0999999
v 1.2 2.9 -0.3
v 1.2 2.9 -0.6
v 1.2 2.9 -0.8
v 1.2 2.9 -1.1
v 1.2 2.9 -1.3
v 1.2 3 -0.0999999
v 1.2 3 -0.3
v 2.4 0 1.3
v 2.4 0 -1.7
v 2.4 4.8 1.3
v 2.4 4.8 -1.7
v 0.4 0 1.3
v 0.4 4.8 1.3
v 2.4 0 1.3
v 2.4 4.8 1.3
v 0.3 1.8 1.2
v 0.3 2.6 1.2
v 0.4 1.8 1.2
v 0.4 2.6 1.2
v 0.3 4.5 0.7
v 0.3 4.8 0.7
v 0.4 4.5 0.7
v 0.4 4.8 0.7
v 0.9 2.5 0.5
v 0.9 2.6 0.5
v 0.9 2.8 0.5
v 0.9 2.9 0.5
v 0.9 3.6 0.5
v 0.9 3.7 0.5
v 0.9 3.9 0.5
v 0.9 4 0.5
v 1 2.5 0.5
v 1 2.6 0.5
v 1 2.8 0.5
v 1 2.9 0.5
v 1 3.6 0.5
v 1 3.7 0.5
v 1 3.9 0.5
v 1 4 0.5
v 1.1 2.5 0.5
v 1.1 2.9 0.5
v 0.9 2.6 0.4
v 0.9 2.8 0.4
v 1 2.6 0.4
v 1 2.8 0.4
v 1.1 2.5 0.4
v 1.1 2.9 0.4
v 1.2 2.5 0.4
v 1.2 2.9 0.4
v 0.9 3.6 1.19209e-07
v 0.9 3.7 1.19209e-07
v 0.9 3.9 1.19209e-07
v 0.9 4 1.19209e-07
v 1 2.5 1.19209e-07
v 1 2.6 1.19209e-07
v 1 2.9 1.19209e-07
v 1 3.6 1.19209e-07
v 1 3.7 1.19209e-07
v 1 3.9 1.19209e-07
v 1 4 1.19209e-07
v 1.1 2.5 1.19209e-07
v 1.1 2.6 1.19209e-07
v 1.1 2.9 1.19209e-07
v 0.9 2.5 -0.0999999
v 0.9 2.6 -0.0999999
v 0.9 2.7 -0.0999999
v 0.9 2.8 -0.0999999
v 0.9 2.9 -0.0999999
v 0.9 3 -0.0999999
v 1 2.5 -0.0999999
v 1 2.6 -0.0999999
v 1 2.7 -0.0999999
v 1 2.8 -0.0999999
v 1 2.9 -0.0999999
v 1.1 2.5 -0.0999999
v 1.1 2.6 -0.0999999
v 1.1 2.9 -0.0999999
v 1.2 2.5 -0.0999999
v 1.2 2.9 -0.0999999
v 1.2 3 -0.0999999
v 0.9 3.6 -0.5
v 0.9 3.7 -0.5
v 0.9 3.9 -0.5
v 0.9 4 -0.5
v 1 2.5 -0.5
v 1 2.6 -0.5
v 1 2.8 -0.5
v 1 2.9 -0.5
v 1 3.6 -0.5
v 1 3.7 -0.5
v 1 3.9 -0.5
v 1 4 -0.5
v 1.1 2.5 -0.5
v 1.1 2.6 -0.5
v 1.1 2.8 -0.5
v 1.1 2.9 -0.5
v 0.9 2.5 -0.6
v 0.9 2.6 -0.6
v 0.9 2.9 -0.6
v 1 2.5 -0.6
v 1 2.6 -0.6
v 1 2.8 -0.6
v 1 2.9 -0.6
v 1 3 -0.6
v 1.1 2.5 -0.6
v 1.1 2.6 -0.6
v 1.1 2.8 -0.6
v 1.1 2.9 -0.6
v 1.1 3 -0.6
v 1.2 2.5 -0.6
v 1.2 2.9 -0.6
v 0.9 3.6 -1
v 0.9 3.7 -1
v 0.9 3.9 -1
v 0.9 4 -1
v 1 2.5 -1
v 1 2.8 -1
v 1 2.9 -1
v 1 3.6 -1
v 1 3.7 -1
v 1 3.9 -1
v 1 4 -1
v 1.1 2.5 -1
v 1.1 2.8 -1
v 1.1 2.9 -1
v 0.9 2.5 -1.1
v 0.9 2.6 -1.1
v 0.9 2.7 -1.1
v 0.9 2.9 -1.1
v 0.9 4 -1.1
v 0.9 4.1 -1.1
v 1 2.5 -1.1
v 1 2.6 -1.1
v 1 2.7 -1.1
v 1 2.8 -1.1
v 1 2.9 -1.1
v 1 3 -1.1
v 1 4 -1.1
v 1 4.1 -1.1
v 1.1 2.5 -1.1
v 1.1 2.8 -1.1
v 1.1 2.9 -1.1
v 1.1 3 -1.1
v 1.2 2.5 -1.1
v 1.2 2.9 -1.1
v 0.4 0.5 -1.4
v 0.4 0.9 -1.4
v 0.5 0.5 -1.4
v 0.5 0.9 -1.4
v 0.4 1.9 -1.5
v 0.4 4.5 -1.5
v 0.6 1.8 -1.5
v 0.6 1.9 -1.5
v 0.7 2.2 -1.5
v 0.7 2.5 -1.5
v 0.7 3.3 -1.5
v 0.7 3.6 -1.5
v 2.2 1.8 -1.5
v 2.2 2.2 -1.5
v 2.2 2.5 -1.5
v 2.2 3.3 -1.5
v 2.2 3.6 -1.5
v 2.2 4.5 -1.5
v 0.4 0.5 1
v 0.4 0.9 1
v 0.5 0.5 1
v 0.5 0.9 1
v 0.3 1.8 0.9
v 0.3 2.6 0.9
v 0.4 1.8 0.9
v 0.4 2.6 0.9
v 0.4 1.9 0.7
v 0.4 4.5 0.7
v 0.6 1.8 0.7
v 0.6 1.9 0.7
v 0.7 2.2 0.7
v 0.7 2.5 0.7
v 0.7 3.3 0.7
v 0.7 3.6 0.7
v 2.2 1.8 0.7
v 2.2 2.2 0.7
v 2.2 2.5 0.7
v 2.2 3.3 0.7
v 2.2 3.6 0.7
v 2.2 4.5 0.7
v 0.9 2.6 0.2
v 0.9 2.8 0.2
v 1 2.6 0.2
v 1 2.8 0.2
v 1.1 2.5 0.2
v 1.1 2.9 0.2
v 1.2 2.5 0.2
v 1.2 2.9 0.2
v 0.9 2.5 0.1
v 0.9 2.6 0.1
v 0.9 2.8 0.1
v 0.9 2.9 0.1
v 0.9 3.6 0.1
v 0.9 3.7 0.1
v 0.9 3.9 0.1
v 0.9 4 0.1
v 1 2.5 0.1
v 1 2.6 0.1
v 1 2.8 0.1
v 1 2.9 0.1
v 1 3.6 0.1
v 1 3.7 0.1
v 1 3.9 0.1
v 1 4 0.1
v 1.1 2.5 0.1
v 1.1 2.9 0.1
v 0.9 2.5 -0.3
v 0.9 2.6 -0.3
v 0.9 2.8 -0.3
v 0.9 3 -0.3
v 1 2.5 -0.3
v 1 2.6 -0.3
v 1 2.8 -0.3
v 1 2.9 -0.3
v 1.1 2.5 -0.3
v 1.1 2.6 -0.3
v 1.1 2.9 -0.3
v 1.2 2.5 -0.3
v 1.2 2.9 -0.3
v 1.2 3 -0.3
v 0.9 3.6 -0.4
v 0.9 3.7 -0.4
v 0.9 3.9 -0.4
v 0.9 4 -0.4
v 1 2.5 -0.4
v 1 2.6 -0.4
v 1 2.9 -0.4
v 1 3.6 -0.4
v 1 3.7 -0.4
v 1 3.9 -0.4
v 1 4 -0.4
v 1.1 2.5 -0.4
v 1.1 2.6 -0.4
v 1.1 2.9 -0.4
v 0.9 2.5 -0.8
v 0.9 2.6 -0.8
v 0.9 2.9 -0.8
v 1 2.5 -0.8
v 1 2.6 -0.8
v 1 2.8 -0.8
v 1 2.9 -0.8
v 1 3 -0.8
v 1.1 2.5 -0.8
v 1.1 2.6 -0.8
v 1.1 2.8 -0.8
v 1.1 2.9 -0.8
v 1.1 3 -0.8
v 1.2 2.5 -0.8
v 1.2 2.9 -0.8
v 0.9 3.6 -0.9
v 0.9 3.7 -0.9
v 0.9 3.9 -0.9
v 0.9 4 -0.9
v 1 2.5 -0.9
v 1 2.6 -0.9
v 1 2.8 -0.9
v 1 2.9 -0.9
v 1 3.6 -0.9
v 1 3.7 -0.9
v 1 3.9 -0.9
v 1 4 -0.9
v 1.1 2.5 -0.9
v 1.1 2.6 -0.9
v 1.1 2.8 -0.9
v 1.1 2.9 -0.9
v 0.9 2.5 -1.3
v 0.9 2.7 -1.3
v 0.9 2.8 -1.3
v 0.9 2.9 -1.3
v 0.9 4 -1.3
v 0.9 4.1 -1.3
v 1 2.5 -1.3
v 1 2.7 -1.3
v 1 2.8 -1.3
v 1 2.9 -1.3
v 1 3 -1.3
v 1 4 -1.3
v 1 4.1 -1.3
v 1.1 2.5 -1.3
v 1.1 2.8 -1.3
v 1.1 2.9 -1.3
v 1.1 3 -1.3
v 1.2 2.5 -1.3
v 1.2 2.9 -1.3
v 0.9 3.6 -1.4
v 0.9 3.7 -1.4
v 0.9 3.9 -1.4
v 0.9 4 -1.4
v 1 2.5 -1.4
v 1 2.8 -1.4
v 1 2.9 -1.4
v 1 3.6 -1.4
v 1 3.7 -1.4
v 1 3.9 -1.4
v 1 4 -1.4
v 1.1 2.5 -1.4
v 1.1 2.8 -1.4
v 1.1 2.9 -1.4
v 0.3 4.5 -1.5
v 0.3 4.8 -1.5
v 0.4 4.5 -1.5
v 0.4 4.8 -1.5
v 0.4 0 -1.7
v 0.4 4.8 -1.7
v 2.4 0 -1.7
v 2.4 4.8 -1.7
v 0.4 0 1.3
v 2.4 0 1.3
v 0.4 0 -1.7
v 2.4 0 -1.7
v 0.4 0.9 1
v 0.5 0.9 1
v 0.4 0.9 -1.4
v 0.5 0.9 -1.4
v 0.3 1.8 1.2
v 0.4 1.8 1.2
v 0.3 1.8 0.9
v 0.4 1.8 0.9
v 0.7 2.2 0.7
v 2.2 2.2 0.7
v 0.7 2.2 -1.5
v 2.2 2.2 -1.5
v 0.9 2.8 0.5
v 1 2.8 0.5
v 0.9 2.8 0.4
v 1 2.8 0.4
v 0.9 2.8 0.2
v 1 2.8 0.2
v 0.9 2.8 0.1
v 1 2.8 0.1
v 0.7 3.3 0.7
v 2.2 3.3 0.7
v 0.7 3.3 -1.5
v 2.2 3.3 -1.5
v 0.3 4.5 0.7
v 0.4 4.5 0.7
v 2.2 4.5 0.7
v 0.3 4.5 -1.5
v 0.4 4.5 -1.5
v 2.2 4.5 -1.5
v 0.4 0.5 1
v 0.5 0.5 1
v 0.4 0.5 -1.4
v 0.5 0.5 -1.4
v 0.6 1.8 0.7
v 2.2 1.8 0.7
v 0.6 1.8 -1.5
v 2.2 1.8 -1.5
v 0.4 1.9 0.7
v 0.6 1.9 0.7
v 0.4 1.9 -1.5
v 0.6 1.9 -1.5
v 0.7 2.5 0.7
v 2.2 2.5 0.7
v 0.9 2.5 0.5
v 1 2.5 0.5
v 1.1 2.5 0.5
v 1.1 2.5 0.4
v 1.2 2.5 0.4
v 1.1 2.5 0.2
v 1.2 2.5 0.2
v 0.9 2.5 0.1
v 1 2.5 0.1
v 1.1 2.5 0.1
v 1 2.5 1.19209e-07
v 1.1 2.5 1.19209e-07
v 0.9 2.5 -0.0999999
v 1 2.5 -0.0999999
v 1.1 2.5 -0.0999999
v 1.2 2.5 -0.0999999
v 0.9 2.5 -0.3
v 1 2.5 -0.3
v 1.1 2.5 -0.3
v 1.2 2.5 -0.3
v 1 2.5 -0.4
v 1.1 2.5 -0.4
v 1 2.5 -0.5
v 1.1 2.5 -0.5
v 0.9 2.5 -0.6
v 1 2.5 -0.6
v 1.1 2.5 -0.6
v 1.2 2.5 -0.6
v 0.9 2.5 -0.8
v 1 2.5 -0.8
v 1.1 2.5 -0.8
v 1.2 2.5 -0.8
v 1 2.5 -0.9
v 1.1 2.5 -0.9
v 1 2.5 -1
v 1.1 2.5 -1
v 0.9 2.5 -1.1
v 1 2.5 -1.1
v 1.1 2.5 -1.1
v 1.2 2.5 -1.1
v 0.9 2.5 -1.3
v 1 2.5 -1.3
v 1.1 2.5 -1.3
v 1.2 2.5 -1.3
v 1 2.5 -1.4
v 1.1 2.5 -1.4
v 0.7 2.5 -1.5
v 2.2 2.5 -1.5
v 0.3 2.6 1.2
v 0.4 2.6 1.2
v 0.3 2.6 0.9
v 0.4 2.6 0.9
v 0.9 2.6 0.5
v 1 2.6 0.5
v 0.9 2.6 0.4
v 1 2.6 0.4
v 0.9 2.6 0.2
v 1 2.6 0.2
v 0.9 2.6 0.1
v 1 2.6 0.1
v 0.9 2.9 0.5
v 1 2.9 0.5
v 1.1 2.9 0.5
v 1.1 2.9 0.4
v 1.2 2.9 0.4
v 1.1 2.9 0.2
v 1.2 2.9 0.2
v 0.9 2.9 0.1
v 1 2.9 0.1
v 1.1 2.9 0.1
v 1 2.9 1.19209e-07
v 1.1 2.9 1.19209e-07
v 1 2.9 -0.0999999
v 1.1 2.9 -0.0999999
v 1 2.9 -0.3
v 1.1 2.9 -0.3
v 1 2.9 -0.4
v 1.1 2.9 -0.4
v 1 2.9 -0.5
v 1.1 2.9 -0.5
v 0.9 2.9 -0.6
v 1 2.9 -0.6
v 1.1 2.9 -0.6
v 1.2 2.9 -0.6
v 0.9 2.9 -0.8
v 1 2.9 -0.8
v 1.1 2.9 -0.8
v 1.2 2.9 -0.8
v 1 2.9 -0.9
v 1.1 2.9 -0.9
v 1 2.9 -1
v 1.1 2.9 -1
v 0.9 2.9 -1.1
v 1 2.9 -1.1
v 1.1 2.9 -1.1
v 1.2 2.9 -1.1
v 0.9 2.9 -1.3
v 1 2.9 -1.3
v 1.1 2.9 -1.3
v 1.2 2.9 -1.3
v 1 2.9 -1.4
v 1.1 2.9 -1.4
v 0.9 3 -0.0999999
v 1.2 3 -0.0999999
v 0.9 3 -0.3
v 1.2 3 -0.3
v 1 3 -0.6
v 1.1 3 -0.6
v 1 3 -0.8
v 1.1 3 -0.8
v 1 3 -1.1
v 1.1 3 -1.1
v 1 3 -1.3
v 1.1 3 -1.3
v 0.7 3.6 0.7
v 2.2 3.6 0.7
v 0.9 3.6 0.5
v 1 3.6 0.5
v 0.9 3.6 0.1
v 1 3.6 0.1
v 0.9 3.6 1.19209e-07
v 1 3.6 1.19209e-07
v 0.9 3.6 -0.4
v 1 3.6 -0.4
v 0.9 3.6 -0.5
v 1 3.6 -0.5
v 0.9 3.6 -0.9
v 1 3.6 -0.9
v 0.9 3.6 -1
v 1 3.6 -1
v 0.9 3.6 -1.4
v 1 3.6 -1.4
v 0.7 3.6 -1.5
v 2.2 3.6 -1.5
v 0.9 4 0.5
v 1 4 0.5
v 0.9 4 0.1
v 1 4 0.1
v 0.9 4 1.19209e-07
v 1 4 1.19209e-07
v 0.9 4 -0.4
v 1 4 -0.4
v 0.9 4 -0.5
v 1 4 -0.5
v 0.9 4 -0.9
v 1 4 -0.9
v 0.9 4 -1
v 1 4 -1
v 0.9 4 -1.1
v 1 4 -1.1
v 0.9 4 -1.3
v 1 4 -1.3
v 0.9 4 -1.4
v 1 4 -1.4
v 0.9 4.1 -1.1
v 1 4.1 -1.1
v 0.9 4.1 -1.3
v 1 4.1 -1.3
v 0.4 4.8 1.3
v 2.4 4.8 1.3
v 0.3 4.8 0.7
v 0.4 4.8 0.7
v 0.3 4.8 -1.5
v 0.4 4.8 -1.5
v 0.4 4.8 -1.7
v 2.4 4.8 -1.7

# faces
f 3/22/1 2/22/1 1/22/1
f 4/22/1 2/22/1 3/22/1
f 5/22/1 3/22/1 1/22/1
f 5/25/1 4/25/1 3/25/1
f 6/22/1 2/22/1 4/22/1
f 6/25/1 4/25/1 5/25/1
f 7/22/1 5/22/1 1/22/1
f 7/22/1 6/22/1 5/22/1
f 8/22/1 2/22/1 6/22/1
f 8/22/1 6/22/1 7/22/1
f 9/22/1 7/22/1 1/22/1
f 9/25/1 8/25/1 7/25/1
f 10/22/1 2/22/1 8/22/1
f 10/25/1 8/25/1 9/25/1
f 11/22/1 9/22/1 1/22/1
f 11/22/1 10/22/1 9/22/1
f 12/22/1 2/22/1 10/22/1
f 12/22/1 10/22/1 11/22/1
f 15/25/1 14/25/1 13/25/1
f 16/25/1 14/25/1 15/25/1
f 19/25/1 18/25/1 17/25/1
f 20/25/1 18/25/1 19/25/1
f 21/24/1 20/24/1 19/24/1
f 22/24/1 20/24/1 21/24/1
f 23/24/1 21/24/1 19/24/1
f 24/24/1 20/24/1 22/24/1
f 25/25/1 19/25/1 17/25/1
f 25/24/1 24/24/1 23/24/1
f 25/24/1 23/24/1 19/24/1
f 26/24/1 20/24/1 24/24/1
f 26/24/1 24/24/1 25/24/1
f 26/25/1 18/25/1 20/25/1
f 27/25/1 26/25/1 25/25/1
f 28/25/1 18/25/1 26/25/1
f 28/25/1 26/25/1 27/25/1
f 29/25/1 27/25/1 25/25/1
f 30/20/1 28/20/1 27/20/1
f 30/25/1 27/25/1 29/25/1
f 31/25/1 29/25/1 25/25/1
f 32/20/1 30/20/1 29/20/1
f 32/25/1 29/25/1 31/25/1
f 33/25/1 31/25/1 25/25/1
f 33/20/1 32/20/1 31/20/1
f 34/25/1 18/25/1 28/25/1
f 34/20/1 32/20/1 33/20/1
f 34/20/1 28/20/1 30/20/1
f 34/20/1 30/20/1 32/20/1
f 35/25/1 25/25/1 17/25/1
f 35/25/1 33/25/1 25/25/1
f 35/25/1 34/25/1 33/25/1
f 36/25/1 34/25/1 35/25/1
f 37/25/1 34/25/1 36/25/1
f 38/25/1 18/25/1 34/25/1
f 38/25/1 34/25/1 37/25/1
f 39/25/1 37/25/1 36/25/1
f 39/22/1 38/22/1 37/22/1
f 40/25/1 18/25/1 38/25/1
f 40/22/1 38/22/1 39/22/1
f 41/25/1 35/25/1 17/25/1
f 42/25/1 39/25/1 36/25/1
f 43/25/1 39/25/1 42/25/1
f 43/25/1 42/25/1 41/25/1
f 44/25/1 18/25/1 40/25/1
f 45/25/1 41/25/1 17/25/1
f 45/25/1 43/25/1 41/25/1
f 46/25/1 43/25/1 45/25/1
f 47/25/1 18/25/1 44/25/1
f 48/25/1 18/25/1 47/25/1
f 51/22/1 50/22/1 49/22/1
f 52/22/1 50/22/1 51/22/1
f 55/20/1 54/20/1 53/20/1
f 56/20/1 54/20/1 55/20/1
f 57/20/1 54/20/1 56/20/1
f 58/20/1 54/20/1 57/20/1
f 59/20/1 54/20/1 58/20/1
f 60/20/1 54/20/1 59/20/1
f 61/20/1 54/20/1 60/20/1
f 62/20/1 54/20/1 61/20/1
f 63/20/1 55/20/1 53/20/1
f 63/16/1 56/16/1 55/16/1
f 64/20/1 57/20/1 56/20/1
f 64/16/1 56/16/1 63/16/1
f 65/16/1 58/16/1 57/16/1
f 65/20/1 57/20/1 64/20/1
f 66/20/1 59/20/1 58/20/1
f 66/16/1 58/16/1 65/16/1
f 67/16/1 60/16/1 59/16/1
f 67/20/1 59/20/1 66/20/1
f 68/20/1 61/20/1 60/20/1
f 68/16/1 60/16/1 67/16/1
f 69/16/1 62/16/1 61/16/1
f 69/20/1 61/20/1 68/20/1
f 70/20/1 54/20/1 62/20/1
f 70/16/1 62/16/1 69/16/1
f 71/20/1 69/20/1 68/20/1
f 71/20/1 68/20/1 67/20/1
f 71/20/1 70/20/1 69/20/1
f 71/20/1 67/20/1 66/20/1
f 71/20/1 66/20/1 65/20/1
f 71/20/1 65/20/1 64/20/1
f 71/20/1 64/20/1 63/20/1
f 71/20/1 63/20/1 53/20/1
f 72/20/1 54/20/1 70/20/1
f 72/20/1 70/20/1 71/20/1
f 75/20/1 74/20/1 73/20/1
f 76/20/1 74/20/1 75/20/1
f 77/20/1 74/20/1 76/20/1
f 78/20/1 74/20/1 77/20/1
f 79/20/1 74/20/1 78/20/1
f 80/20/1 74/20/1 79/20/1
f 81/20/1 74/20/1 80/20/1
f 82/20/1 74/20/1 81/20/1
f 83/20/1 75/20/1 73/20/1
f 83/14/1 76/14/1 75/14/1
f 84/20/1 77/20/1 76/20/1
f 84/14/1 76/14/1 83/14/1
f 85/14/1 78/14/1 77/14/1
f 85/20/1 77/20/1 84/20/1
f 86/20/1 79/20/1 78/20/1
f 86/14/1 78/14/1 85/14/1
f 87/14/1 80/14/1 79/14/1
f 87/20/1 79/20/1 86/20/1
f 88/20/1 81/20/1 80/20/1
f 88/14/1 80/14/1 87/14/1
f 89/14/1 82/14/1 81/14/1
f 89/20/1 81/20/1 88/20/1
f 90/20/1 74/20/1 82/20/1
f 90/14/1 82/14/1 89/14/1
f 91/20/1 89/20/1 88/20/1
f 91/20/1 88/20/1 87/20/1
f 91/20/1 90/20/1 89/20/1
f 91/20/1 87/20/1 86/20/1
f 91/20/1 86/20/1 85/20/1
f 91/20/1 85/20/1 84/20/1
f 91/20/1 84/20/1 83/20/1
f 91/20/1 83/20/1 73/20/1
f 92/20/1 74/20/1 90/20/1
f 92/20/1 90/20/1 91/20/1
f 101/2/1 94/2/1 93/2/1
f 102/2/1 94/2/1 101/2/1
f 103/2/1 94/2/1 102/2/1
f 104/2/1 94/2/1 103/2/1
f 105/7/1 96/7/1 95/7/1
f 106/7/1 96/7/1 105/7/1
f 107/5/1 98/5/1 97/5/1
f 108/5/1 98/5/1 107/5/1
f 109/16/1 100/16/1 99/16/1
f 110/16/1 100/16/1 109/16/1
f 111/12/1 106/12/1 105/12/1
f 112/12/1 106/12/1 111/12/1
f 113/23/1 110/23/1 109/23/1
f 114/16/1 100/16/1 110/16/1
f 114/23/1 110/23/1 113/23/1
f 115/16/1 100/16/1 114/16/1
f 117/1/1 103/1/1 102/1/1
f 118/1/1 103/1/1 117/1/1
f 120/7/1 112/7/1 111/7/1
f 121/12/1 106/12/1 112/12/1
f 121/7/1 112/7/1 120/7/1
f 122/12/1 106/12/1 121/12/1
f 123/16/1 114/16/1 113/16/1
f 123/23/1 115/23/1 114/23/1
f 124/23/1 115/23/1 123/23/1
f 125/2/1 119/2/1 118/2/1
f 125/2/1 117/2/1 116/2/1
f 125/2/1 118/2/1 117/2/1
f 126/2/1 119/2/1 125/2/1
f 127/12/1 121/12/1 120/12/1
f 128/7/1 122/7/1 121/7/1
f 128/12/1 121/12/1 127/12/1
f 129/3/1 108/3/1 107/3/1
f 130/3/1 108/3/1 129/3/1
f 131/16/1 124/16/1 123/16/1
f 131/16/1 123/16/1 113/16/1
f 132/16/1 124/16/1 131/16/1
f 133/7/1 128/7/1 127/7/1
f 134/7/1 122/7/1 128/7/1
f 134/7/1 128/7/1 133/7/1
f 143/2/1 136/2/1 135/2/1
f 144/2/1 136/2/1 143/2/1
f 145/11/1 138/11/1 137/11/1
f 146/11/1 138/11/1 145/11/1
f 147/11/1 138/11/1 146/11/1
f 148/11/1 138/11/1 147/11/1
f 149/8/1 140/8/1 139/8/1
f 150/8/1 140/8/1 149/8/1
f 151/8/1 140/8/1 150/8/1
f 152/8/1 140/8/1 151/8/1
f 153/18/1 142/18/1 141/18/1
f 154/18/1 142/18/1 153/18/1
f 155/18/1 142/18/1 154/18/1
f 156/18/1 142/18/1 155/18/1
f 157/1/1 144/1/1 143/1/1
f 158/1/1 144/1/1 157/1/1
f 159/10/1 148/10/1 147/10/1
f 159/13/1 147/13/1 146/13/1
f 160/10/1 148/10/1 159/10/1
f 161/3/1 150/3/1 149/3/1
f 161/4/1 151/4/1 150/4/1
f 162/3/1 152/3/1 151/3/1
f 162/4/1 151/4/1 161/4/1
f 163/3/1 152/3/1 162/3/1
f 164/15/1 154/15/1 153/15/1
f 164/17/1 155/17/1 154/17/1
f 165/15/1 156/15/1 155/15/1
f 165/17/1 155/17/1 164/17/1
f 166/15/1 156/15/1 165/15/1
f 167/1/1 157/1/1 143/1/1
f 168/6/1 158/6/1 157/6/1
f 168/1/1 157/1/1 167/1/1
f 169/1/1 144/1/1 158/1/1
f 169/6/1 158/6/1 168/6/1
f 170/1/1 144/1/1 169/1/1
f 171/10/1 146/10/1 145/10/1
f 172/13/1 160/13/1 159/13/1
f 172/10/1 146/10/1 171/10/1
f 172/13/1 159/13/1 146/13/1
f 173/10/1 148/10/1 160/10/1
f 173/13/1 160/13/1 172/13/1
f 174/10/1 148/10/1 173/10/1
f 175/3/1 161/3/1 149/3/1
f 175/3/1 162/3/1 161/3/1
f 176/4/1 163/4/1 162/4/1
f 176/3/1 162/3/1 175/3/1
f 177/3/1 152/3/1 163/3/1
f 177/4/1 163/4/1 176/4/1
f 178/3/1 152/3/1 177/3/1
f 179/15/1 164/15/1 153/15/1
f 179/15/1 165/15/1 164/15/1
f 180/17/1 166/17/1 165/17/1
f 180/15/1 165/15/1 179/15/1
f 181/15/1 156/15/1 166/15/1
f 181/17/1 166/17/1 180/17/1
f 182/15/1 156/15/1 181/15/1
f 183/2/1 168/2/1 167/2/1
f 183/2/1 170/2/1 169/2/1
f 183/2/1 169/2/1 168/2/1
f 184/2/1 170/2/1 183/2/1
f 185/11/1 174/11/1 173/11/1
f 185/11/1 172/11/1 171/11/1
f 185/11/1 173/11/1 172/11/1
f 186/11/1 174/11/1 185/11/1
f 187/8/1 176/8/1 175/8/1
f 187/8/1 178/8/1 177/8/1
f 187/8/1 177/8/1 176/8/1
f 188/8/1 178/8/1 187/8/1
f 189/18/1 182/18/1 181/18/1
f 189/18/1 180/18/1 179/18/1
f 189/18/1 181/18/1 180/18/1
f 190/18/1 182/18/1 189/18/1
f 191/18/1 182/18/1 190/18/1
f 192/18/1 182/18/1 191/18/1
f 193/14/1 191/14/1 190/14/1
f 194/14/1 191/14/1 193/14/1
f 211/7/1 196/7/1 195/7/1
f 212/7/1 196/7/1 211/7/1
f 213/7/1 198/7/1 197/7/1
f 214/7/1 198/7/1 213/7/1
f 215/5/1 200/5/1 199/5/1
f 216/5/1 200/5/1 215/5/1
f 217/5/1 202/5/1 201/5/1
f 218/5/1 202/5/1 217/5/1
f 219/16/1 204/16/1 203/16/1
f 220/12/1 212/12/1 211/12/1
f 221/16/1 219/16/1 203/16/1
f 222/16/1 206/16/1 205/16/1
f 223/1/1 208/1/1 207/1/1
f 224/1/1 208/1/1 223/1/1
f 225/1/1 210/1/1 209/1/1
f 226/1/1 210/1/1 225/1/1
f 227/12/1 220/12/1 211/12/1
f 228/12/1 214/12/1 213/12/1
f 229/3/1 216/3/1 215/3/1
f 230/3/1 216/3/1 229/3/1
f 231/3/1 218/3/1 217/3/1
f 232/3/1 218/3/1 231/3/1
f 233/16/1 221/16/1 203/16/1
f 234/16/1 221/16/1 233/16/1
f 235/16/1 206/16/1 222/16/1
f 236/16/1 206/16/1 235/16/1
f 237/12/1 227/12/1 211/12/1
f 238/12/1 227/12/1 237/12/1
f 239/12/1 214/12/1 228/12/1
f 240/12/1 214/12/1 239/12/1
f 241/9/1 230/9/1 229/9/1
f 242/9/1 230/9/1 241/9/1
f 243/9/1 232/9/1 231/9/1
f 244/9/1 232/9/1 243/9/1
f 245/19/1 234/19/1 233/19/1
f 246/19/1 234/19/1 245/19/1
f 247/19/1 236/19/1 235/19/1
f 248/19/1 236/19/1 247/19/1
f 249/9/1 243/9/1 242/9/1
f 250/9/1 243/9/1 249/9/1
f 251/19/1 247/19/1 246/19/1
f 252/19/1 247/19/1 251/19/1
f 255/25/1 254/25/1 253/25/1
f 256/25/1 254/25/1 255/25/1
f 259/25/1 258/25/1 257/25/1
f 260/25/1 258/25/1 259/25/1
f 263/25/1 262/25/1 261/25/1
f 264/25/1 262/25/1 263/25/1
f 265/22/2 266/22/2 267/22/2
f 267/22/2 266/22/2 268/22/2
f 269/2/2 270/2/2 277/2/2
f 277/2/2 270/2/2 278/2/2
f 271/11/2 272/11/2 279/11/2
f 279/11/2 272/11/2 280/11/2
f 280/11/2 272/11/2 281/11/2
f 281/11/2 272/11/2 282/11/2
f 273/8/2 274/8/2 283/8/2
f 283/8/2 274/8/2 284/8/2
f 284/8/2 274/8/2 285/8/2
f 285/8/2 274/8/2 286/8/2
f 275/18/2 276/18/2 287/18/2
f 287/18/2 276/18/2 288/18/2
f 288/18/2 276/18/2 289/18/2
f 289/18/2 276/18/2 290/18/2
f 277/1/2 278/1/2 291/1/2
f 291/1/2 278/1/2 292/1/2
f 281/10/2 282/10/2 293/10/2
f 280/13/2 281/13/2 293/13/2
f 293/10/2 282/10/2 294/10/2
f 283/3/2 284/3/2 295/3/2
f 284/4/2 285/4/2 295/4/2
f 285/3/2 286/3/2 296/3/2
f 295/4/2 285/4/2 296/4/2
f 296/3/2 286/3/2 297/3/2
f 287/15/2 288/15/2 298/15/2
f 288/17/2 289/17/2 298/17/2
f 289/15/2 290/15/2 299/15/2
f 298/17/2 289/17/2 299/17/2
f 299/15/2 290/15/2 300/15/2
f 277/1/2 291/1/2 301/1/2
f 291/6/2 292/6/2 302/6/2
f 301/1/2 291/1/2 302/1/2
f 292/1/2 278/1/2 303/1/2
f 302/6/2 292/6/2 303/6/2
f 303/1/2 278/1/2 304/1/2
f 279/10/2 280/10/2 305/10/2
f 293/13/2 294/13/2 306/13/2
f 305/10/2 280/10/2 306/10/2
f 280/13/2 293/13/2 306/13/2
f 294/10/2 282/10/2 307/10/2
f 306/13/2 294/13/2 307/13/2
f 307/10/2 282/10/2 308/10/2
f 283/3/2 295/3/2 309/3/2
f 295/3/2 296/3/2 309/3/2
f 296/4/2 297/4/2 310/4/2
f 309/3/2 296/3/2 310/3/2
f 297/3/2 286/3/2 311/3/2
f 310/4/2 297/4/2 311/4/2
f 311/3/2 286/3/2 312/3/2
f 287/15/2 298/15/2 313/15/2
f 298/15/2 299/15/2 313/15/2
f 299/17/2 300/17/2 314/17/2
f 313/15/2 299/15/2 314/15/2
f 300/15/2 290/15/2 315/15/2
f 314/17/2 300/17/2 315/17/2
f 315/15/2 290/15/2 316/15/2
f 301/2/2 302/2/2 317/2/2
f 303/2/2 304/2/2 317/2/2
f 302/2/2 303/2/2 317/2/2
f 317/2/2 304/2/2 318/2/2
f 307/11/2 308/11/2 319/11/2
f 305/11/2 306/11/2 319/11/2
f 306/11/2 307/11/2 319/11/2
f 319/11/2 308/11/2 320/11/2
f 309/8/2 310/8/2 321/8/2
f 311/8/2 312/8/2 321/8/2
f 310/8/2 311/8/2 321/8/2
f 321/8/2 312/8/2 322/8/2
f 315/18/2 316/18/2 323/18/2
f 313/18/2 314/18/2 323/18/2
f 314/18/2 315/18/2 323/18/2
f 323/18/2 316/18/2 324/18/2
f 324/18/2 316/18/2 325/18/2
f 325/18/2 316/18/2 326/18/2
f 324/14/2 325/14/2 327/14/2
f 327/14/2 325/14/2 328/14/2
f 333/7/2 334/7/2 345/7/2
f 345/7/2 334/7/2 346/7/2
f 335/7/2 336/7/2 347/7/2
f 347/7/2 336/7/2 348/7/2
f 337/5/2 338/5/2 349/5/2
f 349/5/2 338/5/2 350/5/2
f 339/5/2 340/5/2 351/5/2
f 351/5/2 340/5/2 352/5/2
f 349/3/2 350/3/2 353/3/2
f 353/3/2 350/3/2 354/3/2
f 351/3/2 352/3/2 355/3/2
f 355/3/2 352/3/2 356/3/2
f 341/16/2 342/16/2 357/16/2
f 357/16/2 342/16/2 358/16/2
f 343/16/2 344/16/2 359/16/2
f 359/16/2 344/16/2 360/16/2
f 329/1/2 330/1/2 361/1/2
f 361/1/2 330/1/2 362/1/2
f 331/1/2 332/1/2 363/1/2
f 363/1/2 332/1/2 364/1/2
f 345/12/2 346/12/2 365/12/2
f 365/12/2 346/12/2 366/12/2
f 347/12/2 348/12/2 367/12/2
f 367/12/2 348/12/2 368/12/2
f 353/9/2 354/9/2 369/9/2
f 369/9/2 354/9/2 370/9/2
f 355/9/2 356/9/2 371/9/2
f 371/9/2 356/9/2 372/9/2
f 357/19/2 358/19/2 373/19/2
f 373/19/2 358/19/2 374/19/2
f 359/19/2 360/19/2 375/19/2
f 375/19/2 360/19/2 376/19/2
f 370/9/2 371/9/2 377/9/2
f 377/9/2 371/9/2 378/9/2
f 374/19/2 375/19/2 379/19/2
f 379/19/2 375/19/2 380/19/2
f 381/1/2 382/1/2 389/1/2
f 389/1/2 382/1/2 390/1/2
f 383/12/2 384/12/2 391/12/2
f 391/12/2 384/12/2 392/12/2
f 385/3/2 386/3/2 393/3/2
f 393/3/2 386/3/2 394/3/2
f 387/16/2 388/16/2 395/16/2
f 395/16/2 388/16/2 396/16/2
f 391/7/2 392/7/2 397/7/2
f 397/7/2 392/7/2 398/7/2
f 399/25/2 400/25/2 401/25/2
f 401/25/2 400/25/2 402/25/2
f 405/25/3 404/25/3 403/25/3
f 406/25/3 404/25/3 405/25/3
f 409/22/3 408/22/3 407/22/3
f 410/22/3 408/22/3 409/22/3
f 413/25/3 412/25/3 411/25/3
f 414/25/3 412/25/3 413/25/3
f 423/2/3 416/2/3 415/2/3
f 424/2/3 416/2/3 423/2/3
f 425/2/3 418/2/3 417/2/3
f 426/2/3 418/2/3 425/2/3
f 427/2/3 420/2/3 419/2/3
f 428/1/3 421/1/3 420/1/3
f 428/2/3 420/2/3 427/2/3
f 429/2/3 422/2/3 421/2/3
f 429/1/3 421/1/3 428/1/3
f 430/2/3 422/2/3 429/2/3
f 431/1/3 424/1/3 423/1/3
f 431/1/3 425/1/3 424/1/3
f 431/1/3 426/1/3 425/1/3
f 432/1/3 426/1/3 431/1/3
f 435/1/3 434/1/3 433/1/3
f 436/1/3 434/1/3 435/1/3
f 439/1/3 438/1/3 437/1/3
f 440/1/3 438/1/3 439/1/3
f 448/11/3 442/11/3 441/11/3
f 449/10/3 443/10/3 442/10/3
f 449/11/3 442/11/3 448/11/3
f 450/11/3 444/11/3 443/11/3
f 450/10/3 443/10/3 449/10/3
f 451/11/3 444/11/3 450/11/3
f 452/7/3 446/7/3 445/7/3
f 453/12/3 447/12/3 446/12/3
f 453/7/3 446/7/3 452/7/3
f 454/12/3 447/12/3 453/12/3
f 461/7/3 456/7/3 455/7/3
f 462/12/3 457/12/3 456/12/3
f 462/7/3 456/7/3 461/7/3
f 463/7/3 458/7/3 457/7/3
f 463/12/3 457/12/3 462/12/3
f 464/12/3 459/12/3 458/12/3
f 464/7/3 458/7/3 463/7/3
f 465/7/3 460/7/3 459/7/3
f 465/12/3 459/12/3 464/12/3
f 468/7/3 460/7/3 465/7/3
f 469/12/3 467/12/3 466/12/3
f 469/12/3 468/12/3 467/12/3
f 470/7/3 460/7/3 468/7/3
f 470/12/3 468/12/3 469/12/3
f 471/7/3 460/7/3 470/7/3
f 480/8/3 473/8/3 472/8/3
f 481/3/3 474/3/3 473/3/3
f 481/8/3 473/8/3 480/8/3
f 482/8/3 475/8/3 474/8/3
f 482/3/3 474/3/3 481/3/3
f 483/8/3 475/8/3 482/8/3
f 484/5/3 477/5/3 476/5/3
f 485/3/3 478/3/3 477/3/3
f 485/5/3 477/5/3 484/5/3
f 486/9/3 479/9/3 478/9/3
f 486/3/3 478/3/3 485/3/3
f 487/9/3 479/9/3 486/9/3
f 491/5/3 489/5/3 488/5/3
f 492/3/3 490/3/3 489/3/3
f 492/5/3 489/5/3 491/5/3
f 493/3/3 490/3/3 492/3/3
f 494/3/3 490/3/3 493/3/3
f 499/9/3 495/9/3 494/9/3
f 500/9/3 495/9/3 499/9/3
f 501/3/3 498/3/3 497/3/3
f 501/3/3 497/3/3 496/3/3
f 501/3/3 499/3/3 498/3/3
f 502/3/3 499/3/3 501/3/3
f 510/18/3 504/18/3 503/18/3
f 511/15/3 505/15/3 504/15/3
f 511/18/3 504/18/3 510/18/3
f 512/18/3 506/18/3 505/18/3
f 512/15/3 505/15/3 511/15/3
f 513/18/3 506/18/3 512/18/3
f 514/16/3 508/16/3 507/16/3
f 515/19/3 509/19/3 508/19/3
f 515/16/3 508/16/3 514/16/3
f 516/19/3 509/19/3 515/19/3
f 523/16/3 518/16/3 517/16/3
f 524/23/3 519/23/3 518/23/3
f 524/16/3 518/16/3 523/16/3
f 525/16/3 520/16/3 519/16/3
f 525/23/3 519/23/3 524/23/3
f 526/16/3 520/16/3 525/16/3
f 527/16/3 520/16/3 526/16/3
f 529/14/3 522/14/3 521/14/3
f 530/14/3 522/14/3 529/14/3
f 533/19/3 528/19/3 527/19/3
f 534/19/3 528/19/3 533/19/3
f 535/16/3 532/16/3 531/16/3
f 535/16/3 533/16/3 532/16/3
f 536/16/3 533/16/3 535/16/3
f 539/24/3 538/24/3 537/24/3
f 540/24/3 538/24/3 539/24/3
f 544/25/3 542/25/3 541/25/3
f 545/25/3 542/25/3 544/25/3
f 545/25/3 544/25/3 543/25/3
f 546/25/3 542/25/3 545/25/3
f 547/25/3 542/25/3 546/25/3
f 548/25/3 542/25/3 547/25/3
f 549/25/3 545/25/3 543/25/3
f 550/25/3 545/25/3 549/25/3
f 551/25/3 547/25/3 546/25/3
f 552/25/3 547/25/3 551/25/3
f 553/25/3 542/25/3 548/25/3
f 554/25/3 542/25/3 553/25/3
f 555/24/4 556/24/4 557/24/4
f 557/24/4 556/24/4 558/24/4
f 559/22/4 560/22/4 561/22/4
f 561/22/4 560/22/4 562/22/4
f 563/25/4 564/25/4 566/25/4
f 566/25/4 564/25/4 567/25/4
f 565/25/4 566/25/4 567/25/4
f 567/25/4 564/25/4 568/25/4
f 568/25/4 564/25/4 569/25/4
f 569/25/4 564/25/4 570/25/4
f 565/25/4 567/25/4 571/25/4
f 571/25/4 567/25/4 572/25/4
f 568/25/4 569/25/4 573/25/4
f 573/25/4 569/25/4 574/25/4
f 570/25/4 564/25/4 575/25/4
f 575/25/4 564/25/4 576/25/4
f 577/1/4 578/1/4 579/1/4
f 579/1/4 578/1/4 580/1/4
f 581/1/4 582/1/4 583/1/4
f 583/1/4 582/1/4 584/1/4
f 585/2/4 586/2/4 593/2/4
f 593/2/4 586/2/4 594/2/4
f 587/2/4 588/2/4 595/2/4
f 595/2/4 588/2/4 596/2/4
f 589/2/4 590/2/4 597/2/4
f 590/1/4 591/1/4 598/1/4
f 597/2/4 590/2/4 598/2/4
f 591/2/4 592/2/4 599/2/4
f 598/1/4 591/1/4 599/1/4
f 599/2/4 592/2/4 600/2/4
f 593/1/4 594/1/4 601/1/4
f 594/1/4 595/1/4 601/1/4
f 595/1/4 596/1/4 601/1/4
f 601/1/4 596/1/4 602/1/4
f 603/7/4 604/7/4 607/7/4
f 604/12/4 605/12/4 608/12/4
f 607/7/4 604/7/4 608/7/4
f 605/7/4 606/7/4 609/7/4
f 608/12/4 605/12/4 609/12/4
f 609/7/4 606/7/4 610/7/4
f 610/7/4 606/7/4 613/7/4
f 611/12/4 612/12/4 614/12/4
f 612/12/4 613/12/4 614/12/4
f 613/7/4 606/7/4 615/7/4
f 614/12/4 613/12/4 615/12/4
f 615/7/4 606/7/4 616/7/4
f 617/11/4 618/11/4 624/11/4
f 618/10/4 619/10/4 625/10/4
f 624/11/4 618/11/4 625/11/4
f 619/11/4 620/11/4 626/11/4
f 625/10/4 619/10/4 626/10/4
f 626/11/4 620/11/4 627/11/4
f 621/7/4 622/7/4 628/7/4
f 622/12/4 623/12/4 629/12/4
f 628/7/4 622/7/4 629/7/4
f 629/12/4 623/12/4 630/12/4
f 631/5/4 632/5/4 634/5/4
f 632/3/4 633/3/4 635/3/4
f 634/5/4 632/5/4 635/5/4
f 635/3/4 633/3/4 636/3/4
f 636/3/4 633/3/4 637/3/4
f 637/9/4 638/9/4 642/9/4
f 642/9/4 638/9/4 643/9/4
f 640/3/4 641/3/4 644/3/4
f 639/3/4 640/3/4 644/3/4
f 641/3/4 642/3/4 644/3/4
f 644/3/4 642/3/4 645/3/4
f 646/8/4 647/8/4 654/8/4
f 647/3/4 648/3/4 655/3/4
f 654/8/4 647/8/4 655/8/4
f 648/8/4 649/8/4 656/8/4
f 655/3/4 648/3/4 656/3/4
f 656/8/4 649/8/4 657/8/4
f 650/5/4 651/5/4 658/5/4
f 651/3/4 652/3/4 659/3/4
f 658/5/4 651/5/4 659/5/4
f 652/9/4 653/9/4 660/9/4
f 659/3/4 652/3/4 660/3/4
f 660/9/4 653/9/4 661/9/4
f 662/16/4 663/16/4 668/16/4
f 663/23/4 664/23/4 669/23/4
f 668/16/4 663/16/4 669/16/4
f 664/16/4 665/16/4 670/16/4
f 669/23/4 664/23/4 670/23/4
f 670/16/4 665/16/4 671/16/4
f 666/14/4 667/14/4 673/14/4
f 673/14/4 667/14/4 674/14/4
f 671/19/4 672/19/4 677/19/4
f 677/19/4 672/19/4 678/19/4
f 675/16/4 676/16/4 679/16/4
f 676/16/4 677/16/4 679/16/4
f 679/16/4 677/16/4 680/16/4
f 681/18/4 682/18/4 688/18/4
f 682/15/4 683/15/4 689/15/4
f 688/18/4 682/18/4 689/18/4
f 683/18/4 684/18/4 690/18/4
f 689/15/4 683/15/4 690/15/4
f 690/18/4 684/18/4 691/18/4
f 685/16/4 686/16/4 692/16/4
f 686/19/4 687/19/4 693/19/4
f 692/16/4 686/16/4 693/16/4
f 693/19/4 687/19/4 694/19/4
f 695/25/4 696/25/4 697/25/4
f 697/25/4 696/25/4 698/25/4
f 699/25/4 700/25/4 701/25/4
f 701/25/4 700/25/4 702/25/4
f 705/25/5 704/25/5 703/25/5
f 706/25/5 704/25/5 705/25/5
f 709/24/5 708/24/5 707/24/5
f 710/24/5 708/24/5 709/24/5
f 713/22/5 712/22/5 711/22/5
f 714/22/5 712/22/5 713/22/5
f 717/20/5 716/20/5 715/20/5
f 718/20/5 716/20/5 717/20/5
f 721/2/5 720/2/5 719/2/5
f 722/2/5 720/2/5 721/2/5
f 725/2/5 724/2/5 723/2/5
f 726/2/5 724/2/5 725/2/5
f 729/20/5 728/20/5 727/20/5
f 730/20/5 728/20/5 729/20/5
f 734/25/5 732/25/5 731/25/5
f 734/25/5 733/25/5 732/25/5
f 735/25/5 733/25/5 734/25/5
f 736/25/5 733/25/5 735/25/5
f 737/24/6 738/24/6 739/24/6
f 739/24/6 738/24/6 740/24/6
f 741/25/6 742/25/6 743/25/6
f 743/25/6 742/25/6 744/25/6
f 745/22/6 746/22/6 747/22/6
f 747/22/6 746/22/6 748/22/6
f 749/20/6 750/20/6 751/20/6
f 751/20/6 750/20/6 752/20/6
f 752/20/6 750/20/6 753/20/6
f 753/20/6 750/20/6 754/20/6
f 754/20/6 750/20/6 755/20/6
f 755/20/6 750/20/6 757/20/6
f 749/20/6 751/20/6 758/20/6
f 756/20/6 757/20/6 760/20/6
f 758/20/6 759/20/6 761/20/6
f 759/20/6 760/20/6 761/20/6
f 760/20/6 757/20/6 762/20/6
f 761/20/6 760/20/6 762/20/6
f 758/20/6 761/20/6 763/20/6
f 749/20/6 758/20/6 763/20/6
f 763/20/6 761/20/6 764/20/6
f 762/20/6 757/20/6 765/20/6
f 757/20/6 750/20/6 766/20/6
f 765/20/6 757/20/6 766/20/6
f 749/20/6 763/20/6 767/20/6
f 766/20/6 750/20/6 770/20/6
f 767/20/6 768/20/6 771/20/6
f 769/20/6 770/20/6 772/20/6
f 767/20/6 771/20/6 773/20/6
f 771/20/6 772/20/6 773/20/6
f 772/20/6 770/20/6 774/20/6
f 773/20/6 772/20/6 774/20/6
f 767/20/6 773/20/6 775/20/6
f 749/20/6 767/20/6 775/20/6
f 775/20/6 773/20/6 776/20/6
f 774/20/6 770/20/6 777/20/6
f 770/20/6 750/20/6 778/20/6
f 777/20/6 770/20/6 778/20/6
f 749/20/6 775/20/6 779/20/6
f 778/20/6 750/20/6 782/20/6
f 779/20/6 780/20/6 783/20/6
f 781/20/6 782/20/6 784/20/6
f 779/20/6 783/20/6 785/20/6
f 783/20/6 784/20/6 785/20/6
f 784/20/6 782/20/6 786/20/6
f 785/20/6 784/20/6 786/20/6
f 779/20/6 785/20/6 787/20/6
f 749/20/6 779/20/6 787/20/6
f 787/20/6 785/20/6 788/20/6
f 786/20/6 782/20/6 789/20/6
f 782/20/6 750/20/6 790/20/6
f 789/20/6 782/20/6 790/20/6
f 749/20/6 787/20/6 791/20/6
f 790/20/6 750/20/6 794/20/6
f 791/20/6 792/20/6 795/20/6
f 793/20/6 794/20/6 796/20/6
f 791/20/6 795/20/6 797/20/6
f 795/20/6 796/20/6 797/20/6
f 749/20/6 791/20/6 797/20/6
f 796/20/6 794/20/6 798/20/6
f 797/20/6 796/20/6 798/20/6
f 794/20/6 750/20/6 798/20/6
f 799/22/6 800/22/6 801/22/6
f 801/22/6 800/22/6 802/22/6
f 803/2/6 804/2/6 805/2/6
f 805/2/6 804/2/6 806/2/6
f 807/2/6 808/2/6 809/2/6
f 809/2/6 808/2/6 810/2/6
f 812/1/6 813/1/6 814/1/6
f 812/1/6 814/1/6 816/1/6
f 814/1/6 815/1/6 816/1/6
f 816/1/6 815/1/6 817/1/6
f 811/2/6 812/2/6 818/2/6
f 812/1/6 816/1/6 819/1/6
f 818/2/6 812/2/6 819/2/6
f 819/1/6 816/1/6 820/1/6
f 821/12/6 822/12/6 823/12/6
f 823/12/6 822/12/6 824/12/6
f 825/12/6 826/12/6 827/12/6
f 827/12/6 826/12/6 828/12/6
f 829/9/6 830/9/6 832/9/6
f 832/9/6 830/9/6 833/9/6
f 831/3/6 832/3/6 835/3/6
f 835/3/6 832/3/6 836/3/6
f 833/3/6 834/3/6 837/3/6
f 837/3/6 834/3/6 838/3/6
f 836/9/6 837/9/6 839/9/6
f 839/9/6 837/9/6 840/9/6
f 841/19/6 842/19/6 844/19/6
f 844/19/6 842/19/6 845/19/6
f 843/16/6 844/16/6 847/16/6
f 847/16/6 844/16/6 848/16/6
f 845/16/6 846/16/6 849/16/6
f 849/16/6 846/16/6 850/16/6
f 848/19/6 849/19/6 851/19/6
f 851/19/6 849/19/6 852/19/6
f 853/7/6 854/7/6 855/7/6
f 855/7/6 854/7/6 856/7/6
f 857/9/6 858/9/6 859/9/6
f 859/9/6 858/9/6 860/9/6
f 861/19/6 862/19/6 863/19/6
f 863/19/6 862/19/6 864/19/6
f 865/20/6 866/20/6 867/20/6
f 867/20/6 866/20/6 868/20/6
f 865/20/6 867/20/6 869/20/6
f 868/20/6 866/20/6 870/20/6
f 865/20/6 869/20/6 871/20/6
f 869/20/6 870/20/6 871/20/6
f 870/20/6 866/20/6 872/20/6
f 871/20/6 870/20/6 872/20/6
f 865/20/6 871/20/6 873/20/6
f 872/20/6 866/20/6 874/20/6
f 865/20/6 873/20/6 875/20/6
f 873/20/6 874/20/6 875/20/6
f 874/20/6 866/20/6 876/20/6
f 875/20/6 874/20/6 876/20/6
f 865/20/6 875/20/6 877/20/6
f 876/20/6 866/20/6 878/20/6
f 865/20/6 877/20/6 879/20/6
f 877/20/6 878/20/6 879/20/6
f 878/20/6 866/20/6 880/20/6
f 879/20/6 878/20/6 880/20/6
f 865/20/6 879/20/6 881/20/6
f 880/20/6 866/20/6 882/20/6
f 865/20/6 881/20/6 883/20/6
f 881/20/6 882/20/6 883/20/6
f 882/20/6 866/20/6 884/20/6
f 883/20/6 882/20/6 884/20/6
f 885/2/6 886/2/6 887/2/6
f 887/2/6 886/2/6 888/2/6
f 889/11/6 890/11/6 891/11/6
f 891/11/6 890/11/6 892/11/6
f 893/8/6 894/8/6 895/8/6
f 895/8/6 894/8/6 896/8/6
f 897/18/6 898/18/6 899/18/6
f 899/18/6 898/18/6 900/18/6
f 901/18/6 902/18/6 903/18/6
f 903/18/6 902/18/6 904/18/6
f 905/14/6 906/14/6 907/14/6
f 907/14/6 906/14/6 908/14/6
f 909/25/6 910/25/6 912/25/6
f 911/25/6 912/25/6 913/25/6
f 912/25/6 910/25/6 914/25/6
f 913/25/6 912/25/6 914/25/6
f 914/25/6 910/25/6 915/25/6
f 915/25/6 910/25/6 916/25/6
