# MagicaVoxel @ Ephtracy

# group
o 

# material
mtllib wall_toilet_door.mtl
usemtl palette

# normals
vn -1 0 0
vn 1 0 0
vn 0 0 1
vn 0 0 -1
vn 0 -1 0
vn 0 1 0

# texcoords
vt 0.345703 0.5
vt 0.353516 0.5
vt 0.419922 0.5
vt 0.447266 0.5

# verts
v -1.2 1.6 1.8
v -1.2 1.6 1.6
v -1.2 4.5 1.8
v -1.2 4.5 1.6
v -1.2 4.6 1.8
v -1.2 4.6 1.6
v -1.2 5.3 1.8
v -1.2 5.3 1.6
v -1.2 5.9 1.8
v -1.2 5.9 1.6
v -0.4 3 1.9
v -0.4 3 1.8
v -0.4 3.1 1.9
v -0.4 3.1 1.8
v -0.3 3.1 1.9
v -0.3 3.1 1.8
v -0.3 3.2 1.9
v -0.3 3.2 1.8
v -0.2 3.1 1.9
v -0.2 3.1 1.8
v -0.2 3.2 1.9
v -0.2 3.2 1.8
v -0.1 3 1.9
v -0.1 3 1.8
v -0.1 3.1 1.9
v -0.1 3.1 1.8
v 0 1.6 1.8
v 0 1.6 1.6
v 0 4.5 1.8
v 0 4.5 1.6
v 0 4.6 1.8
v 0 4.6 1.6
v 0 5.3 1.8
v 0 5.3 1.6
v 0 5.9 1.8
v 0 5.9 1.6
v -0.4 3 1.9
v -0.4 3.1 1.9
v -0.3 3.1 1.9
v -0.3 3.2 1.9
v -0.2 3.1 1.9
v -0.2 3.2 1.9
v -0.1 3 1.9
v -0.1 3.1 1.9
v -1.2 1.6 1.8
v -1.2 4.5 1.8
v -1.2 4.6 1.8
v -1.2 5.3 1.8
v -1.2 5.9 1.8
v -0.4 3 1.8
v -0.4 3.1 1.8
v -0.3 3.1 1.8
v -0.3 3.2 1.8
v -0.2 3.1 1.8
v -0.2 3.2 1.8
v -0.1 3 1.8
v -0.1 3.1 1.8
v 0 1.6 1.8
v 0 4.5 1.8
v 0 4.6 1.8
v 0 5.3 1.8
v 0 5.9 1.8
v -1.2 1.6 1.6
v -1.2 4.5 1.6
v -1.2 4.6 1.6
v -1.2 5.3 1.6
v -1.2 5.9 1.6
v 0 1.6 1.6
v 0 4.5 1.6
v 0 4.6 1.6
v 0 5.3 1.6
v 0 5.9 1.6
v -1.2 1.6 1.8
v 0 1.6 1.8
v -1.2 1.6 1.6
v 0 1.6 1.6
v -0.4 3 1.9
v -0.1 3 1.9
v -0.4 3 1.8
v -0.1 3 1.8
v -1.2 5.3 1.8
v 0 5.3 1.8
v -1.2 5.3 1.6
v 0 5.3 1.6
v -0.4 3.1 1.9
v -0.3 3.1 1.9
v -0.2 3.1 1.9
v -0.1 3.1 1.9
v -0.4 3.1 1.8
v -0.3 3.1 1.8
v -0.2 3.1 1.8
v -0.1 3.1 1.8
v -0.3 3.2 1.9
v -0.2 3.2 1.9
v -0.3 3.2 1.8
v -0.2 3.2 1.8
v -1.2 4.6 1.8
v 0 4.6 1.8
v -1.2 4.6 1.6
v 0 4.6 1.6
v -1.2 5.9 1.8
v 0 5.9 1.8
v -1.2 5.9 1.6
v 0 5.9 1.6

# faces
f 3/1/1 2/1/1 1/1/1
f 4/1/1 2/1/1 3/1/1
f 5/3/1 4/3/1 3/3/1
f 6/3/1 4/3/1 5/3/1
f 9/3/1 8/3/1 7/3/1
f 10/3/1 8/3/1 9/3/1
f 13/2/1 12/2/1 11/2/1
f 14/2/1 12/2/1 13/2/1
f 17/4/1 16/4/1 15/4/1
f 18/4/1 16/4/1 17/4/1
f 19/4/2 20/4/2 21/4/2
f 21/4/2 20/4/2 22/4/2
f 23/2/2 24/2/2 25/2/2
f 25/2/2 24/2/2 26/2/2
f 27/1/2 28/1/2 29/1/2
f 29/1/2 28/1/2 30/1/2
f 29/3/2 30/3/2 31/3/2
f 31/3/2 30/3/2 32/3/2
f 33/3/2 34/3/2 35/3/2
f 35/3/2 34/3/2 36/3/2
f 39/2/3 38/2/3 37/2/3
f 41/2/3 39/2/3 37/2/3
f 41/4/3 40/4/3 39/4/3
f 42/4/3 40/4/3 41/4/3
f 43/2/3 41/2/3 37/2/3
f 44/2/3 41/2/3 43/2/3
f 50/1/3 46/1/3 45/1/3
f 51/1/3 46/1/3 50/1/3
f 52/1/3 46/1/3 51/1/3
f 53/1/3 46/1/3 52/1/3
f 55/1/3 46/1/3 53/1/3
f 56/1/3 50/1/3 45/1/3
f 57/1/3 55/1/3 54/1/3
f 58/1/3 56/1/3 45/1/3
f 58/1/3 57/1/3 56/1/3
f 59/3/3 47/3/3 46/3/3
f 59/1/3 57/1/3 58/1/3
f 59/1/3 55/1/3 57/1/3
f 59/1/3 46/1/3 55/1/3
f 60/3/3 47/3/3 59/3/3
f 61/3/3 49/3/3 48/3/3
f 62/3/3 49/3/3 61/3/3
f 63/1/4 64/1/4 68/1/4
f 64/3/4 65/3/4 69/3/4
f 68/1/4 64/1/4 69/1/4
f 69/3/4 65/3/4 70/3/4
f 66/3/4 67/3/4 71/3/4
f 71/3/4 67/3/4 72/3/4
f 75/1/5 74/1/5 73/1/5
f 76/1/5 74/1/5 75/1/5
f 79/2/5 78/2/5 77/2/5
f 80/2/5 78/2/5 79/2/5
f 83/3/5 82/3/5 81/3/5
f 84/3/5 82/3/5 83/3/5
f 85/2/6 86/2/6 89/2/6
f 89/2/6 86/2/6 90/2/6
f 87/2/6 88/2/6 91/2/6
f 91/2/6 88/2/6 92/2/6
f 93/4/6 94/4/6 95/4/6
f 95/4/6 94/4/6 96/4/6
f 97/3/6 98/3/6 99/3/6
f 99/3/6 98/3/6 100/3/6
f 101/3/6 102/3/6 103/3/6
f 103/3/6 102/3/6 104/3/6
