# MagicaVoxel @ Ephtracy

# group
o 

# material
mtllib white_board.mtl
usemtl palette

# normals
vn -1 0 0
vn 1 0 0
vn 0 0 1
vn 0 0 -1
vn 0 -1 0
vn 0 1 0

# texcoords
vt 0.287109 0.5
vt 0.412109 0.5
vt 0.443359 0.5
vt 0.455078 0.5
vt 0.544922 0.5

# verts
v -4.5 0 -0.4
v -4.5 0 -0.8
v -4.5 0.1 -0.5
v -4.5 0.1 -0.7
v -4.5 0.2 -0.4
v -4.5 0.2 -0.5
v -4.5 3 -0.7
v -4.5 3 -0.8
v -4.4 0.1 -0.5
v -4.4 0.1 -0.6
v -4.4 0.2 -0.5
v -4.4 0.2 -0.6
v 1.7 0.1 -0.5
v 1.7 0.1 -0.7
v 1.7 0.2 -0.5
v 1.7 0.2 -0.7
v 1.7 0.3 -0.5
v 1.7 0.3 -0.7
v 1.8 0.3 -0.5
v 1.8 0.3 -0.7
v 1.8 0.4 -0.5
v 1.8 0.4 -0.7
v -3.9 0.1 -0.5
v -3.9 0.1 -0.6
v -3.9 0.2 -0.5
v -3.9 0.2 -0.6
v 2.1 0.3 -0.5
v 2.1 0.3 -0.7
v 2.1 0.4 -0.5
v 2.1 0.4 -0.7
v 2.2 0.1 -0.5
v 2.2 0.1 -0.7
v 2.2 0.2 -0.5
v 2.2 0.2 -0.7
v 2.2 0.3 -0.5
v 2.2 0.3 -0.7
v 4.5 0 -0.4
v 4.5 0 -0.8
v 4.5 0.1 -0.5
v 4.5 0.1 -0.7
v 4.5 0.2 -0.4
v 4.5 0.2 -0.5
v 4.5 3 -0.7
v 4.5 3 -0.8
v -4.5 0 -0.4
v -4.5 0.2 -0.4
v 4.5 0 -0.4
v 4.5 0.2 -0.4
v 1.7 0.2 -0.5
v 1.7 0.3 -0.5
v 1.8 0.3 -0.5
v 1.8 0.4 -0.5
v 2.1 0.3 -0.5
v 2.1 0.4 -0.5
v 2.2 0.2 -0.5
v 2.2 0.3 -0.5
v -4.5 0.1 -0.7
v -4.5 3 -0.7
v -4.4 0.3 -0.7
v -4.4 2.9 -0.7
v 1.7 0.1 -0.7
v 1.7 0.2 -0.7
v 1.7 0.3 -0.7
v 1.8 0.3 -0.7
v 1.8 0.4 -0.7
v 2.1 0.3 -0.7
v 2.1 0.4 -0.7
v 2.2 0.1 -0.7
v 2.2 0.2 -0.7
v 2.2 0.3 -0.7
v 4.4 0.3 -0.7
v 4.4 2.9 -0.7
v 4.5 0.1 -0.7
v 4.5 3 -0.7
v -4.5 0.1 -0.5
v -4.5 0.2 -0.5
v -4.4 0.1 -0.5
v -4.4 0.2 -0.5
v -3.9 0.1 -0.5
v -3.9 0.2 -0.5
v 1.7 0.1 -0.5
v 1.7 0.2 -0.5
v 2.2 0.1 -0.5
v 2.2 0.2 -0.5
v 4.5 0.1 -0.5
v 4.5 0.2 -0.5
v -4.4 0.1 -0.6
v -4.4 0.2 -0.6
v -4 0.1 -0.6
v -4 0.2 -0.6
v -3.9 0.1 -0.6
v -3.9 0.2 -0.6
v -4.5 0 -0.8
v -4.5 3 -0.8
v -4.4 0.3 -0.8
v -4.4 2.9 -0.8
v 4.4 0.3 -0.8
v 4.4 2.9 -0.8
v 4.5 0 -0.8
v 4.5 3 -0.8
v -4.5 0 -0.4
v 4.5 0 -0.4
v -4.5 0 -0.8
v 4.5 0 -0.8
v -4.5 0.1 -0.5
v -4.4 0.1 -0.5
v -3.9 0.1 -0.5
v 1.7 0.1 -0.5
v 2.2 0.1 -0.5
v 4.5 0.1 -0.5
v -4.4 0.1 -0.6
v -4 0.1 -0.6
v -3.9 0.1 -0.6
v -4.5 0.1 -0.7
v 1.7 0.1 -0.7
v 2.2 0.1 -0.7
v 4.5 0.1 -0.7
v -4.5 0.2 -0.4
v 4.5 0.2 -0.4
v -4.5 0.2 -0.5
v -4.4 0.2 -0.5
v -4 0.2 -0.5
v -3.9 0.2 -0.5
v 1.7 0.2 -0.5
v 2.2 0.2 -0.5
v 4.5 0.2 -0.5
v -4.4 0.2 -0.6
v -4 0.2 -0.6
v -3.9 0.2 -0.6
v 1.7 0.3 -0.5
v 1.8 0.3 -0.5
v 2.1 0.3 -0.5
v 2.2 0.3 -0.5
v 1.7 0.3 -0.7
v 1.8 0.3 -0.7
v 2.1 0.3 -0.7
v 2.2 0.3 -0.7
v 1.8 0.4 -0.5
v 2.1 0.4 -0.5
v 1.8 0.4 -0.7
v 2.1 0.4 -0.7
v -4.5 3 -0.7
v 4.5 3 -0.7
v -4.5 3 -0.8
v 4.5 3 -0.8

# faces
f 3/4/1 2/4/1 1/4/1
f 4/4/1 2/4/1 3/4/1
f 5/4/1 3/4/1 1/4/1
f 6/4/1 3/4/1 5/4/1
f 7/4/1 2/4/1 4/4/1
f 8/4/1 2/4/1 7/4/1
f 11/2/1 10/2/1 9/2/1
f 12/2/1 10/2/1 11/2/1
f 15/3/1 14/3/1 13/3/1
f 16/3/1 14/3/1 15/3/1
f 17/1/1 16/1/1 15/1/1
f 18/1/1 16/1/1 17/1/1
f 21/1/1 20/1/1 19/1/1
f 22/1/1 20/1/1 21/1/1
f 23/5/2 24/5/2 25/5/2
f 25/5/2 24/5/2 26/5/2
f 27/1/2 28/1/2 29/1/2
f 29/1/2 28/1/2 30/1/2
f 31/3/2 32/3/2 33/3/2
f 33/3/2 32/3/2 34/3/2
f 33/1/2 34/1/2 35/1/2
f 35/1/2 34/1/2 36/1/2
f 37/4/2 38/4/2 39/4/2
f 39/4/2 38/4/2 40/4/2
f 37/4/2 39/4/2 41/4/2
f 41/4/2 39/4/2 42/4/2
f 40/4/2 38/4/2 43/4/2
f 43/4/2 38/4/2 44/4/2
f 47/4/3 46/4/3 45/4/3
f 48/4/3 46/4/3 47/4/3
f 51/1/3 50/1/3 49/1/3
f 53/1/3 51/1/3 49/1/3
f 53/1/3 52/1/3 51/1/3
f 54/1/3 52/1/3 53/1/3
f 55/1/3 53/1/3 49/1/3
f 56/1/3 53/1/3 55/1/3
f 59/4/3 58/4/3 57/4/3
f 60/4/3 58/4/3 59/4/3
f 61/4/3 59/4/3 57/4/3
f 62/4/3 59/4/3 61/4/3
f 63/2/3 60/2/3 59/2/3
f 63/4/3 59/4/3 62/4/3
f 64/2/3 60/2/3 63/2/3
f 65/2/3 60/2/3 64/2/3
f 67/2/3 60/2/3 65/2/3
f 70/2/3 67/2/3 66/2/3
f 71/4/3 69/4/3 68/4/3
f 71/4/3 70/4/3 69/4/3
f 71/2/3 67/2/3 70/2/3
f 72/4/3 58/4/3 60/4/3
f 72/2/3 67/2/3 71/2/3
f 72/2/3 60/2/3 67/2/3
f 73/4/3 71/4/3 68/4/3
f 73/4/3 72/4/3 71/4/3
f 74/4/3 58/4/3 72/4/3
f 74/4/3 72/4/3 73/4/3
f 75/4/4 76/4/4 77/4/4
f 77/4/4 76/4/4 78/4/4
f 79/4/4 80/4/4 81/4/4
f 81/4/4 80/4/4 82/4/4
f 83/4/4 84/4/4 85/4/4
f 85/4/4 84/4/4 86/4/4
f 87/2/4 88/2/4 89/2/4
f 89/2/4 88/2/4 90/2/4
f 89/5/4 90/5/4 91/5/4
f 91/5/4 90/5/4 92/5/4
f 93/4/4 94/4/4 95/4/4
f 95/4/4 94/4/4 96/4/4
f 93/4/4 95/4/4 97/4/4
f 95/2/4 96/2/4 97/2/4
f 96/4/4 94/4/4 98/4/4
f 97/2/4 96/2/4 98/2/4
f 93/4/4 97/4/4 99/4/4
f 97/4/4 98/4/4 99/4/4
f 98/4/4 94/4/4 100/4/4
f 99/4/4 98/4/4 100/4/4
f 103/4/5 102/4/5 101/4/5
f 104/4/5 102/4/5 103/4/5
f 105/4/6 106/4/6 111/4/6
f 107/4/6 108/4/6 113/4/6
f 111/4/6 112/4/6 114/4/6
f 112/4/6 113/4/6 114/4/6
f 105/4/6 111/4/6 114/4/6
f 113/4/6 108/4/6 115/4/6
f 114/4/6 113/4/6 115/4/6
f 109/4/6 110/4/6 116/4/6
f 116/4/6 110/4/6 117/4/6
f 118/4/6 119/4/6 120/4/6
f 120/4/6 119/4/6 121/4/6
f 121/4/6 119/4/6 122/4/6
f 122/4/6 119/4/6 123/4/6
f 123/4/6 119/4/6 124/4/6
f 124/4/6 119/4/6 125/4/6
f 125/4/6 119/4/6 126/4/6
f 121/2/6 122/2/6 127/2/6
f 122/5/6 123/5/6 128/5/6
f 127/2/6 122/2/6 128/2/6
f 128/5/6 123/5/6 129/5/6
f 130/1/6 131/1/6 134/1/6
f 134/1/6 131/1/6 135/1/6
f 132/1/6 133/1/6 136/1/6
f 136/1/6 133/1/6 137/1/6
f 138/1/6 139/1/6 140/1/6
f 140/1/6 139/1/6 141/1/6
f 142/4/6 143/4/6 144/4/6
f 144/4/6 143/4/6 145/4/6
