# MagicaVoxel @ Ephtracy

# group
o 

# material
mtllib inside_classroom_window.mtl
usemtl palette

# normals
vn -1 0 0
vn 1 0 0
vn 0 0 1
vn 0 0 -1
vn 0 -1 0
vn 0 1 0

# texcoords
vt 0.345703 0.5
vt 0.349609 0.5

# verts
v -6.4 0 1.4
v -6.4 0 1.2
v -6.4 4 1.4
v -6.4 4 1.2
v -6.4 4.5 1.7
v -6.4 4.5 1.4
v -6.4 4.5 1.2
v -6.4 4.5 0.9
v -6.4 4.8 1.7
v -6.4 4.8 0.9
v -6.2 1.7 1.5
v -6.2 1.7 1.4
v -6.2 1.7 1.2
v -6.2 1.7 1.1
v -6.2 3.4 1.5
v -6.2 3.4 1.4
v -6.2 3.4 1.2
v -6.2 3.4 1.1
v -6.1 1.6 1.5
v -6.1 1.6 1.4
v -6.1 1.6 1.2
v -6.1 1.6 1.1
v -6.1 1.7 1.5
v -6.1 1.7 1.4
v -6.1 1.7 1.2
v -6.1 1.7 1.1
v -6.1 3.4 1.5
v -6.1 3.4 1.4
v -6.1 3.4 1.2
v -6.1 3.4 1.1
v -6.1 3.5 1.5
v -6.1 3.5 1.4
v -6.1 3.5 1.2
v -6.1 3.5 1.1
v -6 1.5 1.5
v -6 1.5 1.4
v -6 1.5 1.2
v -6 1.5 1.1
v -6 1.6 1.5
v -6 1.6 1.4
v -6 1.6 1.2
v -6 1.6 1.1
v -6 3.5 1.5
v -6 3.5 1.4
v -6 3.5 1.2
v -6 3.5 1.1
v -6 3.6 1.5
v -6 3.6 1.4
v -6 3.6 1.2
v -6 3.6 1.1
v -5.7 1.4 1.5
v -5.7 1.4 1.4
v -5.7 1.4 1.2
v -5.7 1.4 1.1
v -5.7 1.5 1.5
v -5.7 1.5 1.4
v -5.7 1.5 1.2
v -5.7 1.5 1.1
v -5.7 3.6 1.5
v -5.7 3.6 1.4
v -5.7 3.6 1.2
v -5.7 3.6 1.1
v -5.7 3.7 1.5
v -5.7 3.7 1.4
v -5.7 3.7 1.2
v -5.7 3.7 1.1
v -5.3 1.3 1.5
v -5.3 1.3 1.4
v -5.3 1.3 1.2
v -5.3 1.3 1.1
v -5.3 1.4 1.5
v -5.3 1.4 1.4
v -5.3 1.4 1.2
v -5.3 1.4 1.1
v -5.3 3.7 1.5
v -5.3 3.7 1.4
v -5.3 3.7 1.2
v -5.3 3.7 1.1
v -5.3 3.8 1.5
v -5.3 3.8 1.4
v -5.3 3.8 1.2
v -5.3 3.8 1.1
v -5 1.9 1.4
v -5 1.9 1.3
v -5 1.9 1.2
v -5 3.2 1.4
v -5 3.2 1.3
v -5 3.2 1.2
v -4.9 1.8 1.5
v -4.9 1.8 1.4
v -4.9 1.8 1.2
v -4.9 1.8 1.1
v -4.9 3.3 1.5
v -4.9 3.3 1.4
v -4.9 3.3 1.2
v -4.9 3.3 1.1
v -4.6 1.2 1.5
v -4.6 1.2 1.4
v -4.6 1.2 1.2
v -4.6 1.2 1.1
v -4.6 1.3 1.5
v -4.6 1.3 1.4
v -4.6 1.3 1.2
v -4.6 1.3 1.1
v -4.6 3.8 1.5
v -4.6 3.8 1.4
v -4.6 3.8 1.2
v -4.6 3.8 1.1
v -4.6 3.9 1.5
v -4.6 3.9 1.4
v -4.6 3.9 1.2
v -4.6 3.9 1.1
v -3.7 1.9 1.4
v -3.7 1.9 1.3
v -3.7 1.9 1.2
v -3.7 3.2 1.4
v -3.7 3.2 1.3
v -3.7 3.2 1.2
v -3.6 1.8 1.5
v -3.6 1.8 1.4
v -3.6 1.8 1.2
v -3.6 1.8 1.1
v -3.6 3.3 1.5
v -3.6 3.3 1.4
v -3.6 3.3 1.2
v -3.6 3.3 1.1
v -2.4 1.9 1.4
v -2.4 1.9 1.3
v -2.4 1.9 1.2
v -2.4 3.2 1.4
v -2.4 3.2 1.3
v -2.4 3.2 1.2
v -2.3 1.8 1.5
v -2.3 1.8 1.4
v -2.3 1.8 1.2
v -2.3 1.8 1.1
v -2.3 3.3 1.5
v -2.3 3.3 1.4
v -2.3 3.3 1.2
v -2.3 3.3 1.1
v -1.1 1.9 1.4
v -1.1 1.9 1.3
v -1.1 1.9 1.2
v -1.1 3.2 1.4
v -1.1 3.2 1.3
v -1.1 3.2 1.2
v -1 1.8 1.5
v -1 1.8 1.4
v -1 1.8 1.2
v -1 1.8 1.1
v -1 3.3 1.5
v -1 3.3 1.4
v -1 3.3 1.2
v -1 3.3 1.1
v -0.8 0 1.7
v -0.8 0 1.4
v -0.8 0 1.2
v -0.8 0 0.9
v -0.8 4 1.7
v -0.8 4 1.4
v -0.8 4 1.2
v -0.8 4 0.9
v -0.8 4.5 1.7
v -0.8 4.5 1.4
v -0.8 4.5 1.2
v -0.8 4.5 0.9
v 0.2 1.7 1.5
v 0.2 1.7 1.4
v 0.2 1.7 1.2
v 0.2 1.7 1.1
v 0.2 3.4 1.5
v 0.2 3.4 1.4
v 0.2 3.4 1.2
v 0.2 3.4 1.1
v 0.3 1.6 1.5
v 0.3 1.6 1.4
v 0.3 1.6 1.2
v 0.3 1.6 1.1
v 0.3 1.7 1.5
v 0.3 1.7 1.4
v 0.3 1.7 1.2
v 0.3 1.7 1.1
v 0.3 3.4 1.5
v 0.3 3.4 1.4
v 0.3 3.4 1.2
v 0.3 3.4 1.1
v 0.3 3.5 1.5
v 0.3 3.5 1.4
v 0.3 3.5 1.2
v 0.3 3.5 1.1
v 0.4 1.5 1.5
v 0.4 1.5 1.4
v 0.4 1.5 1.2
v 0.4 1.5 1.1
v 0.4 1.6 1.5
v 0.4 1.6 1.4
v 0.4 1.6 1.2
v 0.4 1.6 1.1
v 0.4 3.5 1.5
v 0.4 3.5 1.4
v 0.4 3.5 1.2
v 0.4 3.5 1.1
v 0.4 3.6 1.5
v 0.4 3.6 1.4
v 0.4 3.6 1.2
v 0.4 3.6 1.1
v 0.7 1.4 1.5
v 0.7 1.4 1.4
v 0.7 1.4 1.2
v 0.7 1.4 1.1
v 0.7 1.5 1.5
v 0.7 1.5 1.4
v 0.7 1.5 1.2
v 0.7 1.5 1.1
v 0.7 3.6 1.5
v 0.7 3.6 1.4
v 0.7 3.6 1.2
v 0.7 3.6 1.1
v 0.7 3.7 1.5
v 0.7 3.7 1.4
v 0.7 3.7 1.2
v 0.7 3.7 1.1
v 1.1 1.3 1.5
v 1.1 1.3 1.4
v 1.1 1.3 1.2
v 1.1 1.3 1.1
v 1.1 1.4 1.5
v 1.1 1.4 1.4
v 1.1 1.4 1.2
v 1.1 1.4 1.1
v 1.1 3.7 1.5
v 1.1 3.7 1.4
v 1.1 3.7 1.2
v 1.1 3.7 1.1
v 1.1 3.8 1.5
v 1.1 3.8 1.4
v 1.1 3.8 1.2
v 1.1 3.8 1.1
v 1.4 1.9 1.4
v 1.4 1.9 1.3
v 1.4 1.9 1.2
v 1.4 3.2 1.4
v 1.4 3.2 1.3
v 1.4 3.2 1.2
v 1.5 1.8 1.5
v 1.5 1.8 1.4
v 1.5 1.8 1.2
v 1.5 1.8 1.1
v 1.5 3.3 1.5
v 1.5 3.3 1.4
v 1.5 3.3 1.2
v 1.5 3.3 1.1
v 1.8 1.2 1.5
v 1.8 1.2 1.4
v 1.8 1.2 1.2
v 1.8 1.2 1.1
v 1.8 1.3 1.5
v 1.8 1.3 1.4
v 1.8 1.3 1.2
v 1.8 1.3 1.1
v 1.8 3.8 1.5
v 1.8 3.8 1.4
v 1.8 3.8 1.2
v 1.8 3.8 1.1
v 1.8 3.9 1.5
v 1.8 3.9 1.4
v 1.8 3.9 1.2
v 1.8 3.9 1.1
v 2.7 1.9 1.4
v 2.7 1.9 1.3
v 2.7 1.9 1.2
v 2.7 3.2 1.4
v 2.7 3.2 1.3
v 2.7 3.2 1.2
v 2.8 1.8 1.5
v 2.8 1.8 1.4
v 2.8 1.8 1.2
v 2.8 1.8 1.1
v 2.8 3.3 1.5
v 2.8 3.3 1.4
v 2.8 3.3 1.2
v 2.8 3.3 1.1
v 4 1.9 1.4
v 4 1.9 1.3
v 4 1.9 1.2
v 4 3.2 1.4
v 4 3.2 1.3
v 4 3.2 1.2
v 4.1 1.8 1.5
v 4.1 1.8 1.4
v 4.1 1.8 1.2
v 4.1 1.8 1.1
v 4.1 3.3 1.5
v 4.1 3.3 1.4
v 4.1 3.3 1.2
v 4.1 3.3 1.1
v 5.3 1.9 1.4
v 5.3 1.9 1.3
v 5.3 1.9 1.2
v 5.3 3.2 1.4
v 5.3 3.2 1.3
v 5.3 3.2 1.2
v 5.4 1.8 1.5
v 5.4 1.8 1.4
v 5.4 1.8 1.2
v 5.4 1.8 1.1
v 5.4 3.3 1.5
v 5.4 3.3 1.4
v 5.4 3.3 1.2
v 5.4 3.3 1.1
v 5.6 0 1.7
v 5.6 0 1.4
v 5.6 0 1.2
v 5.6 0 0.9
v 5.6 4 1.7
v 5.6 4 1.4
v 5.6 4 1.2
v 5.6 4 0.9
v 5.6 4.5 1.7
v 5.6 4.5 1.4
v 5.6 4.5 1.2
v 5.6 4.5 0.9
v -6.1 1.8 1.5
v -6.1 1.8 1.4
v -6.1 1.8 1.2
v -6.1 1.8 1.1
v -6.1 3.3 1.5
v -6.1 3.3 1.4
v -6.1 3.3 1.2
v -6.1 3.3 1.1
v -6 1.9 1.4
v -6 1.9 1.3
v -6 1.9 1.2
v -6 3.2 1.4
v -6 3.2 1.3
v -6 3.2 1.2
v -4.8 1.8 1.5
v -4.8 1.8 1.4
v -4.8 1.8 1.2
v -4.8 1.8 1.1
v -4.8 3.3 1.5
v -4.8 3.3 1.4
v -4.8 3.3 1.2
v -4.8 3.3 1.1
v -4.7 1.9 1.4
v -4.7 1.9 1.3
v -4.7 1.9 1.2
v -4.7 3.2 1.4
v -4.7 3.2 1.3
v -4.7 3.2 1.2
v -3.5 1.8 1.5
v -3.5 1.8 1.4
v -3.5 1.8 1.2
v -3.5 1.8 1.1
v -3.5 3.3 1.5
v -3.5 3.3 1.4
v -3.5 3.3 1.2
v -3.5 3.3 1.1
v -3.4 1.9 1.4
v -3.4 1.9 1.3
v -3.4 1.9 1.2
v -3.4 3.2 1.4
v -3.4 3.2 1.3
v -3.4 3.2 1.2
v -2.5 1.2 1.5
v -2.5 1.2 1.4
v -2.5 1.2 1.2
v -2.5 1.2 1.1
v -2.5 1.3 1.5
v -2.5 1.3 1.4
v -2.5 1.3 1.2
v -2.5 1.3 1.1
v -2.5 3.8 1.5
v -2.5 3.8 1.4
v -2.5 3.8 1.2
v -2.5 3.8 1.1
v -2.5 3.9 1.5
v -2.5 3.9 1.4
v -2.5 3.9 1.2
v -2.5 3.9 1.1
v -2.2 1.8 1.5
v -2.2 1.8 1.4
v -2.2 1.8 1.2
v -2.2 1.8 1.1
v -2.2 3.3 1.5
v -2.2 3.3 1.4
v -2.2 3.3 1.2
v -2.2 3.3 1.1
v -2.1 1.9 1.4
v -2.1 1.9 1.3
v -2.1 1.9 1.2
v -2.1 3.2 1.4
v -2.1 3.2 1.3
v -2.1 3.2 1.2
v -1.8 1.3 1.5
v -1.8 1.3 1.4
v -1.8 1.3 1.2
v -1.8 1.3 1.1
v -1.8 1.4 1.5
v -1.8 1.4 1.4
v -1.8 1.4 1.2
v -1.8 1.4 1.1
v -1.8 3.7 1.5
v -1.8 3.7 1.4
v -1.8 3.7 1.2
v -1.8 3.7 1.1
v -1.8 3.8 1.5
v -1.8 3.8 1.4
v -1.8 3.8 1.2
v -1.8 3.8 1.1
v -1.4 1.4 1.5
v -1.4 1.4 1.4
v -1.4 1.4 1.2
v -1.4 1.4 1.1
v -1.4 1.5 1.5
v -1.4 1.5 1.4
v -1.4 1.5 1.2
v -1.4 1.5 1.1
v -1.4 3.6 1.5
v -1.4 3.6 1.4
v -1.4 3.6 1.2
v -1.4 3.6 1.1
v -1.4 3.7 1.5
v -1.4 3.7 1.4
v -1.4 3.7 1.2
v -1.4 3.7 1.1
v -1.1 1.5 1.5
v -1.1 1.5 1.4
v -1.1 1.5 1.2
v -1.1 1.5 1.1
v -1.1 1.6 1.5
v -1.1 1.6 1.4
v -1.1 1.6 1.2
v -1.1 1.6 1.1
v -1.1 3.5 1.5
v -1.1 3.5 1.4
v -1.1 3.5 1.2
v -1.1 3.5 1.1
v -1.1 3.6 1.5
v -1.1 3.6 1.4
v -1.1 3.6 1.2
v -1.1 3.6 1.1
v -1 1.6 1.5
v -1 1.6 1.4
v -1 1.6 1.2
v -1 1.6 1.1
v -1 1.7 1.5
v -1 1.7 1.4
v -1 1.7 1.2
v -1 1.7 1.1
v -1 3.4 1.5
v -1 3.4 1.4
v -1 3.4 1.2
v -1 3.4 1.1
v -1 3.5 1.5
v -1 3.5 1.4
v -1 3.5 1.2
v -1 3.5 1.1
v -0.9 1.7 1.5
v -0.9 1.7 1.4
v -0.9 1.7 1.2
v -0.9 1.7 1.1
v -0.9 3.4 1.5
v -0.9 3.4 1.4
v -0.9 3.4 1.2
v -0.9 3.4 1.1
v 0 0 1.7
v 0 0 1.4
v 0 0 1.2
v 0 0 0.9
v 0 4 1.7
v 0 4 1.4
v 0 4 1.2
v 0 4 0.9
v 0 4.5 1.7
v 0 4.5 1.4
v 0 4.5 1.2
v 0 4.5 0.9
v 0.3 1.8 1.5
v 0.3 1.8 1.4
v 0.3 1.8 1.2
v 0.3 1.8 1.1
v 0.3 3.3 1.5
v 0.3 3.3 1.4
v 0.3 3.3 1.2
v 0.3 3.3 1.1
v 0.4 1.9 1.4
v 0.4 1.9 1.3
v 0.4 1.9 1.2
v 0.4 3.2 1.4
v 0.4 3.2 1.3
v 0.4 3.2 1.2
v 1.6 1.8 1.5
v 1.6 1.8 1.4
v 1.6 1.8 1.2
v 1.6 1.8 1.1
v 1.6 3.3 1.5
v 1.6 3.3 1.4
v 1.6 3.3 1.2
v 1.6 3.3 1.1
v 1.7 1.9 1.4
v 1.7 1.9 1.3
v 1.7 1.9 1.2
v 1.7 3.2 1.4
v 1.7 3.2 1.3
v 1.7 3.2 1.2
v 2.9 1.8 1.5
v 2.9 1.8 1.4
v 2.9 1.8 1.2
v 2.9 1.8 1.1
v 2.9 3.3 1.5
v 2.9 3.3 1.4
v 2.9 3.3 1.2
v 2.9 3.3 1.1
v 3 1.9 1.4
v 3 1.9 1.3
v 3 1.9 1.2
v 3 3.2 1.4
v 3 3.2 1.3
v 3 3.2 1.2
v 3.9 1.2 1.5
v 3.9 1.2 1.4
v 3.9 1.2 1.2
v 3.9 1.2 1.1
v 3.9 1.3 1.5
v 3.9 1.3 1.4
v 3.9 1.3 1.2
v 3.9 1.3 1.1
v 3.9 3.8 1.5
v 3.9 3.8 1.4
v 3.9 3.8 1.2
v 3.9 3.8 1.1
v 3.9 3.9 1.5
v 3.9 3.9 1.4
v 3.9 3.9 1.2
v 3.9 3.9 1.1
v 4.2 1.8 1.5
v 4.2 1.8 1.4
v 4.2 1.8 1.2
v 4.2 1.8 1.1
v 4.2 3.3 1.5
v 4.2 3.3 1.4
v 4.2 3.3 1.2
v 4.2 3.3 1.1
v 4.3 1.9 1.4
v 4.3 1.9 1.3
v 4.3 1.9 1.2
v 4.3 3.2 1.4
v 4.3 3.2 1.3
v 4.3 3.2 1.2
v 4.6 1.3 1.5
v 4.6 1.3 1.4
v 4.6 1.3 1.2
v 4.6 1.3 1.1
v 4.6 1.4 1.5
v 4.6 1.4 1.4
v 4.6 1.4 1.2
v 4.6 1.4 1.1
v 4.6 3.7 1.5
v 4.6 3.7 1.4
v 4.6 3.7 1.2
v 4.6 3.7 1.1
v 4.6 3.8 1.5
v 4.6 3.8 1.4
v 4.6 3.8 1.2
v 4.6 3.8 1.1
v 5 1.4 1.5
v 5 1.4 1.4
v 5 1.4 1.2
v 5 1.4 1.1
v 5 1.5 1.5
v 5 1.5 1.4
v 5 1.5 1.2
v 5 1.5 1.1
v 5 3.6 1.5
v 5 3.6 1.4
v 5 3.6 1.2
v 5 3.6 1.1
v 5 3.7 1.5
v 5 3.7 1.4
v 5 3.7 1.2
v 5 3.7 1.1
v 5.3 1.5 1.5
v 5.3 1.5 1.4
v 5.3 1.5 1.2
v 5.3 1.5 1.1
v 5.3 1.6 1.5
v 5.3 1.6 1.4
v 5.3 1.6 1.2
v 5.3 1.6 1.1
v 5.3 3.5 1.5
v 5.3 3.5 1.4
v 5.3 3.5 1.2
v 5.3 3.5 1.1
v 5.3 3.6 1.5
v 5.3 3.6 1.4
v 5.3 3.6 1.2
v 5.3 3.6 1.1
v 5.4 1.6 1.5
v 5.4 1.6 1.4
v 5.4 1.6 1.2
v 5.4 1.6 1.1
v 5.4 1.7 1.5
v 5.4 1.7 1.4
v 5.4 1.7 1.2
v 5.4 1.7 1.1
v 5.4 3.4 1.5
v 5.4 3.4 1.4
v 5.4 3.4 1.2
v 5.4 3.4 1.1
v 5.4 3.5 1.5
v 5.4 3.5 1.4
v 5.4 3.5 1.2
v 5.4 3.5 1.1
v 5.5 1.7 1.5
v 5.5 1.7 1.4
v 5.5 1.7 1.2
v 5.5 1.7 1.1
v 5.5 3.4 1.5
v 5.5 3.4 1.4
v 5.5 3.4 1.2
v 5.5 3.4 1.1
v 6.4 0 1.7
v 6.4 0 0.9
v 6.4 4 1.7
v 6.4 4 0.9
v 6.4 4.5 1.7
v 6.4 4.5 0.9
v 6.4 4.8 1.7
v 6.4 4.8 0.9
v -6.4 4.5 1.7
v -6.4 4.8 1.7
v -0.8 0 1.7
v -0.8 4 1.7
v -0.8 4.5 1.7
v 0 0 1.7
v 0 4 1.7
v 0 4.5 1.7
v 5.6 0 1.7
v 5.6 4 1.7
v 5.6 4.5 1.7
v 6.4 0 1.7
v 6.4 4 1.7
v 6.4 4.5 1.7
v 6.4 4.8 1.7
v -6.2 1.7 1.5
v -6.2 3.4 1.5
v -6.1 1.6 1.5
v -6.1 1.7 1.5
v -6.1 1.8 1.5
v -6.1 3.3 1.5
v -6.1 3.4 1.5
v -6.1 3.5 1.5
v -6 1.5 1.5
v -6 1.6 1.5
v -6 3.5 1.5
v -6 3.6 1.5
v -5.7 1.4 1.5
v -5.7 1.5 1.5
v -5.7 3.6 1.5
v -5.7 3.7 1.5
v -5.3 1.3 1.5
v -5.3 1.4 1.5
v -5.3 3.7 1.5
v -5.3 3.8 1.5
v -4.9 1.8 1.5
v -4.9 3.3 1.5
v -4.8 1.8 1.5
v -4.8 3.3 1.5
v -4.6 1.2 1.5
v -4.6 1.3 1.5
v -4.6 3.8 1.5
v -4.6 3.9 1.5
v -3.6 1.8 1.5
v -3.6 3.3 1.5
v -3.5 1.8 1.5
v -3.5 3.3 1.5
v -2.5 1.2 1.5
v -2.5 1.3 1.5
v -2.5 3.8 1.5
v -2.5 3.9 1.5
v -2.3 1.8 1.5
v -2.3 3.3 1.5
v -2.2 1.8 1.5
v -2.2 3.3 1.5
v -1.8 1.3 1.5
v -1.8 1.4 1.5
v -1.8 3.7 1.5
v -1.8 3.8 1.5
v -1.4 1.4 1.5
v -1.4 1.5 1.5
v -1.4 3.6 1.5
v -1.4 3.7 1.5
v -1.1 1.5 1.5
v -1.1 1.6 1.5
v -1.1 3.5 1.5
v -1.1 3.6 1.5
v -1 1.6 1.5
v -1 1.7 1.5
v -1 1.8 1.5
v -1 3.3 1.5
v -1 3.4 1.5
v -1 3.5 1.5
v -0.9 1.7 1.5
v -0.9 3.4 1.5
v 0.2 1.7 1.5
v 0.2 3.4 1.5
v 0.3 1.6 1.5
v 0.3 1.7 1.5
v 0.3 1.8 1.5
v 0.3 3.3 1.5
v 0.3 3.4 1.5
v 0.3 3.5 1.5
v 0.4 1.5 1.5
v 0.4 1.6 1.5
v 0.4 3.5 1.5
v 0.4 3.6 1.5
v 0.7 1.4 1.5
v 0.7 1.5 1.5
v 0.7 3.6 1.5
v 0.7 3.7 1.5
v 1.1 1.3 1.5
v 1.1 1.4 1.5
v 1.1 3.7 1.5
v 1.1 3.8 1.5
v 1.5 1.8 1.5
v 1.5 3.3 1.5
v 1.6 1.8 1.5
v 1.6 3.3 1.5
v 1.8 1.2 1.5
v 1.8 1.3 1.5
v 1.8 3.8 1.5
v 1.8 3.9 1.5
v 2.8 1.8 1.5
v 2.8 3.3 1.5
v 2.9 1.8 1.5
v 2.9 3.3 1.5
v 3.9 1.2 1.5
v 3.9 1.3 1.5
v 3.9 3.8 1.5
v 3.9 3.9 1.5
v 4.1 1.8 1.5
v 4.1 3.3 1.5
v 4.2 1.8 1.5
v 4.2 3.3 1.5
v 4.6 1.3 1.5
v 4.6 1.4 1.5
v 4.6 3.7 1.5
v 4.6 3.8 1.5
v 5 1.4 1.5
v 5 1.5 1.5
v 5 3.6 1.5
v 5 3.7 1.5
v 5.3 1.5 1.5
v 5.3 1.6 1.5
v 5.3 3.5 1.5
v 5.3 3.6 1.5
v 5.4 1.6 1.5
v 5.4 1.7 1.5
v 5.4 1.8 1.5
v 5.4 3.3 1.5
v 5.4 3.4 1.5
v 5.4 3.5 1.5
v 5.5 1.7 1.5
v 5.5 3.4 1.5
v -6.4 0 1.4
v -6.4 4 1.4
v -6.4 4.5 1.4
v -6.2 1.7 1.4
v -6.2 3.4 1.4
v -6.1 1.6 1.4
v -6.1 1.7 1.4
v -6.1 1.8 1.4
v -6.1 3.3 1.4
v -6.1 3.4 1.4
v -6.1 3.5 1.4
v -6 1.5 1.4
v -6 1.6 1.4
v -6 1.9 1.4
v -6 3.2 1.4
v -6 3.5 1.4
v -6 3.6 1.4
v -5.7 1.4 1.4
v -5.7 1.5 1.4
v -5.7 3.6 1.4
v -5.7 3.7 1.4
v -5.3 1.3 1.4
v -5.3 1.4 1.4
v -5.3 3.7 1.4
v -5.3 3.8 1.4
v -5 1.9 1.4
v -5 3.2 1.4
v -4.9 1.8 1.4
v -4.9 3.3 1.4
v -4.8 1.8 1.4
v -4.8 3.3 1.4
v -4.7 1.9 1.4
v -4.7 3.2 1.4
v -4.6 1.2 1.4
v -4.6 1.3 1.4
v -4.6 3.8 1.4
v -4.6 3.9 1.4
v -3.7 1.9 1.4
v -3.7 3.2 1.4
v -3.6 1.8 1.4
v -3.6 3.3 1.4
v -3.5 1.8 1.4
v -3.5 3.3 1.4
v -3.4 1.9 1.4
v -3.4 3.2 1.4
v -2.5 1.2 1.4
v -2.5 1.3 1.4
v -2.5 3.8 1.4
v -2.5 3.9 1.4
v -2.4 1.9 1.4
v -2.4 3.2 1.4
v -2.3 1.8 1.4
v -2.3 3.3 1.4
v -2.2 1.8 1.4
v -2.2 3.3 1.4
v -2.1 1.9 1.4
v -2.1 3.2 1.4
v -1.8 1.3 1.4
v -1.8 1.4 1.4
v -1.8 3.7 1.4
v -1.8 3.8 1.4
v -1.4 1.4 1.4
v -1.4 1.5 1.4
v -1.4 3.6 1.4
v -1.4 3.7 1.4
v -1.1 1.5 1.4
v -1.1 1.6 1.4
v -1.1 1.9 1.4
v -1.1 3.2 1.4
v -1.1 3.5 1.4
v -1.1 3.6 1.4
v -1 1.6 1.4
v -1 1.7 1.4
v -1 1.8 1.4
v -1 3.3 1.4
v -1 3.4 1.4
v -1 3.5 1.4
v -0.9 1.7 1.4
v -0.9 3.4 1.4
v -0.8 0 1.4
v -0.8 4 1.4
v -0.8 4.5 1.4
v 0 0 1.4
v 0 4 1.4
v 0 4.5 1.4
v 0.2 1.7 1.4
v 0.2 3.4 1.4
v 0.3 1.6 1.4
v 0.3 1.7 1.4
v 0.3 1.8 1.4
v 0.3 3.3 1.4
v 0.3 3.4 1.4
v 0.3 3.5 1.4
v 0.4 1.5 1.4
v 0.4 1.6 1.4
v 0.4 1.9 1.4
v 0.4 3.2 1.4
v 0.4 3.5 1.4
v 0.4 3.6 1.4
v 0.7 1.4 1.4
v 0.7 1.5 1.4
v 0.7 3.6 1.4
v 0.7 3.7 1.4
v 1.1 1.3 1.4
v 1.1 1.4 1.4
v 1.1 3.7 1.4
v 1.1 3.8 1.4
v 1.4 1.9 1.4
v 1.4 3.2 1.4
v 1.5 1.8 1.4
v 1.5 3.3 1.4
v 1.6 1.8 1.4
v 1.6 3.3 1.4
v 1.7 1.9 1.4
v 1.7 3.2 1.4
v 1.8 1.2 1.4
v 1.8 1.3 1.4
v 1.8 3.8 1.4
v 1.8 3.9 1.4
v 2.7 1.9 1.4
v 2.7 3.2 1.4
v 2.8 1.8 1.4
v 2.8 3.3 1.4
v 2.9 1.8 1.4
v 2.9 3.3 1.4
v 3 1.9 1.4
v 3 3.2 1.4
v 3.9 1.2 1.4
v 3.9 1.3 1.4
v 3.9 3.8 1.4
v 3.9 3.9 1.4
v 4 1.9 1.4
v 4 3.2 1.4
v 4.1 1.8 1.4
v 4.1 3.3 1.4
v 4.2 1.8 1.4
v 4.2 3.3 1.4
v 4.3 1.9 1.4
v 4.3 3.2 1.4
v 4.6 1.3 1.4
v 4.6 1.4 1.4
v 4.6 3.7 1.4
v 4.6 3.8 1.4
v 5 1.4 1.4
v 5 1.5 1.4
v 5 3.6 1.4
v 5 3.7 1.4
v 5.3 1.5 1.4
v 5.3 1.6 1.4
v 5.3 1.9 1.4
v 5.3 3.2 1.4
v 5.3 3.5 1.4
v 5.3 3.6 1.4
v 5.4 1.6 1.4
v 5.4 1.7 1.4
v 5.4 1.8 1.4
v 5.4 3.3 1.4
v 5.4 3.4 1.4
v 5.4 3.5 1.4
v 5.5 1.7 1.4
v 5.5 3.4 1.4
v 5.6 0 1.4
v 5.6 4 1.4
v 5.6 4.5 1.4
v -6.4 0 1.2
v -6.4 4 1.2
v -6.4 4.5 1.2
v -6.2 1.7 1.2
v -6.2 3.4 1.2
v -6.1 1.6 1.2
v -6.1 1.7 1.2
v -6.1 1.8 1.2
v -6.1 3.3 1.2
v -6.1 3.4 1.2
v -6.1 3.5 1.2
v -6 1.5 1.2
v -6 1.6 1.2
v -6 1.9 1.2
v -6 3.2 1.2
v -6 3.5 1.2
v -6 3.6 1.2
v -5.7 1.4 1.2
v -5.7 1.5 1.2
v -5.7 3.6 1.2
v -5.7 3.7 1.2
v -5.3 1.3 1.2
v -5.3 1.4 1.2
v -5.3 3.7 1.2
v -5.3 3.8 1.2
v -5 1.9 1.2
v -5 3.2 1.2
v -4.9 1.8 1.2
v -4.9 3.3 1.2
v -4.8 1.8 1.2
v -4.8 3.3 1.2
v -4.7 1.9 1.2
v -4.7 3.2 1.2
v -4.6 1.2 1.2
v -4.6 1.3 1.2
v -4.6 3.8 1.2
v -4.6 3.9 1.2
v -3.7 1.9 1.2
v -3.7 3.2 1.2
v -3.6 1.8 1.2
v -3.6 3.3 1.2
v -3.5 1.8 1.2
v -3.5 3.3 1.2
v -3.4 1.9 1.2
v -3.4 3.2 1.2
v -2.5 1.2 1.2
v -2.5 1.3 1.2
v -2.5 3.8 1.2
v -2.5 3.9 1.2
v -2.4 1.9 1.2
v -2.4 3.2 1.2
v -2.3 1.8 1.2
v -2.3 3.3 1.2
v -2.2 1.8 1.2
v -2.2 3.3 1.2
v -2.1 1.9 1.2
v -2.1 3.2 1.2
v -1.8 1.3 1.2
v -1.8 1.4 1.2
v -1.8 3.7 1.2
v -1.8 3.8 1.2
v -1.4 1.4 1.2
v -1.4 1.5 1.2
v -1.4 3.6 1.2
v -1.4 3.7 1.2
v -1.1 1.5 1.2
v -1.1 1.6 1.2
v -1.1 1.9 1.2
v -1.1 3.2 1.2
v -1.1 3.5 1.2
v -1.1 3.6 1.2
v -1 1.6 1.2
v -1 1.7 1.2
v -1 1.8 1.2
v -1 3.3 1.2
v -1 3.4 1.2
v -1 3.5 1.2
v -0.9 1.7 1.2
v -0.9 3.4 1.2
v -0.8 0 1.2
v -0.8 4 1.2
v -0.8 4.5 1.2
v 0 0 1.2
v 0 4 1.2
v 0 4.5 1.2
v 0.2 1.7 1.2
v 0.2 3.4 1.2
v 0.3 1.6 1.2
v 0.3 1.7 1.2
v 0.3 1.8 1.2
v 0.3 3.3 1.2
v 0.3 3.4 1.2
v 0.3 3.5 1.2
v 0.4 1.5 1.2
v 0.4 1.6 1.2
v 0.4 1.9 1.2
v 0.4 3.2 1.2
v 0.4 3.5 1.2
v 0.4 3.6 1.2
v 0.7 1.4 1.2
v 0.7 1.5 1.2
v 0.7 3.6 1.2
v 0.7 3.7 1.2
v 1.1 1.3 1.2
v 1.1 1.4 1.2
v 1.1 3.7 1.2
v 1.1 3.8 1.2
v 1.4 1.9 1.2
v 1.4 3.2 1.2
v 1.5 1.8 1.2
v 1.5 3.3 1.2
v 1.6 1.8 1.2
v 1.6 3.3 1.2
v 1.7 1.9 1.2
v 1.7 3.2 1.2
v 1.8 1.2 1.2
v 1.8 1.3 1.2
v 1.8 3.8 1.2
v 1.8 3.9 1.2
v 2.7 1.9 1.2
v 2.7 3.2 1.2
v 2.8 1.8 1.2
v 2.8 3.3 1.2
v 2.9 1.8 1.2
v 2.9 3.3 1.2
v 3 1.9 1.2
v 3 3.2 1.2
v 3.9 1.2 1.2
v 3.9 1.3 1.2
v 3.9 3.8 1.2
v 3.9 3.9 1.2
v 4 1.9 1.2
v 4 3.2 1.2
v 4.1 1.8 1.2
v 4.1 3.3 1.2
v 4.2 1.8 1.2
v 4.2 3.3 1.2
v 4.3 1.9 1.2
v 4.3 3.2 1.2
v 4.6 1.3 1.2
v 4.6 1.4 1.2
v 4.6 3.7 1.2
v 4.6 3.8 1.2
v 5 1.4 1.2
v 5 1.5 1.2
v 5 3.6 1.2
v 5 3.7 1.2
v 5.3 1.5 1.2
v 5.3 1.6 1.2
v 5.3 1.9 1.2
v 5.3 3.2 1.2
v 5.3 3.5 1.2
v 5.3 3.6 1.2
v 5.4 1.6 1.2
v 5.4 1.7 1.2
v 5.4 1.8 1.2
v 5.4 3.3 1.2
v 5.4 3.4 1.2
v 5.4 3.5 1.2
v 5.5 1.7 1.2
v 5.5 3.4 1.2
v 5.6 0 1.2
v 5.6 4 1.2
v 5.6 4.5 1.2
v -6.2 1.7 1.1
v -6.2 3.4 1.1
v -6.1 1.6 1.1
v -6.1 1.7 1.1
v -6.1 1.8 1.1
v -6.1 3.3 1.1
v -6.1 3.4 1.1
v -6.1 3.5 1.1
v -6 1.5 1.1
v -6 1.6 1.1
v -6 3.5 1.1
v -6 3.6 1.1
v -5.7 1.4 1.1
v -5.7 1.5 1.1
v -5.7 3.6 1.1
v -5.7 3.7 1.1
v -5.3 1.3 1.1
v -5.3 1.4 1.1
v -5.3 3.7 1.1
v -5.3 3.8 1.1
v -4.9 1.8 1.1
v -4.9 3.3 1.1
v -4.8 1.8 1.1
v -4.8 3.3 1.1
v -4.6 1.2 1.1
v -4.6 1.3 1.1
v -4.6 3.8 1.1
v -4.6 3.9 1.1
v -3.6 1.8 1.1
v -3.6 3.3 1.1
v -3.5 1.8 1.1
v -3.5 3.3 1.1
v -2.5 1.2 1.1
v -2.5 1.3 1.1
v -2.5 3.8 1.1
v -2.5 3.9 1.1
v -2.3 1.8 1.1
v -2.3 3.3 1.1
v -2.2 1.8 1.1
v -2.2 3.3 1.1
v -1.8 1.3 1.1
v -1.8 1.4 1.1
v -1.8 3.7 1.1
v -1.8 3.8 1.1
v -1.4 1.4 1.1
v -1.4 1.5 1.1
v -1.4 3.6 1.1
v -1.4 3.7 1.1
v -1.1 1.5 1.1
v -1.1 1.6 1.1
v -1.1 3.5 1.1
v -1.1 3.6 1.1
v -1 1.6 1.1
v -1 1.7 1.1
v -1 1.8 1.1
v -1 3.3 1.1
v -1 3.4 1.1
v -1 3.5 1.1
v -0.9 1.7 1.1
v -0.9 3.4 1.1
v 0.2 1.7 1.1
v 0.2 3.4 1.1
v 0.3 1.6 1.1
v 0.3 1.7 1.1
v 0.3 1.8 1.1
v 0.3 3.3 1.1
v 0.3 3.4 1.1
v 0.3 3.5 1.1
v 0.4 1.5 1.1
v 0.4 1.6 1.1
v 0.4 3.5 1.1
v 0.4 3.6 1.1
v 0.7 1.4 1.1
v 0.7 1.5 1.1
v 0.7 3.6 1.1
v 0.7 3.7 1.1
v 1.1 1.3 1.1
v 1.1 1.4 1.1
v 1.1 3.7 1.1
v 1.1 3.8 1.1
v 1.5 1.8 1.1
v 1.5 3.3 1.1
v 1.6 1.8 1.1
v 1.6 3.3 1.1
v 1.8 1.2 1.1
v 1.8 1.3 1.1
v 1.8 3.8 1.1
v 1.8 3.9 1.1
v 2.8 1.8 1.1
v 2.8 3.3 1.1
v 2.9 1.8 1.1
v 2.9 3.3 1.1
v 3.9 1.2 1.1
v 3.9 1.3 1.1
v 3.9 3.8 1.1
v 3.9 3.9 1.1
v 4.1 1.8 1.1
v 4.1 3.3 1.1
v 4.2 1.8 1.1
v 4.2 3.3 1.1
v 4.6 1.3 1.1
v 4.6 1.4 1.1
v 4.6 3.7 1.1
v 4.6 3.8 1.1
v 5 1.4 1.1
v 5 1.5 1.1
v 5 3.6 1.1
v 5 3.7 1.1
v 5.3 1.5 1.1
v 5.3 1.6 1.1
v 5.3 3.5 1.1
v 5.3 3.6 1.1
v 5.4 1.6 1.1
v 5.4 1.7 1.1
v 5.4 1.8 1.1
v 5.4 3.3 1.1
v 5.4 3.4 1.1
v 5.4 3.5 1.1
v 5.5 1.7 1.1
v 5.5 3.4 1.1
v -6.4 4.5 0.9
v -6.4 4.8 0.9
v -0.8 0 0.9
v -0.8 4 0.9
v -0.8 4.5 0.9
v 0 0 0.9
v 0 4 0.9
v 0 4.5 0.9
v 5.6 0 0.9
v 5.6 4 0.9
v 5.6 4.5 0.9
v 6.4 0 0.9
v 6.4 4 0.9
v 6.4 4.5 0.9
v 6.4 4.8 0.9
v -0.8 0 1.7
v 0 0 1.7
v 5.6 0 1.7
v 6.4 0 1.7
v -6.4 0 1.4
v -0.8 0 1.4
v 0 0 1.4
v 5.6 0 1.4
v -6.4 0 1.2
v -0.8 0 1.2
v 0 0 1.2
v 5.6 0 1.2
v -0.8 0 0.9
v 0 0 0.9
v 5.6 0 0.9
v 6.4 0 0.9
v -4.6 1.2 1.5
v -2.5 1.2 1.5
v 1.8 1.2 1.5
v 3.9 1.2 1.5
v -4.6 1.2 1.4
v -2.5 1.2 1.4
v 1.8 1.2 1.4
v 3.9 1.2 1.4
v -4.6 1.2 1.2
v -2.5 1.2 1.2
v 1.8 1.2 1.2
v 3.9 1.2 1.2
v -4.6 1.2 1.1
v -2.5 1.2 1.1
v 1.8 1.2 1.1
v 3.9 1.2 1.1
v -5.3 1.3 1.5
v -4.6 1.3 1.5
v -2.5 1.3 1.5
v -1.8 1.3 1.5
v 1.1 1.3 1.5
v 1.8 1.3 1.5
v 3.9 1.3 1.5
v 4.6 1.3 1.5
v -5.3 1.3 1.4
v -4.6 1.3 1.4
v -2.5 1.3 1.4
v -1.8 1.3 1.4
v 1.1 1.3 1.4
v 1.8 1.3 1.4
v 3.9 1.3 1.4
v 4.6 1.3 1.4
v -5.3 1.3 1.2
v -4.6 1.3 1.2
v -2.5 1.3 1.2
v -1.8 1.3 1.2
v 1.1 1.3 1.2
v 1.8 1.3 1.2
v 3.9 1.3 1.2
v 4.6 1.3 1.2
v -5.3 1.3 1.1
v -4.6 1.3 1.1
v -2.5 1.3 1.1
v -1.8 1.3 1.1
v 1.1 1.3 1.1
v 1.8 1.3 1.1
v 3.9 1.3 1.1
v 4.6 1.3 1.1
v -5.7 1.4 1.5
v -5.3 1.4 1.5
v -1.8 1.4 1.5
v -1.4 1.4 1.5
v 0.7 1.4 1.5
v 1.1 1.4 1.5
v 4.6 1.4 1.5
v 5 1.4 1.5
v -5.7 1.4 1.4
v -5.3 1.4 1.4
v -1.8 1.4 1.4
v -1.4 1.4 1.4
v 0.7 1.4 1.4
v 1.1 1.4 1.4
v 4.6 1.4 1.4
v 5 1.4 1.4
v -5.7 1.4 1.2
v -5.3 1.4 1.2
v -1.8 1.4 1.2
v -1.4 1.4 1.2
v 0.7 1.4 1.2
v 1.1 1.4 1.2
v 4.6 1.4 1.2
v 5 1.4 1.2
v -5.7 1.4 1.1
v -5.3 1.4 1.1
v -1.8 1.4 1.1
v -1.4 1.4 1.1
v 0.7 1.4 1.1
v 1.1 1.4 1.1
v 4.6 1.4 1.1
v 5 1.4 1.1
v -6 1.5 1.5
v -5.7 1.5 1.5
v -1.4 1.5 1.5
v -1.1 1.5 1.5
v 0.4 1.5 1.5
v 0.7 1.5 1.5
v 5 1.5 1.5
v 5.3 1.5 1.5
v -6 1.5 1.4
v -5.7 1.5 1.4
v -1.4 1.5 1.4
v -1.1 1.5 1.4
v 0.4 1.5 1.4
v 0.7 1.5 1.4
v 5 1.5 1.4
v 5.3 1.5 1.4
v -6 1.5 1.2
v -5.7 1.5 1.2
v -1.4 1.5 1.2
v -1.1 1.5 1.2
v 0.4 1.5 1.2
v 0.7 1.5 1.2
v 5 1.5 1.2
v 5.3 1.5 1.2
v -6 1.5 1.1
v -5.7 1.5 1.1
v -1.4 1.5 1.1
v -1.1 1.5 1.1
v 0.4 1.5 1.1
v 0.7 1.5 1.1
v 5 1.5 1.1
v 5.3 1.5 1.1
v -6.1 1.6 1.5
v -6 1.6 1.5
v -1.1 1.6 1.5
v -1 1.6 1.5
v 0.3 1.6 1.5
v 0.4 1.6 1.5
v 5.3 1.6 1.5
v 5.4 1.6 1.5
v -6.1 1.6 1.4
v -6 1.6 1.4
v -1.1 1.6 1.4
v -1 1.6 1.4
v 0.3 1.6 1.4
v 0.4 1.6 1.4
v 5.3 1.6 1.4
v 5.4 1.6 1.4
v -6.1 1.6 1.2
v -6 1.6 1.2
v -1.1 1.6 1.2
v -1 1.6 1.2
v 0.3 1.6 1.2
v 0.4 1.6 1.2
v 5.3 1.6 1.2
v 5.4 1.6 1.2
v -6.1 1.6 1.1
v -6 1.6 1.1
v -1.1 1.6 1.1
v -1 1.6 1.1
v 0.3 1.6 1.1
v 0.4 1.6 1.1
v 5.3 1.6 1.1
v 5.4 1.6 1.1
v -6.2 1.7 1.5
v -6.1 1.7 1.5
v -1 1.7 1.5
v -0.9 1.7 1.5
v 0.2 1.7 1.5
v 0.3 1.7 1.5
v 5.4 1.7 1.5
v 5.5 1.7 1.5
v -6.2 1.7 1.4
v -6.1 1.7 1.4
v -1 1.7 1.4
v -0.9 1.7 1.4
v 0.2 1.7 1.4
v 0.3 1.7 1.4
v 5.4 1.7 1.4
v 5.5 1.7 1.4
v -6.2 1.7 1.2
v -6.1 1.7 1.2
v -1 1.7 1.2
v -0.9 1.7 1.2
v 0.2 1.7 1.2
v 0.3 1.7 1.2
v 5.4 1.7 1.2
v 5.5 1.7 1.2
v -6.2 1.7 1.1
v -6.1 1.7 1.1
v -1 1.7 1.1
v -0.9 1.7 1.1
v 0.2 1.7 1.1
v 0.3 1.7 1.1
v 5.4 1.7 1.1
v 5.5 1.7 1.1
v -6 3.2 1.4
v -5 3.2 1.4
v -4.7 3.2 1.4
v -3.7 3.2 1.4
v -3.4 3.2 1.4
v -2.4 3.2 1.4
v -2.1 3.2 1.4
v -1.1 3.2 1.4
v 0.4 3.2 1.4
v 1.4 3.2 1.4
v 1.7 3.2 1.4
v 2.7 3.2 1.4
v 3 3.2 1.4
v 4 3.2 1.4
v 4.3 3.2 1.4
v 5.3 3.2 1.4
v -6 3.2 1.3
v -5 3.2 1.3
v -4.7 3.2 1.3
v -3.7 3.2 1.3
v -3.4 3.2 1.3
v -2.4 3.2 1.3
v -2.1 3.2 1.3
v -1.1 3.2 1.3
v 0.4 3.2 1.3
v 1.4 3.2 1.3
v 1.7 3.2 1.3
v 2.7 3.2 1.3
v 3 3.2 1.3
v 4 3.2 1.3
v 4.3 3.2 1.3
v 5.3 3.2 1.3
v -6 3.2 1.2
v -5 3.2 1.2
v -4.7 3.2 1.2
v -3.7 3.2 1.2
v -3.4 3.2 1.2
v -2.4 3.2 1.2
v -2.1 3.2 1.2
v -1.1 3.2 1.2
v 0.4 3.2 1.2
v 1.4 3.2 1.2
v 1.7 3.2 1.2
v 2.7 3.2 1.2
v 3 3.2 1.2
v 4 3.2 1.2
v 4.3 3.2 1.2
v 5.3 3.2 1.2
v -6.1 3.3 1.5
v -4.9 3.3 1.5
v -4.8 3.3 1.5
v -3.6 3.3 1.5
v -3.5 3.3 1.5
v -2.3 3.3 1.5
v -2.2 3.3 1.5
v -1 3.3 1.5
v 0.3 3.3 1.5
v 1.5 3.3 1.5
v 1.6 3.3 1.5
v 2.8 3.3 1.5
v 2.9 3.3 1.5
v 4.1 3.3 1.5
v 4.2 3.3 1.5
v 5.4 3.3 1.5
v -6.1 3.3 1.4
v -4.9 3.3 1.4
v -4.8 3.3 1.4
v -3.6 3.3 1.4
v -3.5 3.3 1.4
v -2.3 3.3 1.4
v -2.2 3.3 1.4
v -1 3.3 1.4
v 0.3 3.3 1.4
v 1.5 3.3 1.4
v 1.6 3.3 1.4
v 2.8 3.3 1.4
v 2.9 3.3 1.4
v 4.1 3.3 1.4
v 4.2 3.3 1.4
v 5.4 3.3 1.4
v -6.1 3.3 1.2
v -4.9 3.3 1.2
v -4.8 3.3 1.2
v -3.6 3.3 1.2
v -3.5 3.3 1.2
v -2.3 3.3 1.2
v -2.2 3.3 1.2
v -1 3.3 1.2
v 0.3 3.3 1.2
v 1.5 3.3 1.2
v 1.6 3.3 1.2
v 2.8 3.3 1.2
v 2.9 3.3 1.2
v 4.1 3.3 1.2
v 4.2 3.3 1.2
v 5.4 3.3 1.2
v -6.1 3.3 1.1
v -4.9 3.3 1.1
v -4.8 3.3 1.1
v -3.6 3.3 1.1
v -3.5 3.3 1.1
v -2.3 3.3 1.1
v -2.2 3.3 1.1
v -1 3.3 1.1
v 0.3 3.3 1.1
v 1.5 3.3 1.1
v 1.6 3.3 1.1
v 2.8 3.3 1.1
v 2.9 3.3 1.1
v 4.1 3.3 1.1
v 4.2 3.3 1.1
v 5.4 3.3 1.1
v -6.4 4.5 1.7
v -0.8 4.5 1.7
v 0 4.5 1.7
v 5.6 4.5 1.7
v -6.4 4.5 1.4
v -0.8 4.5 1.4
v 0 4.5 1.4
v 5.6 4.5 1.4
v -6.4 4.5 1.2
v -0.8 4.5 1.2
v 0 4.5 1.2
v 5.6 4.5 1.2
v -6.4 4.5 0.9
v -0.8 4.5 0.9
v 0 4.5 0.9
v 5.6 4.5 0.9
v -6.1 1.8 1.5
v -4.9 1.8 1.5
v -4.8 1.8 1.5
v -3.6 1.8 1.5
v -3.5 1.8 1.5
v -2.3 1.8 1.5
v -2.2 1.8 1.5
v -1 1.8 1.5
v 0.3 1.8 1.5
v 1.5 1.8 1.5
v 1.6 1.8 1.5
v 2.8 1.8 1.5
v 2.9 1.8 1.5
v 4.1 1.8 1.5
v 4.2 1.8 1.5
v 5.4 1.8 1.5
v -6.1 1.8 1.4
v -4.9 1.8 1.4
v -4.8 1.8 1.4
v -3.6 1.8 1.4
v -3.5 1.8 1.4
v -2.3 1.8 1.4
v -2.2 1.8 1.4
v -1 1.8 1.4
v 0.3 1.8 1.4
v 1.5 1.8 1.4
v 1.6 1.8 1.4
v 2.8 1.8 1.4
v 2.9 1.8 1.4
v 4.1 1.8 1.4
v 4.2 1.8 1.4
v 5.4 1.8 1.4
v -6.1 1.8 1.2
v -4.9 1.8 1.2
v -4.8 1.8 1.2
v -3.6 1.8 1.2
v -3.5 1.8 1.2
v -2.3 1.8 1.2
v -2.2 1.8 1.2
v -1 1.8 1.2
v 0.3 1.8 1.2
v 1.5 1.8 1.2
v 1.6 1.8 1.2
v 2.8 1.8 1.2
v 2.9 1.8 1.2
v 4.1 1.8 1.2
v 4.2 1.8 1.2
v 5.4 1.8 1.2
v -6.1 1.8 1.1
v -4.9 1.8 1.1
v -4.8 1.8 1.1
v -3.6 1.8 1.1
v -3.5 1.8 1.1
v -2.3 1.8 1.1
v -2.2 1.8 1.1
v -1 1.8 1.1
v 0.3 1.8 1.1
v 1.5 1.8 1.1
v 1.6 1.8 1.1
v 2.8 1.8 1.1
v 2.9 1.8 1.1
v 4.1 1.8 1.1
v 4.2 1.8 1.1
v 5.4 1.8 1.1
v -6 1.9 1.4
v -5 1.9 1.4
v -4.7 1.9 1.4
v -3.7 1.9 1.4
v -3.4 1.9 1.4
v -2.4 1.9 1.4
v -2.1 1.9 1.4
v -1.1 1.9 1.4
v 0.4 1.9 1.4
v 1.4 1.9 1.4
v 1.7 1.9 1.4
v 2.7 1.9 1.4
v 3 1.9 1.4
v 4 1.9 1.4
v 4.3 1.9 1.4
v 5.3 1.9 1.4
v -6 1.9 1.3
v -5 1.9 1.3
v -4.7 1.9 1.3
v -3.7 1.9 1.3
v -3.4 1.9 1.3
v -2.4 1.9 1.3
v -2.1 1.9 1.3
v -1.1 1.9 1.3
v 0.4 1.9 1.3
v 1.4 1.9 1.3
v 1.7 1.9 1.3
v 2.7 1.9 1.3
v 3 1.9 1.3
v 4 1.9 1.3
v 4.3 1.9 1.3
v 5.3 1.9 1.3
v -6 1.9 1.2
v -5 1.9 1.2
v -4.7 1.9 1.2
v -3.7 1.9 1.2
v -3.4 1.9 1.2
v -2.4 1.9 1.2
v -2.1 1.9 1.2
v -1.1 1.9 1.2
v 0.4 1.9 1.2
v 1.4 1.9 1.2
v 1.7 1.9 1.2
v 2.7 1.9 1.2
v 3 1.9 1.2
v 4 1.9 1.2
v 4.3 1.9 1.2
v 5.3 1.9 1.2
v -6.2 3.4 1.5
v -6.1 3.4 1.5
v -1 3.4 1.5
v -0.9 3.4 1.5
v 0.2 3.4 1.5
v 0.3 3.4 1.5
v 5.4 3.4 1.5
v 5.5 3.4 1.5
v -6.2 3.4 1.4
v -6.1 3.4 1.4
v -1 3.4 1.4
v -0.9 3.4 1.4
v 0.2 3.4 1.4
v 0.3 3.4 1.4
v 5.4 3.4 1.4
v 5.5 3.4 1.4
v -6.2 3.4 1.2
v -6.1 3.4 1.2
v -1 3.4 1.2
v -0.9 3.4 1.2
v 0.2 3.4 1.2
v 0.3 3.4 1.2
v 5.4 3.4 1.2
v 5.5 3.4 1.2
v -6.2 3.4 1.1
v -6.1 3.4 1.1
v -1 3.4 1.1
v -0.9 3.4 1.1
v 0.2 3.4 1.1
v 0.3 3.4 1.1
v 5.4 3.4 1.1
v 5.5 3.4 1.1
v -6.1 3.5 1.5
v -6 3.5 1.5
v -1.1 3.5 1.5
v -1 3.5 1.5
v 0.3 3.5 1.5
v 0.4 3.5 1.5
v 5.3 3.5 1.5
v 5.4 3.5 1.5
v -6.1 3.5 1.4
v -6 3.5 1.4
v -1.1 3.5 1.4
v -1 3.5 1.4
v 0.3 3.5 1.4
v 0.4 3.5 1.4
v 5.3 3.5 1.4
v 5.4 3.5 1.4
v -6.1 3.5 1.2
v -6 3.5 1.2
v -1.1 3.5 1.2
v -1 3.5 1.2
v 0.3 3.5 1.2
v 0.4 3.5 1.2
v 5.3 3.5 1.2
v 5.4 3.5 1.2
v -6.1 3.5 1.1
v -6 3.5 1.1
v -1.1 3.5 1.1
v -1 3.5 1.1
v 0.3 3.5 1.1
v 0.4 3.5 1.1
v 5.3 3.5 1.1
v 5.4 3.5 1.1
v -6 3.6 1.5
v -5.7 3.6 1.5
v -1.4 3.6 1.5
v -1.1 3.6 1.5
v 0.4 3.6 1.5
v 0.7 3.6 1.5
v 5 3.6 1.5
v 5.3 3.6 1.5
v -6 3.6 1.4
v -5.7 3.6 1.4
v -1.4 3.6 1.4
v -1.1 3.6 1.4
v 0.4 3.6 1.4
v 0.7 3.6 1.4
v 5 3.6 1.4
v 5.3 3.6 1.4
v -6 3.6 1.2
v -5.7 3.6 1.2
v -1.4 3.6 1.2
v -1.1 3.6 1.2
v 0.4 3.6 1.2
v 0.7 3.6 1.2
v 5 3.6 1.2
v 5.3 3.6 1.2
v -6 3.6 1.1
v -5.7 3.6 1.1
v -1.4 3.6 1.1
v -1.1 3.6 1.1
v 0.4 3.6 1.1
v 0.7 3.6 1.1
v 5 3.6 1.1
v 5.3 3.6 1.1
v -5.7 3.7 1.5
v -5.3 3.7 1.5
v -1.8 3.7 1.5
v -1.4 3.7 1.5
v 0.7 3.7 1.5
v 1.1 3.7 1.5
v 4.6 3.7 1.5
v 5 3.7 1.5
v -5.7 3.7 1.4
v -5.3 3.7 1.4
v -1.8 3.7 1.4
v -1.4 3.7 1.4
v 0.7 3.7 1.4
v 1.1 3.7 1.4
v 4.6 3.7 1.4
v 5 3.7 1.4
v -5.7 3.7 1.2
v -5.3 3.7 1.2
v -1.8 3.7 1.2
v -1.4 3.7 1.2
v 0.7 3.7 1.2
v 1.1 3.7 1.2
v 4.6 3.7 1.2
v 5 3.7 1.2
v -5.7 3.7 1.1
v -5.3 3.7 1.1
v -1.8 3.7 1.1
v -1.4 3.7 1.1
v 0.7 3.7 1.1
v 1.1 3.7 1.1
v 4.6 3.7 1.1
v 5 3.7 1.1
v -5.3 3.8 1.5
v -4.6 3.8 1.5
v -2.5 3.8 1.5
v -1.8 3.8 1.5
v 1.1 3.8 1.5
v 1.8 3.8 1.5
v 3.9 3.8 1.5
v 4.6 3.8 1.5
v -5.3 3.8 1.4
v -4.6 3.8 1.4
v -2.5 3.8 1.4
v -1.8 3.8 1.4
v 1.1 3.8 1.4
v 1.8 3.8 1.4
v 3.9 3.8 1.4
v 4.6 3.8 1.4
v -5.3 3.8 1.2
v -4.6 3.8 1.2
v -2.5 3.8 1.2
v -1.8 3.8 1.2
v 1.1 3.8 1.2
v 1.8 3.8 1.2
v 3.9 3.8 1.2
v 4.6 3.8 1.2
v -5.3 3.8 1.1
v -4.6 3.8 1.1
v -2.5 3.8 1.1
v -1.8 3.8 1.1
v 1.1 3.8 1.1
v 1.8 3.8 1.1
v 3.9 3.8 1.1
v 4.6 3.8 1.1
v -4.6 3.9 1.5
v -2.5 3.9 1.5
v 1.8 3.9 1.5
v 3.9 3.9 1.5
v -4.6 3.9 1.4
v -2.5 3.9 1.4
v 1.8 3.9 1.4
v 3.9 3.9 1.4
v -4.6 3.9 1.2
v -2.5 3.9 1.2
v 1.8 3.9 1.2
v 3.9 3.9 1.2
v -4.6 3.9 1.1
v -2.5 3.9 1.1
v 1.8 3.9 1.1
v 3.9 3.9 1.1
v -6.4 4.8 1.7
v 6.4 4.8 1.7
v -6.4 4.8 0.9
v 6.4 4.8 0.9

# faces
f 3/2/1 2/2/1 1/2/1
f 4/2/1 2/2/1 3/2/1
f 6/1/1 4/1/1 3/1/1
f 7/1/1 4/1/1 6/1/1
f 9/2/1 7/2/1 6/2/1
f 9/2/1 8/2/1 7/2/1
f 9/2/1 6/2/1 5/2/1
f 10/2/1 8/2/1 9/2/1
f 15/1/1 12/1/1 11/1/1
f 16/1/1 12/1/1 15/1/1
f 17/1/1 14/1/1 13/1/1
f 18/1/1 14/1/1 17/1/1
f 23/1/1 20/1/1 19/1/1
f 24/1/1 20/1/1 23/1/1
f 25/1/1 22/1/1 21/1/1
f 26/1/1 22/1/1 25/1/1
f 31/1/1 28/1/1 27/1/1
f 32/1/1 28/1/1 31/1/1
f 33/1/1 30/1/1 29/1/1
f 34/1/1 30/1/1 33/1/1
f 39/1/1 36/1/1 35/1/1
f 40/1/1 36/1/1 39/1/1
f 41/1/1 38/1/1 37/1/1
f 42/1/1 38/1/1 41/1/1
f 47/1/1 44/1/1 43/1/1
f 48/1/1 44/1/1 47/1/1
f 49/1/1 46/1/1 45/1/1
f 50/1/1 46/1/1 49/1/1
f 55/1/1 52/1/1 51/1/1
f 56/1/1 52/1/1 55/1/1
f 57/1/1 54/1/1 53/1/1
f 58/1/1 54/1/1 57/1/1
f 63/1/1 60/1/1 59/1/1
f 64/1/1 60/1/1 63/1/1
f 65/1/1 62/1/1 61/1/1
f 66/1/1 62/1/1 65/1/1
f 71/1/1 68/1/1 67/1/1
f 72/1/1 68/1/1 71/1/1
f 73/1/1 70/1/1 69/1/1
f 74/1/1 70/1/1 73/1/1
f 79/1/1 76/1/1 75/1/1
f 80/1/1 76/1/1 79/1/1
f 81/1/1 78/1/1 77/1/1
f 82/1/1 78/1/1 81/1/1
f 86/1/1 84/1/1 83/1/1
f 87/2/1 85/2/1 84/2/1
f 87/1/1 84/1/1 86/1/1
f 88/2/1 85/2/1 87/2/1
f 93/1/1 90/1/1 89/1/1
f 94/1/1 90/1/1 93/1/1
f 95/1/1 92/1/1 91/1/1
f 96/1/1 92/1/1 95/1/1
f 101/1/1 98/1/1 97/1/1
f 102/1/1 98/1/1 101/1/1
f 103/1/1 100/1/1 99/1/1
f 104/1/1 100/1/1 103/1/1
f 109/1/1 106/1/1 105/1/1
f 110/1/1 106/1/1 109/1/1
f 111/1/1 108/1/1 107/1/1
f 112/1/1 108/1/1 111/1/1
f 116/1/1 114/1/1 113/1/1
f 117/2/1 115/2/1 114/2/1
f 117/1/1 114/1/1 116/1/1
f 118/2/1 115/2/1 117/2/1
f 123/1/1 120/1/1 119/1/1
f 124/1/1 120/1/1 123/1/1
f 125/1/1 122/1/1 121/1/1
f 126/1/1 122/1/1 125/1/1
f 130/1/1 128/1/1 127/1/1
f 131/2/1 129/2/1 128/2/1
f 131/1/1 128/1/1 130/1/1
f 132/2/1 129/2/1 131/2/1
f 137/1/1 134/1/1 133/1/1
f 138/1/1 134/1/1 137/1/1
f 139/1/1 136/1/1 135/1/1
f 140/1/1 136/1/1 139/1/1
f 144/1/1 142/1/1 141/1/1
f 145/2/1 143/2/1 142/2/1
f 145/1/1 142/1/1 144/1/1
f 146/2/1 143/2/1 145/2/1
f 151/1/1 148/1/1 147/1/1
f 152/1/1 148/1/1 151/1/1
f 153/1/1 150/1/1 149/1/1
f 154/1/1 150/1/1 153/1/1
f 159/2/1 156/2/1 155/2/1
f 160/2/1 156/2/1 159/2/1
f 161/2/1 158/2/1 157/2/1
f 162/2/1 158/2/1 161/2/1
f 163/1/1 160/1/1 159/1/1
f 164/1/1 160/1/1 163/1/1
f 165/1/1 162/1/1 161/1/1
f 166/1/1 162/1/1 165/1/1
f 171/1/1 168/1/1 167/1/1
f 172/1/1 168/1/1 171/1/1
f 173/1/1 170/1/1 169/1/1
f 174/1/1 170/1/1 173/1/1
f 179/1/1 176/1/1 175/1/1
f 180/1/1 176/1/1 179/1/1
f 181/1/1 178/1/1 177/1/1
f 182/1/1 178/1/1 181/1/1
f 187/1/1 184/1/1 183/1/1
f 188/1/1 184/1/1 187/1/1
f 189/1/1 186/1/1 185/1/1
f 190/1/1 186/1/1 189/1/1
f 195/1/1 192/1/1 191/1/1
f 196/1/1 192/1/1 195/1/1
f 197/1/1 194/1/1 193/1/1
f 198/1/1 194/1/1 197/1/1
f 203/1/1 200/1/1 199/1/1
f 204/1/1 200/1/1 203/1/1
f 205/1/1 202/1/1 201/1/1
f 206/1/1 202/1/1 205/1/1
f 211/1/1 208/1/1 207/1/1
f 212/1/1 208/1/1 211/1/1
f 213/1/1 210/1/1 209/1/1
f 214/1/1 210/1/1 213/1/1
f 219/1/1 216/1/1 215/1/1
f 220/1/1 216/1/1 219/1/1
f 221/1/1 218/1/1 217/1/1
f 222/1/1 218/1/1 221/1/1
f 227/1/1 224/1/1 223/1/1
f 228/1/1 224/1/1 227/1/1
f 229/1/1 226/1/1 225/1/1
f 230/1/1 226/1/1 229/1/1
f 235/1/1 232/1/1 231/1/1
f 236/1/1 232/1/1 235/1/1
f 237/1/1 234/1/1 233/1/1
f 238/1/1 234/1/1 237/1/1
f 242/1/1 240/1/1 239/1/1
f 243/2/1 241/2/1 240/2/1
f 243/1/1 240/1/1 242/1/1
f 244/2/1 241/2/1 243/2/1
f 249/1/1 246/1/1 245/1/1
f 250/1/1 246/1/1 249/1/1
f 251/1/1 248/1/1 247/1/1
f 252/1/1 248/1/1 251/1/1
f 257/1/1 254/1/1 253/1/1
f 258/1/1 254/1/1 257/1/1
f 259/1/1 256/1/1 255/1/1
f 260/1/1 256/1/1 259/1/1
f 265/1/1 262/1/1 261/1/1
f 266/1/1 262/1/1 265/1/1
f 267/1/1 264/1/1 263/1/1
f 268/1/1 264/1/1 267/1/1
f 272/1/1 270/1/1 269/1/1
f 273/2/1 271/2/1 270/2/1
f 273/1/1 270/1/1 272/1/1
f 274/2/1 271/2/1 273/2/1
f 279/1/1 276/1/1 275/1/1
f 280/1/1 276/1/1 279/1/1
f 281/1/1 278/1/1 277/1/1
f 282/1/1 278/1/1 281/1/1
f 286/1/1 284/1/1 283/1/1
f 287/2/1 285/2/1 284/2/1
f 287/1/1 284/1/1 286/1/1
f 288/2/1 285/2/1 287/2/1
f 293/1/1 290/1/1 289/1/1
f 294/1/1 290/1/1 293/1/1
f 295/1/1 292/1/1 291/1/1
f 296/1/1 292/1/1 295/1/1
f 300/1/1 298/1/1 297/1/1
f 301/2/1 299/2/1 298/2/1
f 301/1/1 298/1/1 300/1/1
f 302/2/1 299/2/1 301/2/1
f 307/1/1 304/1/1 303/1/1
f 308/1/1 304/1/1 307/1/1
f 309/1/1 306/1/1 305/1/1
f 310/1/1 306/1/1 309/1/1
f 315/2/1 312/2/1 311/2/1
f 316/2/1 312/2/1 315/2/1
f 317/2/1 314/2/1 313/2/1
f 318/2/1 314/2/1 317/2/1
f 319/1/1 316/1/1 315/1/1
f 320/1/1 316/1/1 319/1/1
f 321/1/1 318/1/1 317/1/1
f 322/1/1 318/1/1 321/1/1
f 323/1/2 324/1/2 327/1/2
f 327/1/2 324/1/2 328/1/2
f 325/1/2 326/1/2 329/1/2
f 329/1/2 326/1/2 330/1/2
f 331/1/2 332/1/2 334/1/2
f 332/2/2 333/2/2 335/2/2
f 334/1/2 332/1/2 335/1/2
f 335/2/2 333/2/2 336/2/2
f 337/1/2 338/1/2 341/1/2
f 341/1/2 338/1/2 342/1/2
f 339/1/2 340/1/2 343/1/2
f 343/1/2 340/1/2 344/1/2
f 345/1/2 346/1/2 348/1/2
f 346/2/2 347/2/2 349/2/2
f 348/1/2 346/1/2 349/1/2
f 349/2/2 347/2/2 350/2/2
f 351/1/2 352/1/2 355/1/2
f 355/1/2 352/1/2 356/1/2
f 353/1/2 354/1/2 357/1/2
f 357/1/2 354/1/2 358/1/2
f 359/1/2 360/1/2 362/1/2
f 360/2/2 361/2/2 363/2/2
f 362/1/2 360/1/2 363/1/2
f 363/2/2 361/2/2 364/2/2
f 365/1/2 366/1/2 369/1/2
f 369/1/2 366/1/2 370/1/2
f 367/1/2 368/1/2 371/1/2
f 371/1/2 368/1/2 372/1/2
f 373/1/2 374/1/2 377/1/2
f 377/1/2 374/1/2 378/1/2
f 375/1/2 376/1/2 379/1/2
f 379/1/2 376/1/2 380/1/2
f 381/1/2 382/1/2 385/1/2
f 385/1/2 382/1/2 386/1/2
f 383/1/2 384/1/2 387/1/2
f 387/1/2 384/1/2 388/1/2
f 389/1/2 390/1/2 392/1/2
f 390/2/2 391/2/2 393/2/2
f 392/1/2 390/1/2 393/1/2
f 393/2/2 391/2/2 394/2/2
f 395/1/2 396/1/2 399/1/2
f 399/1/2 396/1/2 400/1/2
f 397/1/2 398/1/2 401/1/2
f 401/1/2 398/1/2 402/1/2
f 403/1/2 404/1/2 407/1/2
f 407/1/2 404/1/2 408/1/2
f 405/1/2 406/1/2 409/1/2
f 409/1/2 406/1/2 410/1/2
f 411/1/2 412/1/2 415/1/2
f 415/1/2 412/1/2 416/1/2
f 413/1/2 414/1/2 417/1/2
f 417/1/2 414/1/2 418/1/2
f 419/1/2 420/1/2 423/1/2
f 423/1/2 420/1/2 424/1/2
f 421/1/2 422/1/2 425/1/2
f 425/1/2 422/1/2 426/1/2
f 427/1/2 428/1/2 431/1/2
f 431/1/2 428/1/2 432/1/2
f 429/1/2 430/1/2 433/1/2
f 433/1/2 430/1/2 434/1/2
f 435/1/2 436/1/2 439/1/2
f 439/1/2 436/1/2 440/1/2
f 437/1/2 438/1/2 441/1/2
f 441/1/2 438/1/2 442/1/2
f 443/1/2 444/1/2 447/1/2
f 447/1/2 444/1/2 448/1/2
f 445/1/2 446/1/2 449/1/2
f 449/1/2 446/1/2 450/1/2
f 451/1/2 452/1/2 455/1/2
f 455/1/2 452/1/2 456/1/2
f 453/1/2 454/1/2 457/1/2
f 457/1/2 454/1/2 458/1/2
f 459/1/2 460/1/2 463/1/2
f 463/1/2 460/1/2 464/1/2
f 461/1/2 462/1/2 465/1/2
f 465/1/2 462/1/2 466/1/2
f 467/2/2 468/2/2 471/2/2
f 471/2/2 468/2/2 472/2/2
f 469/2/2 470/2/2 473/2/2
f 473/2/2 470/2/2 474/2/2
f 471/1/2 472/1/2 475/1/2
f 475/1/2 472/1/2 476/1/2
f 473/1/2 474/1/2 477/1/2
f 477/1/2 474/1/2 478/1/2
f 479/1/2 480/1/2 483/1/2
f 483/1/2 480/1/2 484/1/2
f 481/1/2 482/1/2 485/1/2
f 485/1/2 482/1/2 486/1/2
f 487/1/2 488/1/2 490/1/2
f 488/2/2 489/2/2 491/2/2
f 490/1/2 488/1/2 491/1/2
f 491/2/2 489/2/2 492/2/2
f 493/1/2 494/1/2 497/1/2
f 497/1/2 494/1/2 498/1/2
f 495/1/2 496/1/2 499/1/2
f 499/1/2 496/1/2 500/1/2
f 501/1/2 502/1/2 504/1/2
f 502/2/2 503/2/2 505/2/2
f 504/1/2 502/1/2 505/1/2
f 505/2/2 503/2/2 506/2/2
f 507/1/2 508/1/2 511/1/2
f 511/1/2 508/1/2 512/1/2
f 509/1/2 510/1/2 513/1/2
f 513/1/2 510/1/2 514/1/2
f 515/1/2 516/1/2 518/1/2
f 516/2/2 517/2/2 519/2/2
f 518/1/2 516/1/2 519/1/2
f 519/2/2 517/2/2 520/2/2
f 521/1/2 522/1/2 525/1/2
f 525/1/2 522/1/2 526/1/2
f 523/1/2 524/1/2 527/1/2
f 527/1/2 524/1/2 528/1/2
f 529/1/2 530/1/2 533/1/2
f 533/1/2 530/1/2 534/1/2
f 531/1/2 532/1/2 535/1/2
f 535/1/2 532/1/2 536/1/2
f 537/1/2 538/1/2 541/1/2
f 541/1/2 538/1/2 542/1/2
f 539/1/2 540/1/2 543/1/2
f 543/1/2 540/1/2 544/1/2
f 545/1/2 546/1/2 548/1/2
f 546/2/2 547/2/2 549/2/2
f 548/1/2 546/1/2 549/1/2
f 549/2/2 547/2/2 550/2/2
f 551/1/2 552/1/2 555/1/2
f 555/1/2 552/1/2 556/1/2
f 553/1/2 554/1/2 557/1/2
f 557/1/2 554/1/2 558/1/2
f 559/1/2 560/1/2 563/1/2
f 563/1/2 560/1/2 564/1/2
f 561/1/2 562/1/2 565/1/2
f 565/1/2 562/1/2 566/1/2
f 567/1/2 568/1/2 571/1/2
f 571/1/2 568/1/2 572/1/2
f 569/1/2 570/1/2 573/1/2
f 573/1/2 570/1/2 574/1/2
f 575/1/2 576/1/2 579/1/2
f 579/1/2 576/1/2 580/1/2
f 577/1/2 578/1/2 581/1/2
f 581/1/2 578/1/2 582/1/2
f 583/1/2 584/1/2 587/1/2
f 587/1/2 584/1/2 588/1/2
f 585/1/2 586/1/2 589/1/2
f 589/1/2 586/1/2 590/1/2
f 591/1/2 592/1/2 595/1/2
f 595/1/2 592/1/2 596/1/2
f 593/1/2 594/1/2 597/1/2
f 597/1/2 594/1/2 598/1/2
f 599/1/2 600/1/2 603/1/2
f 603/1/2 600/1/2 604/1/2
f 601/1/2 602/1/2 605/1/2
f 605/1/2 602/1/2 606/1/2
f 607/1/2 608/1/2 611/1/2
f 611/1/2 608/1/2 612/1/2
f 609/1/2 610/1/2 613/1/2
f 613/1/2 610/1/2 614/1/2
f 615/1/2 616/1/2 619/1/2
f 619/1/2 616/1/2 620/1/2
f 617/1/2 618/1/2 621/1/2
f 621/1/2 618/1/2 622/1/2
f 623/2/2 624/2/2 625/2/2
f 625/2/2 624/2/2 626/2/2
f 625/1/2 626/1/2 627/1/2
f 627/1/2 626/1/2 628/1/2
f 627/2/2 628/2/2 629/2/2
f 629/2/2 628/2/2 630/2/2
f 635/2/3 632/2/3 631/2/3
f 636/2/3 634/2/3 633/2/3
f 637/1/3 635/1/3 634/1/3
f 637/2/3 634/2/3 636/2/3
f 638/2/3 632/2/3 635/2/3
f 638/1/3 635/1/3 637/1/3
f 641/2/3 632/2/3 638/2/3
f 642/2/3 640/2/3 639/2/3
f 643/1/3 641/1/3 640/1/3
f 643/2/3 640/2/3 642/2/3
f 644/2/3 632/2/3 641/2/3
f 644/1/3 641/1/3 643/1/3
f 645/2/3 632/2/3 644/2/3
f 649/1/3 647/1/3 646/1/3
f 650/1/3 647/1/3 649/1/3
f 651/1/3 647/1/3 650/1/3
f 652/1/3 647/1/3 651/1/3
f 655/1/3 649/1/3 648/1/3
f 655/1/3 650/1/3 649/1/3
f 656/1/3 652/1/3 651/1/3
f 656/1/3 653/1/3 652/1/3
f 659/1/3 655/1/3 654/1/3
f 660/1/3 657/1/3 656/1/3
f 663/1/3 659/1/3 658/1/3
f 664/1/3 661/1/3 660/1/3
f 666/1/3 663/1/3 662/1/3
f 666/1/3 650/1/3 655/1/3
f 666/1/3 655/1/3 659/1/3
f 666/1/3 659/1/3 663/1/3
f 667/1/3 665/1/3 664/1/3
f 667/1/3 664/1/3 660/1/3
f 667/1/3 660/1/3 656/1/3
f 667/1/3 656/1/3 651/1/3
f 668/1/3 666/1/3 662/1/3
f 668/1/3 667/1/3 666/1/3
f 669/1/3 665/1/3 667/1/3
f 669/1/3 667/1/3 668/1/3
f 671/1/3 668/1/3 662/1/3
f 672/1/3 665/1/3 669/1/3
f 674/1/3 671/1/3 670/1/3
f 674/1/3 668/1/3 671/1/3
f 675/1/3 673/1/3 672/1/3
f 675/1/3 672/1/3 669/1/3
f 676/1/3 674/1/3 670/1/3
f 676/1/3 675/1/3 674/1/3
f 677/1/3 673/1/3 675/1/3
f 677/1/3 675/1/3 676/1/3
f 678/1/3 676/1/3 670/1/3
f 679/1/3 676/1/3 678/1/3
f 680/1/3 673/1/3 677/1/3
f 681/1/3 673/1/3 680/1/3
f 682/1/3 676/1/3 679/1/3
f 683/1/3 680/1/3 677/1/3
f 684/1/3 682/1/3 679/1/3
f 684/1/3 683/1/3 682/1/3
f 685/1/3 680/1/3 683/1/3
f 685/1/3 683/1/3 684/1/3
f 686/1/3 684/1/3 679/1/3
f 687/1/3 684/1/3 686/1/3
f 688/1/3 680/1/3 685/1/3
f 689/1/3 680/1/3 688/1/3
f 690/1/3 684/1/3 687/1/3
f 691/1/3 684/1/3 690/1/3
f 692/1/3 688/1/3 685/1/3
f 693/1/3 688/1/3 692/1/3
f 694/1/3 684/1/3 691/1/3
f 695/1/3 684/1/3 694/1/3
f 696/1/3 692/1/3 685/1/3
f 697/1/3 692/1/3 696/1/3
f 698/1/3 684/1/3 695/1/3
f 699/1/3 684/1/3 698/1/3
f 700/1/3 684/1/3 699/1/3
f 701/1/3 696/1/3 685/1/3
f 702/1/3 696/1/3 701/1/3
f 703/1/3 696/1/3 702/1/3
f 704/1/3 700/1/3 699/1/3
f 704/1/3 702/1/3 701/1/3
f 704/1/3 701/1/3 700/1/3
f 705/1/3 702/1/3 704/1/3
f 709/1/3 707/1/3 706/1/3
f 710/1/3 707/1/3 709/1/3
f 711/1/3 707/1/3 710/1/3
f 712/1/3 707/1/3 711/1/3
f 715/1/3 709/1/3 708/1/3
f 715/1/3 710/1/3 709/1/3
f 716/1/3 712/1/3 711/1/3
f 716/1/3 713/1/3 712/1/3
f 719/1/3 715/1/3 714/1/3
f 720/1/3 717/1/3 716/1/3
f 723/1/3 719/1/3 718/1/3
f 724/1/3 721/1/3 720/1/3
f 726/1/3 723/1/3 722/1/3
f 726/1/3 710/1/3 715/1/3
f 726/1/3 719/1/3 723/1/3
f 726/1/3 715/1/3 719/1/3
f 727/1/3 724/1/3 720/1/3
f 727/1/3 720/1/3 716/1/3
f 727/1/3 716/1/3 711/1/3
f 727/1/3 725/1/3 724/1/3
f 728/1/3 726/1/3 722/1/3
f 728/1/3 727/1/3 726/1/3
f 729/1/3 725/1/3 727/1/3
f 729/1/3 727/1/3 728/1/3
f 731/1/3 728/1/3 722/1/3
f 732/1/3 725/1/3 729/1/3
f 734/1/3 731/1/3 730/1/3
f 734/1/3 728/1/3 731/1/3
f 735/1/3 732/1/3 729/1/3
f 735/1/3 733/1/3 732/1/3
f 736/1/3 734/1/3 730/1/3
f 736/1/3 735/1/3 734/1/3
f 737/1/3 733/1/3 735/1/3
f 737/1/3 735/1/3 736/1/3
f 738/1/3 736/1/3 730/1/3
f 739/1/3 736/1/3 738/1/3
f 740/1/3 733/1/3 737/1/3
f 741/1/3 733/1/3 740/1/3
f 742/1/3 736/1/3 739/1/3
f 743/1/3 740/1/3 737/1/3
f 744/1/3 742/1/3 739/1/3
f 744/1/3 743/1/3 742/1/3
f 745/1/3 740/1/3 743/1/3
f 745/1/3 743/1/3 744/1/3
f 746/1/3 744/1/3 739/1/3
f 747/1/3 744/1/3 746/1/3
f 748/1/3 740/1/3 745/1/3
f 749/1/3 740/1/3 748/1/3
f 750/1/3 744/1/3 747/1/3
f 751/1/3 744/1/3 750/1/3
f 752/1/3 748/1/3 745/1/3
f 753/1/3 748/1/3 752/1/3
f 754/1/3 744/1/3 751/1/3
f 755/1/3 744/1/3 754/1/3
f 756/1/3 752/1/3 745/1/3
f 757/1/3 752/1/3 756/1/3
f 758/1/3 744/1/3 755/1/3
f 759/1/3 744/1/3 758/1/3
f 760/1/3 744/1/3 759/1/3
f 761/1/3 756/1/3 745/1/3
f 762/1/3 756/1/3 761/1/3
f 763/1/3 756/1/3 762/1/3
f 764/1/3 760/1/3 759/1/3
f 764/1/3 762/1/3 761/1/3
f 764/1/3 761/1/3 760/1/3
f 765/1/3 762/1/3 764/1/3
f 769/2/3 767/2/3 766/2/3
f 770/2/3 767/2/3 769/2/3
f 771/2/3 769/2/3 766/2/3
f 772/2/3 769/2/3 771/2/3
f 775/2/3 767/2/3 770/2/3
f 776/2/3 767/2/3 775/2/3
f 777/2/3 771/2/3 766/2/3
f 778/2/3 771/2/3 777/2/3
f 779/1/3 774/1/3 773/1/3
f 780/1/3 774/1/3 779/1/3
f 781/2/3 767/2/3 776/2/3
f 782/2/3 767/2/3 781/2/3
f 783/2/3 777/2/3 766/2/3
f 784/2/3 777/2/3 783/2/3
f 785/2/3 767/2/3 782/2/3
f 786/2/3 767/2/3 785/2/3
f 787/2/3 783/2/3 766/2/3
f 788/2/3 783/2/3 787/2/3
f 789/2/3 767/2/3 786/2/3
f 790/2/3 767/2/3 789/2/3
f 791/1/3 779/1/3 773/1/3
f 792/1/3 774/1/3 780/1/3
f 793/1/3 791/1/3 773/1/3
f 793/1/3 792/1/3 791/1/3
f 794/1/3 774/1/3 792/1/3
f 794/1/3 792/1/3 793/1/3
f 797/1/3 796/1/3 795/1/3
f 798/1/3 796/1/3 797/1/3
f 799/2/3 787/2/3 766/2/3
f 800/2/3 787/2/3 799/2/3
f 801/2/3 767/2/3 790/2/3
f 802/2/3 767/2/3 801/2/3
f 803/1/3 797/1/3 795/1/3
f 804/1/3 796/1/3 798/1/3
f 805/1/3 803/1/3 795/1/3
f 805/1/3 804/1/3 803/1/3
f 806/1/3 796/1/3 804/1/3
f 806/1/3 804/1/3 805/1/3
f 809/1/3 808/1/3 807/1/3
f 810/1/3 808/1/3 809/1/3
f 811/2/3 799/2/3 766/2/3
f 814/2/3 767/2/3 802/2/3
f 815/1/3 809/1/3 807/1/3
f 816/1/3 808/1/3 810/1/3
f 817/1/3 815/1/3 807/1/3
f 817/1/3 816/1/3 815/1/3
f 818/1/3 808/1/3 816/1/3
f 818/1/3 816/1/3 817/1/3
f 821/1/3 820/1/3 819/1/3
f 822/1/3 820/1/3 821/1/3
f 823/2/3 812/2/3 811/2/3
f 826/2/3 814/2/3 813/2/3
f 827/2/3 824/2/3 823/2/3
f 830/2/3 826/2/3 825/2/3
f 831/2/3 828/2/3 827/2/3
f 833/1/3 821/1/3 819/1/3
f 834/1/3 820/1/3 822/1/3
f 836/2/3 830/2/3 829/2/3
f 837/2/3 832/2/3 831/2/3
f 839/1/3 833/1/3 819/1/3
f 839/1/3 834/1/3 833/1/3
f 840/1/3 820/1/3 834/1/3
f 840/1/3 834/1/3 839/1/3
f 842/2/3 836/2/3 835/2/3
f 843/2/3 838/2/3 837/2/3
f 844/2/3 842/2/3 841/2/3
f 845/2/3 811/2/3 766/2/3
f 845/2/3 844/2/3 843/2/3
f 845/2/3 843/2/3 837/2/3
f 845/2/3 823/2/3 811/2/3
f 845/2/3 837/2/3 831/2/3
f 845/2/3 827/2/3 823/2/3
f 845/2/3 831/2/3 827/2/3
f 846/1/3 768/1/3 767/1/3
f 846/2/3 844/2/3 845/2/3
f 846/2/3 842/2/3 844/2/3
f 846/2/3 767/2/3 814/2/3
f 846/2/3 830/2/3 836/2/3
f 846/2/3 826/2/3 830/2/3
f 846/2/3 836/2/3 842/2/3
f 846/2/3 814/2/3 826/2/3
f 847/1/3 768/1/3 846/1/3
f 851/2/3 849/2/3 848/2/3
f 852/2/3 849/2/3 851/2/3
f 853/2/3 851/2/3 848/2/3
f 854/2/3 851/2/3 853/2/3
f 857/2/3 849/2/3 852/2/3
f 858/2/3 849/2/3 857/2/3
f 859/2/3 853/2/3 848/2/3
f 860/2/3 853/2/3 859/2/3
f 861/1/3 856/1/3 855/1/3
f 862/1/3 856/1/3 861/1/3
f 863/2/3 849/2/3 858/2/3
f 864/2/3 849/2/3 863/2/3
f 865/2/3 859/2/3 848/2/3
f 866/2/3 859/2/3 865/2/3
f 867/2/3 849/2/3 864/2/3
f 868/2/3 849/2/3 867/2/3
f 869/2/3 865/2/3 848/2/3
f 870/2/3 865/2/3 869/2/3
f 871/2/3 849/2/3 868/2/3
f 872/2/3 849/2/3 871/2/3
f 873/1/3 861/1/3 855/1/3
f 874/1/3 856/1/3 862/1/3
f 875/1/3 873/1/3 855/1/3
f 875/1/3 874/1/3 873/1/3
f 876/1/3 856/1/3 874/1/3
f 876/1/3 874/1/3 875/1/3
f 879/1/3 878/1/3 877/1/3
f 880/1/3 878/1/3 879/1/3
f 881/2/3 869/2/3 848/2/3
f 882/2/3 869/2/3 881/2/3
f 883/2/3 849/2/3 872/2/3
f 884/2/3 849/2/3 883/2/3
f 885/1/3 879/1/3 877/1/3
f 886/1/3 878/1/3 880/1/3
f 887/1/3 885/1/3 877/1/3
f 887/1/3 886/1/3 885/1/3
f 888/1/3 878/1/3 886/1/3
f 888/1/3 886/1/3 887/1/3
f 891/1/3 890/1/3 889/1/3
f 892/1/3 890/1/3 891/1/3
f 893/2/3 881/2/3 848/2/3
f 896/2/3 849/2/3 884/2/3
f 897/1/3 891/1/3 889/1/3
f 898/1/3 890/1/3 892/1/3
f 899/1/3 897/1/3 889/1/3
f 899/1/3 898/1/3 897/1/3
f 900/1/3 890/1/3 898/1/3
f 900/1/3 898/1/3 899/1/3
f 903/1/3 902/1/3 901/1/3
f 904/1/3 902/1/3 903/1/3
f 905/2/3 894/2/3 893/2/3
f 908/2/3 896/2/3 895/2/3
f 909/2/3 906/2/3 905/2/3
f 912/2/3 908/2/3 907/2/3
f 913/2/3 910/2/3 909/2/3
f 915/1/3 903/1/3 901/1/3
f 916/1/3 902/1/3 904/1/3
f 918/2/3 912/2/3 911/2/3
f 919/2/3 914/2/3 913/2/3
f 921/1/3 915/1/3 901/1/3
f 921/1/3 916/1/3 915/1/3
f 922/1/3 902/1/3 916/1/3
f 922/1/3 916/1/3 921/1/3
f 924/2/3 918/2/3 917/2/3
f 925/2/3 920/2/3 919/2/3
f 926/2/3 924/2/3 923/2/3
f 927/2/3 893/2/3 848/2/3
f 927/2/3 926/2/3 925/2/3
f 927/2/3 925/2/3 919/2/3
f 927/2/3 905/2/3 893/2/3
f 927/2/3 919/2/3 913/2/3
f 927/2/3 909/2/3 905/2/3
f 927/2/3 913/2/3 909/2/3
f 928/1/3 850/1/3 849/1/3
f 928/2/3 926/2/3 927/2/3
f 928/2/3 924/2/3 926/2/3
f 928/2/3 849/2/3 896/2/3
f 928/2/3 912/2/3 918/2/3
f 928/2/3 908/2/3 912/2/3
f 928/2/3 918/2/3 924/2/3
f 928/2/3 896/2/3 908/2/3
f 929/1/3 850/1/3 928/1/3
f 930/2/4 931/2/4 933/2/4
f 933/2/4 931/2/4 934/2/4
f 930/2/4 933/2/4 935/2/4
f 935/2/4 933/2/4 936/2/4
f 934/2/4 931/2/4 939/2/4
f 939/2/4 931/2/4 940/2/4
f 930/2/4 935/2/4 941/2/4
f 941/2/4 935/2/4 942/2/4
f 937/2/4 938/2/4 943/2/4
f 943/2/4 938/2/4 944/2/4
f 940/2/4 931/2/4 945/2/4
f 945/2/4 931/2/4 946/2/4
f 930/2/4 941/2/4 947/2/4
f 947/2/4 941/2/4 948/2/4
f 946/2/4 931/2/4 949/2/4
f 949/2/4 931/2/4 950/2/4
f 930/2/4 947/2/4 951/2/4
f 951/2/4 947/2/4 952/2/4
f 950/2/4 931/2/4 953/2/4
f 953/2/4 931/2/4 954/2/4
f 937/2/4 943/2/4 955/2/4
f 944/2/4 938/2/4 956/2/4
f 937/2/4 955/2/4 957/2/4
f 955/2/4 956/2/4 957/2/4
f 956/2/4 938/2/4 958/2/4
f 957/2/4 956/2/4 958/2/4
f 959/2/4 960/2/4 961/2/4
f 961/2/4 960/2/4 962/2/4
f 930/2/4 951/2/4 963/2/4
f 963/2/4 951/2/4 964/2/4
f 954/2/4 931/2/4 965/2/4
f 965/2/4 931/2/4 966/2/4
f 959/2/4 961/2/4 967/2/4
f 962/2/4 960/2/4 968/2/4
f 959/2/4 967/2/4 969/2/4
f 967/2/4 968/2/4 969/2/4
f 968/2/4 960/2/4 970/2/4
f 969/2/4 968/2/4 970/2/4
f 971/2/4 972/2/4 973/2/4
f 973/2/4 972/2/4 974/2/4
f 930/2/4 963/2/4 975/2/4
f 966/2/4 931/2/4 978/2/4
f 971/2/4 973/2/4 979/2/4
f 974/2/4 972/2/4 980/2/4
f 971/2/4 979/2/4 981/2/4
f 979/2/4 980/2/4 981/2/4
f 980/2/4 972/2/4 982/2/4
f 981/2/4 980/2/4 982/2/4
f 983/2/4 984/2/4 985/2/4
f 985/2/4 984/2/4 986/2/4
f 975/2/4 976/2/4 987/2/4
f 977/2/4 978/2/4 990/2/4
f 987/2/4 988/2/4 991/2/4
f 989/2/4 990/2/4 994/2/4
f 991/2/4 992/2/4 995/2/4
f 983/2/4 985/2/4 997/2/4
f 986/2/4 984/2/4 998/2/4
f 993/2/4 994/2/4 1000/2/4
f 995/2/4 996/2/4 1001/2/4
f 983/2/4 997/2/4 1003/2/4
f 997/2/4 998/2/4 1003/2/4
f 998/2/4 984/2/4 1004/2/4
f 1003/2/4 998/2/4 1004/2/4
f 999/2/4 1000/2/4 1006/2/4
f 1001/2/4 1002/2/4 1007/2/4
f 1005/2/4 1006/2/4 1008/2/4
f 930/2/4 975/2/4 1009/2/4
f 1007/2/4 1008/2/4 1009/2/4
f 1001/2/4 1007/2/4 1009/2/4
f 975/2/4 987/2/4 1009/2/4
f 995/2/4 1001/2/4 1009/2/4
f 987/2/4 991/2/4 1009/2/4
f 991/2/4 995/2/4 1009/2/4
f 931/1/4 932/1/4 1010/1/4
f 1009/2/4 1008/2/4 1010/2/4
f 1008/2/4 1006/2/4 1010/2/4
f 978/2/4 931/2/4 1010/2/4
f 1000/2/4 994/2/4 1010/2/4
f 994/2/4 990/2/4 1010/2/4
f 1006/2/4 1000/2/4 1010/2/4
f 990/2/4 978/2/4 1010/2/4
f 1010/1/4 932/1/4 1011/1/4
f 1012/2/4 1013/2/4 1015/2/4
f 1015/2/4 1013/2/4 1016/2/4
f 1012/2/4 1015/2/4 1017/2/4
f 1017/2/4 1015/2/4 1018/2/4
f 1016/2/4 1013/2/4 1021/2/4
f 1021/2/4 1013/2/4 1022/2/4
f 1012/2/4 1017/2/4 1023/2/4
f 1023/2/4 1017/2/4 1024/2/4
f 1019/2/4 1020/2/4 1025/2/4
f 1025/2/4 1020/2/4 1026/2/4
f 1022/2/4 1013/2/4 1027/2/4
f 1027/2/4 1013/2/4 1028/2/4
f 1012/2/4 1023/2/4 1029/2/4
f 1029/2/4 1023/2/4 1030/2/4
f 1028/2/4 1013/2/4 1031/2/4
f 1031/2/4 1013/2/4 1032/2/4
f 1012/2/4 1029/2/4 1033/2/4
f 1033/2/4 1029/2/4 1034/2/4
f 1032/2/4 1013/2/4 1035/2/4
f 1035/2/4 1013/2/4 1036/2/4
f 1019/2/4 1025/2/4 1037/2/4
f 1026/2/4 1020/2/4 1038/2/4
f 1019/2/4 1037/2/4 1039/2/4
f 1037/2/4 1038/2/4 1039/2/4
f 1038/2/4 1020/2/4 1040/2/4
f 1039/2/4 1038/2/4 1040/2/4
f 1041/2/4 1042/2/4 1043/2/4
f 1043/2/4 1042/2/4 1044/2/4
f 1012/2/4 1033/2/4 1045/2/4
f 1045/2/4 1033/2/4 1046/2/4
f 1036/2/4 1013/2/4 1047/2/4
f 1047/2/4 1013/2/4 1048/2/4
f 1041/2/4 1043/2/4 1049/2/4
f 1044/2/4 1042/2/4 1050/2/4
f 1041/2/4 1049/2/4 1051/2/4
f 1049/2/4 1050/2/4 1051/2/4
f 1050/2/4 1042/2/4 1052/2/4
f 1051/2/4 1050/2/4 1052/2/4
f 1053/2/4 1054/2/4 1055/2/4
f 1055/2/4 1054/2/4 1056/2/4
f 1012/2/4 1045/2/4 1057/2/4
f 1048/2/4 1013/2/4 1060/2/4
f 1053/2/4 1055/2/4 1061/2/4
f 1056/2/4 1054/2/4 1062/2/4
f 1053/2/4 1061/2/4 1063/2/4
f 1061/2/4 1062/2/4 1063/2/4
f 1062/2/4 1054/2/4 1064/2/4
f 1063/2/4 1062/2/4 1064/2/4
f 1065/2/4 1066/2/4 1067/2/4
f 1067/2/4 1066/2/4 1068/2/4
f 1057/2/4 1058/2/4 1069/2/4
f 1059/2/4 1060/2/4 1072/2/4
f 1069/2/4 1070/2/4 1073/2/4
f 1071/2/4 1072/2/4 1076/2/4
f 1073/2/4 1074/2/4 1077/2/4
f 1065/2/4 1067/2/4 1079/2/4
f 1068/2/4 1066/2/4 1080/2/4
f 1075/2/4 1076/2/4 1082/2/4
f 1077/2/4 1078/2/4 1083/2/4
f 1065/2/4 1079/2/4 1085/2/4
f 1079/2/4 1080/2/4 1085/2/4
f 1080/2/4 1066/2/4 1086/2/4
f 1085/2/4 1080/2/4 1086/2/4
f 1081/2/4 1082/2/4 1088/2/4
f 1083/2/4 1084/2/4 1089/2/4
f 1087/2/4 1088/2/4 1090/2/4
f 1012/2/4 1057/2/4 1091/2/4
f 1089/2/4 1090/2/4 1091/2/4
f 1083/2/4 1089/2/4 1091/2/4
f 1057/2/4 1069/2/4 1091/2/4
f 1077/2/4 1083/2/4 1091/2/4
f 1069/2/4 1073/2/4 1091/2/4
f 1073/2/4 1077/2/4 1091/2/4
f 1013/1/4 1014/1/4 1092/1/4
f 1091/2/4 1090/2/4 1092/2/4
f 1090/2/4 1088/2/4 1092/2/4
f 1060/2/4 1013/2/4 1092/2/4
f 1082/2/4 1076/2/4 1092/2/4
f 1076/2/4 1072/2/4 1092/2/4
f 1088/2/4 1082/2/4 1092/2/4
f 1072/2/4 1060/2/4 1092/2/4
f 1092/1/4 1014/1/4 1093/1/4
f 1094/1/4 1095/1/4 1097/1/4
f 1097/1/4 1095/1/4 1098/1/4
f 1098/1/4 1095/1/4 1099/1/4
f 1099/1/4 1095/1/4 1100/1/4
f 1096/1/4 1097/1/4 1103/1/4
f 1097/1/4 1098/1/4 1103/1/4
f 1099/1/4 1100/1/4 1104/1/4
f 1100/1/4 1101/1/4 1104/1/4
f 1102/1/4 1103/1/4 1107/1/4
f 1104/1/4 1105/1/4 1108/1/4
f 1106/1/4 1107/1/4 1111/1/4
f 1108/1/4 1109/1/4 1112/1/4
f 1110/1/4 1111/1/4 1114/1/4
f 1103/1/4 1098/1/4 1114/1/4
f 1107/1/4 1103/1/4 1114/1/4
f 1111/1/4 1107/1/4 1114/1/4
f 1112/1/4 1113/1/4 1115/1/4
f 1108/1/4 1112/1/4 1115/1/4
f 1104/1/4 1108/1/4 1115/1/4
f 1099/1/4 1104/1/4 1115/1/4
f 1110/1/4 1114/1/4 1116/1/4
f 1114/1/4 1115/1/4 1116/1/4
f 1115/1/4 1113/1/4 1117/1/4
f 1116/1/4 1115/1/4 1117/1/4
f 1110/1/4 1116/1/4 1119/1/4
f 1117/1/4 1113/1/4 1120/1/4
f 1118/1/4 1119/1/4 1122/1/4
f 1119/1/4 1116/1/4 1122/1/4
f 1120/1/4 1121/1/4 1123/1/4
f 1117/1/4 1120/1/4 1123/1/4
f 1118/1/4 1122/1/4 1124/1/4
f 1122/1/4 1123/1/4 1124/1/4
f 1123/1/4 1121/1/4 1125/1/4
f 1124/1/4 1123/1/4 1125/1/4
f 1118/1/4 1124/1/4 1126/1/4
f 1126/1/4 1124/1/4 1127/1/4
f 1125/1/4 1121/1/4 1128/1/4
f 1128/1/4 1121/1/4 1129/1/4
f 1127/1/4 1124/1/4 1130/1/4
f 1125/1/4 1128/1/4 1131/1/4
f 1127/1/4 1130/1/4 1132/1/4
f 1130/1/4 1131/1/4 1132/1/4
f 1131/1/4 1128/1/4 1133/1/4
f 1132/1/4 1131/1/4 1133/1/4
f 1127/1/4 1132/1/4 1134/1/4
f 1134/1/4 1132/1/4 1135/1/4
f 1133/1/4 1128/1/4 1136/1/4
f 1136/1/4 1128/1/4 1137/1/4
f 1135/1/4 1132/1/4 1138/1/4
f 1138/1/4 1132/1/4 1139/1/4
f 1133/1/4 1136/1/4 1140/1/4
f 1140/1/4 1136/1/4 1141/1/4
f 1139/1/4 1132/1/4 1142/1/4
f 1142/1/4 1132/1/4 1143/1/4
f 1133/1/4 1140/1/4 1144/1/4
f 1144/1/4 1140/1/4 1145/1/4
f 1143/1/4 1132/1/4 1146/1/4
f 1146/1/4 1132/1/4 1147/1/4
f 1147/1/4 1132/1/4 1148/1/4
f 1133/1/4 1144/1/4 1149/1/4
f 1149/1/4 1144/1/4 1150/1/4
f 1150/1/4 1144/1/4 1151/1/4
f 1147/1/4 1148/1/4 1152/1/4
f 1149/1/4 1150/1/4 1152/1/4
f 1148/1/4 1149/1/4 1152/1/4
f 1152/1/4 1150/1/4 1153/1/4
f 1154/1/4 1155/1/4 1157/1/4
f 1157/1/4 1155/1/4 1158/1/4
f 1158/1/4 1155/1/4 1159/1/4
f 1159/1/4 1155/1/4 1160/1/4
f 1156/1/4 1157/1/4 1163/1/4
f 1157/1/4 1158/1/4 1163/1/4
f 1159/1/4 1160/1/4 1164/1/4
f 1160/1/4 1161/1/4 1164/1/4
f 1162/1/4 1163/1/4 1167/1/4
f 1164/1/4 1165/1/4 1168/1/4
f 1166/1/4 1167/1/4 1171/1/4
f 1168/1/4 1169/1/4 1172/1/4
f 1170/1/4 1171/1/4 1174/1/4
f 1163/1/4 1158/1/4 1174/1/4
f 1171/1/4 1167/1/4 1174/1/4
f 1167/1/4 1163/1/4 1174/1/4
f 1168/1/4 1172/1/4 1175/1/4
f 1164/1/4 1168/1/4 1175/1/4
f 1159/1/4 1164/1/4 1175/1/4
f 1172/1/4 1173/1/4 1175/1/4
f 1170/1/4 1174/1/4 1176/1/4
f 1174/1/4 1175/1/4 1176/1/4
f 1175/1/4 1173/1/4 1177/1/4
f 1176/1/4 1175/1/4 1177/1/4
f 1170/1/4 1176/1/4 1179/1/4
f 1177/1/4 1173/1/4 1180/1/4
f 1178/1/4 1179/1/4 1182/1/4
f 1179/1/4 1176/1/4 1182/1/4
f 1177/1/4 1180/1/4 1183/1/4
f 1180/1/4 1181/1/4 1183/1/4
f 1178/1/4 1182/1/4 1184/1/4
f 1182/1/4 1183/1/4 1184/1/4
f 1183/1/4 1181/1/4 1185/1/4
f 1184/1/4 1183/1/4 1185/1/4
f 1178/1/4 1184/1/4 1186/1/4
f 1186/1/4 1184/1/4 1187/1/4
f 1185/1/4 1181/1/4 1188/1/4
f 1188/1/4 1181/1/4 1189/1/4
f 1187/1/4 1184/1/4 1190/1/4
f 1185/1/4 1188/1/4 1191/1/4
f 1187/1/4 1190/1/4 1192/1/4
f 1190/1/4 1191/1/4 1192/1/4
f 1191/1/4 1188/1/4 1193/1/4
f 1192/1/4 1191/1/4 1193/1/4
f 1187/1/4 1192/1/4 1194/1/4
f 1194/1/4 1192/1/4 1195/1/4
f 1193/1/4 1188/1/4 1196/1/4
f 1196/1/4 1188/1/4 1197/1/4
f 1195/1/4 1192/1/4 1198/1/4
f 1198/1/4 1192/1/4 1199/1/4
f 1193/1/4 1196/1/4 1200/1/4
f 1200/1/4 1196/1/4 1201/1/4
f 1199/1/4 1192/1/4 1202/1/4
f 1202/1/4 1192/1/4 1203/1/4
f 1193/1/4 1200/1/4 1204/1/4
f 1204/1/4 1200/1/4 1205/1/4
f 1203/1/4 1192/1/4 1206/1/4
f 1206/1/4 1192/1/4 1207/1/4
f 1207/1/4 1192/1/4 1208/1/4
f 1193/1/4 1204/1/4 1209/1/4
f 1209/1/4 1204/1/4 1210/1/4
f 1210/1/4 1204/1/4 1211/1/4
f 1207/1/4 1208/1/4 1212/1/4
f 1209/1/4 1210/1/4 1212/1/4
f 1208/1/4 1209/1/4 1212/1/4
f 1212/1/4 1210/1/4 1213/1/4
f 1214/2/4 1215/2/4 1218/2/4
f 1216/2/4 1217/2/4 1219/2/4
f 1217/1/4 1218/1/4 1220/1/4
f 1219/2/4 1217/2/4 1220/2/4
f 1218/2/4 1215/2/4 1221/2/4
f 1220/1/4 1218/1/4 1221/1/4
f 1221/2/4 1215/2/4 1224/2/4
f 1222/2/4 1223/2/4 1225/2/4
f 1223/1/4 1224/1/4 1226/1/4
f 1225/2/4 1223/2/4 1226/2/4
f 1224/2/4 1215/2/4 1227/2/4
f 1226/1/4 1224/1/4 1227/1/4
f 1227/2/4 1215/2/4 1228/2/4
f 1234/2/5 1230/2/5 1229/2/5
f 1235/2/5 1230/2/5 1234/2/5
f 1236/2/5 1232/2/5 1231/2/5
f 1237/2/5 1235/2/5 1234/2/5
f 1237/2/5 1236/2/5 1235/2/5
f 1237/2/5 1234/2/5 1233/2/5
f 1238/2/5 1236/2/5 1237/2/5
f 1239/2/5 1236/2/5 1238/2/5
f 1240/2/5 1232/2/5 1236/2/5
f 1240/2/5 1236/2/5 1239/2/5
f 1241/2/5 1239/2/5 1238/2/5
f 1242/2/5 1239/2/5 1241/2/5
f 1243/2/5 1232/2/5 1240/2/5
f 1244/2/5 1232/2/5 1243/2/5
f 1249/1/5 1246/1/5 1245/1/5
f 1250/1/5 1246/1/5 1249/1/5
f 1251/1/5 1248/1/5 1247/1/5
f 1252/1/5 1248/1/5 1251/1/5
f 1257/1/5 1254/1/5 1253/1/5
f 1258/1/5 1254/1/5 1257/1/5
f 1259/1/5 1256/1/5 1255/1/5
f 1260/1/5 1256/1/5 1259/1/5
f 1269/1/5 1262/1/5 1261/1/5
f 1270/1/5 1262/1/5 1269/1/5
f 1271/1/5 1264/1/5 1263/1/5
f 1272/1/5 1264/1/5 1271/1/5
f 1273/1/5 1266/1/5 1265/1/5
f 1274/1/5 1266/1/5 1273/1/5
f 1275/1/5 1268/1/5 1267/1/5
f 1276/1/5 1268/1/5 1275/1/5
f 1285/1/5 1278/1/5 1277/1/5
f 1286/1/5 1278/1/5 1285/1/5
f 1287/1/5 1280/1/5 1279/1/5
f 1288/1/5 1280/1/5 1287/1/5
f 1289/1/5 1282/1/5 1281/1/5
f 1290/1/5 1282/1/5 1289/1/5
f 1291/1/5 1284/1/5 1283/1/5
f 1292/1/5 1284/1/5 1291/1/5
f 1301/1/5 1294/1/5 1293/1/5
f 1302/1/5 1294/1/5 1301/1/5
f 1303/1/5 1296/1/5 1295/1/5
f 1304/1/5 1296/1/5 1303/1/5
f 1305/1/5 1298/1/5 1297/1/5
f 1306/1/5 1298/1/5 1305/1/5
f 1307/1/5 1300/1/5 1299/1/5
f 1308/1/5 1300/1/5 1307/1/5
f 1317/1/5 1310/1/5 1309/1/5
f 1318/1/5 1310/1/5 1317/1/5
f 1319/1/5 1312/1/5 1311/1/5
f 1320/1/5 1312/1/5 1319/1/5
f 1321/1/5 1314/1/5 1313/1/5
f 1322/1/5 1314/1/5 1321/1/5
f 1323/1/5 1316/1/5 1315/1/5
f 1324/1/5 1316/1/5 1323/1/5
f 1333/1/5 1326/1/5 1325/1/5
f 1334/1/5 1326/1/5 1333/1/5
f 1335/1/5 1328/1/5 1327/1/5
f 1336/1/5 1328/1/5 1335/1/5
f 1337/1/5 1330/1/5 1329/1/5
f 1338/1/5 1330/1/5 1337/1/5
f 1339/1/5 1332/1/5 1331/1/5
f 1340/1/5 1332/1/5 1339/1/5
f 1349/1/5 1342/1/5 1341/1/5
f 1350/1/5 1342/1/5 1349/1/5
f 1351/1/5 1344/1/5 1343/1/5
f 1352/1/5 1344/1/5 1351/1/5
f 1353/1/5 1346/1/5 1345/1/5
f 1354/1/5 1346/1/5 1353/1/5
f 1355/1/5 1348/1/5 1347/1/5
f 1356/1/5 1348/1/5 1355/1/5
f 1365/1/5 1358/1/5 1357/1/5
f 1366/1/5 1358/1/5 1365/1/5
f 1367/1/5 1360/1/5 1359/1/5
f 1368/1/5 1360/1/5 1367/1/5
f 1369/1/5 1362/1/5 1361/1/5
f 1370/1/5 1362/1/5 1369/1/5
f 1371/1/5 1364/1/5 1363/1/5
f 1372/1/5 1364/1/5 1371/1/5
f 1381/1/5 1374/1/5 1373/1/5
f 1382/1/5 1374/1/5 1381/1/5
f 1383/1/5 1376/1/5 1375/1/5
f 1384/1/5 1376/1/5 1383/1/5
f 1385/1/5 1378/1/5 1377/1/5
f 1386/1/5 1378/1/5 1385/1/5
f 1387/1/5 1380/1/5 1379/1/5
f 1388/1/5 1380/1/5 1387/1/5
f 1397/1/5 1390/1/5 1389/1/5
f 1398/1/5 1390/1/5 1397/1/5
f 1399/1/5 1392/1/5 1391/1/5
f 1400/1/5 1392/1/5 1399/1/5
f 1401/1/5 1394/1/5 1393/1/5
f 1402/1/5 1394/1/5 1401/1/5
f 1403/1/5 1396/1/5 1395/1/5
f 1404/1/5 1396/1/5 1403/1/5
f 1413/1/5 1406/1/5 1405/1/5
f 1414/1/5 1406/1/5 1413/1/5
f 1415/1/5 1408/1/5 1407/1/5
f 1416/1/5 1408/1/5 1415/1/5
f 1417/1/5 1410/1/5 1409/1/5
f 1418/1/5 1410/1/5 1417/1/5
f 1419/1/5 1412/1/5 1411/1/5
f 1420/1/5 1412/1/5 1419/1/5
f 1437/1/5 1422/1/5 1421/1/5
f 1438/1/5 1422/1/5 1437/1/5
f 1439/1/5 1424/1/5 1423/1/5
f 1440/1/5 1424/1/5 1439/1/5
f 1441/1/5 1426/1/5 1425/1/5
f 1442/1/5 1426/1/5 1441/1/5
f 1443/1/5 1428/1/5 1427/1/5
f 1444/1/5 1428/1/5 1443/1/5
f 1445/1/5 1430/1/5 1429/1/5
f 1446/1/5 1430/1/5 1445/1/5
f 1447/1/5 1432/1/5 1431/1/5
f 1448/1/5 1432/1/5 1447/1/5
f 1449/1/5 1434/1/5 1433/1/5
f 1450/1/5 1434/1/5 1449/1/5
f 1451/1/5 1436/1/5 1435/1/5
f 1452/1/5 1436/1/5 1451/1/5
f 1453/2/5 1438/2/5 1437/2/5
f 1454/2/5 1438/2/5 1453/2/5
f 1455/2/5 1440/2/5 1439/2/5
f 1456/2/5 1440/2/5 1455/2/5
f 1457/2/5 1442/2/5 1441/2/5
f 1458/2/5 1442/2/5 1457/2/5
f 1459/2/5 1444/2/5 1443/2/5
f 1460/2/5 1444/2/5 1459/2/5
f 1461/2/5 1446/2/5 1445/2/5
f 1462/2/5 1446/2/5 1461/2/5
f 1463/2/5 1448/2/5 1447/2/5
f 1464/2/5 1448/2/5 1463/2/5
f 1465/2/5 1450/2/5 1449/2/5
f 1466/2/5 1450/2/5 1465/2/5
f 1467/2/5 1452/2/5 1451/2/5
f 1468/2/5 1452/2/5 1467/2/5
f 1485/1/5 1470/1/5 1469/1/5
f 1486/1/5 1470/1/5 1485/1/5
f 1487/1/5 1472/1/5 1471/1/5
f 1488/1/5 1472/1/5 1487/1/5
f 1489/1/5 1474/1/5 1473/1/5
f 1490/1/5 1474/1/5 1489/1/5
f 1491/1/5 1476/1/5 1475/1/5
f 1492/1/5 1476/1/5 1491/1/5
f 1493/1/5 1478/1/5 1477/1/5
f 1494/1/5 1478/1/5 1493/1/5
f 1495/1/5 1480/1/5 1479/1/5
f 1496/1/5 1480/1/5 1495/1/5
f 1497/1/5 1482/1/5 1481/1/5
f 1498/1/5 1482/1/5 1497/1/5
f 1499/1/5 1484/1/5 1483/1/5
f 1500/1/5 1484/1/5 1499/1/5
f 1517/1/5 1502/1/5 1501/1/5
f 1518/1/5 1502/1/5 1517/1/5
f 1519/1/5 1504/1/5 1503/1/5
f 1520/1/5 1504/1/5 1519/1/5
f 1521/1/5 1506/1/5 1505/1/5
f 1522/1/5 1506/1/5 1521/1/5
f 1523/1/5 1508/1/5 1507/1/5
f 1524/1/5 1508/1/5 1523/1/5
f 1525/1/5 1510/1/5 1509/1/5
f 1526/1/5 1510/1/5 1525/1/5
f 1527/1/5 1512/1/5 1511/1/5
f 1528/1/5 1512/1/5 1527/1/5
f 1529/1/5 1514/1/5 1513/1/5
f 1530/1/5 1514/1/5 1529/1/5
f 1531/1/5 1516/1/5 1515/1/5
f 1532/1/5 1516/1/5 1531/1/5
f 1537/2/5 1534/2/5 1533/2/5
f 1538/2/5 1534/2/5 1537/2/5
f 1539/2/5 1536/2/5 1535/2/5
f 1540/2/5 1536/2/5 1539/2/5
f 1545/2/5 1542/2/5 1541/2/5
f 1546/2/5 1542/2/5 1545/2/5
f 1547/2/5 1544/2/5 1543/2/5
f 1548/2/5 1544/2/5 1547/2/5
f 1549/1/6 1550/1/6 1565/1/6
f 1565/1/6 1550/1/6 1566/1/6
f 1551/1/6 1552/1/6 1567/1/6
f 1567/1/6 1552/1/6 1568/1/6
f 1553/1/6 1554/1/6 1569/1/6
f 1569/1/6 1554/1/6 1570/1/6
f 1555/1/6 1556/1/6 1571/1/6
f 1571/1/6 1556/1/6 1572/1/6
f 1557/1/6 1558/1/6 1573/1/6
f 1573/1/6 1558/1/6 1574/1/6
f 1559/1/6 1560/1/6 1575/1/6
f 1575/1/6 1560/1/6 1576/1/6
f 1561/1/6 1562/1/6 1577/1/6
f 1577/1/6 1562/1/6 1578/1/6
f 1563/1/6 1564/1/6 1579/1/6
f 1579/1/6 1564/1/6 1580/1/6
f 1581/1/6 1582/1/6 1597/1/6
f 1597/1/6 1582/1/6 1598/1/6
f 1583/1/6 1584/1/6 1599/1/6
f 1599/1/6 1584/1/6 1600/1/6
f 1585/1/6 1586/1/6 1601/1/6
f 1601/1/6 1586/1/6 1602/1/6
f 1587/1/6 1588/1/6 1603/1/6
f 1603/1/6 1588/1/6 1604/1/6
f 1589/1/6 1590/1/6 1605/1/6
f 1605/1/6 1590/1/6 1606/1/6
f 1591/1/6 1592/1/6 1607/1/6
f 1607/1/6 1592/1/6 1608/1/6
f 1593/1/6 1594/1/6 1609/1/6
f 1609/1/6 1594/1/6 1610/1/6
f 1595/1/6 1596/1/6 1611/1/6
f 1611/1/6 1596/1/6 1612/1/6
f 1613/1/6 1614/1/6 1629/1/6
f 1629/1/6 1614/1/6 1630/1/6
f 1615/1/6 1616/1/6 1631/1/6
f 1631/1/6 1616/1/6 1632/1/6
f 1617/1/6 1618/1/6 1633/1/6
f 1633/1/6 1618/1/6 1634/1/6
f 1619/1/6 1620/1/6 1635/1/6
f 1635/1/6 1620/1/6 1636/1/6
f 1621/1/6 1622/1/6 1637/1/6
f 1637/1/6 1622/1/6 1638/1/6
f 1623/1/6 1624/1/6 1639/1/6
f 1639/1/6 1624/1/6 1640/1/6
f 1625/1/6 1626/1/6 1641/1/6
f 1641/1/6 1626/1/6 1642/1/6
f 1627/1/6 1628/1/6 1643/1/6
f 1643/1/6 1628/1/6 1644/1/6
f 1629/2/6 1630/2/6 1645/2/6
f 1645/2/6 1630/2/6 1646/2/6
f 1631/2/6 1632/2/6 1647/2/6
f 1647/2/6 1632/2/6 1648/2/6
f 1633/2/6 1634/2/6 1649/2/6
f 1649/2/6 1634/2/6 1650/2/6
f 1635/2/6 1636/2/6 1651/2/6
f 1651/2/6 1636/2/6 1652/2/6
f 1637/2/6 1638/2/6 1653/2/6
f 1653/2/6 1638/2/6 1654/2/6
f 1639/2/6 1640/2/6 1655/2/6
f 1655/2/6 1640/2/6 1656/2/6
f 1641/2/6 1642/2/6 1657/2/6
f 1657/2/6 1642/2/6 1658/2/6
f 1643/2/6 1644/2/6 1659/2/6
f 1659/2/6 1644/2/6 1660/2/6
f 1661/1/6 1662/1/6 1669/1/6
f 1669/1/6 1662/1/6 1670/1/6
f 1663/1/6 1664/1/6 1671/1/6
f 1671/1/6 1664/1/6 1672/1/6
f 1665/1/6 1666/1/6 1673/1/6
f 1673/1/6 1666/1/6 1674/1/6
f 1667/1/6 1668/1/6 1675/1/6
f 1675/1/6 1668/1/6 1676/1/6
f 1677/1/6 1678/1/6 1685/1/6
f 1685/1/6 1678/1/6 1686/1/6
f 1679/1/6 1680/1/6 1687/1/6
f 1687/1/6 1680/1/6 1688/1/6
f 1681/1/6 1682/1/6 1689/1/6
f 1689/1/6 1682/1/6 1690/1/6
f 1683/1/6 1684/1/6 1691/1/6
f 1691/1/6 1684/1/6 1692/1/6
f 1693/1/6 1694/1/6 1701/1/6
f 1701/1/6 1694/1/6 1702/1/6
f 1695/1/6 1696/1/6 1703/1/6
f 1703/1/6 1696/1/6 1704/1/6
f 1697/1/6 1698/1/6 1705/1/6
f 1705/1/6 1698/1/6 1706/1/6
f 1699/1/6 1700/1/6 1707/1/6
f 1707/1/6 1700/1/6 1708/1/6
f 1709/1/6 1710/1/6 1717/1/6
f 1717/1/6 1710/1/6 1718/1/6
f 1711/1/6 1712/1/6 1719/1/6
f 1719/1/6 1712/1/6 1720/1/6
f 1713/1/6 1714/1/6 1721/1/6
f 1721/1/6 1714/1/6 1722/1/6
f 1715/1/6 1716/1/6 1723/1/6
f 1723/1/6 1716/1/6 1724/1/6
f 1725/1/6 1726/1/6 1733/1/6
f 1733/1/6 1726/1/6 1734/1/6
f 1727/1/6 1728/1/6 1735/1/6
f 1735/1/6 1728/1/6 1736/1/6
f 1729/1/6 1730/1/6 1737/1/6
f 1737/1/6 1730/1/6 1738/1/6
f 1731/1/6 1732/1/6 1739/1/6
f 1739/1/6 1732/1/6 1740/1/6
f 1741/1/6 1742/1/6 1749/1/6
f 1749/1/6 1742/1/6 1750/1/6
f 1743/1/6 1744/1/6 1751/1/6
f 1751/1/6 1744/1/6 1752/1/6
f 1745/1/6 1746/1/6 1753/1/6
f 1753/1/6 1746/1/6 1754/1/6
f 1747/1/6 1748/1/6 1755/1/6
f 1755/1/6 1748/1/6 1756/1/6
f 1757/1/6 1758/1/6 1765/1/6
f 1765/1/6 1758/1/6 1766/1/6
f 1759/1/6 1760/1/6 1767/1/6
f 1767/1/6 1760/1/6 1768/1/6
f 1761/1/6 1762/1/6 1769/1/6
f 1769/1/6 1762/1/6 1770/1/6
f 1763/1/6 1764/1/6 1771/1/6
f 1771/1/6 1764/1/6 1772/1/6
f 1773/1/6 1774/1/6 1781/1/6
f 1781/1/6 1774/1/6 1782/1/6
f 1775/1/6 1776/1/6 1783/1/6
f 1783/1/6 1776/1/6 1784/1/6
f 1777/1/6 1778/1/6 1785/1/6
f 1785/1/6 1778/1/6 1786/1/6
f 1779/1/6 1780/1/6 1787/1/6
f 1787/1/6 1780/1/6 1788/1/6
f 1789/1/6 1790/1/6 1797/1/6
f 1797/1/6 1790/1/6 1798/1/6
f 1791/1/6 1792/1/6 1799/1/6
f 1799/1/6 1792/1/6 1800/1/6
f 1793/1/6 1794/1/6 1801/1/6
f 1801/1/6 1794/1/6 1802/1/6
f 1795/1/6 1796/1/6 1803/1/6
f 1803/1/6 1796/1/6 1804/1/6
f 1805/1/6 1806/1/6 1813/1/6
f 1813/1/6 1806/1/6 1814/1/6
f 1807/1/6 1808/1/6 1815/1/6
f 1815/1/6 1808/1/6 1816/1/6
f 1809/1/6 1810/1/6 1817/1/6
f 1817/1/6 1810/1/6 1818/1/6
f 1811/1/6 1812/1/6 1819/1/6
f 1819/1/6 1812/1/6 1820/1/6
f 1821/1/6 1822/1/6 1825/1/6
f 1825/1/6 1822/1/6 1826/1/6
f 1823/1/6 1824/1/6 1827/1/6
f 1827/1/6 1824/1/6 1828/1/6
f 1829/1/6 1830/1/6 1833/1/6
f 1833/1/6 1830/1/6 1834/1/6
f 1831/1/6 1832/1/6 1835/1/6
f 1835/1/6 1832/1/6 1836/1/6
f 1837/2/6 1838/2/6 1839/2/6
f 1839/2/6 1838/2/6 1840/2/6
