# MagicaVoxel @ Ephtracy

# group
o 

# material
mtllib inside_classroom_lantai.mtl
usemtl palette

# normals
vn -1 0 0
vn 1 0 0
vn 0 0 1
vn 0 0 -1
vn 0 -1 0
vn 0 1 0

# texcoords
vt 0.310547 0.5
vt 0.443359 0.5
vt 0.447266 0.5
vt 0.451172 0.5
vt 0.455078 0.5

# verts
v -3.2 0 3.2
v -3.2 0 1.1
v -3.2 0 0.8
v -3.2 0 0.4
v -3.2 0 0.0999999
v -3.2 0 -0.1
v -3.2 0 -0.4
v -3.2 0 -0.8
v -3.2 0 -1.1
v -3.2 0 -3.2
v -3.2 0.2 3.2
v -3.2 0.2 1.1
v -3.2 0.2 0.8
v -3.2 0.2 0.4
v -3.2 0.2 0.0999999
v -3.2 0.2 -0.1
v -3.2 0.2 -0.4
v -3.2 0.2 -0.8
v -3.2 0.2 -1.1
v -3.2 0.2 -3.2
v 3.2 0 3.2
v 3.2 0 1
v 3.2 0 0.7
v 3.2 0 0.4
v 3.2 0 0.0999999
v 3.2 0 -0.1
v 3.2 0 -0.4
v 3.2 0 -0.7
v 3.2 0 -1
v 3.2 0 -3.2
v 3.2 0.2 3.2
v 3.2 0.2 1
v 3.2 0.2 0.7
v 3.2 0.2 0.4
v 3.2 0.2 0.0999999
v 3.2 0.2 -0.1
v 3.2 0.2 -0.4
v 3.2 0.2 -0.7
v 3.2 0.2 -1
v 3.2 0.2 -3.2
v -3.2 0 3.2
v -3.2 0.2 3.2
v -1.1 0 3.2
v -1.1 0.2 3.2
v -0.8 0 3.2
v -0.8 0.2 3.2
v -0.4 0 3.2
v -0.4 0.2 3.2
v -0.0999999 0 3.2
v -0.0999999 0.2 3.2
v 0.1 0 3.2
v 0.1 0.2 3.2
v 0.4 0 3.2
v 0.4 0.2 3.2
v 0.8 0 3.2
v 0.8 0.2 3.2
v 1.1 0 3.2
v 1.1 0.2 3.2
v 3.2 0 3.2
v 3.2 0.2 3.2
v -3.2 0 -3.2
v -3.2 0.2 -3.2
v -1.1 0 -3.2
v -1.1 0.2 -3.2
v -0.8 0 -3.2
v -0.8 0.2 -3.2
v -0.4 0 -3.2
v -0.4 0.2 -3.2
v -0.0999999 0 -3.2
v -0.0999999 0.2 -3.2
v 0.1 0 -3.2
v 0.1 0.2 -3.2
v 0.4 0 -3.2
v 0.4 0.2 -3.2
v 0.8 0 -3.2
v 0.8 0.2 -3.2
v 1.1 0 -3.2
v 1.1 0.2 -3.2
v 3.2 0 -3.2
v 3.2 0.2 -3.2
v -3.2 0 3.2
v -1.1 0 3.2
v -0.8 0 3.2
v -0.4 0 3.2
v -0.0999999 0 3.2
v 0.1 0 3.2
v 0.4 0 3.2
v 0.8 0 3.2
v 1.1 0 3.2
v 3.2 0 3.2
v -3.2 0 1.1
v -1.1 0 1.1
v 1.1 0 1
v 3.2 0 1
v -3.2 0 0.8
v -0.8 0 0.8
v 0.8 0 0.7
v 3.2 0 0.7
v -3.2 0 0.4
v -0.4 0 0.4
v 0.4 0 0.4
v 3.2 0 0.4
v -3.2 0 0.0999999
v -0.0999999 0 0.0999999
v 0.1 0 0.0999999
v 3.2 0 0.0999999
v -3.2 0 -0.1
v -0.0999999 0 -0.1
v 0.1 0 -0.1
v 3.2 0 -0.1
v -3.2 0 -0.4
v -0.4 0 -0.4
v 0.4 0 -0.4
v 3.2 0 -0.4
v 0.8 0 -0.7
v 3.2 0 -0.7
v -3.2 0 -0.8
v -0.8 0 -0.8
v 1.1 0 -1
v 3.2 0 -1
v -3.2 0 -1.1
v -1.1 0 -1.1
v -3.2 0 -3.2
v -1.1 0 -3.2
v -0.8 0 -3.2
v -0.4 0 -3.2
v -0.0999999 0 -3.2
v 0.1 0 -3.2
v 0.4 0 -3.2
v 0.8 0 -3.2
v 1.1 0 -3.2
v 3.2 0 -3.2
v -3.2 0.2 3.2
v -1.1 0.2 3.2
v -0.8 0.2 3.2
v -0.4 0.2 3.2
v -0.0999999 0.2 3.2
v 0.1 0.2 3.2
v 0.4 0.2 3.2
v 0.8 0.2 3.2
v 1.1 0.2 3.2
v 3.2 0.2 3.2
v -3.2 0.2 1.1
v -1.1 0.2 1.1
v 1.1 0.2 1
v 3.2 0.2 1
v -3.2 0.2 0.8
v -0.8 0.2 0.8
v 0.8 0.2 0.7
v 3.2 0.2 0.7
v -3.2 0.2 0.4
v -0.4 0.2 0.4
v 0.4 0.2 0.4
v 3.2 0.2 0.4
v -3.2 0.2 0.0999999
v -0.0999999 0.2 0.0999999
v 0.1 0.2 0.0999999
v 3.2 0.2 0.0999999
v -3.2 0.2 -0.1
v -0.0999999 0.2 -0.1
v 0.1 0.2 -0.1
v 3.2 0.2 -0.1
v -3.2 0.2 -0.4
v -0.4 0.2 -0.4
v 0.4 0.2 -0.4
v 3.2 0.2 -0.4
v 0.8 0.2 -0.7
v 3.2 0.2 -0.7
v -3.2 0.2 -0.8
v -0.8 0.2 -0.8
v 1.1 0.2 -1
v 3.2 0.2 -1
v -3.2 0.2 -1.1
v -1.1 0.2 -1.1
v -3.2 0.2 -3.2
v -1.1 0.2 -3.2
v -0.8 0.2 -3.2
v -0.4 0.2 -3.2
v -0.0999999 0.2 -3.2
v 0.1 0.2 -3.2
v 0.4 0.2 -3.2
v 0.8 0.2 -3.2
v 1.1 0.2 -3.2
v 3.2 0.2 -3.2

# faces
f 11/5/1 2/5/1 1/5/1
f 12/4/1 3/4/1 2/4/1
f 12/5/1 2/5/1 11/5/1
f 13/3/1 4/3/1 3/3/1
f 13/4/1 3/4/1 12/4/1
f 14/2/1 5/2/1 4/2/1
f 14/3/1 4/3/1 13/3/1
f 15/1/1 6/1/1 5/1/1
f 15/2/1 5/2/1 14/2/1
f 16/2/1 7/2/1 6/2/1
f 16/1/1 6/1/1 15/1/1
f 17/3/1 8/3/1 7/3/1
f 17/2/1 7/2/1 16/2/1
f 18/4/1 9/4/1 8/4/1
f 18/3/1 8/3/1 17/3/1
f 19/5/1 10/5/1 9/5/1
f 19/4/1 9/4/1 18/4/1
f 20/5/1 10/5/1 19/5/1
f 21/5/2 22/5/2 31/5/2
f 22/4/2 23/4/2 32/4/2
f 31/5/2 22/5/2 32/5/2
f 23/3/2 24/3/2 33/3/2
f 32/4/2 23/4/2 33/4/2
f 24/2/2 25/2/2 34/2/2
f 33/3/2 24/3/2 34/3/2
f 25/1/2 26/1/2 35/1/2
f 34/2/2 25/2/2 35/2/2
f 26/2/2 27/2/2 36/2/2
f 35/1/2 26/1/2 36/1/2
f 27/3/2 28/3/2 37/3/2
f 36/2/2 27/2/2 37/2/2
f 28/4/2 29/4/2 38/4/2
f 37/3/2 28/3/2 38/3/2
f 29/5/2 30/5/2 39/5/2
f 38/4/2 29/4/2 39/4/2
f 39/5/2 30/5/2 40/5/2
f 43/5/3 42/5/3 41/5/3
f 44/5/3 42/5/3 43/5/3
f 45/4/3 44/4/3 43/4/3
f 46/4/3 44/4/3 45/4/3
f 47/3/3 46/3/3 45/3/3
f 48/3/3 46/3/3 47/3/3
f 49/2/3 48/2/3 47/2/3
f 50/2/3 48/2/3 49/2/3
f 51/1/3 50/1/3 49/1/3
f 52/1/3 50/1/3 51/1/3
f 53/2/3 52/2/3 51/2/3
f 54/2/3 52/2/3 53/2/3
f 55/3/3 54/3/3 53/3/3
f 56/3/3 54/3/3 55/3/3
f 57/4/3 56/4/3 55/4/3
f 58/4/3 56/4/3 57/4/3
f 59/5/3 58/5/3 57/5/3
f 60/5/3 58/5/3 59/5/3
f 61/5/4 62/5/4 63/5/4
f 63/5/4 62/5/4 64/5/4
f 63/4/4 64/4/4 65/4/4
f 65/4/4 64/4/4 66/4/4
f 65/3/4 66/3/4 67/3/4
f 67/3/4 66/3/4 68/3/4
f 67/2/4 68/2/4 69/2/4
f 69/2/4 68/2/4 70/2/4
f 69/1/4 70/1/4 71/1/4
f 71/1/4 70/1/4 72/1/4
f 71/2/4 72/2/4 73/2/4
f 73/2/4 72/2/4 74/2/4
f 73/3/4 74/3/4 75/3/4
f 75/3/4 74/3/4 76/3/4
f 75/4/4 76/4/4 77/4/4
f 77/4/4 76/4/4 78/4/4
f 77/5/4 78/5/4 79/5/4
f 79/5/4 78/5/4 80/5/4
f 91/5/5 82/5/5 81/5/5
f 92/4/5 83/4/5 82/4/5
f 92/5/5 82/5/5 91/5/5
f 93/5/5 90/5/5 89/5/5
f 93/4/5 89/4/5 88/4/5
f 94/5/5 90/5/5 93/5/5
f 95/4/5 92/4/5 91/4/5
f 96/4/5 83/4/5 92/4/5
f 96/4/5 92/4/5 95/4/5
f 96/3/5 84/3/5 83/3/5
f 97/4/5 94/4/5 93/4/5
f 97/3/5 88/3/5 87/3/5
f 97/4/5 93/4/5 88/4/5
f 98/4/5 94/4/5 97/4/5
f 99/3/5 96/3/5 95/3/5
f 100/3/5 84/3/5 96/3/5
f 100/3/5 96/3/5 99/3/5
f 100/2/5 85/2/5 84/2/5
f 101/3/5 98/3/5 97/3/5
f 101/2/5 87/2/5 86/2/5
f 101/3/5 97/3/5 87/3/5
f 102/3/5 98/3/5 101/3/5
f 103/2/5 100/2/5 99/2/5
f 104/2/5 85/2/5 100/2/5
f 104/2/5 100/2/5 103/2/5
f 104/1/5 86/1/5 85/1/5
f 105/2/5 102/2/5 101/2/5
f 105/1/5 86/1/5 104/1/5
f 105/2/5 101/2/5 86/2/5
f 106/2/5 102/2/5 105/2/5
f 107/1/5 104/1/5 103/1/5
f 107/1/5 105/1/5 104/1/5
f 107/1/5 106/1/5 105/1/5
f 108/1/5 106/1/5 107/1/5
f 109/1/5 106/1/5 108/1/5
f 110/1/5 106/1/5 109/1/5
f 111/2/5 108/2/5 107/2/5
f 112/2/5 108/2/5 111/2/5
f 113/2/5 110/2/5 109/2/5
f 114/2/5 110/2/5 113/2/5
f 115/3/5 114/3/5 113/3/5
f 116/3/5 114/3/5 115/3/5
f 117/3/5 112/3/5 111/3/5
f 118/3/5 112/3/5 117/3/5
f 119/4/5 116/4/5 115/4/5
f 120/4/5 116/4/5 119/4/5
f 121/4/5 118/4/5 117/4/5
f 122/4/5 118/4/5 121/4/5
f 123/5/5 122/5/5 121/5/5
f 124/4/5 118/4/5 122/4/5
f 124/5/5 122/5/5 123/5/5
f 125/3/5 112/3/5 118/3/5
f 125/4/5 118/4/5 124/4/5
f 126/2/5 108/2/5 112/2/5
f 126/3/5 112/3/5 125/3/5
f 127/1/5 109/1/5 108/1/5
f 127/2/5 108/2/5 126/2/5
f 128/2/5 113/2/5 109/2/5
f 128/1/5 109/1/5 127/1/5
f 129/3/5 115/3/5 113/3/5
f 129/2/5 113/2/5 128/2/5
f 130/4/5 119/4/5 115/4/5
f 130/3/5 115/3/5 129/3/5
f 131/5/5 120/5/5 119/5/5
f 131/4/5 119/4/5 130/4/5
f 132/5/5 120/5/5 131/5/5
f 133/5/6 134/5/6 143/5/6
f 134/4/6 135/4/6 144/4/6
f 143/5/6 134/5/6 144/5/6
f 141/5/6 142/5/6 145/5/6
f 140/4/6 141/4/6 145/4/6
f 145/5/6 142/5/6 146/5/6
f 143/4/6 144/4/6 147/4/6
f 144/4/6 135/4/6 148/4/6
f 147/4/6 144/4/6 148/4/6
f 135/3/6 136/3/6 148/3/6
f 145/4/6 146/4/6 149/4/6
f 139/3/6 140/3/6 149/3/6
f 140/4/6 145/4/6 149/4/6
f 149/4/6 146/4/6 150/4/6
f 147/3/6 148/3/6 151/3/6
f 148/3/6 136/3/6 152/3/6
f 151/3/6 148/3/6 152/3/6
f 136/2/6 137/2/6 152/2/6
f 149/3/6 150/3/6 153/3/6
f 138/2/6 139/2/6 153/2/6
f 139/3/6 149/3/6 153/3/6
f 153/3/6 150/3/6 154/3/6
f 151/2/6 152/2/6 155/2/6
f 152/2/6 137/2/6 156/2/6
f 155/2/6 152/2/6 156/2/6
f 137/1/6 138/1/6 156/1/6
f 153/2/6 154/2/6 157/2/6
f 156/1/6 138/1/6 157/1/6
f 138/2/6 153/2/6 157/2/6
f 157/2/6 154/2/6 158/2/6
f 155/1/6 156/1/6 159/1/6
f 156/1/6 157/1/6 159/1/6
f 157/1/6 158/1/6 159/1/6
f 159/1/6 158/1/6 160/1/6
f 160/1/6 158/1/6 161/1/6
f 161/1/6 158/1/6 162/1/6
f 159/2/6 160/2/6 163/2/6
f 163/2/6 160/2/6 164/2/6
f 161/2/6 162/2/6 165/2/6
f 165/2/6 162/2/6 166/2/6
f 165/3/6 166/3/6 167/3/6
f 167/3/6 166/3/6 168/3/6
f 163/3/6 164/3/6 169/3/6
f 169/3/6 164/3/6 170/3/6
f 167/4/6 168/4/6 171/4/6
f 171/4/6 168/4/6 172/4/6
f 169/4/6 170/4/6 173/4/6
f 173/4/6 170/4/6 174/4/6
f 173/5/6 174/5/6 175/5/6
f 174/4/6 170/4/6 176/4/6
f 175/5/6 174/5/6 176/5/6
f 170/3/6 164/3/6 177/3/6
f 176/4/6 170/4/6 177/4/6
f 164/2/6 160/2/6 178/2/6
f 177/3/6 164/3/6 178/3/6
f 160/1/6 161/1/6 179/1/6
f 178/2/6 160/2/6 179/2/6
f 161/2/6 165/2/6 180/2/6
f 179/1/6 161/1/6 180/1/6
f 165/3/6 167/3/6 181/3/6
f 180/2/6 165/2/6 181/2/6
f 167/4/6 171/4/6 182/4/6
f 181/3/6 167/3/6 182/3/6
f 171/5/6 172/5/6 183/5/6
f 182/4/6 171/4/6 183/4/6
f 183/5/6 172/5/6 184/5/6
