# MagicaVoxel @ Ephtracy

# group
o 

# material
mtllib inside_classroom_2_lantai_kali_4.mtl
usemtl palette

# normals
vn -1 0 0
vn 1 0 0
vn 0 0 1
vn 0 0 -1
vn 0 -1 0
vn 0 1 0

# texcoords
vt 0.166016 0.5
vt 0.287109 0.5
vt 0.294922 0.5
vt 0.318359 0.5
vt 0.345703 0.5
vt 0.349609 0.5
vt 0.376953 0.5
vt 0.408203 0.5
vt 0.447266 0.5

# verts
v -3.2 0 3.2
v -3.2 0 0.2
v -3.2 0 0.0999999
v -3.2 0 -0.1
v -3.2 0 -0.2
v -3.2 0 -3.2
v -3.2 0.2 3.2
v -3.2 0.2 0.2
v -3.2 0.2 0.0999999
v -3.2 0.2 -0.1
v -3.2 0.2 -0.2
v -3.2 0.2 -3.2
v 3.2 0 3.2
v 3.2 0 0.2
v 3.2 0 0.0999999
v 3.2 0 -0.1
v 3.2 0 -0.2
v 3.2 0 -3.2
v 3.2 0.2 3.2
v 3.2 0.2 0.2
v 3.2 0.2 0.0999999
v 3.2 0.2 -0.1
v 3.2 0.2 -0.2
v 3.2 0.2 -3.2
v -3.2 0 3.2
v -3.2 0.2 3.2
v -0.2 0 3.2
v -0.2 0.2 3.2
v -0.0999999 0 3.2
v -0.0999999 0.2 3.2
v 0.1 0 3.2
v 0.1 0.2 3.2
v 0.2 0 3.2
v 0.2 0.2 3.2
v 3.2 0 3.2
v 3.2 0.2 3.2
v -3.2 0 -3.2
v -3.2 0.2 -3.2
v -0.2 0 -3.2
v -0.2 0.2 -3.2
v -0.0999999 0 -3.2
v -0.0999999 0.2 -3.2
v 0.1 0 -3.2
v 0.1 0.2 -3.2
v 0.2 0 -3.2
v 0.2 0.2 -3.2
v 3.2 0 -3.2
v 3.2 0.2 -3.2
v -3.2 0 3.2
v -0.2 0 3.2
v -0.0999999 0 3.2
v 0.1 0 3.2
v 0.2 0 3.2
v 3.2 0 3.2
v 0.4 0 2.9
v 1 0 2.9
v 2.2 0 2.8
v 2.7 0 2.8
v 1.5 0 2.7
v 1.8 0 2.7
v -2.8 0 2.6
v -2.4 0 2.6
v -1.5 0 2.6
v -1.3 0 2.6
v -1.5 0 2.4
v -1.3 0 2.4
v 1.5 0 2.4
v 1.8 0 2.4
v -1 0 2.3
v -0.5 0 2.3
v 0.4 0 2.3
v 1 0 2.3
v 2.2 0 2.3
v 2.7 0 2.3
v -2.8 0 2.2
v -2.4 0 2.2
v -2 0 2.2
v -1.6 0 2.2
v 1.2 0 2.1
v 2 0 2.1
v 2.4 0 1.9
v 2.8 0 1.9
v -2 0 1.8
v -1.6 0 1.8
v -1 0 1.8
v -0.5 0 1.8
v 0.6 0 1.8
v 0.8 0 1.8
v 0.6 0 1.6
v 0.8 0 1.6
v -2.9 0 1.5
v -1.9 0 1.5
v 2.4 0 1.5
v 2.8 0 1.5
v -1.4 0 1.4
v -0.8 0 1.4
v 1.2 0 1.3
v 2 0 1.3
v 0.4 0 1.1
v 1 0 1.1
v 2 0 1.1
v 2.6 0 1.1
v 1.2 0 0.9
v 1.7 0 0.9
v -1.4 0 0.8
v -0.8 0 0.8
v -2.9 0 0.5
v -1.9 0 0.5
v 0.4 0 0.5
v 1 0 0.5
v 2 0 0.5
v 2.6 0 0.5
v 1.2 0 0.4
v 1.7 0 0.4
v -3.2 0 0.2
v -0.2 0 0.2
v 0.2 0 0.2
v 3.2 0 0.2
v -3.2 0 0.0999999
v -0.0999999 0 0.0999999
v 0.1 0 0.0999999
v 3.2 0 0.0999999
v -3.2 0 -0.1
v -0.0999999 0 -0.1
v 0.1 0 -0.1
v 3.2 0 -0.1
v -3.2 0 -0.2
v -0.2 0 -0.2
v 0.2 0 -0.2
v 3.2 0 -0.2
v 0.4 0 -0.3
v 0.6 0 -0.3
v 0.9 0 -0.4
v 1.2 0 -0.4
v -2.9 0 -0.5
v -2.5 0 -0.5
v 0.4 0 -0.5
v 0.6 0 -0.5
v 2.6 0 -0.5
v 2.8 0 -0.5
v 1.4 0 -0.6
v 1.8 0 -0.6
v -1.2 0 -0.7
v -0.8 0 -0.7
v 0.9 0 -0.7
v 1.2 0 -0.7
v 2.6 0 -0.7
v 2.8 0 -0.7
v 2.2 0 -0.8
v 2.5 0 -0.8
v -2.9 0 -0.9
v -2.5 0 -0.9
v 1.4 0 -1
v 1.8 0 -1
v -1.2 0 -1.1
v -0.8 0 -1.1
v 0.6 0 -1.1
v 1 0 -1.1
v 2.2 0 -1.1
v 2.5 0 -1.1
v -2.1 0 -1.3
v -1.6 0 -1.3
v 2.4 0 -1.3
v 2.8 0 -1.3
v 1.6 0 -1.4
v 2 0 -1.4
v 0.6 0 -1.5
v 1 0 -1.5
v -2.8 0 -1.6
v -2.5 0 -1.6
v -1.3 0 -1.7
v -0.5 0 -1.7
v 0.4 0 -1.7
v 0.7 0 -1.7
v 2.4 0 -1.7
v 2.8 0 -1.7
v -2.1 0 -1.8
v -1.6 0 -1.8
v 1.6 0 -1.8
v 2 0 -1.8
v -2.8 0 -1.9
v -2.5 0 -1.9
v 1.2 0 -1.9
v 1.4 0 -1.9
v 2.3 0 -1.9
v 2.8 0 -1.9
v 0.4 0 -2
v 0.7 0 -2
v 1.8 0 -2
v 2.1 0 -2
v 1.2 0 -2.1
v 1.4 0 -2.1
v 1.8 0 -2.3
v 2.1 0 -2.3
v -2.4 0 -2.4
v -2 0 -2.4
v -1.3 0 -2.4
v -0.5 0 -2.4
v 2.3 0 -2.4
v 2.8 0 -2.4
v 0.5 0 -2.5
v 0.8 0 -2.5
v 1.7 0 -2.5
v 1.9 0 -2.5
v 1.1 0 -2.6
v 1.5 0 -2.6
v 2.3 0 -2.6
v 2.5 0 -2.6
v 1.7 0 -2.7
v 1.9 0 -2.7
v -2.4 0 -2.8
v -2 0 -2.8
v 0.5 0 -2.8
v 0.8 0 -2.8
v 2.3 0 -2.8
v 2.5 0 -2.8
v 1.1 0 -3
v 1.5 0 -3
v -3.2 0 -3.2
v -0.2 0 -3.2
v -0.0999999 0 -3.2
v 0.1 0 -3.2
v 0.2 0 -3.2
v 3.2 0 -3.2
v -3.2 0.2 3.2
v -0.2 0.2 3.2
v -0.0999999 0.2 3.2
v 0.1 0.2 3.2
v 0.2 0.2 3.2
v 3.2 0.2 3.2
v 0.4 0.2 2.9
v 1 0.2 2.9
v 2.2 0.2 2.8
v 2.7 0.2 2.8
v 1.5 0.2 2.7
v 1.8 0.2 2.7
v -2.8 0.2 2.6
v -2.4 0.2 2.6
v -1.5 0.2 2.6
v -1.3 0.2 2.6
v -1.5 0.2 2.4
v -1.3 0.2 2.4
v 1.5 0.2 2.4
v 1.8 0.2 2.4
v -1 0.2 2.3
v -0.5 0.2 2.3
v 0.4 0.2 2.3
v 1 0.2 2.3
v 2.2 0.2 2.3
v 2.7 0.2 2.3
v -2.8 0.2 2.2
v -2.4 0.2 2.2
v -2 0.2 2.2
v -1.6 0.2 2.2
v 1.2 0.2 2.1
v 2 0.2 2.1
v 2.4 0.2 1.9
v 2.8 0.2 1.9
v -2 0.2 1.8
v -1.6 0.2 1.8
v -1 0.2 1.8
v -0.5 0.2 1.8
v 0.6 0.2 1.8
v 0.8 0.2 1.8
v 0.6 0.2 1.6
v 0.8 0.2 1.6
v -2.9 0.2 1.5
v -1.9 0.2 1.5
v 2.4 0.2 1.5
v 2.8 0.2 1.5
v -1.4 0.2 1.4
v -0.8 0.2 1.4
v 1.2 0.2 1.3
v 2 0.2 1.3
v 0.4 0.2 1.1
v 1 0.2 1.1
v 2 0.2 1.1
v 2.6 0.2 1.1
v 1.2 0.2 0.9
v 1.7 0.2 0.9
v -1.4 0.2 0.8
v -0.8 0.2 0.8
v -2.9 0.2 0.5
v -1.9 0.2 0.5
v 0.4 0.2 0.5
v 1 0.2 0.5
v 2 0.2 0.5
v 2.6 0.2 0.5
v 1.2 0.2 0.4
v 1.7 0.2 0.4
v -3.2 0.2 0.2
v -0.2 0.2 0.2
v 0.2 0.2 0.2
v 3.2 0.2 0.2
v -3.2 0.2 0.0999999
v -0.0999999 0.2 0.0999999
v 0.1 0.2 0.0999999
v 3.2 0.2 0.0999999
v -3.2 0.2 -0.1
v -0.0999999 0.2 -0.1
v 0.1 0.2 -0.1
v 3.2 0.2 -0.1
v -3.2 0.2 -0.2
v -0.2 0.2 -0.2
v 0.2 0.2 -0.2
v 3.2 0.2 -0.2
v 0.4 0.2 -0.3
v 0.6 0.2 -0.3
v 0.9 0.2 -0.4
v 1.2 0.2 -0.4
v -2.9 0.2 -0.5
v -2.5 0.2 -0.5
v 0.4 0.2 -0.5
v 0.6 0.2 -0.5
v 2.6 0.2 -0.5
v 2.8 0.2 -0.5
v 1.4 0.2 -0.6
v 1.8 0.2 -0.6
v -1.2 0.2 -0.7
v -0.8 0.2 -0.7
v 0.9 0.2 -0.7
v 1.2 0.2 -0.7
v 2.6 0.2 -0.7
v 2.8 0.2 -0.7
v 2.2 0.2 -0.8
v 2.5 0.2 -0.8
v -2.9 0.2 -0.9
v -2.5 0.2 -0.9
v 1.4 0.2 -1
v 1.8 0.2 -1
v -1.2 0.2 -1.1
v -0.8 0.2 -1.1
v 0.6 0.2 -1.1
v 1 0.2 -1.1
v 2.2 0.2 -1.1
v 2.5 0.2 -1.1
v -2.1 0.2 -1.3
v -1.6 0.2 -1.3
v 2.4 0.2 -1.3
v 2.8 0.2 -1.3
v 1.6 0.2 -1.4
v 2 0.2 -1.4
v 0.6 0.2 -1.5
v 1 0.2 -1.5
v -2.8 0.2 -1.6
v -2.5 0.2 -1.6
v -1.3 0.2 -1.7
v -0.5 0.2 -1.7
v 0.4 0.2 -1.7
v 0.7 0.2 -1.7
v 2.4 0.2 -1.7
v 2.8 0.2 -1.7
v -2.1 0.2 -1.8
v -1.6 0.2 -1.8
v 1.6 0.2 -1.8
v 2 0.2 -1.8
v -2.8 0.2 -1.9
v -2.5 0.2 -1.9
v 1.2 0.2 -1.9
v 1.4 0.2 -1.9
v 2.3 0.2 -1.9
v 2.8 0.2 -1.9
v 0.4 0.2 -2
v 0.7 0.2 -2
v 1.8 0.2 -2
v 2.1 0.2 -2
v 1.2 0.2 -2.1
v 1.4 0.2 -2.1
v 1.8 0.2 -2.3
v 2.1 0.2 -2.3
v -2.4 0.2 -2.4
v -2 0.2 -2.4
v -1.3 0.2 -2.4
v -0.5 0.2 -2.4
v 2.3 0.2 -2.4
v 2.8 0.2 -2.4
v 0.5 0.2 -2.5
v 0.8 0.2 -2.5
v 1.7 0.2 -2.5
v 1.9 0.2 -2.5
v 1.1 0.2 -2.6
v 1.5 0.2 -2.6
v 2.3 0.2 -2.6
v 2.5 0.2 -2.6
v 1.7 0.2 -2.7
v 1.9 0.2 -2.7
v -2.4 0.2 -2.8
v -2 0.2 -2.8
v 0.5 0.2 -2.8
v 0.8 0.2 -2.8
v 2.3 0.2 -2.8
v 2.5 0.2 -2.8
v 1.1 0.2 -3
v 1.5 0.2 -3
v -3.2 0.2 -3.2
v -0.2 0.2 -3.2
v -0.0999999 0.2 -3.2
v 0.1 0.2 -3.2
v 0.2 0.2 -3.2
v 3.2 0.2 -3.2

# faces
f 7/6/1 2/6/1 1/6/1
f 8/4/1 3/4/1 2/4/1
f 8/6/1 2/6/1 7/6/1
f 9/2/1 4/2/1 3/2/1
f 9/4/1 3/4/1 8/4/1
f 10/4/1 5/4/1 4/4/1
f 10/2/1 4/2/1 9/2/1
f 11/6/1 6/6/1 5/6/1
f 11/4/1 5/4/1 10/4/1
f 12/6/1 6/6/1 11/6/1
f 13/6/2 14/6/2 19/6/2
f 14/4/2 15/4/2 20/4/2
f 19/6/2 14/6/2 20/6/2
f 15/2/2 16/2/2 21/2/2
f 20/4/2 15/4/2 21/4/2
f 16/4/2 17/4/2 22/4/2
f 21/2/2 16/2/2 22/2/2
f 17/6/2 18/6/2 23/6/2
f 22/4/2 17/4/2 23/4/2
f 23/6/2 18/6/2 24/6/2
f 27/6/3 26/6/3 25/6/3
f 28/6/3 26/6/3 27/6/3
f 29/4/3 28/4/3 27/4/3
f 30/4/3 28/4/3 29/4/3
f 31/2/3 30/2/3 29/2/3
f 32/2/3 30/2/3 31/2/3
f 33/4/3 32/4/3 31/4/3
f 34/4/3 32/4/3 33/4/3
f 35/6/3 34/6/3 33/6/3
f 36/6/3 34/6/3 35/6/3
f 37/6/4 38/6/4 39/6/4
f 39/6/4 38/6/4 40/6/4
f 39/4/4 40/4/4 41/4/4
f 41/4/4 40/4/4 42/4/4
f 41/2/4 42/2/4 43/2/4
f 43/2/4 42/2/4 44/2/4
f 43/4/4 44/4/4 45/4/4
f 45/4/4 44/4/4 46/4/4
f 45/6/4 46/6/4 47/6/4
f 47/6/4 46/6/4 48/6/4
f 55/6/5 54/6/5 53/6/5
f 56/6/5 54/6/5 55/6/5
f 57/6/5 54/6/5 56/6/5
f 58/6/5 54/6/5 57/6/5
f 59/6/5 57/6/5 56/6/5
f 60/6/5 57/6/5 59/6/5
f 61/6/5 50/6/5 49/6/5
f 62/6/5 50/6/5 61/6/5
f 63/6/5 50/6/5 62/6/5
f 64/6/5 50/6/5 63/6/5
f 65/6/5 63/6/5 62/6/5
f 65/1/5 64/1/5 63/1/5
f 66/6/5 50/6/5 64/6/5
f 66/1/5 64/1/5 65/1/5
f 67/6/5 59/6/5 56/6/5
f 67/7/5 60/7/5 59/7/5
f 68/6/5 57/6/5 60/6/5
f 68/7/5 60/7/5 67/7/5
f 69/6/5 50/6/5 66/6/5
f 69/6/5 66/6/5 65/6/5
f 70/6/5 50/6/5 69/6/5
f 71/6/5 55/6/5 53/6/5
f 71/5/5 56/5/5 55/5/5
f 72/6/5 67/6/5 56/6/5
f 72/5/5 56/5/5 71/5/5
f 72/6/5 68/6/5 67/6/5
f 73/1/5 58/1/5 57/1/5
f 73/6/5 68/6/5 72/6/5
f 73/6/5 57/6/5 68/6/5
f 74/6/5 54/6/5 58/6/5
f 74/1/5 58/1/5 73/1/5
f 75/6/5 61/6/5 49/6/5
f 75/5/5 62/5/5 61/5/5
f 76/6/5 65/6/5 62/6/5
f 76/5/5 62/5/5 75/5/5
f 76/6/5 69/6/5 65/6/5
f 77/6/5 69/6/5 76/6/5
f 78/6/5 69/6/5 77/6/5
f 79/6/5 73/6/5 72/6/5
f 79/6/5 72/6/5 71/6/5
f 79/6/5 74/6/5 73/6/5
f 80/6/5 74/6/5 79/6/5
f 81/6/5 74/6/5 80/6/5
f 82/6/5 54/6/5 74/6/5
f 82/6/5 74/6/5 81/6/5
f 83/7/5 78/7/5 77/7/5
f 83/6/5 77/6/5 76/6/5
f 83/6/5 76/6/5 75/6/5
f 84/6/5 69/6/5 78/6/5
f 84/7/5 78/7/5 83/7/5
f 85/3/5 70/3/5 69/3/5
f 85/6/5 69/6/5 84/6/5
f 86/6/5 50/6/5 70/6/5
f 86/3/5 70/3/5 85/3/5
f 87/6/5 79/6/5 71/6/5
f 88/6/5 79/6/5 87/6/5
f 89/6/5 87/6/5 71/6/5
f 89/7/5 88/7/5 87/7/5
f 90/6/5 79/6/5 88/6/5
f 90/7/5 88/7/5 89/7/5
f 91/6/5 85/6/5 84/6/5
f 91/6/5 84/6/5 83/6/5
f 91/6/5 83/6/5 75/6/5
f 91/6/5 75/6/5 49/6/5
f 91/6/5 86/6/5 85/6/5
f 92/6/5 86/6/5 91/6/5
f 93/7/5 82/7/5 81/7/5
f 93/6/5 81/6/5 80/6/5
f 94/6/5 54/6/5 82/6/5
f 94/7/5 82/7/5 93/7/5
f 95/6/5 86/6/5 92/6/5
f 96/6/5 86/6/5 95/6/5
f 97/6/5 79/6/5 90/6/5
f 97/6/5 90/6/5 89/6/5
f 97/3/5 80/3/5 79/3/5
f 98/6/5 93/6/5 80/6/5
f 98/3/5 80/3/5 97/3/5
f 98/6/5 94/6/5 93/6/5
f 99/6/5 71/6/5 53/6/5
f 99/6/5 89/6/5 71/6/5
f 99/6/5 98/6/5 97/6/5
f 99/6/5 97/6/5 89/6/5
f 100/6/5 98/6/5 99/6/5
f 101/6/5 94/6/5 98/6/5
f 101/6/5 98/6/5 100/6/5
f 102/6/5 94/6/5 101/6/5
f 103/6/5 101/6/5 100/6/5
f 104/6/5 101/6/5 103/6/5
f 105/8/5 96/8/5 95/8/5
f 105/6/5 95/6/5 92/6/5
f 106/6/5 86/6/5 96/6/5
f 106/8/5 96/8/5 105/8/5
f 107/6/5 91/6/5 49/6/5
f 107/9/5 92/9/5 91/9/5
f 108/6/5 105/6/5 92/6/5
f 108/9/5 92/9/5 107/9/5
f 108/6/5 106/6/5 105/6/5
f 109/8/5 100/8/5 99/8/5
f 109/6/5 99/6/5 53/6/5
f 110/6/5 103/6/5 100/6/5
f 110/8/5 100/8/5 109/8/5
f 111/6/5 101/6/5 104/6/5
f 111/9/5 102/9/5 101/9/5
f 112/6/5 94/6/5 102/6/5
f 112/9/5 102/9/5 111/9/5
f 113/6/5 103/6/5 110/6/5
f 113/7/5 104/7/5 103/7/5
f 113/6/5 110/6/5 109/6/5
f 114/6/5 112/6/5 111/6/5
f 114/7/5 104/7/5 113/7/5
f 114/6/5 111/6/5 104/6/5
f 115/6/5 107/6/5 49/6/5
f 115/6/5 108/6/5 107/6/5
f 116/6/5 106/6/5 108/6/5
f 116/6/5 108/6/5 115/6/5
f 116/4/5 51/4/5 50/4/5
f 116/6/5 86/6/5 106/6/5
f 116/6/5 50/6/5 86/6/5
f 117/6/5 114/6/5 113/6/5
f 117/4/5 53/4/5 52/4/5
f 117/6/5 109/6/5 53/6/5
f 117/6/5 113/6/5 109/6/5
f 118/6/5 112/6/5 114/6/5
f 118/6/5 114/6/5 117/6/5
f 118/6/5 94/6/5 112/6/5
f 118/6/5 54/6/5 94/6/5
f 119/4/5 116/4/5 115/4/5
f 120/4/5 51/4/5 116/4/5
f 120/4/5 116/4/5 119/4/5
f 120/2/5 52/2/5 51/2/5
f 121/4/5 118/4/5 117/4/5
f 121/2/5 52/2/5 120/2/5
f 121/4/5 117/4/5 52/4/5
f 122/4/5 118/4/5 121/4/5
f 123/2/5 120/2/5 119/2/5
f 123/2/5 121/2/5 120/2/5
f 123/2/5 122/2/5 121/2/5
f 124/2/5 122/2/5 123/2/5
f 125/2/5 122/2/5 124/2/5
f 126/2/5 122/2/5 125/2/5
f 127/4/5 124/4/5 123/4/5
f 128/4/5 124/4/5 127/4/5
f 129/4/5 126/4/5 125/4/5
f 130/4/5 126/4/5 129/4/5
f 131/6/5 130/6/5 129/6/5
f 132/6/5 130/6/5 131/6/5
f 133/6/5 130/6/5 132/6/5
f 134/6/5 130/6/5 133/6/5
f 135/6/5 128/6/5 127/6/5
f 136/6/5 128/6/5 135/6/5
f 137/6/5 131/6/5 129/6/5
f 137/7/5 132/7/5 131/7/5
f 138/6/5 133/6/5 132/6/5
f 138/7/5 132/7/5 137/7/5
f 139/6/5 130/6/5 134/6/5
f 140/6/5 130/6/5 139/6/5
f 141/6/5 139/6/5 134/6/5
f 142/6/5 139/6/5 141/6/5
f 143/6/5 128/6/5 136/6/5
f 144/6/5 128/6/5 143/6/5
f 145/6/5 133/6/5 138/6/5
f 145/3/5 134/3/5 133/3/5
f 145/6/5 138/6/5 137/6/5
f 146/6/5 141/6/5 134/6/5
f 146/3/5 134/3/5 145/3/5
f 147/6/5 139/6/5 142/6/5
f 147/9/5 140/9/5 139/9/5
f 148/6/5 130/6/5 140/6/5
f 148/9/5 140/9/5 147/9/5
f 149/6/5 147/6/5 142/6/5
f 149/6/5 148/6/5 147/6/5
f 150/6/5 148/6/5 149/6/5
f 151/3/5 136/3/5 135/3/5
f 151/6/5 135/6/5 127/6/5
f 152/6/5 143/6/5 136/6/5
f 152/3/5 136/3/5 151/3/5
f 153/6/5 141/6/5 146/6/5
f 153/6/5 146/6/5 145/6/5
f 153/7/5 142/7/5 141/7/5
f 154/6/5 149/6/5 142/6/5
f 154/7/5 142/7/5 153/7/5
f 155/6/5 143/6/5 152/6/5
f 155/1/5 144/1/5 143/1/5
f 155/6/5 152/6/5 151/6/5
f 156/6/5 128/6/5 144/6/5
f 156/1/5 144/1/5 155/1/5
f 157/6/5 154/6/5 153/6/5
f 157/6/5 153/6/5 145/6/5
f 157/6/5 145/6/5 137/6/5
f 158/6/5 154/6/5 157/6/5
f 159/6/5 149/6/5 154/6/5
f 159/6/5 154/6/5 158/6/5
f 159/5/5 150/5/5 149/5/5
f 160/6/5 148/6/5 150/6/5
f 160/5/5 150/5/5 159/5/5
f 161/6/5 155/6/5 151/6/5
f 161/6/5 156/6/5 155/6/5
f 162/6/5 156/6/5 161/6/5
f 163/6/5 159/6/5 158/6/5
f 163/6/5 160/6/5 159/6/5
f 164/6/5 148/6/5 160/6/5
f 164/6/5 160/6/5 163/6/5
f 164/6/5 130/6/5 148/6/5
f 165/6/5 163/6/5 158/6/5
f 166/6/5 163/6/5 165/6/5
f 167/5/5 158/5/5 157/5/5
f 167/6/5 157/6/5 137/6/5
f 168/6/5 165/6/5 158/6/5
f 168/5/5 158/5/5 167/5/5
f 169/6/5 161/6/5 151/6/5
f 170/6/5 161/6/5 169/6/5
f 171/6/5 156/6/5 162/6/5
f 172/6/5 128/6/5 156/6/5
f 172/6/5 156/6/5 171/6/5
f 173/6/5 137/6/5 129/6/5
f 173/6/5 167/6/5 137/6/5
f 173/6/5 168/6/5 167/6/5
f 174/6/5 168/6/5 173/6/5
f 175/6/5 163/6/5 166/6/5
f 175/9/5 164/9/5 163/9/5
f 176/6/5 130/6/5 164/6/5
f 176/9/5 164/9/5 175/9/5
f 177/6/5 161/6/5 170/6/5
f 177/9/5 162/9/5 161/9/5
f 178/6/5 171/6/5 162/6/5
f 178/9/5 162/9/5 177/9/5
f 179/6/5 168/6/5 174/6/5
f 179/3/5 166/3/5 165/3/5
f 179/6/5 165/6/5 168/6/5
f 180/6/5 175/6/5 166/6/5
f 180/3/5 166/3/5 179/3/5
f 180/6/5 176/6/5 175/6/5
f 181/6/5 169/6/5 151/6/5
f 181/8/5 170/8/5 169/8/5
f 182/6/5 177/6/5 170/6/5
f 182/8/5 170/8/5 181/8/5
f 182/6/5 178/6/5 177/6/5
f 183/6/5 179/6/5 174/6/5
f 183/6/5 180/6/5 179/6/5
f 184/6/5 180/6/5 183/6/5
f 185/6/5 176/6/5 180/6/5
f 185/6/5 180/6/5 184/6/5
f 186/6/5 130/6/5 176/6/5
f 186/6/5 176/6/5 185/6/5
f 187/6/5 173/6/5 129/6/5
f 187/8/5 174/8/5 173/8/5
f 188/6/5 183/6/5 174/6/5
f 188/8/5 174/8/5 187/8/5
f 189/6/5 185/6/5 184/6/5
f 190/6/5 185/6/5 189/6/5
f 191/6/5 183/6/5 188/6/5
f 191/3/5 184/3/5 183/3/5
f 191/6/5 188/6/5 187/6/5
f 192/6/5 189/6/5 184/6/5
f 192/3/5 184/3/5 191/3/5
f 193/9/5 190/9/5 189/9/5
f 193/6/5 189/6/5 192/6/5
f 193/6/5 192/6/5 191/6/5
f 194/6/5 185/6/5 190/6/5
f 194/9/5 190/9/5 193/9/5
f 195/6/5 178/6/5 182/6/5
f 195/6/5 182/6/5 181/6/5
f 196/6/5 178/6/5 195/6/5
f 197/6/5 171/6/5 178/6/5
f 197/6/5 178/6/5 196/6/5
f 197/5/5 172/5/5 171/5/5
f 198/6/5 128/6/5 172/6/5
f 198/5/5 172/5/5 197/5/5
f 199/6/5 185/6/5 194/6/5
f 199/6/5 194/6/5 193/6/5
f 199/7/5 186/7/5 185/7/5
f 200/6/5 130/6/5 186/6/5
f 200/7/5 186/7/5 199/7/5
f 201/6/5 193/6/5 191/6/5
f 201/6/5 199/6/5 193/6/5
f 201/6/5 200/6/5 199/6/5
f 201/6/5 191/6/5 187/6/5
f 202/6/5 200/6/5 201/6/5
f 203/6/5 200/6/5 202/6/5
f 204/6/5 200/6/5 203/6/5
f 205/6/5 203/6/5 202/6/5
f 206/6/5 203/6/5 205/6/5
f 207/6/5 200/6/5 204/6/5
f 208/6/5 200/6/5 207/6/5
f 209/6/5 203/6/5 206/6/5
f 209/5/5 204/5/5 203/5/5
f 210/6/5 207/6/5 204/6/5
f 210/5/5 204/5/5 209/5/5
f 211/7/5 196/7/5 195/7/5
f 211/6/5 195/6/5 181/6/5
f 212/6/5 197/6/5 196/6/5
f 212/7/5 196/7/5 211/7/5
f 212/6/5 198/6/5 197/6/5
f 213/6/5 201/6/5 187/6/5
f 213/7/5 202/7/5 201/7/5
f 214/6/5 205/6/5 202/6/5
f 214/7/5 202/7/5 213/7/5
f 215/6/5 207/6/5 210/6/5
f 215/6/5 210/6/5 209/6/5
f 215/8/5 208/8/5 207/8/5
f 216/6/5 200/6/5 208/6/5
f 216/8/5 208/8/5 215/8/5
f 217/6/5 205/6/5 214/6/5
f 217/6/5 214/6/5 213/6/5
f 217/8/5 206/8/5 205/8/5
f 218/6/5 209/6/5 206/6/5
f 218/8/5 206/8/5 217/8/5
f 218/6/5 216/6/5 215/6/5
f 218/6/5 215/6/5 209/6/5
f 219/6/5 211/6/5 181/6/5
f 219/6/5 181/6/5 151/6/5
f 219/6/5 151/6/5 127/6/5
f 219/6/5 212/6/5 211/6/5
f 220/4/5 124/4/5 128/4/5
f 220/6/5 212/6/5 219/6/5
f 220/6/5 128/6/5 198/6/5
f 220/6/5 198/6/5 212/6/5
f 221/2/5 125/2/5 124/2/5
f 221/4/5 124/4/5 220/4/5
f 222/4/5 129/4/5 125/4/5
f 222/2/5 125/2/5 221/2/5
f 223/6/5 187/6/5 129/6/5
f 223/4/5 129/4/5 222/4/5
f 223/6/5 218/6/5 217/6/5
f 223/6/5 213/6/5 187/6/5
f 223/6/5 217/6/5 213/6/5
f 224/6/5 200/6/5 216/6/5
f 224/6/5 218/6/5 223/6/5
f 224/6/5 130/6/5 200/6/5
f 224/6/5 216/6/5 218/6/5
f 229/6/6 230/6/6 231/6/6
f 231/6/6 230/6/6 232/6/6
f 232/6/6 230/6/6 233/6/6
f 233/6/6 230/6/6 234/6/6
f 232/6/6 233/6/6 235/6/6
f 235/6/6 233/6/6 236/6/6
f 225/6/6 226/6/6 237/6/6
f 237/6/6 226/6/6 238/6/6
f 238/6/6 226/6/6 239/6/6
f 239/6/6 226/6/6 240/6/6
f 238/6/6 239/6/6 241/6/6
f 239/1/6 240/1/6 241/1/6
f 240/6/6 226/6/6 242/6/6
f 241/1/6 240/1/6 242/1/6
f 232/6/6 235/6/6 243/6/6
f 235/7/6 236/7/6 243/7/6
f 236/6/6 233/6/6 244/6/6
f 243/7/6 236/7/6 244/7/6
f 242/6/6 226/6/6 245/6/6
f 241/6/6 242/6/6 245/6/6
f 245/6/6 226/6/6 246/6/6
f 229/6/6 231/6/6 247/6/6
f 231/5/6 232/5/6 247/5/6
f 232/6/6 243/6/6 248/6/6
f 247/5/6 232/5/6 248/5/6
f 243/6/6 244/6/6 248/6/6
f 233/1/6 234/1/6 249/1/6
f 248/6/6 244/6/6 249/6/6
f 244/6/6 233/6/6 249/6/6
f 234/6/6 230/6/6 250/6/6
f 249/1/6 234/1/6 250/1/6
f 225/6/6 237/6/6 251/6/6
f 237/5/6 238/5/6 251/5/6
f 238/6/6 241/6/6 252/6/6
f 251/5/6 238/5/6 252/5/6
f 241/6/6 245/6/6 252/6/6
f 252/6/6 245/6/6 253/6/6
f 253/6/6 245/6/6 254/6/6
f 248/6/6 249/6/6 255/6/6
f 247/6/6 248/6/6 255/6/6
f 249/6/6 250/6/6 255/6/6
f 255/6/6 250/6/6 256/6/6
f 256/6/6 250/6/6 257/6/6
f 250/6/6 230/6/6 258/6/6
f 257/6/6 250/6/6 258/6/6
f 253/7/6 254/7/6 259/7/6
f 252/6/6 253/6/6 259/6/6
f 251/6/6 252/6/6 259/6/6
f 254/6/6 245/6/6 260/6/6
f 259/7/6 254/7/6 260/7/6
f 245/3/6 246/3/6 261/3/6
f 260/6/6 245/6/6 261/6/6
f 246/6/6 226/6/6 262/6/6
f 261/3/6 246/3/6 262/3/6
f 247/6/6 255/6/6 263/6/6
f 263/6/6 255/6/6 264/6/6
f 247/6/6 263/6/6 265/6/6
f 263/7/6 264/7/6 265/7/6
f 264/6/6 255/6/6 266/6/6
f 265/7/6 264/7/6 266/7/6
f 260/6/6 261/6/6 267/6/6
f 259/6/6 260/6/6 267/6/6
f 251/6/6 259/6/6 267/6/6
f 225/6/6 251/6/6 267/6/6
f 261/6/6 262/6/6 267/6/6
f 267/6/6 262/6/6 268/6/6
f 257/7/6 258/7/6 269/7/6
f 256/6/6 257/6/6 269/6/6
f 258/6/6 230/6/6 270/6/6
f 269/7/6 258/7/6 270/7/6
f 268/6/6 262/6/6 271/6/6
f 271/6/6 262/6/6 272/6/6
f 266/6/6 255/6/6 273/6/6
f 265/6/6 266/6/6 273/6/6
f 255/3/6 256/3/6 273/3/6
f 256/6/6 269/6/6 274/6/6
f 273/3/6 256/3/6 274/3/6
f 269/6/6 270/6/6 274/6/6
f 229/6/6 247/6/6 275/6/6
f 247/6/6 265/6/6 275/6/6
f 273/6/6 274/6/6 275/6/6
f 265/6/6 273/6/6 275/6/6
f 275/6/6 274/6/6 276/6/6
f 274/6/6 270/6/6 277/6/6
f 276/6/6 274/6/6 277/6/6
f 277/6/6 270/6/6 278/6/6
f 276/6/6 277/6/6 279/6/6
f 279/6/6 277/6/6 280/6/6
f 271/8/6 272/8/6 281/8/6
f 268/6/6 271/6/6 281/6/6
f 272/6/6 262/6/6 282/6/6
f 281/8/6 272/8/6 282/8/6
f 225/6/6 267/6/6 283/6/6
f 267/9/6 268/9/6 283/9/6
f 268/6/6 281/6/6 284/6/6
f 283/9/6 268/9/6 284/9/6
f 281/6/6 282/6/6 284/6/6
f 275/8/6 276/8/6 285/8/6
f 229/6/6 275/6/6 285/6/6
f 276/6/6 279/6/6 286/6/6
f 285/8/6 276/8/6 286/8/6
f 280/6/6 277/6/6 287/6/6
f 277/9/6 278/9/6 287/9/6
f 278/6/6 270/6/6 288/6/6
f 287/9/6 278/9/6 288/9/6
f 286/6/6 279/6/6 289/6/6
f 279/7/6 280/7/6 289/7/6
f 285/6/6 286/6/6 289/6/6
f 287/6/6 288/6/6 290/6/6
f 289/7/6 280/7/6 290/7/6
f 280/6/6 287/6/6 290/6/6
f 225/6/6 283/6/6 291/6/6
f 283/6/6 284/6/6 291/6/6
f 284/6/6 282/6/6 292/6/6
f 291/6/6 284/6/6 292/6/6
f 226/4/6 227/4/6 292/4/6
f 282/6/6 262/6/6 292/6/6
f 262/6/6 226/6/6 292/6/6
f 289/6/6 290/6/6 293/6/6
f 228/4/6 229/4/6 293/4/6
f 229/6/6 285/6/6 293/6/6
f 285/6/6 289/6/6 293/6/6
f 290/6/6 288/6/6 294/6/6
f 293/6/6 290/6/6 294/6/6
f 288/6/6 270/6/6 294/6/6
f 270/6/6 230/6/6 294/6/6
f 291/4/6 292/4/6 295/4/6
f 292/4/6 227/4/6 296/4/6
f 295/4/6 292/4/6 296/4/6
f 227/2/6 228/2/6 296/2/6
f 293/4/6 294/4/6 297/4/6
f 296/2/6 228/2/6 297/2/6
f 228/4/6 293/4/6 297/4/6
f 297/4/6 294/4/6 298/4/6
f 295/2/6 296/2/6 299/2/6
f 296/2/6 297/2/6 299/2/6
f 297/2/6 298/2/6 299/2/6
f 299/2/6 298/2/6 300/2/6
f 300/2/6 298/2/6 301/2/6
f 301/2/6 298/2/6 302/2/6
f 299/4/6 300/4/6 303/4/6
f 303/4/6 300/4/6 304/4/6
f 301/4/6 302/4/6 305/4/6
f 305/4/6 302/4/6 306/4/6
f 305/6/6 306/6/6 307/6/6
f 307/6/6 306/6/6 308/6/6
f 308/6/6 306/6/6 309/6/6
f 309/6/6 306/6/6 310/6/6
f 303/6/6 304/6/6 311/6/6
f 311/6/6 304/6/6 312/6/6
f 305/6/6 307/6/6 313/6/6
f 307/7/6 308/7/6 313/7/6
f 308/6/6 309/6/6 314/6/6
f 313/7/6 308/7/6 314/7/6
f 310/6/6 306/6/6 315/6/6
f 315/6/6 306/6/6 316/6/6
f 310/6/6 315/6/6 317/6/6
f 317/6/6 315/6/6 318/6/6
f 312/6/6 304/6/6 319/6/6
f 319/6/6 304/6/6 320/6/6
f 314/6/6 309/6/6 321/6/6
f 309/3/6 310/3/6 321/3/6
f 313/6/6 314/6/6 321/6/6
f 310/6/6 317/6/6 322/6/6
f 321/3/6 310/3/6 322/3/6
f 318/6/6 315/6/6 323/6/6
f 315/9/6 316/9/6 323/9/6
f 316/6/6 306/6/6 324/6/6
f 323/9/6 316/9/6 324/9/6
f 318/6/6 323/6/6 325/6/6
f 323/6/6 324/6/6 325/6/6
f 325/6/6 324/6/6 326/6/6
f 311/3/6 312/3/6 327/3/6
f 303/6/6 311/6/6 327/6/6
f 312/6/6 319/6/6 328/6/6
f 327/3/6 312/3/6 328/3/6
f 322/6/6 317/6/6 329/6/6
f 321/6/6 322/6/6 329/6/6
f 317/7/6 318/7/6 329/7/6
f 318/6/6 325/6/6 330/6/6
f 329/7/6 318/7/6 330/7/6
f 328/6/6 319/6/6 331/6/6
f 319/1/6 320/1/6 331/1/6
f 327/6/6 328/6/6 331/6/6
f 320/6/6 304/6/6 332/6/6
f 331/1/6 320/1/6 332/1/6
f 329/6/6 330/6/6 333/6/6
f 321/6/6 329/6/6 333/6/6
f 313/6/6 321/6/6 333/6/6
f 333/6/6 330/6/6 334/6/6
f 330/6/6 325/6/6 335/6/6
f 334/6/6 330/6/6 335/6/6
f 325/5/6 326/5/6 335/5/6
f 326/6/6 324/6/6 336/6/6
f 335/5/6 326/5/6 336/5/6
f 327/6/6 331/6/6 337/6/6
f 331/6/6 332/6/6 337/6/6
f 337/6/6 332/6/6 338/6/6
f 334/6/6 335/6/6 339/6/6
f 335/6/6 336/6/6 339/6/6
f 336/6/6 324/6/6 340/6/6
f 339/6/6 336/6/6 340/6/6
f 324/6/6 306/6/6 340/6/6
f 334/6/6 339/6/6 341/6/6
f 341/6/6 339/6/6 342/6/6
f 333/5/6 334/5/6 343/5/6
f 313/6/6 333/6/6 343/6/6
f 334/6/6 341/6/6 344/6/6
f 343/5/6 334/5/6 344/5/6
f 327/6/6 337/6/6 345/6/6
f 345/6/6 337/6/6 346/6/6
f 338/6/6 332/6/6 347/6/6
f 332/6/6 304/6/6 348/6/6
f 347/6/6 332/6/6 348/6/6
f 305/6/6 313/6/6 349/6/6
f 313/6/6 343/6/6 349/6/6
f 343/6/6 344/6/6 349/6/6
f 349/6/6 344/6/6 350/6/6
f 342/6/6 339/6/6 351/6/6
f 339/9/6 340/9/6 351/9/6
f 340/6/6 306/6/6 352/6/6
f 351/9/6 340/9/6 352/9/6
f 346/6/6 337/6/6 353/6/6
f 337/9/6 338/9/6 353/9/6
f 338/6/6 347/6/6 354/6/6
f 353/9/6 338/9/6 354/9/6
f 350/6/6 344/6/6 355/6/6
f 341/3/6 342/3/6 355/3/6
f 344/6/6 341/6/6 355/6/6
f 342/6/6 351/6/6 356/6/6
f 355/3/6 342/3/6 356/3/6
f 351/6/6 352/6/6 356/6/6
f 327/6/6 345/6/6 357/6/6
f 345/8/6 346/8/6 357/8/6
f 346/6/6 353/6/6 358/6/6
f 357/8/6 346/8/6 358/8/6
f 353/6/6 354/6/6 358/6/6
f 350/6/6 355/6/6 359/6/6
f 355/6/6 356/6/6 359/6/6
f 359/6/6 356/6/6 360/6/6
f 356/6/6 352/6/6 361/6/6
f 360/6/6 356/6/6 361/6/6
f 352/6/6 306/6/6 362/6/6
f 361/6/6 352/6/6 362/6/6
f 305/6/6 349/6/6 363/6/6
f 349/8/6 350/8/6 363/8/6
f 350/6/6 359/6/6 364/6/6
f 363/8/6 350/8/6 364/8/6
f 360/6/6 361/6/6 365/6/6
f 365/6/6 361/6/6 366/6/6
f 364/6/6 359/6/6 367/6/6
f 359/3/6 360/3/6 367/3/6
f 363/6/6 364/6/6 367/6/6
f 360/6/6 365/6/6 368/6/6
f 367/3/6 360/3/6 368/3/6
f 365/9/6 366/9/6 369/9/6
f 368/6/6 365/6/6 369/6/6
f 367/6/6 368/6/6 369/6/6
f 366/6/6 361/6/6 370/6/6
f 369/9/6 366/9/6 370/9/6
f 358/6/6 354/6/6 371/6/6
f 357/6/6 358/6/6 371/6/6
f 371/6/6 354/6/6 372/6/6
f 354/6/6 347/6/6 373/6/6
f 372/6/6 354/6/6 373/6/6
f 347/5/6 348/5/6 373/5/6
f 348/6/6 304/6/6 374/6/6
f 373/5/6 348/5/6 374/5/6
f 370/6/6 361/6/6 375/6/6
f 369/6/6 370/6/6 375/6/6
f 361/7/6 362/7/6 375/7/6
f 362/6/6 306/6/6 376/6/6
f 375/7/6 362/7/6 376/7/6
f 367/6/6 369/6/6 377/6/6
f 369/6/6 375/6/6 377/6/6
f 375/6/6 376/6/6 377/6/6
f 363/6/6 367/6/6 377/6/6
f 377/6/6 376/6/6 378/6/6
f 378/6/6 376/6/6 379/6/6
f 379/6/6 376/6/6 380/6/6
f 378/6/6 379/6/6 381/6/6
f 381/6/6 379/6/6 382/6/6
f 380/6/6 376/6/6 383/6/6
f 383/6/6 376/6/6 384/6/6
f 382/6/6 379/6/6 385/6/6
f 379/5/6 380/5/6 385/5/6
f 380/6/6 383/6/6 386/6/6
f 385/5/6 380/5/6 386/5/6
f 371/7/6 372/7/6 387/7/6
f 357/6/6 371/6/6 387/6/6
f 372/6/6 373/6/6 388/6/6
f 387/7/6 372/7/6 388/7/6
f 373/6/6 374/6/6 388/6/6
f 363/6/6 377/6/6 389/6/6
f 377/7/6 378/7/6 389/7/6
f 378/6/6 381/6/6 390/6/6
f 389/7/6 378/7/6 390/7/6
f 386/6/6 383/6/6 391/6/6
f 385/6/6 386/6/6 391/6/6
f 383/8/6 384/8/6 391/8/6
f 384/6/6 376/6/6 392/6/6
f 391/8/6 384/8/6 392/8/6
f 390/6/6 381/6/6 393/6/6
f 389/6/6 390/6/6 393/6/6
f 381/8/6 382/8/6 393/8/6
f 382/6/6 385/6/6 394/6/6
f 393/8/6 382/8/6 394/8/6
f 391/6/6 392/6/6 394/6/6
f 385/6/6 391/6/6 394/6/6
f 357/6/6 387/6/6 395/6/6
f 327/6/6 357/6/6 395/6/6
f 303/6/6 327/6/6 395/6/6
f 387/6/6 388/6/6 395/6/6
f 304/4/6 300/4/6 396/4/6
f 395/6/6 388/6/6 396/6/6
f 374/6/6 304/6/6 396/6/6
f 388/6/6 374/6/6 396/6/6
f 300/2/6 301/2/6 397/2/6
f 396/4/6 300/4/6 397/4/6
f 301/4/6 305/4/6 398/4/6
f 397/2/6 301/2/6 398/2/6
f 305/6/6 363/6/6 399/6/6
f 398/4/6 305/4/6 399/4/6
f 393/6/6 394/6/6 399/6/6
f 363/6/6 389/6/6 399/6/6
f 389/6/6 393/6/6 399/6/6
f 392/6/6 376/6/6 400/6/6
f 399/6/6 394/6/6 400/6/6
f 376/6/6 306/6/6 400/6/6
f 394/6/6 392/6/6 400/6/6
