# MagicaVoxel @ Ephtracy

# group
o 

# material
mtllib Pintu Cafetaria.mtl
usemtl palette

# normals
vn -1 0 0
vn 1 0 0
vn 0 0 1
vn 0 0 -1
vn 0 -1 0
vn 0 1 0

# texcoords
vt 0.958984 0.5
vt 0.982422 0.5
vt 0.986328 0.5
vt 0.994141 0.5

# verts
v -1.6 0 -0.4
v -1.6 0 -0.6
v -1.6 3.2 -0.4
v -1.6 3.2 -0.6
v -0.6 1.8 -0.4
v -0.6 1.8 -0.5
v -0.6 1.9 -0.4
v -0.6 1.9 -0.5
v -0.4 1.7 -0.4
v -0.4 1.7 -0.5
v -0.4 1.8 -0.4
v -0.4 1.8 -0.5
v 0 1.7 -0.4
v 0 1.7 -0.5
v 0 1.9 -0.4
v 0 1.9 -0.5
v 1.2 0 -0.4
v 1.2 0 -0.5
v 1.2 3.1 -0.4
v 1.2 3.1 -0.5
v -1.5 0 -0.4
v -1.5 0 -0.5
v -1.5 3.1 -0.4
v -1.5 3.1 -0.5
v -0.3 1.7 -0.4
v -0.3 1.7 -0.5
v -0.3 1.9 -0.4
v -0.3 1.9 -0.5
v 0.1 1.7 -0.4
v 0.1 1.7 -0.5
v 0.1 1.8 -0.4
v 0.1 1.8 -0.5
v 0.3 1.8 -0.4
v 0.3 1.8 -0.5
v 0.3 1.9 -0.4
v 0.3 1.9 -0.5
v 1.3 0 -0.4
v 1.3 0 -0.6
v 1.3 3.2 -0.4
v 1.3 3.2 -0.6
v -1.6 0 -0.4
v -1.6 3.2 -0.4
v -1.5 0 -0.4
v -1.5 3.1 -0.4
v -0.6 1.8 -0.4
v -0.6 1.9 -0.4
v -0.4 1.7 -0.4
v -0.4 1.8 -0.4
v -0.3 1.7 -0.4
v -0.3 1.9 -0.4
v 0 1.7 -0.4
v 0 1.9 -0.4
v 0.1 1.7 -0.4
v 0.1 1.8 -0.4
v 0.3 1.8 -0.4
v 0.3 1.9 -0.4
v 1.2 0 -0.4
v 1.2 3.1 -0.4
v 1.3 0 -0.4
v 1.3 3.2 -0.4
v -1.5 0 -0.5
v -1.5 3.1 -0.5
v -0.6 1.8 -0.5
v -0.6 1.9 -0.5
v -0.4 1.7 -0.5
v -0.4 1.8 -0.5
v -0.3 1.7 -0.5
v -0.3 1.9 -0.5
v -0.2 0 -0.5
v -0.2 3.1 -0.5
v -0.1 0 -0.5
v -0.1 3.1 -0.5
v 0 1.7 -0.5
v 0 1.9 -0.5
v 0.1 1.7 -0.5
v 0.1 1.8 -0.5
v 0.3 1.8 -0.5
v 0.3 1.9 -0.5
v 1.2 0 -0.5
v 1.2 3.1 -0.5
v -1.6 0 -0.6
v -1.6 3.2 -0.6
v -1.5 0 -0.6
v -1.5 3.1 -0.6
v -0.2 0 -0.6
v -0.2 3.1 -0.6
v -0.1 0 -0.6
v -0.1 3.1 -0.6
v 1.2 0 -0.6
v 1.2 3.1 -0.6
v 1.3 0 -0.6
v 1.3 3.2 -0.6
v -1.6 0 -0.4
v -1.5 0 -0.4
v 1.2 0 -0.4
v 1.3 0 -0.4
v -1.5 0 -0.5
v -0.2 0 -0.5
v -0.1 0 -0.5
v 1.2 0 -0.5
v -1.6 0 -0.6
v -1.5 0 -0.6
v -0.2 0 -0.6
v -0.1 0 -0.6
v 1.2 0 -0.6
v 1.3 0 -0.6
v -0.4 1.7 -0.4
v -0.3 1.7 -0.4
v 0 1.7 -0.4
v 0.1 1.7 -0.4
v -0.4 1.7 -0.5
v -0.3 1.7 -0.5
v 0 1.7 -0.5
v 0.1 1.7 -0.5
v -0.6 1.8 -0.4
v -0.4 1.8 -0.4
v 0.1 1.8 -0.4
v 0.3 1.8 -0.4
v -0.6 1.8 -0.5
v -0.4 1.8 -0.5
v 0.1 1.8 -0.5
v 0.3 1.8 -0.5
v -1.5 3.1 -0.4
v 1.2 3.1 -0.4
v -1.5 3.1 -0.5
v -0.2 3.1 -0.5
v -0.1 3.1 -0.5
v 1.2 3.1 -0.5
v -0.6 1.9 -0.4
v -0.3 1.9 -0.4
v 0 1.9 -0.4
v 0.3 1.9 -0.4
v -0.6 1.9 -0.5
v -0.3 1.9 -0.5
v 0 1.9 -0.5
v 0.3 1.9 -0.5
v -1.6 3.2 -0.4
v 1.3 3.2 -0.4
v -1.6 3.2 -0.6
v 1.3 3.2 -0.6

# faces
f 3/4/1 2/4/1 1/4/1
f 4/4/1 2/4/1 3/4/1
f 7/1/1 6/1/1 5/1/1
f 8/1/1 6/1/1 7/1/1
f 11/1/1 10/1/1 9/1/1
f 12/1/1 10/1/1 11/1/1
f 15/1/1 14/1/1 13/1/1
f 16/1/1 14/1/1 15/1/1
f 19/4/1 18/4/1 17/4/1
f 20/4/1 18/4/1 19/4/1
f 21/4/2 22/4/2 23/4/2
f 23/4/2 22/4/2 24/4/2
f 25/1/2 26/1/2 27/1/2
f 27/1/2 26/1/2 28/1/2
f 29/1/2 30/1/2 31/1/2
f 31/1/2 30/1/2 32/1/2
f 33/1/2 34/1/2 35/1/2
f 35/1/2 34/1/2 36/1/2
f 37/4/2 38/4/2 39/4/2
f 39/4/2 38/4/2 40/4/2
f 43/4/3 42/4/3 41/4/3
f 44/4/3 42/4/3 43/4/3
f 48/1/3 46/1/3 45/1/3
f 49/1/3 48/1/3 47/1/3
f 50/1/3 46/1/3 48/1/3
f 50/1/3 48/1/3 49/1/3
f 53/1/3 52/1/3 51/1/3
f 54/1/3 52/1/3 53/1/3
f 55/1/3 52/1/3 54/1/3
f 56/1/3 52/1/3 55/1/3
f 58/4/3 42/4/3 44/4/3
f 59/4/3 58/4/3 57/4/3
f 60/4/3 42/4/3 58/4/3
f 60/4/3 58/4/3 59/4/3
f 63/3/3 62/3/3 61/3/3
f 64/3/3 62/3/3 63/3/3
f 65/3/3 63/3/3 61/3/3
f 66/3/3 63/3/3 65/3/3
f 67/3/3 65/3/3 61/3/3
f 68/3/3 62/3/3 64/3/3
f 69/3/3 67/3/3 61/3/3
f 69/3/3 68/3/3 67/3/3
f 70/3/3 62/3/3 68/3/3
f 70/3/3 68/3/3 69/3/3
f 71/2/3 70/2/3 69/2/3
f 72/2/3 70/2/3 71/2/3
f 73/3/3 72/3/3 71/3/3
f 74/3/3 72/3/3 73/3/3
f 75/3/3 73/3/3 71/3/3
f 77/3/3 76/3/3 75/3/3
f 78/3/3 72/3/3 74/3/3
f 79/3/3 77/3/3 75/3/3
f 79/3/3 78/3/3 77/3/3
f 79/3/3 75/3/3 71/3/3
f 80/3/3 72/3/3 78/3/3
f 80/3/3 78/3/3 79/3/3
f 81/4/4 82/4/4 83/4/4
f 83/4/4 82/4/4 84/4/4
f 83/3/4 84/3/4 85/3/4
f 84/4/4 82/4/4 86/4/4
f 85/3/4 84/3/4 86/3/4
f 85/2/4 86/2/4 87/2/4
f 86/4/4 82/4/4 88/4/4
f 87/2/4 86/2/4 88/2/4
f 87/3/4 88/3/4 89/3/4
f 88/4/4 82/4/4 90/4/4
f 89/3/4 88/3/4 90/3/4
f 89/4/4 90/4/4 91/4/4
f 90/4/4 82/4/4 92/4/4
f 91/4/4 90/4/4 92/4/4
f 97/4/5 94/4/5 93/4/5
f 100/4/5 96/4/5 95/4/5
f 101/4/5 97/4/5 93/4/5
f 102/3/5 98/3/5 97/3/5
f 102/4/5 97/4/5 101/4/5
f 103/2/5 99/2/5 98/2/5
f 103/3/5 98/3/5 102/3/5
f 104/3/5 100/3/5 99/3/5
f 104/2/5 99/2/5 103/2/5
f 105/4/5 96/4/5 100/4/5
f 105/3/5 100/3/5 104/3/5
f 106/4/5 96/4/5 105/4/5
f 111/1/5 108/1/5 107/1/5
f 112/1/5 108/1/5 111/1/5
f 113/1/5 110/1/5 109/1/5
f 114/1/5 110/1/5 113/1/5
f 119/1/5 116/1/5 115/1/5
f 120/1/5 116/1/5 119/1/5
f 121/1/5 118/1/5 117/1/5
f 122/1/5 118/1/5 121/1/5
f 125/4/5 124/4/5 123/4/5
f 126/4/5 124/4/5 125/4/5
f 127/4/5 124/4/5 126/4/5
f 128/4/5 124/4/5 127/4/5
f 129/1/6 130/1/6 133/1/6
f 133/1/6 130/1/6 134/1/6
f 131/1/6 132/1/6 135/1/6
f 135/1/6 132/1/6 136/1/6
f 137/4/6 138/4/6 139/4/6
f 139/4/6 138/4/6 140/4/6
