# MagicaVoxel @ Ephtracy

# group
o 

# material
mtllib pintu kelas.mtl
usemtl palette

# normals
vn -1 0 0
vn 1 0 0
vn 0 0 1
vn 0 0 -1
vn 0 -1 0
vn 0 1 0

# texcoords
vt 0.306641 0.5
vt 0.310547 0.5
vt 0.349609 0.5

# verts
v -0.8 0 0.2
v -0.8 0 0
v -0.8 2.6 0.2
v -0.8 2.6 0
v -0.6 0.9 0.3
v -0.6 0.9 0.2
v -0.6 0.9 0
v -0.6 0.9 -0.1
v -0.6 1.1 0.3
v -0.6 1.1 0.2
v -0.6 1.1 0
v -0.6 1.1 -0.1
v 0.6 0.9 0.3
v 0.6 0.9 0.2
v 0.6 0.9 0
v 0.6 0.9 -0.1
v 0.6 1.1 0.3
v 0.6 1.1 0.2
v 0.6 1.1 0
v 0.6 1.1 -0.1
v 0.8 0 0.2
v 0.8 0 0
v 0.8 2.6 0.2
v 0.8 2.6 0
v -0.6 0.9 0.3
v -0.6 1.1 0.3
v 0.6 0.9 0.3
v 0.6 1.1 0.3
v -0.8 0 0.2
v -0.8 2.6 0.2
v -0.6 0.9 0.2
v -0.6 1.1 0.2
v -0.6 1.3 0.2
v -0.6 2.2 0.2
v 0.6 0.9 0.2
v 0.6 1.1 0.2
v 0.6 1.3 0.2
v 0.6 2.2 0.2
v 0.8 0 0.2
v 0.8 2.6 0.2
v -0.8 0 0
v -0.8 2.6 0
v -0.6 0.9 0
v -0.6 1.1 0
v -0.6 1.3 0
v -0.6 2.2 0
v 0.6 0.9 0
v 0.6 1.1 0
v 0.6 1.3 0
v 0.6 2.2 0
v 0.8 0 0
v 0.8 2.6 0
v -0.6 0.9 -0.1
v -0.6 1.1 -0.1
v 0.6 0.9 -0.1
v 0.6 1.1 -0.1
v -0.8 0 0.2
v 0.8 0 0.2
v -0.8 0 0
v 0.8 0 0
v -0.6 0.9 0.3
v 0.6 0.9 0.3
v -0.6 0.9 0.2
v 0.6 0.9 0.2
v -0.6 0.9 0
v 0.6 0.9 0
v -0.6 0.9 -0.1
v 0.6 0.9 -0.1
v -0.6 1.1 0.3
v 0.6 1.1 0.3
v -0.6 1.1 0.2
v 0.6 1.1 0.2
v -0.6 1.1 0
v 0.6 1.1 0
v -0.6 1.1 -0.1
v 0.6 1.1 -0.1
v -0.8 2.6 0.2
v 0.8 2.6 0.2
v -0.8 2.6 0
v 0.8 2.6 0

# faces
f 3/1/1 2/1/1 1/1/1
f 4/1/1 2/1/1 3/1/1
f 9/2/1 6/2/1 5/2/1
f 10/2/1 6/2/1 9/2/1
f 11/2/1 8/2/1 7/2/1
f 12/2/1 8/2/1 11/2/1
f 13/2/2 14/2/2 17/2/2
f 17/2/2 14/2/2 18/2/2
f 15/2/2 16/2/2 19/2/2
f 19/2/2 16/2/2 20/2/2
f 21/1/2 22/1/2 23/1/2
f 23/1/2 22/1/2 24/1/2
f 27/2/3 26/2/3 25/2/3
f 28/2/3 26/2/3 27/2/3
f 31/1/3 30/1/3 29/1/3
f 32/1/3 30/1/3 31/1/3
f 33/1/3 30/1/3 32/1/3
f 34/1/3 30/1/3 33/1/3
f 35/1/3 31/1/3 29/1/3
f 36/1/3 33/1/3 32/1/3
f 37/3/3 34/3/3 33/3/3
f 37/1/3 33/1/3 36/1/3
f 38/1/3 30/1/3 34/1/3
f 38/3/3 34/3/3 37/3/3
f 39/1/3 37/1/3 36/1/3
f 39/1/3 36/1/3 35/1/3
f 39/1/3 38/1/3 37/1/3
f 39/1/3 35/1/3 29/1/3
f 40/1/3 30/1/3 38/1/3
f 40/1/3 38/1/3 39/1/3
f 41/1/4 42/1/4 43/1/4
f 43/1/4 42/1/4 44/1/4
f 44/1/4 42/1/4 45/1/4
f 45/1/4 42/1/4 46/1/4
f 41/1/4 43/1/4 47/1/4
f 44/1/4 45/1/4 48/1/4
f 45/3/4 46/3/4 49/3/4
f 48/1/4 45/1/4 49/1/4
f 46/1/4 42/1/4 50/1/4
f 49/3/4 46/3/4 50/3/4
f 48/1/4 49/1/4 51/1/4
f 47/1/4 48/1/4 51/1/4
f 49/1/4 50/1/4 51/1/4
f 41/1/4 47/1/4 51/1/4
f 50/1/4 42/1/4 52/1/4
f 51/1/4 50/1/4 52/1/4
f 53/2/4 54/2/4 55/2/4
f 55/2/4 54/2/4 56/2/4
f 59/1/5 58/1/5 57/1/5
f 60/1/5 58/1/5 59/1/5
f 63/2/5 62/2/5 61/2/5
f 64/2/5 62/2/5 63/2/5
f 67/2/5 66/2/5 65/2/5
f 68/2/5 66/2/5 67/2/5
f 69/2/6 70/2/6 71/2/6
f 71/2/6 70/2/6 72/2/6
f 73/2/6 74/2/6 75/2/6
f 75/2/6 74/2/6 76/2/6
f 77/1/6 78/1/6 79/1/6
f 79/1/6 78/1/6 80/1/6
