# MagicaVoxel @ Ephtracy

# group
o 

# material
mtllib lantai_2_ceiling_lamp.mtl
usemtl palette

# normals
vn -1 0 0
vn 1 0 0
vn 0 0 1
vn 0 0 -1
vn 0 -1 0
vn 0 1 0

# texcoords
vt 0.169922 0.5
vt 0.173828 0.5
vt 0.302734 0.5
vt 0.306641 0.5

# verts
v -3.2 3.8 4.8
v -3.2 3.8 -4.8
v -3.2 4 4.8
v -3.2 4 -4.8
v -0.2 3.7 1.5
v -0.2 3.7 1.4
v -0.2 3.7 -1.4
v -0.2 3.7 -1.5
v -0.2 3.8 1.5
v -0.2 3.8 1.4
v -0.2 3.8 -1.4
v -0.2 3.8 -1.5
v -0.0999999 3.6 1.5
v -0.0999999 3.6 1.4
v -0.0999999 3.6 -1.4
v -0.0999999 3.6 -1.5
v -0.0999999 3.7 1.5
v -0.0999999 3.7 1.4
v -0.0999999 3.7 -1.4
v -0.0999999 3.7 -1.5
v 0.1 3.6 1.5
v 0.1 3.6 1.4
v 0.1 3.6 -1.4
v 0.1 3.6 -1.5
v 0.1 3.7 1.5
v 0.1 3.7 1.4
v 0.1 3.7 -1.4
v 0.1 3.7 -1.5
v 0.2 3.7 1.5
v 0.2 3.7 1.4
v 0.2 3.7 -1.4
v 0.2 3.7 -1.5
v 0.2 3.8 1.5
v 0.2 3.8 1.4
v 0.2 3.8 -1.4
v 0.2 3.8 -1.5
v 3.2 3.8 4.8
v 3.2 3.8 -4.8
v 3.2 4 4.8
v 3.2 4 -4.8
v -3.2 3.8 4.8
v -3.2 4 4.8
v 3.2 3.8 4.8
v 3.2 4 4.8
v -0.2 3.7 1.5
v -0.2 3.8 1.5
v -0.0999999 3.6 1.5
v -0.0999999 3.7 1.5
v 0.1 3.6 1.5
v 0.1 3.7 1.5
v 0.2 3.7 1.5
v 0.2 3.8 1.5
v -0.2 3.7 -1.5
v -0.2 3.8 -1.5
v -0.0999999 3.6 -1.5
v -0.0999999 3.7 -1.5
v 0.1 3.6 -1.5
v 0.1 3.7 -1.5
v 0.2 3.7 -1.5
v 0.2 3.8 -1.5
v -3.2 3.8 -4.8
v -3.2 4 -4.8
v 3.2 3.8 -4.8
v 3.2 4 -4.8
v -0.0999999 3.6 1.5
v 0.1 3.6 1.5
v -0.0999999 3.6 1.4
v 0.1 3.6 1.4
v -0.0999999 3.6 -1.4
v 0.1 3.6 -1.4
v -0.0999999 3.6 -1.5
v 0.1 3.6 -1.5
v -0.2 3.7 1.5
v -0.0999999 3.7 1.5
v 0.1 3.7 1.5
v 0.2 3.7 1.5
v -0.2 3.7 1.4
v -0.0999999 3.7 1.4
v 0.1 3.7 1.4
v 0.2 3.7 1.4
v -0.2 3.7 -1.4
v -0.0999999 3.7 -1.4
v 0.1 3.7 -1.4
v 0.2 3.7 -1.4
v -0.2 3.7 -1.5
v -0.0999999 3.7 -1.5
v 0.1 3.7 -1.5
v 0.2 3.7 -1.5
v -3.2 3.8 4.8
v 3.2 3.8 4.8
v -0.2 3.8 1.5
v 0.2 3.8 1.5
v -0.2 3.8 1.4
v 0.2 3.8 1.4
v -0.2 3.8 -1.4
v 0.2 3.8 -1.4
v -0.2 3.8 -1.5
v 0.2 3.8 -1.5
v -3.2 3.8 -4.8
v 3.2 3.8 -4.8
v -3.2 4 4.8
v 3.2 4 4.8
v -3.2 4 -4.8
v 3.2 4 -4.8

# faces
f 3/3/1 2/3/1 1/3/1
f 4/3/1 2/3/1 3/3/1
f 9/4/1 6/4/1 5/4/1
f 10/2/1 7/2/1 6/2/1
f 10/4/1 6/4/1 9/4/1
f 11/4/1 8/4/1 7/4/1
f 11/2/1 7/2/1 10/2/1
f 12/4/1 8/4/1 11/4/1
f 17/4/1 14/4/1 13/4/1
f 18/1/1 15/1/1 14/1/1
f 18/4/1 14/4/1 17/4/1
f 19/4/1 16/4/1 15/4/1
f 19/1/1 15/1/1 18/1/1
f 20/4/1 16/4/1 19/4/1
f 21/4/2 22/4/2 25/4/2
f 22/1/2 23/1/2 26/1/2
f 25/4/2 22/4/2 26/4/2
f 23/4/2 24/4/2 27/4/2
f 26/1/2 23/1/2 27/1/2
f 27/4/2 24/4/2 28/4/2
f 29/4/2 30/4/2 33/4/2
f 30/2/2 31/2/2 34/2/2
f 33/4/2 30/4/2 34/4/2
f 31/4/2 32/4/2 35/4/2
f 34/2/2 31/2/2 35/2/2
f 35/4/2 32/4/2 36/4/2
f 37/3/2 38/3/2 39/3/2
f 39/3/2 38/3/2 40/3/2
f 43/3/3 42/3/3 41/3/3
f 44/3/3 42/3/3 43/3/3
f 48/4/3 46/4/3 45/4/3
f 49/4/3 48/4/3 47/4/3
f 50/4/3 46/4/3 48/4/3
f 50/4/3 48/4/3 49/4/3
f 51/4/3 46/4/3 50/4/3
f 52/4/3 46/4/3 51/4/3
f 53/4/4 54/4/4 56/4/4
f 55/4/4 56/4/4 57/4/4
f 56/4/4 54/4/4 58/4/4
f 57/4/4 56/4/4 58/4/4
f 58/4/4 54/4/4 59/4/4
f 59/4/4 54/4/4 60/4/4
f 61/3/4 62/3/4 63/3/4
f 63/3/4 62/3/4 64/3/4
f 67/4/5 66/4/5 65/4/5
f 68/4/5 66/4/5 67/4/5
f 69/1/5 68/1/5 67/1/5
f 70/1/5 68/1/5 69/1/5
f 71/4/5 70/4/5 69/4/5
f 72/4/5 70/4/5 71/4/5
f 77/4/5 74/4/5 73/4/5
f 78/4/5 74/4/5 77/4/5
f 79/4/5 76/4/5 75/4/5
f 80/4/5 76/4/5 79/4/5
f 81/2/5 78/2/5 77/2/5
f 82/2/5 78/2/5 81/2/5
f 83/2/5 80/2/5 79/2/5
f 84/2/5 80/2/5 83/2/5
f 85/4/5 82/4/5 81/4/5
f 86/4/5 82/4/5 85/4/5
f 87/4/5 84/4/5 83/4/5
f 88/4/5 84/4/5 87/4/5
f 91/3/5 90/3/5 89/3/5
f 92/3/5 90/3/5 91/3/5
f 93/3/5 91/3/5 89/3/5
f 94/3/5 90/3/5 92/3/5
f 95/3/5 93/3/5 89/3/5
f 96/3/5 90/3/5 94/3/5
f 97/3/5 95/3/5 89/3/5
f 98/3/5 90/3/5 96/3/5
f 99/3/5 97/3/5 89/3/5
f 99/3/5 98/3/5 97/3/5
f 100/3/5 90/3/5 98/3/5
f 100/3/5 98/3/5 99/3/5
f 101/3/6 102/3/6 103/3/6
f 103/3/6 102/3/6 104/3/6
