# MagicaVoxel @ Ephtracy

# group
o 

# material
mtllib classroom_lantai_3_floor_kali_8.mtl
usemtl palette

# normals
vn -1 0 0
vn 1 0 0
vn 0 0 1
vn 0 0 -1
vn 0 -1 0
vn 0 1 0

# texcoords
vt 0.439453 0.5
vt 0.443359 0.5
vt 0.447266 0.5
vt 0.451172 0.5
vt 0.455078 0.5

# verts
v -1.6 -0.1 1.6
v -1.6 -0.1 0
v -1.6 -0.1 -0.1
v -1.6 -0.1 -0.2
v -1.6 -0.1 -0.3
v -1.6 -0.1 -0.4
v -1.6 -0.1 -0.5
v -1.6 -0.1 -0.6
v -1.6 -0.1 -0.7
v -1.6 -0.1 -0.8
v -1.6 -0.1 -0.9
v -1.6 -0.1 -1
v -1.6 -0.1 -1.1
v -1.6 -0.1 -1.2
v -1.6 -0.1 -1.3
v -1.6 -0.1 -1.4
v -1.6 -0.1 -1.5
v -1.6 -0.1 -1.6
v -1.6 0.1 1.6
v -1.6 0.1 0
v -1.6 0.1 -0.1
v -1.6 0.1 -0.2
v -1.6 0.1 -0.3
v -1.6 0.1 -0.4
v -1.6 0.1 -0.5
v -1.6 0.1 -0.6
v -1.6 0.1 -0.7
v -1.6 0.1 -0.8
v -1.6 0.1 -0.9
v -1.6 0.1 -1
v -1.6 0.1 -1.1
v -1.6 0.1 -1.2
v -1.6 0.1 -1.3
v -1.6 0.1 -1.4
v -1.6 0.1 -1.5
v -1.6 0.1 -1.6
v 1.6 -0.1 1.6
v 1.6 -0.1 1.5
v 1.6 -0.1 1.4
v 1.6 -0.1 1.3
v 1.6 -0.1 1.2
v 1.6 -0.1 1.1
v 1.6 -0.1 1
v 1.6 -0.1 0.9
v 1.6 -0.1 0.8
v 1.6 -0.1 0.7
v 1.6 -0.1 0.6
v 1.6 -0.1 0.5
v 1.6 -0.1 0.4
v 1.6 -0.1 0.3
v 1.6 -0.1 0.2
v 1.6 -0.1 0.1
v 1.6 -0.1 0
v 1.6 -0.1 -1.6
v 1.6 0.1 1.6
v 1.6 0.1 1.5
v 1.6 0.1 1.4
v 1.6 0.1 1.3
v 1.6 0.1 1.2
v 1.6 0.1 1.1
v 1.6 0.1 1
v 1.6 0.1 0.9
v 1.6 0.1 0.8
v 1.6 0.1 0.7
v 1.6 0.1 0.6
v 1.6 0.1 0.5
v 1.6 0.1 0.4
v 1.6 0.1 0.3
v 1.6 0.1 0.2
v 1.6 0.1 0.1
v 1.6 0.1 0
v 1.6 0.1 -1.6
v -1.6 -0.1 1.6
v -1.6 0.1 1.6
v -1.5 -0.1 1.6
v -1.5 0.1 1.6
v -1.4 -0.1 1.6
v -1.4 0.1 1.6
v -1.3 -0.1 1.6
v -1.3 0.1 1.6
v -1.2 -0.1 1.6
v -1.2 0.1 1.6
v -1.1 -0.1 1.6
v -1.1 0.1 1.6
v -1 -0.1 1.6
v -1 0.1 1.6
v -0.9 -0.1 1.6
v -0.9 0.1 1.6
v -0.8 -0.1 1.6
v -0.8 0.1 1.6
v -0.7 -0.1 1.6
v -0.7 0.1 1.6
v -0.6 -0.1 1.6
v -0.6 0.1 1.6
v -0.5 -0.1 1.6
v -0.5 0.1 1.6
v -0.4 -0.1 1.6
v -0.4 0.1 1.6
v -0.3 -0.1 1.6
v -0.3 0.1 1.6
v -0.2 -0.1 1.6
v -0.2 0.1 1.6
v -0.1 -0.1 1.6
v -0.1 0.1 1.6
v 0 -0.1 1.6
v 0 0.1 1.6
v 1.6 -0.1 1.6
v 1.6 0.1 1.6
v -1.6 -0.1 -1.6
v -1.6 0.1 -1.6
v 0 -0.1 -1.6
v 0 0.1 -1.6
v 0.1 -0.1 -1.6
v 0.1 0.1 -1.6
v 0.2 -0.1 -1.6
v 0.2 0.1 -1.6
v 0.3 -0.1 -1.6
v 0.3 0.1 -1.6
v 0.4 -0.1 -1.6
v 0.4 0.1 -1.6
v 0.5 -0.1 -1.6
v 0.5 0.1 -1.6
v 0.6 -0.1 -1.6
v 0.6 0.1 -1.6
v 0.7 -0.1 -1.6
v 0.7 0.1 -1.6
v 0.8 -0.1 -1.6
v 0.8 0.1 -1.6
v 0.9 -0.1 -1.6
v 0.9 0.1 -1.6
v 1 -0.1 -1.6
v 1 0.1 -1.6
v 1.1 -0.1 -1.6
v 1.1 0.1 -1.6
v 1.2 -0.1 -1.6
v 1.2 0.1 -1.6
v 1.3 -0.1 -1.6
v 1.3 0.1 -1.6
v 1.4 -0.1 -1.6
v 1.4 0.1 -1.6
v 1.5 -0.1 -1.6
v 1.5 0.1 -1.6
v 1.6 -0.1 -1.6
v 1.6 0.1 -1.6
v -1.6 -0.1 1.6
v -1.5 -0.1 1.6
v -1.4 -0.1 1.6
v -1.3 -0.1 1.6
v -1.2 -0.1 1.6
v -1.1 -0.1 1.6
v -1 -0.1 1.6
v -0.9 -0.1 1.6
v -0.8 -0.1 1.6
v -0.7 -0.1 1.6
v -0.6 -0.1 1.6
v -0.5 -0.1 1.6
v -0.4 -0.1 1.6
v -0.3 -0.1 1.6
v -0.2 -0.1 1.6
v -0.1 -0.1 1.6
v 0 -0.1 1.6
v 1.6 -0.1 1.6
v 0 -0.1 1.5
v 1.6 -0.1 1.5
v 0 -0.1 1.4
v 1.6 -0.1 1.4
v 0 -0.1 1.3
v 1.6 -0.1 1.3
v 0 -0.1 1.2
v 1.6 -0.1 1.2
v 0 -0.1 1.1
v 1.6 -0.1 1.1
v 0 -0.1 1
v 1.6 -0.1 1
v 0 -0.1 0.9
v 1.6 -0.1 0.9
v 0 -0.1 0.8
v 1.6 -0.1 0.8
v 0 -0.1 0.7
v 1.6 -0.1 0.7
v 0 -0.1 0.6
v 1.6 -0.1 0.6
v 0 -0.1 0.5
v 1.6 -0.1 0.5
v 0 -0.1 0.4
v 1.6 -0.1 0.4
v 0 -0.1 0.3
v 1.6 -0.1 0.3
v 0 -0.1 0.2
v 1.6 -0.1 0.2
v 0 -0.1 0.1
v 1.6 -0.1 0.1
v -1.6 -0.1 0
v -1.5 -0.1 0
v -1.4 -0.1 0
v -1.3 -0.1 0
v -1.2 -0.1 0
v -1.1 -0.1 0
v -1 -0.1 0
v -0.9 -0.1 0
v -0.8 -0.1 0
v -0.7 -0.1 0
v -0.6 -0.1 0
v -0.5 -0.1 0
v -0.4 -0.1 0
v -0.3 -0.1 0
v -0.2 -0.1 0
v -0.1 -0.1 0
v 0.1 -0.1 0
v 0.2 -0.1 0
v 0.3 -0.1 0
v 0.4 -0.1 0
v 0.5 -0.1 0
v 0.6 -0.1 0
v 0.7 -0.1 0
v 0.8 -0.1 0
v 0.9 -0.1 0
v 1 -0.1 0
v 1.1 -0.1 0
v 1.2 -0.1 0
v 1.3 -0.1 0
v 1.4 -0.1 0
v 1.5 -0.1 0
v 1.6 -0.1 0
v -1.6 -0.1 -0.1
v 0 -0.1 -0.1
v -1.6 -0.1 -0.2
v 0 -0.1 -0.2
v -1.6 -0.1 -0.3
v 0 -0.1 -0.3
v -1.6 -0.1 -0.4
v 0 -0.1 -0.4
v -1.6 -0.1 -0.5
v 0 -0.1 -0.5
v -1.6 -0.1 -0.6
v 0 -0.1 -0.6
v -1.6 -0.1 -0.7
v 0 -0.1 -0.7
v -1.6 -0.1 -0.8
v 0 -0.1 -0.8
v -1.6 -0.1 -0.9
v 0 -0.1 -0.9
v -1.6 -0.1 -1
v 0 -0.1 -1
v -1.6 -0.1 -1.1
v 0 -0.1 -1.1
v -1.6 -0.1 -1.2
v 0 -0.1 -1.2
v -1.6 -0.1 -1.3
v 0 -0.1 -1.3
v -1.6 -0.1 -1.4
v 0 -0.1 -1.4
v -1.6 -0.1 -1.5
v 0 -0.1 -1.5
v -1.6 -0.1 -1.6
v 0 -0.1 -1.6
v 0.1 -0.1 -1.6
v 0.2 -0.1 -1.6
v 0.3 -0.1 -1.6
v 0.4 -0.1 -1.6
v 0.5 -0.1 -1.6
v 0.6 -0.1 -1.6
v 0.7 -0.1 -1.6
v 0.8 -0.1 -1.6
v 0.9 -0.1 -1.6
v 1 -0.1 -1.6
v 1.1 -0.1 -1.6
v 1.2 -0.1 -1.6
v 1.3 -0.1 -1.6
v 1.4 -0.1 -1.6
v 1.5 -0.1 -1.6
v 1.6 -0.1 -1.6
v -1.6 0.1 1.6
v -1.5 0.1 1.6
v -1.4 0.1 1.6
v -1.3 0.1 1.6
v -1.2 0.1 1.6
v -1.1 0.1 1.6
v -1 0.1 1.6
v -0.9 0.1 1.6
v -0.8 0.1 1.6
v -0.7 0.1 1.6
v -0.6 0.1 1.6
v -0.5 0.1 1.6
v -0.4 0.1 1.6
v -0.3 0.1 1.6
v -0.2 0.1 1.6
v -0.1 0.1 1.6
v 0 0.1 1.6
v 1.6 0.1 1.6
v 0 0.1 1.5
v 1.6 0.1 1.5
v 0 0.1 1.4
v 1.6 0.1 1.4
v 0 0.1 1.3
v 1.6 0.1 1.3
v 0 0.1 1.2
v 1.6 0.1 1.2
v 0 0.1 1.1
v 1.6 0.1 1.1
v 0 0.1 1
v 1.6 0.1 1
v 0 0.1 0.9
v 1.6 0.1 0.9
v 0 0.1 0.8
v 1.6 0.1 0.8
v 0 0.1 0.7
v 1.6 0.1 0.7
v 0 0.1 0.6
v 1.6 0.1 0.6
v 0 0.1 0.5
v 1.6 0.1 0.5
v 0 0.1 0.4
v 1.6 0.1 0.4
v 0 0.1 0.3
v 1.6 0.1 0.3
v 0 0.1 0.2
v 1.6 0.1 0.2
v 0 0.1 0.1
v 1.6 0.1 0.1
v -1.6 0.1 0
v -1.5 0.1 0
v -1.4 0.1 0
v -1.3 0.1 0
v -1.2 0.1 0
v -1.1 0.1 0
v -1 0.1 0
v -0.9 0.1 0
v -0.8 0.1 0
v -0.7 0.1 0
v -0.6 0.1 0
v -0.5 0.1 0
v -0.4 0.1 0
v -0.3 0.1 0
v -0.2 0.1 0
v -0.1 0.1 0
v 0.1 0.1 0
v 0.2 0.1 0
v 0.3 0.1 0
v 0.4 0.1 0
v 0.5 0.1 0
v 0.6 0.1 0
v 0.7 0.1 0
v 0.8 0.1 0
v 0.9 0.1 0
v 1 0.1 0
v 1.1 0.1 0
v 1.2 0.1 0
v 1.3 0.1 0
v 1.4 0.1 0
v 1.5 0.1 0
v 1.6 0.1 0
v -1.6 0.1 -0.1
v 0 0.1 -0.1
v -1.6 0.1 -0.2
v 0 0.1 -0.2
v -1.6 0.1 -0.3
v 0 0.1 -0.3
v -1.6 0.1 -0.4
v 0 0.1 -0.4
v -1.6 0.1 -0.5
v 0 0.1 -0.5
v -1.6 0.1 -0.6
v 0 0.1 -0.6
v -1.6 0.1 -0.7
v 0 0.1 -0.7
v -1.6 0.1 -0.8
v 0 0.1 -0.8
v -1.6 0.1 -0.9
v 0 0.1 -0.9
v -1.6 0.1 -1
v 0 0.1 -1
v -1.6 0.1 -1.1
v 0 0.1 -1.1
v -1.6 0.1 -1.2
v 0 0.1 -1.2
v -1.6 0.1 -1.3
v 0 0.1 -1.3
v -1.6 0.1 -1.4
v 0 0.1 -1.4
v -1.6 0.1 -1.5
v 0 0.1 -1.5
v -1.6 0.1 -1.6
v 0 0.1 -1.6
v 0.1 0.1 -1.6
v 0.2 0.1 -1.6
v 0.3 0.1 -1.6
v 0.4 0.1 -1.6
v 0.5 0.1 -1.6
v 0.6 0.1 -1.6
v 0.7 0.1 -1.6
v 0.8 0.1 -1.6
v 0.9 0.1 -1.6
v 1 0.1 -1.6
v 1.1 0.1 -1.6
v 1.2 0.1 -1.6
v 1.3 0.1 -1.6
v 1.4 0.1 -1.6
v 1.5 0.1 -1.6
v 1.6 0.1 -1.6

# faces
f 19/4/1 2/4/1 1/4/1
f 20/1/1 3/1/1 2/1/1
f 20/4/1 2/4/1 19/4/1
f 21/3/1 4/3/1 3/3/1
f 21/1/1 3/1/1 20/1/1
f 22/2/1 5/2/1 4/2/1
f 22/3/1 4/3/1 21/3/1
f 23/1/1 6/1/1 5/1/1
f 23/2/1 5/2/1 22/2/1
f 24/4/1 7/4/1 6/4/1
f 24/1/1 6/1/1 23/1/1
f 25/3/1 8/3/1 7/3/1
f 25/4/1 7/4/1 24/4/1
f 26/5/1 9/5/1 8/5/1
f 26/3/1 8/3/1 25/3/1
f 27/1/1 10/1/1 9/1/1
f 27/5/1 9/5/1 26/5/1
f 28/2/1 11/2/1 10/2/1
f 28/1/1 10/1/1 27/1/1
f 29/4/1 12/4/1 11/4/1
f 29/2/1 11/2/1 28/2/1
f 30/5/1 13/5/1 12/5/1
f 30/4/1 12/4/1 29/4/1
f 31/3/1 14/3/1 13/3/1
f 31/5/1 13/5/1 30/5/1
f 32/4/1 15/4/1 14/4/1
f 32/3/1 14/3/1 31/3/1
f 33/2/1 16/2/1 15/2/1
f 33/4/1 15/4/1 32/4/1
f 34/1/1 17/1/1 16/1/1
f 34/2/1 16/2/1 33/2/1
f 35/3/1 18/3/1 17/3/1
f 35/1/1 17/1/1 34/1/1
f 36/3/1 18/3/1 35/3/1
f 37/3/2 38/3/2 55/3/2
f 38/1/2 39/1/2 56/1/2
f 55/3/2 38/3/2 56/3/2
f 39/2/2 40/2/2 57/2/2
f 56/1/2 39/1/2 57/1/2
f 40/4/2 41/4/2 58/4/2
f 57/2/2 40/2/2 58/2/2
f 41/3/2 42/3/2 59/3/2
f 58/4/2 41/4/2 59/4/2
f 42/5/2 43/5/2 60/5/2
f 59/3/2 42/3/2 60/3/2
f 43/4/2 44/4/2 61/4/2
f 60/5/2 43/5/2 61/5/2
f 44/2/2 45/2/2 62/2/2
f 61/4/2 44/4/2 62/4/2
f 45/1/2 46/1/2 63/1/2
f 62/2/2 45/2/2 63/2/2
f 46/5/2 47/5/2 64/5/2
f 63/1/2 46/1/2 64/1/2
f 47/3/2 48/3/2 65/3/2
f 64/5/2 47/5/2 65/5/2
f 48/4/2 49/4/2 66/4/2
f 65/3/2 48/3/2 66/3/2
f 49/1/2 50/1/2 67/1/2
f 66/4/2 49/4/2 67/4/2
f 50/2/2 51/2/2 68/2/2
f 67/1/2 50/1/2 68/1/2
f 51/3/2 52/3/2 69/3/2
f 68/2/2 51/2/2 69/2/2
f 52/1/2 53/1/2 70/1/2
f 69/3/2 52/3/2 70/3/2
f 53/3/2 54/3/2 71/3/2
f 70/1/2 53/1/2 71/1/2
f 71/3/2 54/3/2 72/3/2
f 75/4/3 74/4/3 73/4/3
f 76/4/3 74/4/3 75/4/3
f 77/3/3 76/3/3 75/3/3
f 78/3/3 76/3/3 77/3/3
f 79/1/3 78/1/3 77/1/3
f 80/1/3 78/1/3 79/1/3
f 81/2/3 80/2/3 79/2/3
f 82/2/3 80/2/3 81/2/3
f 83/3/3 82/3/3 81/3/3
f 84/3/3 82/3/3 83/3/3
f 85/4/3 84/4/3 83/4/3
f 86/4/3 84/4/3 85/4/3
f 87/5/3 86/5/3 85/5/3
f 88/5/3 86/5/3 87/5/3
f 89/4/3 88/4/3 87/4/3
f 90/4/3 88/4/3 89/4/3
f 91/3/3 90/3/3 89/3/3
f 92/3/3 90/3/3 91/3/3
f 93/2/3 92/2/3 91/2/3
f 94/2/3 92/2/3 93/2/3
f 95/1/3 94/1/3 93/1/3
f 96/1/3 94/1/3 95/1/3
f 97/4/3 96/4/3 95/4/3
f 98/4/3 96/4/3 97/4/3
f 99/5/3 98/5/3 97/5/3
f 100/5/3 98/5/3 99/5/3
f 101/4/3 100/4/3 99/4/3
f 102/4/3 100/4/3 101/4/3
f 103/3/3 102/3/3 101/3/3
f 104/3/3 102/3/3 103/3/3
f 105/1/3 104/1/3 103/1/3
f 106/1/3 104/1/3 105/1/3
f 107/3/3 106/3/3 105/3/3
f 108/3/3 106/3/3 107/3/3
f 109/3/4 110/3/4 111/3/4
f 111/3/4 110/3/4 112/3/4
f 111/1/4 112/1/4 113/1/4
f 113/1/4 112/1/4 114/1/4
f 113/4/4 114/4/4 115/4/4
f 115/4/4 114/4/4 116/4/4
f 115/3/4 116/3/4 117/3/4
f 117/3/4 116/3/4 118/3/4
f 117/1/4 118/1/4 119/1/4
f 119/1/4 118/1/4 120/1/4
f 119/2/4 120/2/4 121/2/4
f 121/2/4 120/2/4 122/2/4
f 121/3/4 122/3/4 123/3/4
f 123/3/4 122/3/4 124/3/4
f 123/4/4 124/4/4 125/4/4
f 125/4/4 124/4/4 126/4/4
f 125/5/4 126/5/4 127/5/4
f 127/5/4 126/5/4 128/5/4
f 127/4/4 128/4/4 129/4/4
f 129/4/4 128/4/4 130/4/4
f 129/3/4 130/3/4 131/3/4
f 131/3/4 130/3/4 132/3/4
f 131/2/4 132/2/4 133/2/4
f 133/2/4 132/2/4 134/2/4
f 133/1/4 134/1/4 135/1/4
f 135/1/4 134/1/4 136/1/4
f 135/4/4 136/4/4 137/4/4
f 137/4/4 136/4/4 138/4/4
f 137/5/4 138/5/4 139/5/4
f 139/5/4 138/5/4 140/5/4
f 139/4/4 140/4/4 141/4/4
f 141/4/4 140/4/4 142/4/4
f 141/3/4 142/3/4 143/3/4
f 143/3/4 142/3/4 144/3/4
f 163/1/5 161/1/5 160/1/5
f 163/3/5 162/3/5 161/3/5
f 164/3/5 162/3/5 163/3/5
f 165/1/5 163/1/5 160/1/5
f 165/1/5 164/1/5 163/1/5
f 166/1/5 164/1/5 165/1/5
f 167/1/5 165/1/5 160/1/5
f 167/2/5 166/2/5 165/2/5
f 168/2/5 166/2/5 167/2/5
f 169/1/5 167/1/5 160/1/5
f 169/4/5 168/4/5 167/4/5
f 170/4/5 168/4/5 169/4/5
f 171/1/5 169/1/5 160/1/5
f 171/3/5 170/3/5 169/3/5
f 172/3/5 170/3/5 171/3/5
f 173/1/5 171/1/5 160/1/5
f 173/5/5 172/5/5 171/5/5
f 174/5/5 172/5/5 173/5/5
f 175/1/5 173/1/5 160/1/5
f 175/4/5 174/4/5 173/4/5
f 176/4/5 174/4/5 175/4/5
f 177/1/5 175/1/5 160/1/5
f 177/2/5 176/2/5 175/2/5
f 178/2/5 176/2/5 177/2/5
f 179/1/5 177/1/5 160/1/5
f 179/1/5 178/1/5 177/1/5
f 180/1/5 178/1/5 179/1/5
f 181/1/5 179/1/5 160/1/5
f 181/5/5 180/5/5 179/5/5
f 182/5/5 180/5/5 181/5/5
f 183/1/5 181/1/5 160/1/5
f 183/3/5 182/3/5 181/3/5
f 184/3/5 182/3/5 183/3/5
f 185/1/5 183/1/5 160/1/5
f 185/4/5 184/4/5 183/4/5
f 186/4/5 184/4/5 185/4/5
f 187/1/5 185/1/5 160/1/5
f 187/1/5 186/1/5 185/1/5
f 188/1/5 186/1/5 187/1/5
f 189/1/5 187/1/5 160/1/5
f 189/2/5 188/2/5 187/2/5
f 190/2/5 188/2/5 189/2/5
f 191/1/5 189/1/5 160/1/5
f 191/3/5 190/3/5 189/3/5
f 192/3/5 190/3/5 191/3/5
f 193/4/5 146/4/5 145/4/5
f 194/3/5 147/3/5 146/3/5
f 194/4/5 146/4/5 193/4/5
f 195/1/5 148/1/5 147/1/5
f 195/3/5 147/3/5 194/3/5
f 196/2/5 149/2/5 148/2/5
f 196/1/5 148/1/5 195/1/5
f 197/3/5 150/3/5 149/3/5
f 197/2/5 149/2/5 196/2/5
f 198/4/5 151/4/5 150/4/5
f 198/3/5 150/3/5 197/3/5
f 199/5/5 152/5/5 151/5/5
f 199/4/5 151/4/5 198/4/5
f 200/4/5 153/4/5 152/4/5
f 200/5/5 152/5/5 199/5/5
f 201/3/5 154/3/5 153/3/5
f 201/4/5 153/4/5 200/4/5
f 202/2/5 155/2/5 154/2/5
f 202/3/5 154/3/5 201/3/5
f 203/1/5 156/1/5 155/1/5
f 203/2/5 155/2/5 202/2/5
f 204/4/5 157/4/5 156/4/5
f 204/1/5 156/1/5 203/1/5
f 205/5/5 158/5/5 157/5/5
f 205/4/5 157/4/5 204/4/5
f 206/4/5 159/4/5 158/4/5
f 206/5/5 158/5/5 205/5/5
f 207/3/5 160/3/5 159/3/5
f 207/4/5 159/4/5 206/4/5
f 208/1/5 191/1/5 160/1/5
f 208/3/5 160/3/5 207/3/5
f 208/1/5 192/1/5 191/1/5
f 209/1/5 192/1/5 208/1/5
f 210/1/5 192/1/5 209/1/5
f 211/1/5 192/1/5 210/1/5
f 212/1/5 192/1/5 211/1/5
f 213/1/5 192/1/5 212/1/5
f 214/1/5 192/1/5 213/1/5
f 215/1/5 192/1/5 214/1/5
f 216/1/5 192/1/5 215/1/5
f 217/1/5 192/1/5 216/1/5
f 218/1/5 192/1/5 217/1/5
f 219/1/5 192/1/5 218/1/5
f 220/1/5 192/1/5 219/1/5
f 221/1/5 192/1/5 220/1/5
f 222/1/5 192/1/5 221/1/5
f 223/1/5 192/1/5 222/1/5
f 224/1/5 192/1/5 223/1/5
f 225/1/5 194/1/5 193/1/5
f 225/1/5 195/1/5 194/1/5
f 225/1/5 196/1/5 195/1/5
f 225/1/5 197/1/5 196/1/5
f 225/1/5 198/1/5 197/1/5
f 225/1/5 199/1/5 198/1/5
f 225/1/5 200/1/5 199/1/5
f 225/1/5 201/1/5 200/1/5
f 225/1/5 202/1/5 201/1/5
f 225/1/5 203/1/5 202/1/5
f 225/1/5 204/1/5 203/1/5
f 225/1/5 205/1/5 204/1/5
f 225/1/5 206/1/5 205/1/5
f 225/1/5 207/1/5 206/1/5
f 225/1/5 208/1/5 207/1/5
f 225/1/5 209/1/5 208/1/5
f 226/1/5 209/1/5 225/1/5
f 227/3/5 226/3/5 225/3/5
f 228/1/5 209/1/5 226/1/5
f 228/3/5 226/3/5 227/3/5
f 229/2/5 228/2/5 227/2/5
f 230/1/5 209/1/5 228/1/5
f 230/2/5 228/2/5 229/2/5
f 231/1/5 230/1/5 229/1/5
f 232/1/5 209/1/5 230/1/5
f 232/1/5 230/1/5 231/1/5
f 233/4/5 232/4/5 231/4/5
f 234/1/5 209/1/5 232/1/5
f 234/4/5 232/4/5 233/4/5
f 235/3/5 234/3/5 233/3/5
f 236/1/5 209/1/5 234/1/5
f 236/3/5 234/3/5 235/3/5
f 237/5/5 236/5/5 235/5/5
f 238/1/5 209/1/5 236/1/5
f 238/5/5 236/5/5 237/5/5
f 239/1/5 238/1/5 237/1/5
f 240/1/5 209/1/5 238/1/5
f 240/1/5 238/1/5 239/1/5
f 241/2/5 240/2/5 239/2/5
f 242/1/5 209/1/5 240/1/5
f 242/2/5 240/2/5 241/2/5
f 243/4/5 242/4/5 241/4/5
f 244/1/5 209/1/5 242/1/5
f 244/4/5 242/4/5 243/4/5
f 245/5/5 244/5/5 243/5/5
f 246/1/5 209/1/5 244/1/5
f 246/5/5 244/5/5 245/5/5
f 247/3/5 246/3/5 245/3/5
f 248/1/5 209/1/5 246/1/5
f 248/3/5 246/3/5 247/3/5
f 249/4/5 248/4/5 247/4/5
f 250/1/5 209/1/5 248/1/5
f 250/4/5 248/4/5 249/4/5
f 251/2/5 250/2/5 249/2/5
f 252/1/5 209/1/5 250/1/5
f 252/2/5 250/2/5 251/2/5
f 253/1/5 252/1/5 251/1/5
f 254/1/5 209/1/5 252/1/5
f 254/1/5 252/1/5 253/1/5
f 255/3/5 254/3/5 253/3/5
f 256/1/5 209/1/5 254/1/5
f 256/3/5 254/3/5 255/3/5
f 257/4/5 210/4/5 209/4/5
f 257/1/5 209/1/5 256/1/5
f 258/3/5 211/3/5 210/3/5
f 258/4/5 210/4/5 257/4/5
f 259/1/5 212/1/5 211/1/5
f 259/3/5 211/3/5 258/3/5
f 260/2/5 213/2/5 212/2/5
f 260/1/5 212/1/5 259/1/5
f 261/3/5 214/3/5 213/3/5
f 261/2/5 213/2/5 260/2/5
f 262/4/5 215/4/5 214/4/5
f 262/3/5 214/3/5 261/3/5
f 263/5/5 216/5/5 215/5/5
f 263/4/5 215/4/5 262/4/5
f 264/4/5 217/4/5 216/4/5
f 264/5/5 216/5/5 263/5/5
f 265/3/5 218/3/5 217/3/5
f 265/4/5 217/4/5 264/4/5
f 266/2/5 219/2/5 218/2/5
f 266/3/5 218/3/5 265/3/5
f 267/1/5 220/1/5 219/1/5
f 267/2/5 219/2/5 266/2/5
f 268/4/5 221/4/5 220/4/5
f 268/1/5 220/1/5 267/1/5
f 269/5/5 222/5/5 221/5/5
f 269/4/5 221/4/5 268/4/5
f 270/4/5 223/4/5 222/4/5
f 270/5/5 222/5/5 269/5/5
f 271/3/5 224/3/5 223/3/5
f 271/4/5 223/4/5 270/4/5
f 272/3/5 224/3/5 271/3/5
f 288/1/6 289/1/6 291/1/6
f 289/3/6 290/3/6 291/3/6
f 291/3/6 290/3/6 292/3/6
f 288/1/6 291/1/6 293/1/6
f 291/1/6 292/1/6 293/1/6
f 293/1/6 292/1/6 294/1/6
f 288/1/6 293/1/6 295/1/6
f 293/2/6 294/2/6 295/2/6
f 295/2/6 294/2/6 296/2/6
f 288/1/6 295/1/6 297/1/6
f 295/4/6 296/4/6 297/4/6
f 297/4/6 296/4/6 298/4/6
f 288/1/6 297/1/6 299/1/6
f 297/3/6 298/3/6 299/3/6
f 299/3/6 298/3/6 300/3/6
f 288/1/6 299/1/6 301/1/6
f 299/5/6 300/5/6 301/5/6
f 301/5/6 300/5/6 302/5/6
f 288/1/6 301/1/6 303/1/6
f 301/4/6 302/4/6 303/4/6
f 303/4/6 302/4/6 304/4/6
f 288/1/6 303/1/6 305/1/6
f 303/2/6 304/2/6 305/2/6
f 305/2/6 304/2/6 306/2/6
f 288/1/6 305/1/6 307/1/6
f 305/1/6 306/1/6 307/1/6
f 307/1/6 306/1/6 308/1/6
f 288/1/6 307/1/6 309/1/6
f 307/5/6 308/5/6 309/5/6
f 309/5/6 308/5/6 310/5/6
f 288/1/6 309/1/6 311/1/6
f 309/3/6 310/3/6 311/3/6
f 311/3/6 310/3/6 312/3/6
f 288/1/6 311/1/6 313/1/6
f 311/4/6 312/4/6 313/4/6
f 313/4/6 312/4/6 314/4/6
f 288/1/6 313/1/6 315/1/6
f 313/1/6 314/1/6 315/1/6
f 315/1/6 314/1/6 316/1/6
f 288/1/6 315/1/6 317/1/6
f 315/2/6 316/2/6 317/2/6
f 317/2/6 316/2/6 318/2/6
f 288/1/6 317/1/6 319/1/6
f 317/3/6 318/3/6 319/3/6
f 319/3/6 318/3/6 320/3/6
f 273/4/6 274/4/6 321/4/6
f 274/3/6 275/3/6 322/3/6
f 321/4/6 274/4/6 322/4/6
f 275/1/6 276/1/6 323/1/6
f 322/3/6 275/3/6 323/3/6
f 276/2/6 277/2/6 324/2/6
f 323/1/6 276/1/6 324/1/6
f 277/3/6 278/3/6 325/3/6
f 324/2/6 277/2/6 325/2/6
f 278/4/6 279/4/6 326/4/6
f 325/3/6 278/3/6 326/3/6
f 279/5/6 280/5/6 327/5/6
f 326/4/6 279/4/6 327/4/6
f 280/4/6 281/4/6 328/4/6
f 327/5/6 280/5/6 328/5/6
f 281/3/6 282/3/6 329/3/6
f 328/4/6 281/4/6 329/4/6
f 282/2/6 283/2/6 330/2/6
f 329/3/6 282/3/6 330/3/6
f 283/1/6 284/1/6 331/1/6
f 330/2/6 283/2/6 331/2/6
f 284/4/6 285/4/6 332/4/6
f 331/1/6 284/1/6 332/1/6
f 285/5/6 286/5/6 333/5/6
f 332/4/6 285/4/6 333/4/6
f 286/4/6 287/4/6 334/4/6
f 333/5/6 286/5/6 334/5/6
f 287/3/6 288/3/6 335/3/6
f 334/4/6 287/4/6 335/4/6
f 288/1/6 319/1/6 336/1/6
f 335/3/6 288/3/6 336/3/6
f 319/1/6 320/1/6 336/1/6
f 336/1/6 320/1/6 337/1/6
f 337/1/6 320/1/6 338/1/6
f 338/1/6 320/1/6 339/1/6
f 339/1/6 320/1/6 340/1/6
f 340/1/6 320/1/6 341/1/6
f 341/1/6 320/1/6 342/1/6
f 342/1/6 320/1/6 343/1/6
f 343/1/6 320/1/6 344/1/6
f 344/1/6 320/1/6 345/1/6
f 345/1/6 320/1/6 346/1/6
f 346/1/6 320/1/6 347/1/6
f 347/1/6 320/1/6 348/1/6
f 348/1/6 320/1/6 349/1/6
f 349/1/6 320/1/6 350/1/6
f 350/1/6 320/1/6 351/1/6
f 351/1/6 320/1/6 352/1/6
f 321/1/6 322/1/6 353/1/6
f 322/1/6 323/1/6 353/1/6
f 323/1/6 324/1/6 353/1/6
f 324/1/6 325/1/6 353/1/6
f 325/1/6 326/1/6 353/1/6
f 326/1/6 327/1/6 353/1/6
f 327/1/6 328/1/6 353/1/6
f 328/1/6 329/1/6 353/1/6
f 329/1/6 330/1/6 353/1/6
f 330/1/6 331/1/6 353/1/6
f 331/1/6 332/1/6 353/1/6
f 332/1/6 333/1/6 353/1/6
f 333/1/6 334/1/6 353/1/6
f 334/1/6 335/1/6 353/1/6
f 335/1/6 336/1/6 353/1/6
f 336/1/6 337/1/6 353/1/6
f 353/1/6 337/1/6 354/1/6
f 353/3/6 354/3/6 355/3/6
f 354/1/6 337/1/6 356/1/6
f 355/3/6 354/3/6 356/3/6
f 355/2/6 356/2/6 357/2/6
f 356/1/6 337/1/6 358/1/6
f 357/2/6 356/2/6 358/2/6
f 357/1/6 358/1/6 359/1/6
f 358/1/6 337/1/6 360/1/6
f 359/1/6 358/1/6 360/1/6
f 359/4/6 360/4/6 361/4/6
f 360/1/6 337/1/6 362/1/6
f 361/4/6 360/4/6 362/4/6
f 361/3/6 362/3/6 363/3/6
f 362/1/6 337/1/6 364/1/6
f 363/3/6 362/3/6 364/3/6
f 363/5/6 364/5/6 365/5/6
f 364/1/6 337/1/6 366/1/6
f 365/5/6 364/5/6 366/5/6
f 365/1/6 366/1/6 367/1/6
f 366/1/6 337/1/6 368/1/6
f 367/1/6 366/1/6 368/1/6
f 367/2/6 368/2/6 369/2/6
f 368/1/6 337/1/6 370/1/6
f 369/2/6 368/2/6 370/2/6
f 369/4/6 370/4/6 371/4/6
f 370/1/6 337/1/6 372/1/6
f 371/4/6 370/4/6 372/4/6
f 371/5/6 372/5/6 373/5/6
f 372/1/6 337/1/6 374/1/6
f 373/5/6 372/5/6 374/5/6
f 373/3/6 374/3/6 375/3/6
f 374/1/6 337/1/6 376/1/6
f 375/3/6 374/3/6 376/3/6
f 375/4/6 376/4/6 377/4/6
f 376/1/6 337/1/6 378/1/6
f 377/4/6 376/4/6 378/4/6
f 377/2/6 378/2/6 379/2/6
f 378/1/6 337/1/6 380/1/6
f 379/2/6 378/2/6 380/2/6
f 379/1/6 380/1/6 381/1/6
f 380/1/6 337/1/6 382/1/6
f 381/1/6 380/1/6 382/1/6
f 381/3/6 382/3/6 383/3/6
f 382/1/6 337/1/6 384/1/6
f 383/3/6 382/3/6 384/3/6
f 337/4/6 338/4/6 385/4/6
f 384/1/6 337/1/6 385/1/6
f 338/3/6 339/3/6 386/3/6
f 385/4/6 338/4/6 386/4/6
f 339/1/6 340/1/6 387/1/6
f 386/3/6 339/3/6 387/3/6
f 340/2/6 341/2/6 388/2/6
f 387/1/6 340/1/6 388/1/6
f 341/3/6 342/3/6 389/3/6
f 388/2/6 341/2/6 389/2/6
f 342/4/6 343/4/6 390/4/6
f 389/3/6 342/3/6 390/3/6
f 343/5/6 344/5/6 391/5/6
f 390/4/6 343/4/6 391/4/6
f 344/4/6 345/4/6 392/4/6
f 391/5/6 344/5/6 392/5/6
f 345/3/6 346/3/6 393/3/6
f 392/4/6 345/4/6 393/4/6
f 346/2/6 347/2/6 394/2/6
f 393/3/6 346/3/6 394/3/6
f 347/1/6 348/1/6 395/1/6
f 394/2/6 347/2/6 395/2/6
f 348/4/6 349/4/6 396/4/6
f 395/1/6 348/1/6 396/1/6
f 349/5/6 350/5/6 397/5/6
f 396/4/6 349/4/6 397/4/6
f 350/4/6 351/4/6 398/4/6
f 397/5/6 350/5/6 398/5/6
f 351/3/6 352/3/6 399/3/6
f 398/4/6 351/4/6 399/4/6
f 399/3/6 352/3/6 400/3/6
