# MagicaVoxel @ Ephtracy

# group
o 

# material
mtllib inside_classroom_lantai_3_ceiling.mtl
usemtl palette

# normals
vn -1 0 0
vn 1 0 0
vn 0 0 1
vn 0 0 -1
vn 0 -1 0
vn 0 1 0

# texcoords
vt 0.169922 0.5
vt 0.302734 0.5
vt 0.310547 0.5
vt 0.349609 0.5

# verts
v -6.4 4.6 6.4
v -6.4 4.6 -6.4
v -6.4 4.8 6.4
v -6.4 4.8 -6.4
v -4 4.5 2.9
v -4 4.5 2.4
v -4 4.5 -2.4
v -4 4.5 -2.9
v -4 4.6 2.9
v -4 4.6 2.4
v -4 4.6 -2.4
v -4 4.6 -2.9
v -3.9 4.4 2.8
v -3.9 4.4 2.5
v -3.9 4.4 -2.5
v -3.9 4.4 -2.8
v -3.9 4.5 2.8
v -3.9 4.5 2.5
v -3.9 4.5 -2.5
v -3.9 4.5 -2.8
v 1.8 4.5 2.9
v 1.8 4.5 2.4
v 1.8 4.5 -2.4
v 1.8 4.5 -2.9
v 1.8 4.6 2.9
v 1.8 4.6 2.7
v 1.8 4.6 2.6
v 1.8 4.6 2.4
v 1.8 4.6 -2.4
v 1.8 4.6 -2.6
v 1.8 4.6 -2.7
v 1.8 4.6 -2.9
v 1.9 4.4 2.8
v 1.9 4.4 2.5
v 1.9 4.4 -2.5
v 1.9 4.4 -2.8
v 1.9 4.5 2.8
v 1.9 4.5 2.5
v 1.9 4.5 -2.5
v 1.9 4.5 -2.8
v -1.9 4.4 2.8
v -1.9 4.4 2.5
v -1.9 4.4 -2.5
v -1.9 4.4 -2.8
v -1.9 4.5 2.8
v -1.9 4.5 2.5
v -1.9 4.5 -2.5
v -1.9 4.5 -2.8
v -1.8 4.5 2.9
v -1.8 4.5 2.4
v -1.8 4.5 -2.4
v -1.8 4.5 -2.9
v -1.8 4.6 2.9
v -1.8 4.6 2.7
v -1.8 4.6 2.6
v -1.8 4.6 2.4
v -1.8 4.6 -2.4
v -1.8 4.6 -2.6
v -1.8 4.6 -2.7
v -1.8 4.6 -2.9
v 3.9 4.4 2.8
v 3.9 4.4 2.5
v 3.9 4.4 -2.5
v 3.9 4.4 -2.8
v 3.9 4.5 2.8
v 3.9 4.5 2.5
v 3.9 4.5 -2.5
v 3.9 4.5 -2.8
v 4 4.5 2.9
v 4 4.5 2.4
v 4 4.5 -2.4
v 4 4.5 -2.9
v 4 4.6 2.9
v 4 4.6 2.7
v 4 4.6 2.6
v 4 4.6 2.4
v 4 4.6 -2.4
v 4 4.6 -2.5
v 4 4.6 -2.6
v 4 4.6 -2.9
v 6.4 4.6 6.4
v 6.4 4.6 2.7
v 6.4 4.6 2.6
v 6.4 4.6 -2.5
v 6.4 4.6 -2.6
v 6.4 4.6 -6.4
v 6.4 4.7 2.7
v 6.4 4.7 2.6
v 6.4 4.7 -2.5
v 6.4 4.7 -2.6
v 6.4 4.8 6.4
v 6.4 4.8 -6.4
v -6.4 4.6 6.4
v -6.4 4.8 6.4
v 6.4 4.6 6.4
v 6.4 4.8 6.4
v -4 4.5 2.9
v -4 4.6 2.9
v -1.8 4.5 2.9
v -1.8 4.6 2.9
v 1.8 4.5 2.9
v 1.8 4.6 2.9
v 4 4.5 2.9
v 4 4.6 2.9
v -3.9 4.4 2.8
v -3.9 4.5 2.8
v -3.8 4.4 2.8
v -3.8 4.5 2.8
v -2 4.4 2.8
v -2 4.5 2.8
v -1.9 4.4 2.8
v -1.9 4.5 2.8
v 1.9 4.4 2.8
v 1.9 4.5 2.8
v 2 4.4 2.8
v 2 4.5 2.8
v 3.8 4.4 2.8
v 3.8 4.5 2.8
v 3.9 4.4 2.8
v 3.9 4.5 2.8
v -4 4.5 -2.4
v -4 4.6 -2.4
v -1.8 4.5 -2.4
v -1.8 4.6 -2.4
v 1.8 4.5 -2.4
v 1.8 4.6 -2.4
v 4 4.5 -2.4
v 4 4.6 -2.4
v -3.9 4.4 -2.5
v -3.9 4.5 -2.5
v -3.8 4.4 -2.5
v -3.8 4.5 -2.5
v -2 4.4 -2.5
v -2 4.5 -2.5
v -1.9 4.4 -2.5
v -1.9 4.5 -2.5
v 1.9 4.4 -2.5
v 1.9 4.5 -2.5
v 2 4.4 -2.5
v 2 4.5 -2.5
v 3.8 4.4 -2.5
v 3.8 4.5 -2.5
v 3.9 4.4 -2.5
v 3.9 4.5 -2.5
v -3.9 4.4 2.5
v -3.9 4.5 2.5
v -3.8 4.4 2.5
v -3.8 4.5 2.5
v -2 4.4 2.5
v -2 4.5 2.5
v -1.9 4.4 2.5
v -1.9 4.5 2.5
v 1.9 4.4 2.5
v 1.9 4.5 2.5
v 2 4.4 2.5
v 2 4.5 2.5
v 3.8 4.4 2.5
v 3.8 4.5 2.5
v 3.9 4.4 2.5
v 3.9 4.5 2.5
v -4 4.5 2.4
v -4 4.6 2.4
v -1.8 4.5 2.4
v -1.8 4.6 2.4
v 1.8 4.5 2.4
v 1.8 4.6 2.4
v 4 4.5 2.4
v 4 4.6 2.4
v -3.9 4.4 -2.8
v -3.9 4.5 -2.8
v -3.8 4.4 -2.8
v -3.8 4.5 -2.8
v -2 4.4 -2.8
v -2 4.5 -2.8
v -1.9 4.4 -2.8
v -1.9 4.5 -2.8
v 1.9 4.4 -2.8
v 1.9 4.5 -2.8
v 2 4.4 -2.8
v 2 4.5 -2.8
v 3.8 4.4 -2.8
v 3.8 4.5 -2.8
v 3.9 4.4 -2.8
v 3.9 4.5 -2.8
v -4 4.5 -2.9
v -4 4.6 -2.9
v -1.8 4.5 -2.9
v -1.8 4.6 -2.9
v 1.8 4.5 -2.9
v 1.8 4.6 -2.9
v 4 4.5 -2.9
v 4 4.6 -2.9
v -6.4 4.6 -6.4
v -6.4 4.8 -6.4
v 6.4 4.6 -6.4
v 6.4 4.8 -6.4
v -3.9 4.4 2.8
v -3.8 4.4 2.8
v -2 4.4 2.8
v -1.9 4.4 2.8
v 1.9 4.4 2.8
v 2 4.4 2.8
v 3.8 4.4 2.8
v 3.9 4.4 2.8
v -3.9 4.4 2.5
v -3.8 4.4 2.5
v -2 4.4 2.5
v -1.9 4.4 2.5
v 1.9 4.4 2.5
v 2 4.4 2.5
v 3.8 4.4 2.5
v 3.9 4.4 2.5
v -3.9 4.4 -2.5
v -3.8 4.4 -2.5
v -2 4.4 -2.5
v -1.9 4.4 -2.5
v 1.9 4.4 -2.5
v 2 4.4 -2.5
v 3.8 4.4 -2.5
v 3.9 4.4 -2.5
v -3.9 4.4 -2.8
v -3.8 4.4 -2.8
v -2 4.4 -2.8
v -1.9 4.4 -2.8
v 1.9 4.4 -2.8
v 2 4.4 -2.8
v 3.8 4.4 -2.8
v 3.9 4.4 -2.8
v -4 4.5 2.9
v -1.8 4.5 2.9
v 1.8 4.5 2.9
v 4 4.5 2.9
v -3.9 4.5 2.8
v -3.8 4.5 2.8
v -2 4.5 2.8
v -1.9 4.5 2.8
v 1.9 4.5 2.8
v 2 4.5 2.8
v 3.8 4.5 2.8
v 3.9 4.5 2.8
v -3.9 4.5 2.5
v -3.8 4.5 2.5
v -2 4.5 2.5
v -1.9 4.5 2.5
v 1.9 4.5 2.5
v 2 4.5 2.5
v 3.8 4.5 2.5
v 3.9 4.5 2.5
v -4 4.5 2.4
v -1.8 4.5 2.4
v 1.8 4.5 2.4
v 4 4.5 2.4
v -4 4.5 -2.4
v -1.8 4.5 -2.4
v 1.8 4.5 -2.4
v 4 4.5 -2.4
v -3.9 4.5 -2.5
v -3.8 4.5 -2.5
v -2 4.5 -2.5
v -1.9 4.5 -2.5
v 1.9 4.5 -2.5
v 2 4.5 -2.5
v 3.8 4.5 -2.5
v 3.9 4.5 -2.5
v -3.9 4.5 -2.8
v -3.8 4.5 -2.8
v -2 4.5 -2.8
v -1.9 4.5 -2.8
v 1.9 4.5 -2.8
v 2 4.5 -2.8
v 3.8 4.5 -2.8
v 3.9 4.5 -2.8
v -4 4.5 -2.9
v -1.8 4.5 -2.9
v 1.8 4.5 -2.9
v 4 4.5 -2.9
v -6.4 4.6 6.4
v 6.4 4.6 6.4
v -4 4.6 2.9
v -1.8 4.6 2.9
v 1.8 4.6 2.9
v 4 4.6 2.9
v -1.8 4.6 2.7
v 1.8 4.6 2.7
v 4 4.6 2.7
v 6.4 4.6 2.7
v -1.8 4.6 2.6
v 1.8 4.6 2.6
v 4 4.6 2.6
v 6.4 4.6 2.6
v -4 4.6 2.4
v -1.8 4.6 2.4
v 1.8 4.6 2.4
v 4 4.6 2.4
v -4 4.6 -2.4
v -1.8 4.6 -2.4
v 1.8 4.6 -2.4
v 4 4.6 -2.4
v 4 4.6 -2.5
v 6.4 4.6 -2.5
v -1.8 4.6 -2.6
v 1.8 4.6 -2.6
v 4 4.6 -2.6
v 6.4 4.6 -2.6
v -1.8 4.6 -2.7
v 1.8 4.6 -2.7
v -4 4.6 -2.9
v -1.8 4.6 -2.9
v 1.8 4.6 -2.9
v 4 4.6 -2.9
v -6.4 4.6 -6.4
v 6.4 4.6 -6.4
v -6.4 4.8 6.4
v 6.4 4.8 6.4
v -6.4 4.8 -6.4
v 6.4 4.8 -6.4

# faces
f 3/4/1 2/4/1 1/4/1
f 4/4/1 2/4/1 3/4/1
f 9/2/1 6/2/1 5/2/1
f 10/2/1 6/2/1 9/2/1
f 11/2/1 8/2/1 7/2/1
f 12/2/1 8/2/1 11/2/1
f 17/2/1 14/2/1 13/2/1
f 18/2/1 14/2/1 17/2/1
f 19/2/1 16/2/1 15/2/1
f 20/2/1 16/2/1 19/2/1
f 25/2/1 22/2/1 21/2/1
f 26/2/1 22/2/1 25/2/1
f 27/2/1 22/2/1 26/2/1
f 28/2/1 22/2/1 27/2/1
f 29/2/1 24/2/1 23/2/1
f 30/2/1 24/2/1 29/2/1
f 31/2/1 24/2/1 30/2/1
f 32/2/1 24/2/1 31/2/1
f 37/2/1 34/2/1 33/2/1
f 38/2/1 34/2/1 37/2/1
f 39/2/1 36/2/1 35/2/1
f 40/2/1 36/2/1 39/2/1
f 41/2/2 42/2/2 45/2/2
f 45/2/2 42/2/2 46/2/2
f 43/2/2 44/2/2 47/2/2
f 47/2/2 44/2/2 48/2/2
f 49/2/2 50/2/2 53/2/2
f 53/2/2 50/2/2 54/2/2
f 54/2/2 50/2/2 55/2/2
f 55/2/2 50/2/2 56/2/2
f 51/2/2 52/2/2 57/2/2
f 57/2/2 52/2/2 58/2/2
f 58/2/2 52/2/2 59/2/2
f 59/2/2 52/2/2 60/2/2
f 61/2/2 62/2/2 65/2/2
f 65/2/2 62/2/2 66/2/2
f 63/2/2 64/2/2 67/2/2
f 67/2/2 64/2/2 68/2/2
f 69/2/2 70/2/2 73/2/2
f 73/2/2 70/2/2 74/2/2
f 74/2/2 70/2/2 75/2/2
f 75/2/2 70/2/2 76/2/2
f 71/2/2 72/2/2 77/2/2
f 77/2/2 72/2/2 78/2/2
f 78/2/2 72/2/2 79/2/2
f 79/2/2 72/2/2 80/2/2
f 81/4/2 82/4/2 87/4/2
f 82/3/2 83/3/2 87/3/2
f 83/4/2 84/4/2 88/4/2
f 87/3/2 83/3/2 88/3/2
f 84/3/2 85/3/2 89/3/2
f 88/4/2 84/4/2 89/4/2
f 85/4/2 86/4/2 90/4/2
f 89/3/2 85/3/2 90/3/2
f 88/4/2 89/4/2 91/4/2
f 87/4/2 88/4/2 91/4/2
f 89/4/2 90/4/2 91/4/2
f 81/4/2 87/4/2 91/4/2
f 90/4/2 86/4/2 92/4/2
f 91/4/2 90/4/2 92/4/2
f 95/4/3 94/4/3 93/4/3
f 96/4/3 94/4/3 95/4/3
f 99/2/3 98/2/3 97/2/3
f 100/2/3 98/2/3 99/2/3
f 103/2/3 102/2/3 101/2/3
f 104/2/3 102/2/3 103/2/3
f 107/2/3 106/2/3 105/2/3
f 108/2/3 106/2/3 107/2/3
f 109/1/3 108/1/3 107/1/3
f 110/1/3 108/1/3 109/1/3
f 111/2/3 110/2/3 109/2/3
f 112/2/3 110/2/3 111/2/3
f 115/2/3 114/2/3 113/2/3
f 116/2/3 114/2/3 115/2/3
f 117/1/3 116/1/3 115/1/3
f 118/1/3 116/1/3 117/1/3
f 119/2/3 118/2/3 117/2/3
f 120/2/3 118/2/3 119/2/3
f 123/2/3 122/2/3 121/2/3
f 124/2/3 122/2/3 123/2/3
f 127/2/3 126/2/3 125/2/3
f 128/2/3 126/2/3 127/2/3
f 131/2/3 130/2/3 129/2/3
f 132/2/3 130/2/3 131/2/3
f 133/1/3 132/1/3 131/1/3
f 134/1/3 132/1/3 133/1/3
f 135/2/3 134/2/3 133/2/3
f 136/2/3 134/2/3 135/2/3
f 139/2/3 138/2/3 137/2/3
f 140/2/3 138/2/3 139/2/3
f 141/1/3 140/1/3 139/1/3
f 142/1/3 140/1/3 141/1/3
f 143/2/3 142/2/3 141/2/3
f 144/2/3 142/2/3 143/2/3
f 145/2/4 146/2/4 147/2/4
f 147/2/4 146/2/4 148/2/4
f 147/1/4 148/1/4 149/1/4
f 149/1/4 148/1/4 150/1/4
f 149/2/4 150/2/4 151/2/4
f 151/2/4 150/2/4 152/2/4
f 153/2/4 154/2/4 155/2/4
f 155/2/4 154/2/4 156/2/4
f 155/1/4 156/1/4 157/1/4
f 157/1/4 156/1/4 158/1/4
f 157/2/4 158/2/4 159/2/4
f 159/2/4 158/2/4 160/2/4
f 161/2/4 162/2/4 163/2/4
f 163/2/4 162/2/4 164/2/4
f 165/2/4 166/2/4 167/2/4
f 167/2/4 166/2/4 168/2/4
f 169/2/4 170/2/4 171/2/4
f 171/2/4 170/2/4 172/2/4
f 171/1/4 172/1/4 173/1/4
f 173/1/4 172/1/4 174/1/4
f 173/2/4 174/2/4 175/2/4
f 175/2/4 174/2/4 176/2/4
f 177/2/4 178/2/4 179/2/4
f 179/2/4 178/2/4 180/2/4
f 179/1/4 180/1/4 181/1/4
f 181/1/4 180/1/4 182/1/4
f 181/2/4 182/2/4 183/2/4
f 183/2/4 182/2/4 184/2/4
f 185/2/4 186/2/4 187/2/4
f 187/2/4 186/2/4 188/2/4
f 189/2/4 190/2/4 191/2/4
f 191/2/4 190/2/4 192/2/4
f 193/4/4 194/4/4 195/4/4
f 195/4/4 194/4/4 196/4/4
f 205/2/5 198/2/5 197/2/5
f 206/1/5 199/1/5 198/1/5
f 206/2/5 198/2/5 205/2/5
f 207/2/5 200/2/5 199/2/5
f 207/1/5 199/1/5 206/1/5
f 208/2/5 200/2/5 207/2/5
f 209/2/5 202/2/5 201/2/5
f 210/1/5 203/1/5 202/1/5
f 210/2/5 202/2/5 209/2/5
f 211/2/5 204/2/5 203/2/5
f 211/1/5 203/1/5 210/1/5
f 212/2/5 204/2/5 211/2/5
f 221/2/5 214/2/5 213/2/5
f 222/1/5 215/1/5 214/1/5
f 222/2/5 214/2/5 221/2/5
f 223/2/5 216/2/5 215/2/5
f 223/1/5 215/1/5 222/1/5
f 224/2/5 216/2/5 223/2/5
f 225/2/5 218/2/5 217/2/5
f 226/1/5 219/1/5 218/1/5
f 226/2/5 218/2/5 225/2/5
f 227/2/5 220/2/5 219/2/5
f 227/1/5 219/1/5 226/1/5
f 228/2/5 220/2/5 227/2/5
f 233/2/5 230/2/5 229/2/5
f 234/2/5 230/2/5 233/2/5
f 235/2/5 230/2/5 234/2/5
f 236/2/5 230/2/5 235/2/5
f 237/2/5 232/2/5 231/2/5
f 238/2/5 232/2/5 237/2/5
f 239/2/5 232/2/5 238/2/5
f 240/2/5 232/2/5 239/2/5
f 241/2/5 233/2/5 229/2/5
f 244/2/5 230/2/5 236/2/5
f 245/2/5 237/2/5 231/2/5
f 248/2/5 232/2/5 240/2/5
f 249/2/5 243/2/5 242/2/5
f 249/2/5 244/2/5 243/2/5
f 249/2/5 241/2/5 229/2/5
f 249/2/5 242/2/5 241/2/5
f 250/2/5 230/2/5 244/2/5
f 250/2/5 244/2/5 249/2/5
f 251/2/5 248/2/5 247/2/5
f 251/2/5 247/2/5 246/2/5
f 251/2/5 245/2/5 231/2/5
f 251/2/5 246/2/5 245/2/5
f 252/2/5 232/2/5 248/2/5
f 252/2/5 248/2/5 251/2/5
f 257/2/5 254/2/5 253/2/5
f 258/2/5 254/2/5 257/2/5
f 259/2/5 254/2/5 258/2/5
f 260/2/5 254/2/5 259/2/5
f 261/2/5 256/2/5 255/2/5
f 262/2/5 256/2/5 261/2/5
f 263/2/5 256/2/5 262/2/5
f 264/2/5 256/2/5 263/2/5
f 265/2/5 257/2/5 253/2/5
f 268/2/5 254/2/5 260/2/5
f 269/2/5 261/2/5 255/2/5
f 272/2/5 256/2/5 264/2/5
f 273/2/5 267/2/5 266/2/5
f 273/2/5 268/2/5 267/2/5
f 273/2/5 265/2/5 253/2/5
f 273/2/5 266/2/5 265/2/5
f 274/2/5 254/2/5 268/2/5
f 274/2/5 268/2/5 273/2/5
f 275/2/5 272/2/5 271/2/5
f 275/2/5 271/2/5 270/2/5
f 275/2/5 269/2/5 255/2/5
f 275/2/5 270/2/5 269/2/5
f 276/2/5 256/2/5 272/2/5
f 276/2/5 272/2/5 275/2/5
f 279/4/5 278/4/5 277/4/5
f 280/4/5 278/4/5 279/4/5
f 281/4/5 278/4/5 280/4/5
f 282/4/5 278/4/5 281/4/5
f 283/4/5 281/4/5 280/4/5
f 284/4/5 281/4/5 283/4/5
f 285/4/5 278/4/5 282/4/5
f 286/4/5 278/4/5 285/4/5
f 287/3/5 284/3/5 283/3/5
f 288/3/5 284/3/5 287/3/5
f 289/3/5 286/3/5 285/3/5
f 290/3/5 286/3/5 289/3/5
f 291/4/5 279/4/5 277/4/5
f 292/4/5 288/4/5 287/4/5
f 293/4/5 288/4/5 292/4/5
f 294/4/5 290/4/5 289/4/5
f 295/4/5 291/4/5 277/4/5
f 295/4/5 294/4/5 293/4/5
f 295/4/5 293/4/5 292/4/5
f 295/4/5 292/4/5 291/4/5
f 296/4/5 294/4/5 295/4/5
f 297/4/5 294/4/5 296/4/5
f 298/4/5 290/4/5 294/4/5
f 298/4/5 294/4/5 297/4/5
f 299/4/5 290/4/5 298/4/5
f 300/4/5 290/4/5 299/4/5
f 301/4/5 297/4/5 296/4/5
f 302/4/5 297/4/5 301/4/5
f 303/3/5 300/3/5 299/3/5
f 304/3/5 300/3/5 303/3/5
f 305/3/5 302/3/5 301/3/5
f 306/3/5 302/3/5 305/3/5
f 307/4/5 295/4/5 277/4/5
f 308/4/5 306/4/5 305/4/5
f 309/4/5 306/4/5 308/4/5
f 310/4/5 304/4/5 303/4/5
f 311/4/5 309/4/5 308/4/5
f 311/4/5 310/4/5 309/4/5
f 311/4/5 308/4/5 307/4/5
f 311/4/5 307/4/5 277/4/5
f 312/4/5 304/4/5 310/4/5
f 312/4/5 310/4/5 311/4/5
f 313/4/6 314/4/6 315/4/6
f 315/4/6 314/4/6 316/4/6
