# MagicaVoxel @ Ephtracy

# group
o 

# material
mtllib inside_classroom_lantai_3_window.mtl
usemtl palette

# normals
vn -1 0 0
vn 1 0 0
vn 0 0 1
vn 0 0 -1
vn 0 -1 0
vn 0 1 0

# texcoords
vt 0.349609 0.5
vt 0.728516 0.5

# verts
v -6.4 0 1.4
v -6.4 0 1.2
v -6.4 4 1.4
v -6.4 4 1.2
v -6.4 4.5 1.7
v -6.4 4.5 1.4
v -6.4 4.5 1.2
v -6.4 4.5 0.9
v -6.4 4.8 1.7
v -6.4 4.8 0.9
v -6.2 1.7 1.5
v -6.2 1.7 1.4
v -6.2 1.7 1.2
v -6.2 1.7 1.1
v -6.2 3.4 1.5
v -6.2 3.4 1.4
v -6.2 3.4 1.2
v -6.2 3.4 1.1
v -6.1 1.6 1.5
v -6.1 1.6 1.4
v -6.1 1.6 1.2
v -6.1 1.6 1.1
v -6.1 1.7 1.5
v -6.1 1.7 1.4
v -6.1 1.7 1.2
v -6.1 1.7 1.1
v -6.1 3.4 1.5
v -6.1 3.4 1.4
v -6.1 3.4 1.2
v -6.1 3.4 1.1
v -6.1 3.5 1.5
v -6.1 3.5 1.4
v -6.1 3.5 1.2
v -6.1 3.5 1.1
v -6 1.5 1.5
v -6 1.5 1.4
v -6 1.5 1.2
v -6 1.5 1.1
v -6 1.6 1.5
v -6 1.6 1.4
v -6 1.6 1.2
v -6 1.6 1.1
v -6 3.5 1.5
v -6 3.5 1.4
v -6 3.5 1.2
v -6 3.5 1.1
v -6 3.6 1.5
v -6 3.6 1.4
v -6 3.6 1.2
v -6 3.6 1.1
v -5.7 1.4 1.5
v -5.7 1.4 1.4
v -5.7 1.4 1.2
v -5.7 1.4 1.1
v -5.7 1.5 1.5
v -5.7 1.5 1.4
v -5.7 1.5 1.2
v -5.7 1.5 1.1
v -5.7 3.6 1.5
v -5.7 3.6 1.4
v -5.7 3.6 1.2
v -5.7 3.6 1.1
v -5.7 3.7 1.5
v -5.7 3.7 1.4
v -5.7 3.7 1.2
v -5.7 3.7 1.1
v -5.3 1.3 1.5
v -5.3 1.3 1.4
v -5.3 1.3 1.2
v -5.3 1.3 1.1
v -5.3 1.4 1.5
v -5.3 1.4 1.4
v -5.3 1.4 1.2
v -5.3 1.4 1.1
v -5.3 3.7 1.5
v -5.3 3.7 1.4
v -5.3 3.7 1.2
v -5.3 3.7 1.1
v -5.3 3.8 1.5
v -5.3 3.8 1.4
v -5.3 3.8 1.2
v -5.3 3.8 1.1
v -5 1.9 1.4
v -5 1.9 1.3
v -5 1.9 1.2
v -5 3.2 1.4
v -5 3.2 1.3
v -5 3.2 1.2
v -4.9 1.8 1.5
v -4.9 1.8 1.4
v -4.9 1.8 1.2
v -4.9 1.8 1.1
v -4.9 3.3 1.5
v -4.9 3.3 1.4
v -4.9 3.3 1.2
v -4.9 3.3 1.1
v -4.6 1.2 1.5
v -4.6 1.2 1.4
v -4.6 1.2 1.2
v -4.6 1.2 1.1
v -4.6 1.3 1.5
v -4.6 1.3 1.4
v -4.6 1.3 1.2
v -4.6 1.3 1.1
v -4.6 3.8 1.5
v -4.6 3.8 1.4
v -4.6 3.8 1.2
v -4.6 3.8 1.1
v -4.6 3.9 1.5
v -4.6 3.9 1.4
v -4.6 3.9 1.2
v -4.6 3.9 1.1
v -3.7 1.9 1.4
v -3.7 1.9 1.3
v -3.7 1.9 1.2
v -3.7 3.2 1.4
v -3.7 3.2 1.3
v -3.7 3.2 1.2
v -3.6 1.8 1.5
v -3.6 1.8 1.4
v -3.6 1.8 1.2
v -3.6 1.8 1.1
v -3.6 3.3 1.5
v -3.6 3.3 1.4
v -3.6 3.3 1.2
v -3.6 3.3 1.1
v -2.4 1.9 1.4
v -2.4 1.9 1.3
v -2.4 1.9 1.2
v -2.4 3.2 1.4
v -2.4 3.2 1.3
v -2.4 3.2 1.2
v -2.3 1.8 1.5
v -2.3 1.8 1.4
v -2.3 1.8 1.2
v -2.3 1.8 1.1
v -2.3 3.3 1.5
v -2.3 3.3 1.4
v -2.3 3.3 1.2
v -2.3 3.3 1.1
v -1.1 1.9 1.4
v -1.1 1.9 1.3
v -1.1 1.9 1.2
v -1.1 3.2 1.4
v -1.1 3.2 1.3
v -1.1 3.2 1.2
v -1 1.8 1.5
v -1 1.8 1.4
v -1 1.8 1.2
v -1 1.8 1.1
v -1 3.3 1.5
v -1 3.3 1.4
v -1 3.3 1.2
v -1 3.3 1.1
v -0.8 0 1.7
v -0.8 0 1.4
v -0.8 0 1.2
v -0.8 0 0.9
v -0.8 4 1.7
v -0.8 4 1.4
v -0.8 4 1.2
v -0.8 4 0.9
v -0.8 4.5 1.7
v -0.8 4.5 1.4
v -0.8 4.5 1.2
v -0.8 4.5 0.9
v 0.2 1.7 1.5
v 0.2 1.7 1.4
v 0.2 1.7 1.2
v 0.2 1.7 1.1
v 0.2 3.4 1.5
v 0.2 3.4 1.4
v 0.2 3.4 1.2
v 0.2 3.4 1.1
v 0.3 1.6 1.5
v 0.3 1.6 1.4
v 0.3 1.6 1.2
v 0.3 1.6 1.1
v 0.3 1.7 1.5
v 0.3 1.7 1.4
v 0.3 1.7 1.2
v 0.3 1.7 1.1
v 0.3 3.4 1.5
v 0.3 3.4 1.4
v 0.3 3.4 1.2
v 0.3 3.4 1.1
v 0.3 3.5 1.5
v 0.3 3.5 1.4
v 0.3 3.5 1.2
v 0.3 3.5 1.1
v 0.4 1.5 1.5
v 0.4 1.5 1.4
v 0.4 1.5 1.2
v 0.4 1.5 1.1
v 0.4 1.6 1.5
v 0.4 1.6 1.4
v 0.4 1.6 1.2
v 0.4 1.6 1.1
v 0.4 3.5 1.5
v 0.4 3.5 1.4
v 0.4 3.5 1.2
v 0.4 3.5 1.1
v 0.4 3.6 1.5
v 0.4 3.6 1.4
v 0.4 3.6 1.2
v 0.4 3.6 1.1
v 0.7 1.4 1.5
v 0.7 1.4 1.4
v 0.7 1.4 1.2
v 0.7 1.4 1.1
v 0.7 1.5 1.5
v 0.7 1.5 1.4
v 0.7 1.5 1.2
v 0.7 1.5 1.1
v 0.7 3.6 1.5
v 0.7 3.6 1.4
v 0.7 3.6 1.2
v 0.7 3.6 1.1
v 0.7 3.7 1.5
v 0.7 3.7 1.4
v 0.7 3.7 1.2
v 0.7 3.7 1.1
v 1.1 1.3 1.5
v 1.1 1.3 1.4
v 1.1 1.3 1.2
v 1.1 1.3 1.1
v 1.1 1.4 1.5
v 1.1 1.4 1.4
v 1.1 1.4 1.2
v 1.1 1.4 1.1
v 1.1 3.7 1.5
v 1.1 3.7 1.4
v 1.1 3.7 1.2
v 1.1 3.7 1.1
v 1.1 3.8 1.5
v 1.1 3.8 1.4
v 1.1 3.8 1.2
v 1.1 3.8 1.1
v 1.4 1.9 1.4
v 1.4 1.9 1.3
v 1.4 1.9 1.2
v 1.4 3.2 1.4
v 1.4 3.2 1.3
v 1.4 3.2 1.2
v 1.5 1.8 1.5
v 1.5 1.8 1.4
v 1.5 1.8 1.2
v 1.5 1.8 1.1
v 1.5 3.3 1.5
v 1.5 3.3 1.4
v 1.5 3.3 1.2
v 1.5 3.3 1.1
v 1.8 1.2 1.5
v 1.8 1.2 1.4
v 1.8 1.2 1.2
v 1.8 1.2 1.1
v 1.8 1.3 1.5
v 1.8 1.3 1.4
v 1.8 1.3 1.2
v 1.8 1.3 1.1
v 1.8 3.8 1.5
v 1.8 3.8 1.4
v 1.8 3.8 1.2
v 1.8 3.8 1.1
v 1.8 3.9 1.5
v 1.8 3.9 1.4
v 1.8 3.9 1.2
v 1.8 3.9 1.1
v 2.7 1.9 1.4
v 2.7 1.9 1.3
v 2.7 1.9 1.2
v 2.7 3.2 1.4
v 2.7 3.2 1.3
v 2.7 3.2 1.2
v 2.8 1.8 1.5
v 2.8 1.8 1.4
v 2.8 1.8 1.2
v 2.8 1.8 1.1
v 2.8 3.3 1.5
v 2.8 3.3 1.4
v 2.8 3.3 1.2
v 2.8 3.3 1.1
v 4 1.9 1.4
v 4 1.9 1.3
v 4 1.9 1.2
v 4 3.2 1.4
v 4 3.2 1.3
v 4 3.2 1.2
v 4.1 1.8 1.5
v 4.1 1.8 1.4
v 4.1 1.8 1.2
v 4.1 1.8 1.1
v 4.1 3.3 1.5
v 4.1 3.3 1.4
v 4.1 3.3 1.2
v 4.1 3.3 1.1
v 5.3 1.9 1.4
v 5.3 1.9 1.3
v 5.3 1.9 1.2
v 5.3 3.2 1.4
v 5.3 3.2 1.3
v 5.3 3.2 1.2
v 5.4 1.8 1.5
v 5.4 1.8 1.4
v 5.4 1.8 1.2
v 5.4 1.8 1.1
v 5.4 3.3 1.5
v 5.4 3.3 1.4
v 5.4 3.3 1.2
v 5.4 3.3 1.1
v 5.6 0 1.7
v 5.6 0 1.4
v 5.6 0 1.2
v 5.6 0 0.9
v 5.6 4 1.7
v 5.6 4 1.4
v 5.6 4 1.2
v 5.6 4 0.9
v 5.6 4.5 1.7
v 5.6 4.5 1.4
v 5.6 4.5 1.2
v 5.6 4.5 0.9
v -6.1 1.8 1.5
v -6.1 1.8 1.4
v -6.1 1.8 1.2
v -6.1 1.8 1.1
v -6.1 3.3 1.5
v -6.1 3.3 1.4
v -6.1 3.3 1.2
v -6.1 3.3 1.1
v -6 1.9 1.4
v -6 1.9 1.3
v -6 1.9 1.2
v -6 3.2 1.4
v -6 3.2 1.3
v -6 3.2 1.2
v -4.8 1.8 1.5
v -4.8 1.8 1.4
v -4.8 1.8 1.2
v -4.8 1.8 1.1
v -4.8 3.3 1.5
v -4.8 3.3 1.4
v -4.8 3.3 1.2
v -4.8 3.3 1.1
v -4.7 1.9 1.4
v -4.7 1.9 1.3
v -4.7 1.9 1.2
v -4.7 3.2 1.4
v -4.7 3.2 1.3
v -4.7 3.2 1.2
v -3.5 1.8 1.5
v -3.5 1.8 1.4
v -3.5 1.8 1.2
v -3.5 1.8 1.1
v -3.5 3.3 1.5
v -3.5 3.3 1.4
v -3.5 3.3 1.2
v -3.5 3.3 1.1
v -3.4 1.9 1.4
v -3.4 1.9 1.3
v -3.4 1.9 1.2
v -3.4 3.2 1.4
v -3.4 3.2 1.3
v -3.4 3.2 1.2
v -2.5 1.2 1.5
v -2.5 1.2 1.4
v -2.5 1.2 1.2
v -2.5 1.2 1.1
v -2.5 1.3 1.5
v -2.5 1.3 1.4
v -2.5 1.3 1.2
v -2.5 1.3 1.1
v -2.5 3.8 1.5
v -2.5 3.8 1.4
v -2.5 3.8 1.2
v -2.5 3.8 1.1
v -2.5 3.9 1.5
v -2.5 3.9 1.4
v -2.5 3.9 1.2
v -2.5 3.9 1.1
v -2.2 1.8 1.5
v -2.2 1.8 1.4
v -2.2 1.8 1.2
v -2.2 1.8 1.1
v -2.2 3.3 1.5
v -2.2 3.3 1.4
v -2.2 3.3 1.2
v -2.2 3.3 1.1
v -2.1 1.9 1.4
v -2.1 1.9 1.3
v -2.1 1.9 1.2
v -2.1 3.2 1.4
v -2.1 3.2 1.3
v -2.1 3.2 1.2
v -1.8 1.3 1.5
v -1.8 1.3 1.4
v -1.8 1.3 1.2
v -1.8 1.3 1.1
v -1.8 1.4 1.5
v -1.8 1.4 1.4
v -1.8 1.4 1.2
v -1.8 1.4 1.1
v -1.8 3.7 1.5
v -1.8 3.7 1.4
v -1.8 3.7 1.2
v -1.8 3.7 1.1
v -1.8 3.8 1.5
v -1.8 3.8 1.4
v -1.8 3.8 1.2
v -1.8 3.8 1.1
v -1.4 1.4 1.5
v -1.4 1.4 1.4
v -1.4 1.4 1.2
v -1.4 1.4 1.1
v -1.4 1.5 1.5
v -1.4 1.5 1.4
v -1.4 1.5 1.2
v -1.4 1.5 1.1
v -1.4 3.6 1.5
v -1.4 3.6 1.4
v -1.4 3.6 1.2
v -1.4 3.6 1.1
v -1.4 3.7 1.5
v -1.4 3.7 1.4
v -1.4 3.7 1.2
v -1.4 3.7 1.1
v -1.1 1.5 1.5
v -1.1 1.5 1.4
v -1.1 1.5 1.2
v -1.1 1.5 1.1
v -1.1 1.6 1.5
v -1.1 1.6 1.4
v -1.1 1.6 1.2
v -1.1 1.6 1.1
v -1.1 3.5 1.5
v -1.1 3.5 1.4
v -1.1 3.5 1.2
v -1.1 3.5 1.1
v -1.1 3.6 1.5
v -1.1 3.6 1.4
v -1.1 3.6 1.2
v -1.1 3.6 1.1
v -1 1.6 1.5
v -1 1.6 1.4
v -1 1.6 1.2
v -1 1.6 1.1
v -1 1.7 1.5
v -1 1.7 1.4
v -1 1.7 1.2
v -1 1.7 1.1
v -1 3.4 1.5
v -1 3.4 1.4
v -1 3.4 1.2
v -1 3.4 1.1
v -1 3.5 1.5
v -1 3.5 1.4
v -1 3.5 1.2
v -1 3.5 1.1
v -0.9 1.7 1.5
v -0.9 1.7 1.4
v -0.9 1.7 1.2
v -0.9 1.7 1.1
v -0.9 3.4 1.5
v -0.9 3.4 1.4
v -0.9 3.4 1.2
v -0.9 3.4 1.1
v 0 0 1.7
v 0 0 1.4
v 0 0 1.2
v 0 0 0.9
v 0 4 1.7
v 0 4 1.4
v 0 4 1.2
v 0 4 0.9
v 0 4.5 1.7
v 0 4.5 1.4
v 0 4.5 1.2
v 0 4.5 0.9
v 0.3 1.8 1.5
v 0.3 1.8 1.4
v 0.3 1.8 1.2
v 0.3 1.8 1.1
v 0.3 3.3 1.5
v 0.3 3.3 1.4
v 0.3 3.3 1.2
v 0.3 3.3 1.1
v 0.4 1.9 1.4
v 0.4 1.9 1.3
v 0.4 1.9 1.2
v 0.4 3.2 1.4
v 0.4 3.2 1.3
v 0.4 3.2 1.2
v 1.6 1.8 1.5
v 1.6 1.8 1.4
v 1.6 1.8 1.2
v 1.6 1.8 1.1
v 1.6 3.3 1.5
v 1.6 3.3 1.4
v 1.6 3.3 1.2
v 1.6 3.3 1.1
v 1.7 1.9 1.4
v 1.7 1.9 1.3
v 1.7 1.9 1.2
v 1.7 3.2 1.4
v 1.7 3.2 1.3
v 1.7 3.2 1.2
v 2.9 1.8 1.5
v 2.9 1.8 1.4
v 2.9 1.8 1.2
v 2.9 1.8 1.1
v 2.9 3.3 1.5
v 2.9 3.3 1.4
v 2.9 3.3 1.2
v 2.9 3.3 1.1
v 3 1.9 1.4
v 3 1.9 1.3
v 3 1.9 1.2
v 3 3.2 1.4
v 3 3.2 1.3
v 3 3.2 1.2
v 3.9 1.2 1.5
v 3.9 1.2 1.4
v 3.9 1.2 1.2
v 3.9 1.2 1.1
v 3.9 1.3 1.5
v 3.9 1.3 1.4
v 3.9 1.3 1.2
v 3.9 1.3 1.1
v 3.9 3.8 1.5
v 3.9 3.8 1.4
v 3.9 3.8 1.2
v 3.9 3.8 1.1
v 3.9 3.9 1.5
v 3.9 3.9 1.4
v 3.9 3.9 1.2
v 3.9 3.9 1.1
v 4.2 1.8 1.5
v 4.2 1.8 1.4
v 4.2 1.8 1.2
v 4.2 1.8 1.1
v 4.2 3.3 1.5
v 4.2 3.3 1.4
v 4.2 3.3 1.2
v 4.2 3.3 1.1
v 4.3 1.9 1.4
v 4.3 1.9 1.3
v 4.3 1.9 1.2
v 4.3 3.2 1.4
v 4.3 3.2 1.3
v 4.3 3.2 1.2
v 4.6 1.3 1.5
v 4.6 1.3 1.4
v 4.6 1.3 1.2
v 4.6 1.3 1.1
v 4.6 1.4 1.5
v 4.6 1.4 1.4
v 4.6 1.4 1.2
v 4.6 1.4 1.1
v 4.6 3.7 1.5
v 4.6 3.7 1.4
v 4.6 3.7 1.2
v 4.6 3.7 1.1
v 4.6 3.8 1.5
v 4.6 3.8 1.4
v 4.6 3.8 1.2
v 4.6 3.8 1.1
v 5 1.4 1.5
v 5 1.4 1.4
v 5 1.4 1.2
v 5 1.4 1.1
v 5 1.5 1.5
v 5 1.5 1.4
v 5 1.5 1.2
v 5 1.5 1.1
v 5 3.6 1.5
v 5 3.6 1.4
v 5 3.6 1.2
v 5 3.6 1.1
v 5 3.7 1.5
v 5 3.7 1.4
v 5 3.7 1.2
v 5 3.7 1.1
v 5.3 1.5 1.5
v 5.3 1.5 1.4
v 5.3 1.5 1.2
v 5.3 1.5 1.1
v 5.3 1.6 1.5
v 5.3 1.6 1.4
v 5.3 1.6 1.2
v 5.3 1.6 1.1
v 5.3 3.5 1.5
v 5.3 3.5 1.4
v 5.3 3.5 1.2
v 5.3 3.5 1.1
v 5.3 3.6 1.5
v 5.3 3.6 1.4
v 5.3 3.6 1.2
v 5.3 3.6 1.1
v 5.4 1.6 1.5
v 5.4 1.6 1.4
v 5.4 1.6 1.2
v 5.4 1.6 1.1
v 5.4 1.7 1.5
v 5.4 1.7 1.4
v 5.4 1.7 1.2
v 5.4 1.7 1.1
v 5.4 3.4 1.5
v 5.4 3.4 1.4
v 5.4 3.4 1.2
v 5.4 3.4 1.1
v 5.4 3.5 1.5
v 5.4 3.5 1.4
v 5.4 3.5 1.2
v 5.4 3.5 1.1
v 5.5 1.7 1.5
v 5.5 1.7 1.4
v 5.5 1.7 1.2
v 5.5 1.7 1.1
v 5.5 3.4 1.5
v 5.5 3.4 1.4
v 5.5 3.4 1.2
v 5.5 3.4 1.1
v 6.4 0 1.7
v 6.4 0 0.9
v 6.4 4 1.7
v 6.4 4 0.9
v 6.4 4.5 1.7
v 6.4 4.5 0.9
v 6.4 4.8 1.7
v 6.4 4.8 0.9
v -6.4 4.5 1.7
v -6.4 4.8 1.7
v -0.8 0 1.7
v -0.8 4 1.7
v -0.8 4.5 1.7
v 0 0 1.7
v 0 4 1.7
v 0 4.5 1.7
v 5.6 0 1.7
v 5.6 4 1.7
v 5.6 4.5 1.7
v 6.4 0 1.7
v 6.4 4 1.7
v 6.4 4.5 1.7
v 6.4 4.8 1.7
v -6.2 1.7 1.5
v -6.2 3.4 1.5
v -6.1 1.6 1.5
v -6.1 1.7 1.5
v -6.1 1.8 1.5
v -6.1 3.3 1.5
v -6.1 3.4 1.5
v -6.1 3.5 1.5
v -6 1.5 1.5
v -6 1.6 1.5
v -6 3.5 1.5
v -6 3.6 1.5
v -5.7 1.4 1.5
v -5.7 1.5 1.5
v -5.7 3.6 1.5
v -5.7 3.7 1.5
v -5.3 1.3 1.5
v -5.3 1.4 1.5
v -5.3 3.7 1.5
v -5.3 3.8 1.5
v -4.9 1.8 1.5
v -4.9 3.3 1.5
v -4.8 1.8 1.5
v -4.8 3.3 1.5
v -4.6 1.2 1.5
v -4.6 1.3 1.5
v -4.6 3.8 1.5
v -4.6 3.9 1.5
v -3.6 1.8 1.5
v -3.6 3.3 1.5
v -3.5 1.8 1.5
v -3.5 3.3 1.5
v -2.5 1.2 1.5
v -2.5 1.3 1.5
v -2.5 3.8 1.5
v -2.5 3.9 1.5
v -2.3 1.8 1.5
v -2.3 3.3 1.5
v -2.2 1.8 1.5
v -2.2 3.3 1.5
v -1.8 1.3 1.5
v -1.8 1.4 1.5
v -1.8 3.7 1.5
v -1.8 3.8 1.5
v -1.4 1.4 1.5
v -1.4 1.5 1.5
v -1.4 3.6 1.5
v -1.4 3.7 1.5
v -1.1 1.5 1.5
v -1.1 1.6 1.5
v -1.1 3.5 1.5
v -1.1 3.6 1.5
v -1 1.6 1.5
v -1 1.7 1.5
v -1 1.8 1.5
v -1 3.3 1.5
v -1 3.4 1.5
v -1 3.5 1.5
v -0.9 1.7 1.5
v -0.9 3.4 1.5
v 0.2 1.7 1.5
v 0.2 3.4 1.5
v 0.3 1.6 1.5
v 0.3 1.7 1.5
v 0.3 1.8 1.5
v 0.3 3.3 1.5
v 0.3 3.4 1.5
v 0.3 3.5 1.5
v 0.4 1.5 1.5
v 0.4 1.6 1.5
v 0.4 3.5 1.5
v 0.4 3.6 1.5
v 0.7 1.4 1.5
v 0.7 1.5 1.5
v 0.7 3.6 1.5
v 0.7 3.7 1.5
v 1.1 1.3 1.5
v 1.1 1.4 1.5
v 1.1 3.7 1.5
v 1.1 3.8 1.5
v 1.5 1.8 1.5
v 1.5 3.3 1.5
v 1.6 1.8 1.5
v 1.6 3.3 1.5
v 1.8 1.2 1.5
v 1.8 1.3 1.5
v 1.8 3.8 1.5
v 1.8 3.9 1.5
v 2.8 1.8 1.5
v 2.8 3.3 1.5
v 2.9 1.8 1.5
v 2.9 3.3 1.5
v 3.9 1.2 1.5
v 3.9 1.3 1.5
v 3.9 3.8 1.5
v 3.9 3.9 1.5
v 4.1 1.8 1.5
v 4.1 3.3 1.5
v 4.2 1.8 1.5
v 4.2 3.3 1.5
v 4.6 1.3 1.5
v 4.6 1.4 1.5
v 4.6 3.7 1.5
v 4.6 3.8 1.5
v 5 1.4 1.5
v 5 1.5 1.5
v 5 3.6 1.5
v 5 3.7 1.5
v 5.3 1.5 1.5
v 5.3 1.6 1.5
v 5.3 3.5 1.5
v 5.3 3.6 1.5
v 5.4 1.6 1.5
v 5.4 1.7 1.5
v 5.4 1.8 1.5
v 5.4 3.3 1.5
v 5.4 3.4 1.5
v 5.4 3.5 1.5
v 5.5 1.7 1.5
v 5.5 3.4 1.5
v -6.4 0 1.4
v -6.4 4 1.4
v -6.4 4.5 1.4
v -6.2 1.7 1.4
v -6.2 3.4 1.4
v -6.1 1.6 1.4
v -6.1 1.7 1.4
v -6.1 1.8 1.4
v -6.1 3.3 1.4
v -6.1 3.4 1.4
v -6.1 3.5 1.4
v -6 1.5 1.4
v -6 1.6 1.4
v -6 1.9 1.4
v -6 3.2 1.4
v -6 3.5 1.4
v -6 3.6 1.4
v -5.7 1.4 1.4
v -5.7 1.5 1.4
v -5.7 3.6 1.4
v -5.7 3.7 1.4
v -5.3 1.3 1.4
v -5.3 1.4 1.4
v -5.3 3.7 1.4
v -5.3 3.8 1.4
v -5 1.9 1.4
v -5 3.2 1.4
v -4.9 1.8 1.4
v -4.9 3.3 1.4
v -4.8 1.8 1.4
v -4.8 3.3 1.4
v -4.7 1.9 1.4
v -4.7 3.2 1.4
v -4.6 1.2 1.4
v -4.6 1.3 1.4
v -4.6 3.8 1.4
v -4.6 3.9 1.4
v -3.7 1.9 1.4
v -3.7 3.2 1.4
v -3.6 1.8 1.4
v -3.6 3.3 1.4
v -3.5 1.8 1.4
v -3.5 3.3 1.4
v -3.4 1.9 1.4
v -3.4 3.2 1.4
v -2.5 1.2 1.4
v -2.5 1.3 1.4
v -2.5 3.8 1.4
v -2.5 3.9 1.4
v -2.4 1.9 1.4
v -2.4 3.2 1.4
v -2.3 1.8 1.4
v -2.3 3.3 1.4
v -2.2 1.8 1.4
v -2.2 3.3 1.4
v -2.1 1.9 1.4
v -2.1 3.2 1.4
v -1.8 1.3 1.4
v -1.8 1.4 1.4
v -1.8 3.7 1.4
v -1.8 3.8 1.4
v -1.4 1.4 1.4
v -1.4 1.5 1.4
v -1.4 3.6 1.4
v -1.4 3.7 1.4
v -1.1 1.5 1.4
v -1.1 1.6 1.4
v -1.1 1.9 1.4
v -1.1 3.2 1.4
v -1.1 3.5 1.4
v -1.1 3.6 1.4
v -1 1.6 1.4
v -1 1.7 1.4
v -1 1.8 1.4
v -1 3.3 1.4
v -1 3.4 1.4
v -1 3.5 1.4
v -0.9 1.7 1.4
v -0.9 3.4 1.4
v -0.8 0 1.4
v -0.8 4 1.4
v -0.8 4.5 1.4
v 0 0 1.4
v 0 4 1.4
v 0 4.5 1.4
v 0.2 1.7 1.4
v 0.2 3.4 1.4
v 0.3 1.6 1.4
v 0.3 1.7 1.4
v 0.3 1.8 1.4
v 0.3 3.3 1.4
v 0.3 3.4 1.4
v 0.3 3.5 1.4
v 0.4 1.5 1.4
v 0.4 1.6 1.4
v 0.4 1.9 1.4
v 0.4 3.2 1.4
v 0.4 3.5 1.4
v 0.4 3.6 1.4
v 0.7 1.4 1.4
v 0.7 1.5 1.4
v 0.7 3.6 1.4
v 0.7 3.7 1.4
v 1.1 1.3 1.4
v 1.1 1.4 1.4
v 1.1 3.7 1.4
v 1.1 3.8 1.4
v 1.4 1.9 1.4
v 1.4 3.2 1.4
v 1.5 1.8 1.4
v 1.5 3.3 1.4
v 1.6 1.8 1.4
v 1.6 3.3 1.4
v 1.7 1.9 1.4
v 1.7 3.2 1.4
v 1.8 1.2 1.4
v 1.8 1.3 1.4
v 1.8 3.8 1.4
v 1.8 3.9 1.4
v 2.7 1.9 1.4
v 2.7 3.2 1.4
v 2.8 1.8 1.4
v 2.8 3.3 1.4
v 2.9 1.8 1.4
v 2.9 3.3 1.4
v 3 1.9 1.4
v 3 3.2 1.4
v 3.9 1.2 1.4
v 3.9 1.3 1.4
v 3.9 3.8 1.4
v 3.9 3.9 1.4
v 4 1.9 1.4
v 4 3.2 1.4
v 4.1 1.8 1.4
v 4.1 3.3 1.4
v 4.2 1.8 1.4
v 4.2 3.3 1.4
v 4.3 1.9 1.4
v 4.3 3.2 1.4
v 4.6 1.3 1.4
v 4.6 1.4 1.4
v 4.6 3.7 1.4
v 4.6 3.8 1.4
v 5 1.4 1.4
v 5 1.5 1.4
v 5 3.6 1.4
v 5 3.7 1.4
v 5.3 1.5 1.4
v 5.3 1.6 1.4
v 5.3 1.9 1.4
v 5.3 3.2 1.4
v 5.3 3.5 1.4
v 5.3 3.6 1.4
v 5.4 1.6 1.4
v 5.4 1.7 1.4
v 5.4 1.8 1.4
v 5.4 3.3 1.4
v 5.4 3.4 1.4
v 5.4 3.5 1.4
v 5.5 1.7 1.4
v 5.5 3.4 1.4
v 5.6 0 1.4
v 5.6 4 1.4
v 5.6 4.5 1.4
v -6.4 0 1.2
v -6.4 4 1.2
v -6.4 4.5 1.2
v -6.2 1.7 1.2
v -6.2 3.4 1.2
v -6.1 1.6 1.2
v -6.1 1.7 1.2
v -6.1 1.8 1.2
v -6.1 3.3 1.2
v -6.1 3.4 1.2
v -6.1 3.5 1.2
v -6 1.5 1.2
v -6 1.6 1.2
v -6 1.9 1.2
v -6 3.2 1.2
v -6 3.5 1.2
v -6 3.6 1.2
v -5.7 1.4 1.2
v -5.7 1.5 1.2
v -5.7 3.6 1.2
v -5.7 3.7 1.2
v -5.3 1.3 1.2
v -5.3 1.4 1.2
v -5.3 3.7 1.2
v -5.3 3.8 1.2
v -5 1.9 1.2
v -5 3.2 1.2
v -4.9 1.8 1.2
v -4.9 3.3 1.2
v -4.8 1.8 1.2
v -4.8 3.3 1.2
v -4.7 1.9 1.2
v -4.7 3.2 1.2
v -4.6 1.2 1.2
v -4.6 1.3 1.2
v -4.6 3.8 1.2
v -4.6 3.9 1.2
v -3.7 1.9 1.2
v -3.7 3.2 1.2
v -3.6 1.8 1.2
v -3.6 3.3 1.2
v -3.5 1.8 1.2
v -3.5 3.3 1.2
v -3.4 1.9 1.2
v -3.4 3.2 1.2
v -2.5 1.2 1.2
v -2.5 1.3 1.2
v -2.5 3.8 1.2
v -2.5 3.9 1.2
v -2.4 1.9 1.2
v -2.4 3.2 1.2
v -2.3 1.8 1.2
v -2.3 3.3 1.2
v -2.2 1.8 1.2
v -2.2 3.3 1.2
v -2.1 1.9 1.2
v -2.1 3.2 1.2
v -1.8 1.3 1.2
v -1.8 1.4 1.2
v -1.8 3.7 1.2
v -1.8 3.8 1.2
v -1.4 1.4 1.2
v -1.4 1.5 1.2
v -1.4 3.6 1.2
v -1.4 3.7 1.2
v -1.1 1.5 1.2
v -1.1 1.6 1.2
v -1.1 1.9 1.2
v -1.1 3.2 1.2
v -1.1 3.5 1.2
v -1.1 3.6 1.2
v -1 1.6 1.2
v -1 1.7 1.2
v -1 1.8 1.2
v -1 3.3 1.2
v -1 3.4 1.2
v -1 3.5 1.2
v -0.9 1.7 1.2
v -0.9 3.4 1.2
v -0.8 0 1.2
v -0.8 4 1.2
v -0.8 4.5 1.2
v 0 0 1.2
v 0 4 1.2
v 0 4.5 1.2
v 0.2 1.7 1.2
v 0.2 3.4 1.2
v 0.3 1.6 1.2
v 0.3 1.7 1.2
v 0.3 1.8 1.2
v 0.3 3.3 1.2
v 0.3 3.4 1.2
v 0.3 3.5 1.2
v 0.4 1.5 1.2
v 0.4 1.6 1.2
v 0.4 1.9 1.2
v 0.4 3.2 1.2
v 0.4 3.5 1.2
v 0.4 3.6 1.2
v 0.7 1.4 1.2
v 0.7 1.5 1.2
v 0.7 3.6 1.2
v 0.7 3.7 1.2
v 1.1 1.3 1.2
v 1.1 1.4 1.2
v 1.1 3.7 1.2
v 1.1 3.8 1.2
v 1.4 1.9 1.2
v 1.4 3.2 1.2
v 1.5 1.8 1.2
v 1.5 3.3 1.2
v 1.6 1.8 1.2
v 1.6 3.3 1.2
v 1.7 1.9 1.2
v 1.7 3.2 1.2
v 1.8 1.2 1.2
v 1.8 1.3 1.2
v 1.8 3.8 1.2
v 1.8 3.9 1.2
v 2.7 1.9 1.2
v 2.7 3.2 1.2
v 2.8 1.8 1.2
v 2.8 3.3 1.2
v 2.9 1.8 1.2
v 2.9 3.3 1.2
v 3 1.9 1.2
v 3 3.2 1.2
v 3.9 1.2 1.2
v 3.9 1.3 1.2
v 3.9 3.8 1.2
v 3.9 3.9 1.2
v 4 1.9 1.2
v 4 3.2 1.2
v 4.1 1.8 1.2
v 4.1 3.3 1.2
v 4.2 1.8 1.2
v 4.2 3.3 1.2
v 4.3 1.9 1.2
v 4.3 3.2 1.2
v 4.6 1.3 1.2
v 4.6 1.4 1.2
v 4.6 3.7 1.2
v 4.6 3.8 1.2
v 5 1.4 1.2
v 5 1.5 1.2
v 5 3.6 1.2
v 5 3.7 1.2
v 5.3 1.5 1.2
v 5.3 1.6 1.2
v 5.3 1.9 1.2
v 5.3 3.2 1.2
v 5.3 3.5 1.2
v 5.3 3.6 1.2
v 5.4 1.6 1.2
v 5.4 1.7 1.2
v 5.4 1.8 1.2
v 5.4 3.3 1.2
v 5.4 3.4 1.2
v 5.4 3.5 1.2
v 5.5 1.7 1.2
v 5.5 3.4 1.2
v 5.6 0 1.2
v 5.6 4 1.2
v 5.6 4.5 1.2
v -6.2 1.7 1.1
v -6.2 3.4 1.1
v -6.1 1.6 1.1
v -6.1 1.7 1.1
v -6.1 1.8 1.1
v -6.1 3.3 1.1
v -6.1 3.4 1.1
v -6.1 3.5 1.1
v -6 1.5 1.1
v -6 1.6 1.1
v -6 3.5 1.1
v -6 3.6 1.1
v -5.7 1.4 1.1
v -5.7 1.5 1.1
v -5.7 3.6 1.1
v -5.7 3.7 1.1
v -5.3 1.3 1.1
v -5.3 1.4 1.1
v -5.3 3.7 1.1
v -5.3 3.8 1.1
v -4.9 1.8 1.1
v -4.9 3.3 1.1
v -4.8 1.8 1.1
v -4.8 3.3 1.1
v -4.6 1.2 1.1
v -4.6 1.3 1.1
v -4.6 3.8 1.1
v -4.6 3.9 1.1
v -3.6 1.8 1.1
v -3.6 3.3 1.1
v -3.5 1.8 1.1
v -3.5 3.3 1.1
v -2.5 1.2 1.1
v -2.5 1.3 1.1
v -2.5 3.8 1.1
v -2.5 3.9 1.1
v -2.3 1.8 1.1
v -2.3 3.3 1.1
v -2.2 1.8 1.1
v -2.2 3.3 1.1
v -1.8 1.3 1.1
v -1.8 1.4 1.1
v -1.8 3.7 1.1
v -1.8 3.8 1.1
v -1.4 1.4 1.1
v -1.4 1.5 1.1
v -1.4 3.6 1.1
v -1.4 3.7 1.1
v -1.1 1.5 1.1
v -1.1 1.6 1.1
v -1.1 3.5 1.1
v -1.1 3.6 1.1
v -1 1.6 1.1
v -1 1.7 1.1
v -1 1.8 1.1
v -1 3.3 1.1
v -1 3.4 1.1
v -1 3.5 1.1
v -0.9 1.7 1.1
v -0.9 3.4 1.1
v 0.2 1.7 1.1
v 0.2 3.4 1.1
v 0.3 1.6 1.1
v 0.3 1.7 1.1
v 0.3 1.8 1.1
v 0.3 3.3 1.1
v 0.3 3.4 1.1
v 0.3 3.5 1.1
v 0.4 1.5 1.1
v 0.4 1.6 1.1
v 0.4 3.5 1.1
v 0.4 3.6 1.1
v 0.7 1.4 1.1
v 0.7 1.5 1.1
v 0.7 3.6 1.1
v 0.7 3.7 1.1
v 1.1 1.3 1.1
v 1.1 1.4 1.1
v 1.1 3.7 1.1
v 1.1 3.8 1.1
v 1.5 1.8 1.1
v 1.5 3.3 1.1
v 1.6 1.8 1.1
v 1.6 3.3 1.1
v 1.8 1.2 1.1
v 1.8 1.3 1.1
v 1.8 3.8 1.1
v 1.8 3.9 1.1
v 2.8 1.8 1.1
v 2.8 3.3 1.1
v 2.9 1.8 1.1
v 2.9 3.3 1.1
v 3.9 1.2 1.1
v 3.9 1.3 1.1
v 3.9 3.8 1.1
v 3.9 3.9 1.1
v 4.1 1.8 1.1
v 4.1 3.3 1.1
v 4.2 1.8 1.1
v 4.2 3.3 1.1
v 4.6 1.3 1.1
v 4.6 1.4 1.1
v 4.6 3.7 1.1
v 4.6 3.8 1.1
v 5 1.4 1.1
v 5 1.5 1.1
v 5 3.6 1.1
v 5 3.7 1.1
v 5.3 1.5 1.1
v 5.3 1.6 1.1
v 5.3 3.5 1.1
v 5.3 3.6 1.1
v 5.4 1.6 1.1
v 5.4 1.7 1.1
v 5.4 1.8 1.1
v 5.4 3.3 1.1
v 5.4 3.4 1.1
v 5.4 3.5 1.1
v 5.5 1.7 1.1
v 5.5 3.4 1.1
v -6.4 4.5 0.9
v -6.4 4.8 0.9
v -0.8 0 0.9
v -0.8 4 0.9
v -0.8 4.5 0.9
v 0 0 0.9
v 0 4 0.9
v 0 4.5 0.9
v 5.6 0 0.9
v 5.6 4 0.9
v 5.6 4.5 0.9
v 6.4 0 0.9
v 6.4 4 0.9
v 6.4 4.5 0.9
v 6.4 4.8 0.9
v -0.8 0 1.7
v 0 0 1.7
v 5.6 0 1.7
v 6.4 0 1.7
v -6.4 0 1.4
v -0.8 0 1.4
v 0 0 1.4
v 5.6 0 1.4
v -6.4 0 1.2
v -0.8 0 1.2
v 0 0 1.2
v 5.6 0 1.2
v -0.8 0 0.9
v 0 0 0.9
v 5.6 0 0.9
v 6.4 0 0.9
v -4.6 1.2 1.5
v -2.5 1.2 1.5
v 1.8 1.2 1.5
v 3.9 1.2 1.5
v -4.6 1.2 1.4
v -2.5 1.2 1.4
v 1.8 1.2 1.4
v 3.9 1.2 1.4
v -4.6 1.2 1.2
v -2.5 1.2 1.2
v 1.8 1.2 1.2
v 3.9 1.2 1.2
v -4.6 1.2 1.1
v -2.5 1.2 1.1
v 1.8 1.2 1.1
v 3.9 1.2 1.1
v -5.3 1.3 1.5
v -4.6 1.3 1.5
v -2.5 1.3 1.5
v -1.8 1.3 1.5
v 1.1 1.3 1.5
v 1.8 1.3 1.5
v 3.9 1.3 1.5
v 4.6 1.3 1.5
v -5.3 1.3 1.4
v -4.6 1.3 1.4
v -2.5 1.3 1.4
v -1.8 1.3 1.4
v 1.1 1.3 1.4
v 1.8 1.3 1.4
v 3.9 1.3 1.4
v 4.6 1.3 1.4
v -5.3 1.3 1.2
v -4.6 1.3 1.2
v -2.5 1.3 1.2
v -1.8 1.3 1.2
v 1.1 1.3 1.2
v 1.8 1.3 1.2
v 3.9 1.3 1.2
v 4.6 1.3 1.2
v -5.3 1.3 1.1
v -4.6 1.3 1.1
v -2.5 1.3 1.1
v -1.8 1.3 1.1
v 1.1 1.3 1.1
v 1.8 1.3 1.1
v 3.9 1.3 1.1
v 4.6 1.3 1.1
v -5.7 1.4 1.5
v -5.3 1.4 1.5
v -1.8 1.4 1.5
v -1.4 1.4 1.5
v 0.7 1.4 1.5
v 1.1 1.4 1.5
v 4.6 1.4 1.5
v 5 1.4 1.5
v -5.7 1.4 1.4
v -5.3 1.4 1.4
v -1.8 1.4 1.4
v -1.4 1.4 1.4
v 0.7 1.4 1.4
v 1.1 1.4 1.4
v 4.6 1.4 1.4
v 5 1.4 1.4
v -5.7 1.4 1.2
v -5.3 1.4 1.2
v -1.8 1.4 1.2
v -1.4 1.4 1.2
v 0.7 1.4 1.2
v 1.1 1.4 1.2
v 4.6 1.4 1.2
v 5 1.4 1.2
v -5.7 1.4 1.1
v -5.3 1.4 1.1
v -1.8 1.4 1.1
v -1.4 1.4 1.1
v 0.7 1.4 1.1
v 1.1 1.4 1.1
v 4.6 1.4 1.1
v 5 1.4 1.1
v -6 1.5 1.5
v -5.7 1.5 1.5
v -1.4 1.5 1.5
v -1.1 1.5 1.5
v 0.4 1.5 1.5
v 0.7 1.5 1.5
v 5 1.5 1.5
v 5.3 1.5 1.5
v -6 1.5 1.4
v -5.7 1.5 1.4
v -1.4 1.5 1.4
v -1.1 1.5 1.4
v 0.4 1.5 1.4
v 0.7 1.5 1.4
v 5 1.5 1.4
v 5.3 1.5 1.4
v -6 1.5 1.2
v -5.7 1.5 1.2
v -1.4 1.5 1.2
v -1.1 1.5 1.2
v 0.4 1.5 1.2
v 0.7 1.5 1.2
v 5 1.5 1.2
v 5.3 1.5 1.2
v -6 1.5 1.1
v -5.7 1.5 1.1
v -1.4 1.5 1.1
v -1.1 1.5 1.1
v 0.4 1.5 1.1
v 0.7 1.5 1.1
v 5 1.5 1.1
v 5.3 1.5 1.1
v -6.1 1.6 1.5
v -6 1.6 1.5
v -1.1 1.6 1.5
v -1 1.6 1.5
v 0.3 1.6 1.5
v 0.4 1.6 1.5
v 5.3 1.6 1.5
v 5.4 1.6 1.5
v -6.1 1.6 1.4
v -6 1.6 1.4
v -1.1 1.6 1.4
v -1 1.6 1.4
v 0.3 1.6 1.4
v 0.4 1.6 1.4
v 5.3 1.6 1.4
v 5.4 1.6 1.4
v -6.1 1.6 1.2
v -6 1.6 1.2
v -1.1 1.6 1.2
v -1 1.6 1.2
v 0.3 1.6 1.2
v 0.4 1.6 1.2
v 5.3 1.6 1.2
v 5.4 1.6 1.2
v -6.1 1.6 1.1
v -6 1.6 1.1
v -1.1 1.6 1.1
v -1 1.6 1.1
v 0.3 1.6 1.1
v 0.4 1.6 1.1
v 5.3 1.6 1.1
v 5.4 1.6 1.1
v -6.2 1.7 1.5
v -6.1 1.7 1.5
v -1 1.7 1.5
v -0.9 1.7 1.5
v 0.2 1.7 1.5
v 0.3 1.7 1.5
v 5.4 1.7 1.5
v 5.5 1.7 1.5
v -6.2 1.7 1.4
v -6.1 1.7 1.4
v -1 1.7 1.4
v -0.9 1.7 1.4
v 0.2 1.7 1.4
v 0.3 1.7 1.4
v 5.4 1.7 1.4
v 5.5 1.7 1.4
v -6.2 1.7 1.2
v -6.1 1.7 1.2
v -1 1.7 1.2
v -0.9 1.7 1.2
v 0.2 1.7 1.2
v 0.3 1.7 1.2
v 5.4 1.7 1.2
v 5.5 1.7 1.2
v -6.2 1.7 1.1
v -6.1 1.7 1.1
v -1 1.7 1.1
v -0.9 1.7 1.1
v 0.2 1.7 1.1
v 0.3 1.7 1.1
v 5.4 1.7 1.1
v 5.5 1.7 1.1
v -6 3.2 1.4
v -5 3.2 1.4
v -4.7 3.2 1.4
v -3.7 3.2 1.4
v -3.4 3.2 1.4
v -2.4 3.2 1.4
v -2.1 3.2 1.4
v -1.1 3.2 1.4
v 0.4 3.2 1.4
v 1.4 3.2 1.4
v 1.7 3.2 1.4
v 2.7 3.2 1.4
v 3 3.2 1.4
v 4 3.2 1.4
v 4.3 3.2 1.4
v 5.3 3.2 1.4
v -6 3.2 1.3
v -5 3.2 1.3
v -4.7 3.2 1.3
v -3.7 3.2 1.3
v -3.4 3.2 1.3
v -2.4 3.2 1.3
v -2.1 3.2 1.3
v -1.1 3.2 1.3
v 0.4 3.2 1.3
v 1.4 3.2 1.3
v 1.7 3.2 1.3
v 2.7 3.2 1.3
v 3 3.2 1.3
v 4 3.2 1.3
v 4.3 3.2 1.3
v 5.3 3.2 1.3
v -6 3.2 1.2
v -5 3.2 1.2
v -4.7 3.2 1.2
v -3.7 3.2 1.2
v -3.4 3.2 1.2
v -2.4 3.2 1.2
v -2.1 3.2 1.2
v -1.1 3.2 1.2
v 0.4 3.2 1.2
v 1.4 3.2 1.2
v 1.7 3.2 1.2
v 2.7 3.2 1.2
v 3 3.2 1.2
v 4 3.2 1.2
v 4.3 3.2 1.2
v 5.3 3.2 1.2
v -6.1 3.3 1.5
v -4.9 3.3 1.5
v -4.8 3.3 1.5
v -3.6 3.3 1.5
v -3.5 3.3 1.5
v -2.3 3.3 1.5
v -2.2 3.3 1.5
v -1 3.3 1.5
v 0.3 3.3 1.5
v 1.5 3.3 1.5
v 1.6 3.3 1.5
v 2.8 3.3 1.5
v 2.9 3.3 1.5
v 4.1 3.3 1.5
v 4.2 3.3 1.5
v 5.4 3.3 1.5
v -6.1 3.3 1.4
v -4.9 3.3 1.4
v -4.8 3.3 1.4
v -3.6 3.3 1.4
v -3.5 3.3 1.4
v -2.3 3.3 1.4
v -2.2 3.3 1.4
v -1 3.3 1.4
v 0.3 3.3 1.4
v 1.5 3.3 1.4
v 1.6 3.3 1.4
v 2.8 3.3 1.4
v 2.9 3.3 1.4
v 4.1 3.3 1.4
v 4.2 3.3 1.4
v 5.4 3.3 1.4
v -6.1 3.3 1.2
v -4.9 3.3 1.2
v -4.8 3.3 1.2
v -3.6 3.3 1.2
v -3.5 3.3 1.2
v -2.3 3.3 1.2
v -2.2 3.3 1.2
v -1 3.3 1.2
v 0.3 3.3 1.2
v 1.5 3.3 1.2
v 1.6 3.3 1.2
v 2.8 3.3 1.2
v 2.9 3.3 1.2
v 4.1 3.3 1.2
v 4.2 3.3 1.2
v 5.4 3.3 1.2
v -6.1 3.3 1.1
v -4.9 3.3 1.1
v -4.8 3.3 1.1
v -3.6 3.3 1.1
v -3.5 3.3 1.1
v -2.3 3.3 1.1
v -2.2 3.3 1.1
v -1 3.3 1.1
v 0.3 3.3 1.1
v 1.5 3.3 1.1
v 1.6 3.3 1.1
v 2.8 3.3 1.1
v 2.9 3.3 1.1
v 4.1 3.3 1.1
v 4.2 3.3 1.1
v 5.4 3.3 1.1
v -6.4 4.5 1.7
v -0.8 4.5 1.7
v 0 4.5 1.7
v 5.6 4.5 1.7
v -6.4 4.5 1.4
v -0.8 4.5 1.4
v 0 4.5 1.4
v 5.6 4.5 1.4
v -6.4 4.5 1.2
v -0.8 4.5 1.2
v 0 4.5 1.2
v 5.6 4.5 1.2
v -6.4 4.5 0.9
v -0.8 4.5 0.9
v 0 4.5 0.9
v 5.6 4.5 0.9
v -6.1 1.8 1.5
v -4.9 1.8 1.5
v -4.8 1.8 1.5
v -3.6 1.8 1.5
v -3.5 1.8 1.5
v -2.3 1.8 1.5
v -2.2 1.8 1.5
v -1 1.8 1.5
v 0.3 1.8 1.5
v 1.5 1.8 1.5
v 1.6 1.8 1.5
v 2.8 1.8 1.5
v 2.9 1.8 1.5
v 4.1 1.8 1.5
v 4.2 1.8 1.5
v 5.4 1.8 1.5
v -6.1 1.8 1.4
v -4.9 1.8 1.4
v -4.8 1.8 1.4
v -3.6 1.8 1.4
v -3.5 1.8 1.4
v -2.3 1.8 1.4
v -2.2 1.8 1.4
v -1 1.8 1.4
v 0.3 1.8 1.4
v 1.5 1.8 1.4
v 1.6 1.8 1.4
v 2.8 1.8 1.4
v 2.9 1.8 1.4
v 4.1 1.8 1.4
v 4.2 1.8 1.4
v 5.4 1.8 1.4
v -6.1 1.8 1.2
v -4.9 1.8 1.2
v -4.8 1.8 1.2
v -3.6 1.8 1.2
v -3.5 1.8 1.2
v -2.3 1.8 1.2
v -2.2 1.8 1.2
v -1 1.8 1.2
v 0.3 1.8 1.2
v 1.5 1.8 1.2
v 1.6 1.8 1.2
v 2.8 1.8 1.2
v 2.9 1.8 1.2
v 4.1 1.8 1.2
v 4.2 1.8 1.2
v 5.4 1.8 1.2
v -6.1 1.8 1.1
v -4.9 1.8 1.1
v -4.8 1.8 1.1
v -3.6 1.8 1.1
v -3.5 1.8 1.1
v -2.3 1.8 1.1
v -2.2 1.8 1.1
v -1 1.8 1.1
v 0.3 1.8 1.1
v 1.5 1.8 1.1
v 1.6 1.8 1.1
v 2.8 1.8 1.1
v 2.9 1.8 1.1
v 4.1 1.8 1.1
v 4.2 1.8 1.1
v 5.4 1.8 1.1
v -6 1.9 1.4
v -5 1.9 1.4
v -4.7 1.9 1.4
v -3.7 1.9 1.4
v -3.4 1.9 1.4
v -2.4 1.9 1.4
v -2.1 1.9 1.4
v -1.1 1.9 1.4
v 0.4 1.9 1.4
v 1.4 1.9 1.4
v 1.7 1.9 1.4
v 2.7 1.9 1.4
v 3 1.9 1.4
v 4 1.9 1.4
v 4.3 1.9 1.4
v 5.3 1.9 1.4
v -6 1.9 1.3
v -5 1.9 1.3
v -4.7 1.9 1.3
v -3.7 1.9 1.3
v -3.4 1.9 1.3
v -2.4 1.9 1.3
v -2.1 1.9 1.3
v -1.1 1.9 1.3
v 0.4 1.9 1.3
v 1.4 1.9 1.3
v 1.7 1.9 1.3
v 2.7 1.9 1.3
v 3 1.9 1.3
v 4 1.9 1.3
v 4.3 1.9 1.3
v 5.3 1.9 1.3
v -6 1.9 1.2
v -5 1.9 1.2
v -4.7 1.9 1.2
v -3.7 1.9 1.2
v -3.4 1.9 1.2
v -2.4 1.9 1.2
v -2.1 1.9 1.2
v -1.1 1.9 1.2
v 0.4 1.9 1.2
v 1.4 1.9 1.2
v 1.7 1.9 1.2
v 2.7 1.9 1.2
v 3 1.9 1.2
v 4 1.9 1.2
v 4.3 1.9 1.2
v 5.3 1.9 1.2
v -6.2 3.4 1.5
v -6.1 3.4 1.5
v -1 3.4 1.5
v -0.9 3.4 1.5
v 0.2 3.4 1.5
v 0.3 3.4 1.5
v 5.4 3.4 1.5
v 5.5 3.4 1.5
v -6.2 3.4 1.4
v -6.1 3.4 1.4
v -1 3.4 1.4
v -0.9 3.4 1.4
v 0.2 3.4 1.4
v 0.3 3.4 1.4
v 5.4 3.4 1.4
v 5.5 3.4 1.4
v -6.2 3.4 1.2
v -6.1 3.4 1.2
v -1 3.4 1.2
v -0.9 3.4 1.2
v 0.2 3.4 1.2
v 0.3 3.4 1.2
v 5.4 3.4 1.2
v 5.5 3.4 1.2
v -6.2 3.4 1.1
v -6.1 3.4 1.1
v -1 3.4 1.1
v -0.9 3.4 1.1
v 0.2 3.4 1.1
v 0.3 3.4 1.1
v 5.4 3.4 1.1
v 5.5 3.4 1.1
v -6.1 3.5 1.5
v -6 3.5 1.5
v -1.1 3.5 1.5
v -1 3.5 1.5
v 0.3 3.5 1.5
v 0.4 3.5 1.5
v 5.3 3.5 1.5
v 5.4 3.5 1.5
v -6.1 3.5 1.4
v -6 3.5 1.4
v -1.1 3.5 1.4
v -1 3.5 1.4
v 0.3 3.5 1.4
v 0.4 3.5 1.4
v 5.3 3.5 1.4
v 5.4 3.5 1.4
v -6.1 3.5 1.2
v -6 3.5 1.2
v -1.1 3.5 1.2
v -1 3.5 1.2
v 0.3 3.5 1.2
v 0.4 3.5 1.2
v 5.3 3.5 1.2
v 5.4 3.5 1.2
v -6.1 3.5 1.1
v -6 3.5 1.1
v -1.1 3.5 1.1
v -1 3.5 1.1
v 0.3 3.5 1.1
v 0.4 3.5 1.1
v 5.3 3.5 1.1
v 5.4 3.5 1.1
v -6 3.6 1.5
v -5.7 3.6 1.5
v -1.4 3.6 1.5
v -1.1 3.6 1.5
v 0.4 3.6 1.5
v 0.7 3.6 1.5
v 5 3.6 1.5
v 5.3 3.6 1.5
v -6 3.6 1.4
v -5.7 3.6 1.4
v -1.4 3.6 1.4
v -1.1 3.6 1.4
v 0.4 3.6 1.4
v 0.7 3.6 1.4
v 5 3.6 1.4
v 5.3 3.6 1.4
v -6 3.6 1.2
v -5.7 3.6 1.2
v -1.4 3.6 1.2
v -1.1 3.6 1.2
v 0.4 3.6 1.2
v 0.7 3.6 1.2
v 5 3.6 1.2
v 5.3 3.6 1.2
v -6 3.6 1.1
v -5.7 3.6 1.1
v -1.4 3.6 1.1
v -1.1 3.6 1.1
v 0.4 3.6 1.1
v 0.7 3.6 1.1
v 5 3.6 1.1
v 5.3 3.6 1.1
v -5.7 3.7 1.5
v -5.3 3.7 1.5
v -1.8 3.7 1.5
v -1.4 3.7 1.5
v 0.7 3.7 1.5
v 1.1 3.7 1.5
v 4.6 3.7 1.5
v 5 3.7 1.5
v -5.7 3.7 1.4
v -5.3 3.7 1.4
v -1.8 3.7 1.4
v -1.4 3.7 1.4
v 0.7 3.7 1.4
v 1.1 3.7 1.4
v 4.6 3.7 1.4
v 5 3.7 1.4
v -5.7 3.7 1.2
v -5.3 3.7 1.2
v -1.8 3.7 1.2
v -1.4 3.7 1.2
v 0.7 3.7 1.2
v 1.1 3.7 1.2
v 4.6 3.7 1.2
v 5 3.7 1.2
v -5.7 3.7 1.1
v -5.3 3.7 1.1
v -1.8 3.7 1.1
v -1.4 3.7 1.1
v 0.7 3.7 1.1
v 1.1 3.7 1.1
v 4.6 3.7 1.1
v 5 3.7 1.1
v -5.3 3.8 1.5
v -4.6 3.8 1.5
v -2.5 3.8 1.5
v -1.8 3.8 1.5
v 1.1 3.8 1.5
v 1.8 3.8 1.5
v 3.9 3.8 1.5
v 4.6 3.8 1.5
v -5.3 3.8 1.4
v -4.6 3.8 1.4
v -2.5 3.8 1.4
v -1.8 3.8 1.4
v 1.1 3.8 1.4
v 1.8 3.8 1.4
v 3.9 3.8 1.4
v 4.6 3.8 1.4
v -5.3 3.8 1.2
v -4.6 3.8 1.2
v -2.5 3.8 1.2
v -1.8 3.8 1.2
v 1.1 3.8 1.2
v 1.8 3.8 1.2
v 3.9 3.8 1.2
v 4.6 3.8 1.2
v -5.3 3.8 1.1
v -4.6 3.8 1.1
v -2.5 3.8 1.1
v -1.8 3.8 1.1
v 1.1 3.8 1.1
v 1.8 3.8 1.1
v 3.9 3.8 1.1
v 4.6 3.8 1.1
v -4.6 3.9 1.5
v -2.5 3.9 1.5
v 1.8 3.9 1.5
v 3.9 3.9 1.5
v -4.6 3.9 1.4
v -2.5 3.9 1.4
v 1.8 3.9 1.4
v 3.9 3.9 1.4
v -4.6 3.9 1.2
v -2.5 3.9 1.2
v 1.8 3.9 1.2
v 3.9 3.9 1.2
v -4.6 3.9 1.1
v -2.5 3.9 1.1
v 1.8 3.9 1.1
v 3.9 3.9 1.1
v -6.4 4.8 1.7
v 6.4 4.8 1.7
v -6.4 4.8 0.9
v 6.4 4.8 0.9

# faces
f 3/1/1 2/1/1 1/1/1
f 4/1/1 2/1/1 3/1/1
f 6/2/1 4/2/1 3/2/1
f 7/2/1 4/2/1 6/2/1
f 9/1/1 7/1/1 6/1/1
f 9/1/1 8/1/1 7/1/1
f 9/1/1 6/1/1 5/1/1
f 10/1/1 8/1/1 9/1/1
f 15/2/1 12/2/1 11/2/1
f 16/2/1 12/2/1 15/2/1
f 17/2/1 14/2/1 13/2/1
f 18/2/1 14/2/1 17/2/1
f 23/2/1 20/2/1 19/2/1
f 24/2/1 20/2/1 23/2/1
f 25/2/1 22/2/1 21/2/1
f 26/2/1 22/2/1 25/2/1
f 31/2/1 28/2/1 27/2/1
f 32/2/1 28/2/1 31/2/1
f 33/2/1 30/2/1 29/2/1
f 34/2/1 30/2/1 33/2/1
f 39/2/1 36/2/1 35/2/1
f 40/2/1 36/2/1 39/2/1
f 41/2/1 38/2/1 37/2/1
f 42/2/1 38/2/1 41/2/1
f 47/2/1 44/2/1 43/2/1
f 48/2/1 44/2/1 47/2/1
f 49/2/1 46/2/1 45/2/1
f 50/2/1 46/2/1 49/2/1
f 55/2/1 52/2/1 51/2/1
f 56/2/1 52/2/1 55/2/1
f 57/2/1 54/2/1 53/2/1
f 58/2/1 54/2/1 57/2/1
f 63/2/1 60/2/1 59/2/1
f 64/2/1 60/2/1 63/2/1
f 65/2/1 62/2/1 61/2/1
f 66/2/1 62/2/1 65/2/1
f 71/2/1 68/2/1 67/2/1
f 72/2/1 68/2/1 71/2/1
f 73/2/1 70/2/1 69/2/1
f 74/2/1 70/2/1 73/2/1
f 79/2/1 76/2/1 75/2/1
f 80/2/1 76/2/1 79/2/1
f 81/2/1 78/2/1 77/2/1
f 82/2/1 78/2/1 81/2/1
f 86/2/1 84/2/1 83/2/1
f 87/1/1 85/1/1 84/1/1
f 87/2/1 84/2/1 86/2/1
f 88/1/1 85/1/1 87/1/1
f 93/2/1 90/2/1 89/2/1
f 94/2/1 90/2/1 93/2/1
f 95/2/1 92/2/1 91/2/1
f 96/2/1 92/2/1 95/2/1
f 101/2/1 98/2/1 97/2/1
f 102/2/1 98/2/1 101/2/1
f 103/2/1 100/2/1 99/2/1
f 104/2/1 100/2/1 103/2/1
f 109/2/1 106/2/1 105/2/1
f 110/2/1 106/2/1 109/2/1
f 111/2/1 108/2/1 107/2/1
f 112/2/1 108/2/1 111/2/1
f 116/2/1 114/2/1 113/2/1
f 117/1/1 115/1/1 114/1/1
f 117/2/1 114/2/1 116/2/1
f 118/1/1 115/1/1 117/1/1
f 123/2/1 120/2/1 119/2/1
f 124/2/1 120/2/1 123/2/1
f 125/2/1 122/2/1 121/2/1
f 126/2/1 122/2/1 125/2/1
f 130/2/1 128/2/1 127/2/1
f 131/1/1 129/1/1 128/1/1
f 131/2/1 128/2/1 130/2/1
f 132/1/1 129/1/1 131/1/1
f 137/2/1 134/2/1 133/2/1
f 138/2/1 134/2/1 137/2/1
f 139/2/1 136/2/1 135/2/1
f 140/2/1 136/2/1 139/2/1
f 144/2/1 142/2/1 141/2/1
f 145/1/1 143/1/1 142/1/1
f 145/2/1 142/2/1 144/2/1
f 146/1/1 143/1/1 145/1/1
f 151/2/1 148/2/1 147/2/1
f 152/2/1 148/2/1 151/2/1
f 153/2/1 150/2/1 149/2/1
f 154/2/1 150/2/1 153/2/1
f 159/1/1 156/1/1 155/1/1
f 160/1/1 156/1/1 159/1/1
f 161/1/1 158/1/1 157/1/1
f 162/1/1 158/1/1 161/1/1
f 163/2/1 160/2/1 159/2/1
f 164/2/1 160/2/1 163/2/1
f 165/2/1 162/2/1 161/2/1
f 166/2/1 162/2/1 165/2/1
f 171/2/1 168/2/1 167/2/1
f 172/2/1 168/2/1 171/2/1
f 173/2/1 170/2/1 169/2/1
f 174/2/1 170/2/1 173/2/1
f 179/2/1 176/2/1 175/2/1
f 180/2/1 176/2/1 179/2/1
f 181/2/1 178/2/1 177/2/1
f 182/2/1 178/2/1 181/2/1
f 187/2/1 184/2/1 183/2/1
f 188/2/1 184/2/1 187/2/1
f 189/2/1 186/2/1 185/2/1
f 190/2/1 186/2/1 189/2/1
f 195/2/1 192/2/1 191/2/1
f 196/2/1 192/2/1 195/2/1
f 197/2/1 194/2/1 193/2/1
f 198/2/1 194/2/1 197/2/1
f 203/2/1 200/2/1 199/2/1
f 204/2/1 200/2/1 203/2/1
f 205/2/1 202/2/1 201/2/1
f 206/2/1 202/2/1 205/2/1
f 211/2/1 208/2/1 207/2/1
f 212/2/1 208/2/1 211/2/1
f 213/2/1 210/2/1 209/2/1
f 214/2/1 210/2/1 213/2/1
f 219/2/1 216/2/1 215/2/1
f 220/2/1 216/2/1 219/2/1
f 221/2/1 218/2/1 217/2/1
f 222/2/1 218/2/1 221/2/1
f 227/2/1 224/2/1 223/2/1
f 228/2/1 224/2/1 227/2/1
f 229/2/1 226/2/1 225/2/1
f 230/2/1 226/2/1 229/2/1
f 235/2/1 232/2/1 231/2/1
f 236/2/1 232/2/1 235/2/1
f 237/2/1 234/2/1 233/2/1
f 238/2/1 234/2/1 237/2/1
f 242/2/1 240/2/1 239/2/1
f 243/1/1 241/1/1 240/1/1
f 243/2/1 240/2/1 242/2/1
f 244/1/1 241/1/1 243/1/1
f 249/2/1 246/2/1 245/2/1
f 250/2/1 246/2/1 249/2/1
f 251/2/1 248/2/1 247/2/1
f 252/2/1 248/2/1 251/2/1
f 257/2/1 254/2/1 253/2/1
f 258/2/1 254/2/1 257/2/1
f 259/2/1 256/2/1 255/2/1
f 260/2/1 256/2/1 259/2/1
f 265/2/1 262/2/1 261/2/1
f 266/2/1 262/2/1 265/2/1
f 267/2/1 264/2/1 263/2/1
f 268/2/1 264/2/1 267/2/1
f 272/2/1 270/2/1 269/2/1
f 273/1/1 271/1/1 270/1/1
f 273/2/1 270/2/1 272/2/1
f 274/1/1 271/1/1 273/1/1
f 279/2/1 276/2/1 275/2/1
f 280/2/1 276/2/1 279/2/1
f 281/2/1 278/2/1 277/2/1
f 282/2/1 278/2/1 281/2/1
f 286/2/1 284/2/1 283/2/1
f 287/1/1 285/1/1 284/1/1
f 287/2/1 284/2/1 286/2/1
f 288/1/1 285/1/1 287/1/1
f 293/2/1 290/2/1 289/2/1
f 294/2/1 290/2/1 293/2/1
f 295/2/1 292/2/1 291/2/1
f 296/2/1 292/2/1 295/2/1
f 300/2/1 298/2/1 297/2/1
f 301/1/1 299/1/1 298/1/1
f 301/2/1 298/2/1 300/2/1
f 302/1/1 299/1/1 301/1/1
f 307/2/1 304/2/1 303/2/1
f 308/2/1 304/2/1 307/2/1
f 309/2/1 306/2/1 305/2/1
f 310/2/1 306/2/1 309/2/1
f 315/1/1 312/1/1 311/1/1
f 316/1/1 312/1/1 315/1/1
f 317/1/1 314/1/1 313/1/1
f 318/1/1 314/1/1 317/1/1
f 319/2/1 316/2/1 315/2/1
f 320/2/1 316/2/1 319/2/1
f 321/2/1 318/2/1 317/2/1
f 322/2/1 318/2/1 321/2/1
f 323/2/2 324/2/2 327/2/2
f 327/2/2 324/2/2 328/2/2
f 325/2/2 326/2/2 329/2/2
f 329/2/2 326/2/2 330/2/2
f 331/2/2 332/2/2 334/2/2
f 332/1/2 333/1/2 335/1/2
f 334/2/2 332/2/2 335/2/2
f 335/1/2 333/1/2 336/1/2
f 337/2/2 338/2/2 341/2/2
f 341/2/2 338/2/2 342/2/2
f 339/2/2 340/2/2 343/2/2
f 343/2/2 340/2/2 344/2/2
f 345/2/2 346/2/2 348/2/2
f 346/1/2 347/1/2 349/1/2
f 348/2/2 346/2/2 349/2/2
f 349/1/2 347/1/2 350/1/2
f 351/2/2 352/2/2 355/2/2
f 355/2/2 352/2/2 356/2/2
f 353/2/2 354/2/2 357/2/2
f 357/2/2 354/2/2 358/2/2
f 359/2/2 360/2/2 362/2/2
f 360/1/2 361/1/2 363/1/2
f 362/2/2 360/2/2 363/2/2
f 363/1/2 361/1/2 364/1/2
f 365/2/2 366/2/2 369/2/2
f 369/2/2 366/2/2 370/2/2
f 367/2/2 368/2/2 371/2/2
f 371/2/2 368/2/2 372/2/2
f 373/2/2 374/2/2 377/2/2
f 377/2/2 374/2/2 378/2/2
f 375/2/2 376/2/2 379/2/2
f 379/2/2 376/2/2 380/2/2
f 381/2/2 382/2/2 385/2/2
f 385/2/2 382/2/2 386/2/2
f 383/2/2 384/2/2 387/2/2
f 387/2/2 384/2/2 388/2/2
f 389/2/2 390/2/2 392/2/2
f 390/1/2 391/1/2 393/1/2
f 392/2/2 390/2/2 393/2/2
f 393/1/2 391/1/2 394/1/2
f 395/2/2 396/2/2 399/2/2
f 399/2/2 396/2/2 400/2/2
f 397/2/2 398/2/2 401/2/2
f 401/2/2 398/2/2 402/2/2
f 403/2/2 404/2/2 407/2/2
f 407/2/2 404/2/2 408/2/2
f 405/2/2 406/2/2 409/2/2
f 409/2/2 406/2/2 410/2/2
f 411/2/2 412/2/2 415/2/2
f 415/2/2 412/2/2 416/2/2
f 413/2/2 414/2/2 417/2/2
f 417/2/2 414/2/2 418/2/2
f 419/2/2 420/2/2 423/2/2
f 423/2/2 420/2/2 424/2/2
f 421/2/2 422/2/2 425/2/2
f 425/2/2 422/2/2 426/2/2
f 427/2/2 428/2/2 431/2/2
f 431/2/2 428/2/2 432/2/2
f 429/2/2 430/2/2 433/2/2
f 433/2/2 430/2/2 434/2/2
f 435/2/2 436/2/2 439/2/2
f 439/2/2 436/2/2 440/2/2
f 437/2/2 438/2/2 441/2/2
f 441/2/2 438/2/2 442/2/2
f 443/2/2 444/2/2 447/2/2
f 447/2/2 444/2/2 448/2/2
f 445/2/2 446/2/2 449/2/2
f 449/2/2 446/2/2 450/2/2
f 451/2/2 452/2/2 455/2/2
f 455/2/2 452/2/2 456/2/2
f 453/2/2 454/2/2 457/2/2
f 457/2/2 454/2/2 458/2/2
f 459/2/2 460/2/2 463/2/2
f 463/2/2 460/2/2 464/2/2
f 461/2/2 462/2/2 465/2/2
f 465/2/2 462/2/2 466/2/2
f 467/1/2 468/1/2 471/1/2
f 471/1/2 468/1/2 472/1/2
f 469/1/2 470/1/2 473/1/2
f 473/1/2 470/1/2 474/1/2
f 471/2/2 472/2/2 475/2/2
f 475/2/2 472/2/2 476/2/2
f 473/2/2 474/2/2 477/2/2
f 477/2/2 474/2/2 478/2/2
f 479/2/2 480/2/2 483/2/2
f 483/2/2 480/2/2 484/2/2
f 481/2/2 482/2/2 485/2/2
f 485/2/2 482/2/2 486/2/2
f 487/2/2 488/2/2 490/2/2
f 488/1/2 489/1/2 491/1/2
f 490/2/2 488/2/2 491/2/2
f 491/1/2 489/1/2 492/1/2
f 493/2/2 494/2/2 497/2/2
f 497/2/2 494/2/2 498/2/2
f 495/2/2 496/2/2 499/2/2
f 499/2/2 496/2/2 500/2/2
f 501/2/2 502/2/2 504/2/2
f 502/1/2 503/1/2 505/1/2
f 504/2/2 502/2/2 505/2/2
f 505/1/2 503/1/2 506/1/2
f 507/2/2 508/2/2 511/2/2
f 511/2/2 508/2/2 512/2/2
f 509/2/2 510/2/2 513/2/2
f 513/2/2 510/2/2 514/2/2
f 515/2/2 516/2/2 518/2/2
f 516/1/2 517/1/2 519/1/2
f 518/2/2 516/2/2 519/2/2
f 519/1/2 517/1/2 520/1/2
f 521/2/2 522/2/2 525/2/2
f 525/2/2 522/2/2 526/2/2
f 523/2/2 524/2/2 527/2/2
f 527/2/2 524/2/2 528/2/2
f 529/2/2 530/2/2 533/2/2
f 533/2/2 530/2/2 534/2/2
f 531/2/2 532/2/2 535/2/2
f 535/2/2 532/2/2 536/2/2
f 537/2/2 538/2/2 541/2/2
f 541/2/2 538/2/2 542/2/2
f 539/2/2 540/2/2 543/2/2
f 543/2/2 540/2/2 544/2/2
f 545/2/2 546/2/2 548/2/2
f 546/1/2 547/1/2 549/1/2
f 548/2/2 546/2/2 549/2/2
f 549/1/2 547/1/2 550/1/2
f 551/2/2 552/2/2 555/2/2
f 555/2/2 552/2/2 556/2/2
f 553/2/2 554/2/2 557/2/2
f 557/2/2 554/2/2 558/2/2
f 559/2/2 560/2/2 563/2/2
f 563/2/2 560/2/2 564/2/2
f 561/2/2 562/2/2 565/2/2
f 565/2/2 562/2/2 566/2/2
f 567/2/2 568/2/2 571/2/2
f 571/2/2 568/2/2 572/2/2
f 569/2/2 570/2/2 573/2/2
f 573/2/2 570/2/2 574/2/2
f 575/2/2 576/2/2 579/2/2
f 579/2/2 576/2/2 580/2/2
f 577/2/2 578/2/2 581/2/2
f 581/2/2 578/2/2 582/2/2
f 583/2/2 584/2/2 587/2/2
f 587/2/2 584/2/2 588/2/2
f 585/2/2 586/2/2 589/2/2
f 589/2/2 586/2/2 590/2/2
f 591/2/2 592/2/2 595/2/2
f 595/2/2 592/2/2 596/2/2
f 593/2/2 594/2/2 597/2/2
f 597/2/2 594/2/2 598/2/2
f 599/2/2 600/2/2 603/2/2
f 603/2/2 600/2/2 604/2/2
f 601/2/2 602/2/2 605/2/2
f 605/2/2 602/2/2 606/2/2
f 607/2/2 608/2/2 611/2/2
f 611/2/2 608/2/2 612/2/2
f 609/2/2 610/2/2 613/2/2
f 613/2/2 610/2/2 614/2/2
f 615/2/2 616/2/2 619/2/2
f 619/2/2 616/2/2 620/2/2
f 617/2/2 618/2/2 621/2/2
f 621/2/2 618/2/2 622/2/2
f 623/1/2 624/1/2 625/1/2
f 625/1/2 624/1/2 626/1/2
f 625/2/2 626/2/2 627/2/2
f 627/2/2 626/2/2 628/2/2
f 627/1/2 628/1/2 629/1/2
f 629/1/2 628/1/2 630/1/2
f 635/1/3 632/1/3 631/1/3
f 636/1/3 634/1/3 633/1/3
f 637/2/3 635/2/3 634/2/3
f 637/1/3 634/1/3 636/1/3
f 638/1/3 632/1/3 635/1/3
f 638/2/3 635/2/3 637/2/3
f 641/1/3 632/1/3 638/1/3
f 642/1/3 640/1/3 639/1/3
f 643/2/3 641/2/3 640/2/3
f 643/1/3 640/1/3 642/1/3
f 644/1/3 632/1/3 641/1/3
f 644/2/3 641/2/3 643/2/3
f 645/1/3 632/1/3 644/1/3
f 649/2/3 647/2/3 646/2/3
f 650/2/3 647/2/3 649/2/3
f 651/2/3 647/2/3 650/2/3
f 652/2/3 647/2/3 651/2/3
f 655/2/3 649/2/3 648/2/3
f 655/2/3 650/2/3 649/2/3
f 656/2/3 652/2/3 651/2/3
f 656/2/3 653/2/3 652/2/3
f 659/2/3 655/2/3 654/2/3
f 660/2/3 657/2/3 656/2/3
f 663/2/3 659/2/3 658/2/3
f 664/2/3 661/2/3 660/2/3
f 666/2/3 663/2/3 662/2/3
f 666/2/3 650/2/3 655/2/3
f 666/2/3 655/2/3 659/2/3
f 666/2/3 659/2/3 663/2/3
f 667/2/3 665/2/3 664/2/3
f 667/2/3 664/2/3 660/2/3
f 667/2/3 660/2/3 656/2/3
f 667/2/3 656/2/3 651/2/3
f 668/2/3 666/2/3 662/2/3
f 668/2/3 667/2/3 666/2/3
f 669/2/3 665/2/3 667/2/3
f 669/2/3 667/2/3 668/2/3
f 671/2/3 668/2/3 662/2/3
f 672/2/3 665/2/3 669/2/3
f 674/2/3 671/2/3 670/2/3
f 674/2/3 668/2/3 671/2/3
f 675/2/3 673/2/3 672/2/3
f 675/2/3 672/2/3 669/2/3
f 676/2/3 674/2/3 670/2/3
f 676/2/3 675/2/3 674/2/3
f 677/2/3 673/2/3 675/2/3
f 677/2/3 675/2/3 676/2/3
f 678/2/3 676/2/3 670/2/3
f 679/2/3 676/2/3 678/2/3
f 680/2/3 673/2/3 677/2/3
f 681/2/3 673/2/3 680/2/3
f 682/2/3 676/2/3 679/2/3
f 683/2/3 680/2/3 677/2/3
f 684/2/3 682/2/3 679/2/3
f 684/2/3 683/2/3 682/2/3
f 685/2/3 680/2/3 683/2/3
f 685/2/3 683/2/3 684/2/3
f 686/2/3 684/2/3 679/2/3
f 687/2/3 684/2/3 686/2/3
f 688/2/3 680/2/3 685/2/3
f 689/2/3 680/2/3 688/2/3
f 690/2/3 684/2/3 687/2/3
f 691/2/3 684/2/3 690/2/3
f 692/2/3 688/2/3 685/2/3
f 693/2/3 688/2/3 692/2/3
f 694/2/3 684/2/3 691/2/3
f 695/2/3 684/2/3 694/2/3
f 696/2/3 692/2/3 685/2/3
f 697/2/3 692/2/3 696/2/3
f 698/2/3 684/2/3 695/2/3
f 699/2/3 684/2/3 698/2/3
f 700/2/3 684/2/3 699/2/3
f 701/2/3 696/2/3 685/2/3
f 702/2/3 696/2/3 701/2/3
f 703/2/3 696/2/3 702/2/3
f 704/2/3 700/2/3 699/2/3
f 704/2/3 702/2/3 701/2/3
f 704/2/3 701/2/3 700/2/3
f 705/2/3 702/2/3 704/2/3
f 709/2/3 707/2/3 706/2/3
f 710/2/3 707/2/3 709/2/3
f 711/2/3 707/2/3 710/2/3
f 712/2/3 707/2/3 711/2/3
f 715/2/3 709/2/3 708/2/3
f 715/2/3 710/2/3 709/2/3
f 716/2/3 712/2/3 711/2/3
f 716/2/3 713/2/3 712/2/3
f 719/2/3 715/2/3 714/2/3
f 720/2/3 717/2/3 716/2/3
f 723/2/3 719/2/3 718/2/3
f 724/2/3 721/2/3 720/2/3
f 726/2/3 723/2/3 722/2/3
f 726/2/3 710/2/3 715/2/3
f 726/2/3 719/2/3 723/2/3
f 726/2/3 715/2/3 719/2/3
f 727/2/3 724/2/3 720/2/3
f 727/2/3 720/2/3 716/2/3
f 727/2/3 716/2/3 711/2/3
f 727/2/3 725/2/3 724/2/3
f 728/2/3 726/2/3 722/2/3
f 728/2/3 727/2/3 726/2/3
f 729/2/3 725/2/3 727/2/3
f 729/2/3 727/2/3 728/2/3
f 731/2/3 728/2/3 722/2/3
f 732/2/3 725/2/3 729/2/3
f 734/2/3 731/2/3 730/2/3
f 734/2/3 728/2/3 731/2/3
f 735/2/3 732/2/3 729/2/3
f 735/2/3 733/2/3 732/2/3
f 736/2/3 734/2/3 730/2/3
f 736/2/3 735/2/3 734/2/3
f 737/2/3 733/2/3 735/2/3
f 737/2/3 735/2/3 736/2/3
f 738/2/3 736/2/3 730/2/3
f 739/2/3 736/2/3 738/2/3
f 740/2/3 733/2/3 737/2/3
f 741/2/3 733/2/3 740/2/3
f 742/2/3 736/2/3 739/2/3
f 743/2/3 740/2/3 737/2/3
f 744/2/3 742/2/3 739/2/3
f 744/2/3 743/2/3 742/2/3
f 745/2/3 740/2/3 743/2/3
f 745/2/3 743/2/3 744/2/3
f 746/2/3 744/2/3 739/2/3
f 747/2/3 744/2/3 746/2/3
f 748/2/3 740/2/3 745/2/3
f 749/2/3 740/2/3 748/2/3
f 750/2/3 744/2/3 747/2/3
f 751/2/3 744/2/3 750/2/3
f 752/2/3 748/2/3 745/2/3
f 753/2/3 748/2/3 752/2/3
f 754/2/3 744/2/3 751/2/3
f 755/2/3 744/2/3 754/2/3
f 756/2/3 752/2/3 745/2/3
f 757/2/3 752/2/3 756/2/3
f 758/2/3 744/2/3 755/2/3
f 759/2/3 744/2/3 758/2/3
f 760/2/3 744/2/3 759/2/3
f 761/2/3 756/2/3 745/2/3
f 762/2/3 756/2/3 761/2/3
f 763/2/3 756/2/3 762/2/3
f 764/2/3 760/2/3 759/2/3
f 764/2/3 762/2/3 761/2/3
f 764/2/3 761/2/3 760/2/3
f 765/2/3 762/2/3 764/2/3
f 769/1/3 767/1/3 766/1/3
f 770/1/3 767/1/3 769/1/3
f 771/1/3 769/1/3 766/1/3
f 772/1/3 769/1/3 771/1/3
f 775/1/3 767/1/3 770/1/3
f 776/1/3 767/1/3 775/1/3
f 777/1/3 771/1/3 766/1/3
f 778/1/3 771/1/3 777/1/3
f 779/2/3 774/2/3 773/2/3
f 780/2/3 774/2/3 779/2/3
f 781/1/3 767/1/3 776/1/3
f 782/1/3 767/1/3 781/1/3
f 783/1/3 777/1/3 766/1/3
f 784/1/3 777/1/3 783/1/3
f 785/1/3 767/1/3 782/1/3
f 786/1/3 767/1/3 785/1/3
f 787/1/3 783/1/3 766/1/3
f 788/1/3 783/1/3 787/1/3
f 789/1/3 767/1/3 786/1/3
f 790/1/3 767/1/3 789/1/3
f 791/2/3 779/2/3 773/2/3
f 792/2/3 774/2/3 780/2/3
f 793/2/3 791/2/3 773/2/3
f 793/2/3 792/2/3 791/2/3
f 794/2/3 774/2/3 792/2/3
f 794/2/3 792/2/3 793/2/3
f 797/2/3 796/2/3 795/2/3
f 798/2/3 796/2/3 797/2/3
f 799/1/3 787/1/3 766/1/3
f 800/1/3 787/1/3 799/1/3
f 801/1/3 767/1/3 790/1/3
f 802/1/3 767/1/3 801/1/3
f 803/2/3 797/2/3 795/2/3
f 804/2/3 796/2/3 798/2/3
f 805/2/3 803/2/3 795/2/3
f 805/2/3 804/2/3 803/2/3
f 806/2/3 796/2/3 804/2/3
f 806/2/3 804/2/3 805/2/3
f 809/2/3 808/2/3 807/2/3
f 810/2/3 808/2/3 809/2/3
f 811/1/3 799/1/3 766/1/3
f 814/1/3 767/1/3 802/1/3
f 815/2/3 809/2/3 807/2/3
f 816/2/3 808/2/3 810/2/3
f 817/2/3 815/2/3 807/2/3
f 817/2/3 816/2/3 815/2/3
f 818/2/3 808/2/3 816/2/3
f 818/2/3 816/2/3 817/2/3
f 821/2/3 820/2/3 819/2/3
f 822/2/3 820/2/3 821/2/3
f 823/1/3 812/1/3 811/1/3
f 826/1/3 814/1/3 813/1/3
f 827/1/3 824/1/3 823/1/3
f 830/1/3 826/1/3 825/1/3
f 831/1/3 828/1/3 827/1/3
f 833/2/3 821/2/3 819/2/3
f 834/2/3 820/2/3 822/2/3
f 836/1/3 830/1/3 829/1/3
f 837/1/3 832/1/3 831/1/3
f 839/2/3 833/2/3 819/2/3
f 839/2/3 834/2/3 833/2/3
f 840/2/3 820/2/3 834/2/3
f 840/2/3 834/2/3 839/2/3
f 842/1/3 836/1/3 835/1/3
f 843/1/3 838/1/3 837/1/3
f 844/1/3 842/1/3 841/1/3
f 845/1/3 811/1/3 766/1/3
f 845/1/3 844/1/3 843/1/3
f 845/1/3 843/1/3 837/1/3
f 845/1/3 823/1/3 811/1/3
f 845/1/3 837/1/3 831/1/3
f 845/1/3 827/1/3 823/1/3
f 845/1/3 831/1/3 827/1/3
f 846/2/3 768/2/3 767/2/3
f 846/1/3 844/1/3 845/1/3
f 846/1/3 842/1/3 844/1/3
f 846/1/3 767/1/3 814/1/3
f 846/1/3 830/1/3 836/1/3
f 846/1/3 826/1/3 830/1/3
f 846/1/3 836/1/3 842/1/3
f 846/1/3 814/1/3 826/1/3
f 847/2/3 768/2/3 846/2/3
f 851/1/3 849/1/3 848/1/3
f 852/1/3 849/1/3 851/1/3
f 853/1/3 851/1/3 848/1/3
f 854/1/3 851/1/3 853/1/3
f 857/1/3 849/1/3 852/1/3
f 858/1/3 849/1/3 857/1/3
f 859/1/3 853/1/3 848/1/3
f 860/1/3 853/1/3 859/1/3
f 861/2/3 856/2/3 855/2/3
f 862/2/3 856/2/3 861/2/3
f 863/1/3 849/1/3 858/1/3
f 864/1/3 849/1/3 863/1/3
f 865/1/3 859/1/3 848/1/3
f 866/1/3 859/1/3 865/1/3
f 867/1/3 849/1/3 864/1/3
f 868/1/3 849/1/3 867/1/3
f 869/1/3 865/1/3 848/1/3
f 870/1/3 865/1/3 869/1/3
f 871/1/3 849/1/3 868/1/3
f 872/1/3 849/1/3 871/1/3
f 873/2/3 861/2/3 855/2/3
f 874/2/3 856/2/3 862/2/3
f 875/2/3 873/2/3 855/2/3
f 875/2/3 874/2/3 873/2/3
f 876/2/3 856/2/3 874/2/3
f 876/2/3 874/2/3 875/2/3
f 879/2/3 878/2/3 877/2/3
f 880/2/3 878/2/3 879/2/3
f 881/1/3 869/1/3 848/1/3
f 882/1/3 869/1/3 881/1/3
f 883/1/3 849/1/3 872/1/3
f 884/1/3 849/1/3 883/1/3
f 885/2/3 879/2/3 877/2/3
f 886/2/3 878/2/3 880/2/3
f 887/2/3 885/2/3 877/2/3
f 887/2/3 886/2/3 885/2/3
f 888/2/3 878/2/3 886/2/3
f 888/2/3 886/2/3 887/2/3
f 891/2/3 890/2/3 889/2/3
f 892/2/3 890/2/3 891/2/3
f 893/1/3 881/1/3 848/1/3
f 896/1/3 849/1/3 884/1/3
f 897/2/3 891/2/3 889/2/3
f 898/2/3 890/2/3 892/2/3
f 899/2/3 897/2/3 889/2/3
f 899/2/3 898/2/3 897/2/3
f 900/2/3 890/2/3 898/2/3
f 900/2/3 898/2/3 899/2/3
f 903/2/3 902/2/3 901/2/3
f 904/2/3 902/2/3 903/2/3
f 905/1/3 894/1/3 893/1/3
f 908/1/3 896/1/3 895/1/3
f 909/1/3 906/1/3 905/1/3
f 912/1/3 908/1/3 907/1/3
f 913/1/3 910/1/3 909/1/3
f 915/2/3 903/2/3 901/2/3
f 916/2/3 902/2/3 904/2/3
f 918/1/3 912/1/3 911/1/3
f 919/1/3 914/1/3 913/1/3
f 921/2/3 915/2/3 901/2/3
f 921/2/3 916/2/3 915/2/3
f 922/2/3 902/2/3 916/2/3
f 922/2/3 916/2/3 921/2/3
f 924/1/3 918/1/3 917/1/3
f 925/1/3 920/1/3 919/1/3
f 926/1/3 924/1/3 923/1/3
f 927/1/3 893/1/3 848/1/3
f 927/1/3 926/1/3 925/1/3
f 927/1/3 925/1/3 919/1/3
f 927/1/3 905/1/3 893/1/3
f 927/1/3 919/1/3 913/1/3
f 927/1/3 909/1/3 905/1/3
f 927/1/3 913/1/3 909/1/3
f 928/2/3 850/2/3 849/2/3
f 928/1/3 926/1/3 927/1/3
f 928/1/3 924/1/3 926/1/3
f 928/1/3 849/1/3 896/1/3
f 928/1/3 912/1/3 918/1/3
f 928/1/3 908/1/3 912/1/3
f 928/1/3 918/1/3 924/1/3
f 928/1/3 896/1/3 908/1/3
f 929/2/3 850/2/3 928/2/3
f 930/1/4 931/1/4 933/1/4
f 933/1/4 931/1/4 934/1/4
f 930/1/4 933/1/4 935/1/4
f 935/1/4 933/1/4 936/1/4
f 934/1/4 931/1/4 939/1/4
f 939/1/4 931/1/4 940/1/4
f 930/1/4 935/1/4 941/1/4
f 941/1/4 935/1/4 942/1/4
f 937/1/4 938/1/4 943/1/4
f 943/1/4 938/1/4 944/1/4
f 940/1/4 931/1/4 945/1/4
f 945/1/4 931/1/4 946/1/4
f 930/1/4 941/1/4 947/1/4
f 947/1/4 941/1/4 948/1/4
f 946/1/4 931/1/4 949/1/4
f 949/1/4 931/1/4 950/1/4
f 930/1/4 947/1/4 951/1/4
f 951/1/4 947/1/4 952/1/4
f 950/1/4 931/1/4 953/1/4
f 953/1/4 931/1/4 954/1/4
f 937/1/4 943/1/4 955/1/4
f 944/1/4 938/1/4 956/1/4
f 937/1/4 955/1/4 957/1/4
f 955/1/4 956/1/4 957/1/4
f 956/1/4 938/1/4 958/1/4
f 957/1/4 956/1/4 958/1/4
f 959/1/4 960/1/4 961/1/4
f 961/1/4 960/1/4 962/1/4
f 930/1/4 951/1/4 963/1/4
f 963/1/4 951/1/4 964/1/4
f 954/1/4 931/1/4 965/1/4
f 965/1/4 931/1/4 966/1/4
f 959/1/4 961/1/4 967/1/4
f 962/1/4 960/1/4 968/1/4
f 959/1/4 967/1/4 969/1/4
f 967/1/4 968/1/4 969/1/4
f 968/1/4 960/1/4 970/1/4
f 969/1/4 968/1/4 970/1/4
f 971/1/4 972/1/4 973/1/4
f 973/1/4 972/1/4 974/1/4
f 930/1/4 963/1/4 975/1/4
f 966/1/4 931/1/4 978/1/4
f 971/1/4 973/1/4 979/1/4
f 974/1/4 972/1/4 980/1/4
f 971/1/4 979/1/4 981/1/4
f 979/1/4 980/1/4 981/1/4
f 980/1/4 972/1/4 982/1/4
f 981/1/4 980/1/4 982/1/4
f 983/1/4 984/1/4 985/1/4
f 985/1/4 984/1/4 986/1/4
f 975/1/4 976/1/4 987/1/4
f 977/1/4 978/1/4 990/1/4
f 987/1/4 988/1/4 991/1/4
f 989/1/4 990/1/4 994/1/4
f 991/1/4 992/1/4 995/1/4
f 983/1/4 985/1/4 997/1/4
f 986/1/4 984/1/4 998/1/4
f 993/1/4 994/1/4 1000/1/4
f 995/1/4 996/1/4 1001/1/4
f 983/1/4 997/1/4 1003/1/4
f 997/1/4 998/1/4 1003/1/4
f 998/1/4 984/1/4 1004/1/4
f 1003/1/4 998/1/4 1004/1/4
f 999/1/4 1000/1/4 1006/1/4
f 1001/1/4 1002/1/4 1007/1/4
f 1005/1/4 1006/1/4 1008/1/4
f 930/1/4 975/1/4 1009/1/4
f 1007/1/4 1008/1/4 1009/1/4
f 1001/1/4 1007/1/4 1009/1/4
f 975/1/4 987/1/4 1009/1/4
f 995/1/4 1001/1/4 1009/1/4
f 987/1/4 991/1/4 1009/1/4
f 991/1/4 995/1/4 1009/1/4
f 931/2/4 932/2/4 1010/2/4
f 1009/1/4 1008/1/4 1010/1/4
f 1008/1/4 1006/1/4 1010/1/4
f 978/1/4 931/1/4 1010/1/4
f 1000/1/4 994/1/4 1010/1/4
f 994/1/4 990/1/4 1010/1/4
f 1006/1/4 1000/1/4 1010/1/4
f 990/1/4 978/1/4 1010/1/4
f 1010/2/4 932/2/4 1011/2/4
f 1012/1/4 1013/1/4 1015/1/4
f 1015/1/4 1013/1/4 1016/1/4
f 1012/1/4 1015/1/4 1017/1/4
f 1017/1/4 1015/1/4 1018/1/4
f 1016/1/4 1013/1/4 1021/1/4
f 1021/1/4 1013/1/4 1022/1/4
f 1012/1/4 1017/1/4 1023/1/4
f 1023/1/4 1017/1/4 1024/1/4
f 1019/1/4 1020/1/4 1025/1/4
f 1025/1/4 1020/1/4 1026/1/4
f 1022/1/4 1013/1/4 1027/1/4
f 1027/1/4 1013/1/4 1028/1/4
f 1012/1/4 1023/1/4 1029/1/4
f 1029/1/4 1023/1/4 1030/1/4
f 1028/1/4 1013/1/4 1031/1/4
f 1031/1/4 1013/1/4 1032/1/4
f 1012/1/4 1029/1/4 1033/1/4
f 1033/1/4 1029/1/4 1034/1/4
f 1032/1/4 1013/1/4 1035/1/4
f 1035/1/4 1013/1/4 1036/1/4
f 1019/1/4 1025/1/4 1037/1/4
f 1026/1/4 1020/1/4 1038/1/4
f 1019/1/4 1037/1/4 1039/1/4
f 1037/1/4 1038/1/4 1039/1/4
f 1038/1/4 1020/1/4 1040/1/4
f 1039/1/4 1038/1/4 1040/1/4
f 1041/1/4 1042/1/4 1043/1/4
f 1043/1/4 1042/1/4 1044/1/4
f 1012/1/4 1033/1/4 1045/1/4
f 1045/1/4 1033/1/4 1046/1/4
f 1036/1/4 1013/1/4 1047/1/4
f 1047/1/4 1013/1/4 1048/1/4
f 1041/1/4 1043/1/4 1049/1/4
f 1044/1/4 1042/1/4 1050/1/4
f 1041/1/4 1049/1/4 1051/1/4
f 1049/1/4 1050/1/4 1051/1/4
f 1050/1/4 1042/1/4 1052/1/4
f 1051/1/4 1050/1/4 1052/1/4
f 1053/1/4 1054/1/4 1055/1/4
f 1055/1/4 1054/1/4 1056/1/4
f 1012/1/4 1045/1/4 1057/1/4
f 1048/1/4 1013/1/4 1060/1/4
f 1053/1/4 1055/1/4 1061/1/4
f 1056/1/4 1054/1/4 1062/1/4
f 1053/1/4 1061/1/4 1063/1/4
f 1061/1/4 1062/1/4 1063/1/4
f 1062/1/4 1054/1/4 1064/1/4
f 1063/1/4 1062/1/4 1064/1/4
f 1065/1/4 1066/1/4 1067/1/4
f 1067/1/4 1066/1/4 1068/1/4
f 1057/1/4 1058/1/4 1069/1/4
f 1059/1/4 1060/1/4 1072/1/4
f 1069/1/4 1070/1/4 1073/1/4
f 1071/1/4 1072/1/4 1076/1/4
f 1073/1/4 1074/1/4 1077/1/4
f 1065/1/4 1067/1/4 1079/1/4
f 1068/1/4 1066/1/4 1080/1/4
f 1075/1/4 1076/1/4 1082/1/4
f 1077/1/4 1078/1/4 1083/1/4
f 1065/1/4 1079/1/4 1085/1/4
f 1079/1/4 1080/1/4 1085/1/4
f 1080/1/4 1066/1/4 1086/1/4
f 1085/1/4 1080/1/4 1086/1/4
f 1081/1/4 1082/1/4 1088/1/4
f 1083/1/4 1084/1/4 1089/1/4
f 1087/1/4 1088/1/4 1090/1/4
f 1012/1/4 1057/1/4 1091/1/4
f 1089/1/4 1090/1/4 1091/1/4
f 1083/1/4 1089/1/4 1091/1/4
f 1057/1/4 1069/1/4 1091/1/4
f 1077/1/4 1083/1/4 1091/1/4
f 1069/1/4 1073/1/4 1091/1/4
f 1073/1/4 1077/1/4 1091/1/4
f 1013/2/4 1014/2/4 1092/2/4
f 1091/1/4 1090/1/4 1092/1/4
f 1090/1/4 1088/1/4 1092/1/4
f 1060/1/4 1013/1/4 1092/1/4
f 1082/1/4 1076/1/4 1092/1/4
f 1076/1/4 1072/1/4 1092/1/4
f 1088/1/4 1082/1/4 1092/1/4
f 1072/1/4 1060/1/4 1092/1/4
f 1092/2/4 1014/2/4 1093/2/4
f 1094/2/4 1095/2/4 1097/2/4
f 1097/2/4 1095/2/4 1098/2/4
f 1098/2/4 1095/2/4 1099/2/4
f 1099/2/4 1095/2/4 1100/2/4
f 1096/2/4 1097/2/4 1103/2/4
f 1097/2/4 1098/2/4 1103/2/4
f 1099/2/4 1100/2/4 1104/2/4
f 1100/2/4 1101/2/4 1104/2/4
f 1102/2/4 1103/2/4 1107/2/4
f 1104/2/4 1105/2/4 1108/2/4
f 1106/2/4 1107/2/4 1111/2/4
f 1108/2/4 1109/2/4 1112/2/4
f 1110/2/4 1111/2/4 1114/2/4
f 1103/2/4 1098/2/4 1114/2/4
f 1107/2/4 1103/2/4 1114/2/4
f 1111/2/4 1107/2/4 1114/2/4
f 1112/2/4 1113/2/4 1115/2/4
f 1108/2/4 1112/2/4 1115/2/4
f 1104/2/4 1108/2/4 1115/2/4
f 1099/2/4 1104/2/4 1115/2/4
f 1110/2/4 1114/2/4 1116/2/4
f 1114/2/4 1115/2/4 1116/2/4
f 1115/2/4 1113/2/4 1117/2/4
f 1116/2/4 1115/2/4 1117/2/4
f 1110/2/4 1116/2/4 1119/2/4
f 1117/2/4 1113/2/4 1120/2/4
f 1118/2/4 1119/2/4 1122/2/4
f 1119/2/4 1116/2/4 1122/2/4
f 1120/2/4 1121/2/4 1123/2/4
f 1117/2/4 1120/2/4 1123/2/4
f 1118/2/4 1122/2/4 1124/2/4
f 1122/2/4 1123/2/4 1124/2/4
f 1123/2/4 1121/2/4 1125/2/4
f 1124/2/4 1123/2/4 1125/2/4
f 1118/2/4 1124/2/4 1126/2/4
f 1126/2/4 1124/2/4 1127/2/4
f 1125/2/4 1121/2/4 1128/2/4
f 1128/2/4 1121/2/4 1129/2/4
f 1127/2/4 1124/2/4 1130/2/4
f 1125/2/4 1128/2/4 1131/2/4
f 1127/2/4 1130/2/4 1132/2/4
f 1130/2/4 1131/2/4 1132/2/4
f 1131/2/4 1128/2/4 1133/2/4
f 1132/2/4 1131/2/4 1133/2/4
f 1127/2/4 1132/2/4 1134/2/4
f 1134/2/4 1132/2/4 1135/2/4
f 1133/2/4 1128/2/4 1136/2/4
f 1136/2/4 1128/2/4 1137/2/4
f 1135/2/4 1132/2/4 1138/2/4
f 1138/2/4 1132/2/4 1139/2/4
f 1133/2/4 1136/2/4 1140/2/4
f 1140/2/4 1136/2/4 1141/2/4
f 1139/2/4 1132/2/4 1142/2/4
f 1142/2/4 1132/2/4 1143/2/4
f 1133/2/4 1140/2/4 1144/2/4
f 1144/2/4 1140/2/4 1145/2/4
f 1143/2/4 1132/2/4 1146/2/4
f 1146/2/4 1132/2/4 1147/2/4
f 1147/2/4 1132/2/4 1148/2/4
f 1133/2/4 1144/2/4 1149/2/4
f 1149/2/4 1144/2/4 1150/2/4
f 1150/2/4 1144/2/4 1151/2/4
f 1147/2/4 1148/2/4 1152/2/4
f 1149/2/4 1150/2/4 1152/2/4
f 1148/2/4 1149/2/4 1152/2/4
f 1152/2/4 1150/2/4 1153/2/4
f 1154/2/4 1155/2/4 1157/2/4
f 1157/2/4 1155/2/4 1158/2/4
f 1158/2/4 1155/2/4 1159/2/4
f 1159/2/4 1155/2/4 1160/2/4
f 1156/2/4 1157/2/4 1163/2/4
f 1157/2/4 1158/2/4 1163/2/4
f 1159/2/4 1160/2/4 1164/2/4
f 1160/2/4 1161/2/4 1164/2/4
f 1162/2/4 1163/2/4 1167/2/4
f 1164/2/4 1165/2/4 1168/2/4
f 1166/2/4 1167/2/4 1171/2/4
f 1168/2/4 1169/2/4 1172/2/4
f 1170/2/4 1171/2/4 1174/2/4
f 1163/2/4 1158/2/4 1174/2/4
f 1171/2/4 1167/2/4 1174/2/4
f 1167/2/4 1163/2/4 1174/2/4
f 1168/2/4 1172/2/4 1175/2/4
f 1164/2/4 1168/2/4 1175/2/4
f 1159/2/4 1164/2/4 1175/2/4
f 1172/2/4 1173/2/4 1175/2/4
f 1170/2/4 1174/2/4 1176/2/4
f 1174/2/4 1175/2/4 1176/2/4
f 1175/2/4 1173/2/4 1177/2/4
f 1176/2/4 1175/2/4 1177/2/4
f 1170/2/4 1176/2/4 1179/2/4
f 1177/2/4 1173/2/4 1180/2/4
f 1178/2/4 1179/2/4 1182/2/4
f 1179/2/4 1176/2/4 1182/2/4
f 1177/2/4 1180/2/4 1183/2/4
f 1180/2/4 1181/2/4 1183/2/4
f 1178/2/4 1182/2/4 1184/2/4
f 1182/2/4 1183/2/4 1184/2/4
f 1183/2/4 1181/2/4 1185/2/4
f 1184/2/4 1183/2/4 1185/2/4
f 1178/2/4 1184/2/4 1186/2/4
f 1186/2/4 1184/2/4 1187/2/4
f 1185/2/4 1181/2/4 1188/2/4
f 1188/2/4 1181/2/4 1189/2/4
f 1187/2/4 1184/2/4 1190/2/4
f 1185/2/4 1188/2/4 1191/2/4
f 1187/2/4 1190/2/4 1192/2/4
f 1190/2/4 1191/2/4 1192/2/4
f 1191/2/4 1188/2/4 1193/2/4
f 1192/2/4 1191/2/4 1193/2/4
f 1187/2/4 1192/2/4 1194/2/4
f 1194/2/4 1192/2/4 1195/2/4
f 1193/2/4 1188/2/4 1196/2/4
f 1196/2/4 1188/2/4 1197/2/4
f 1195/2/4 1192/2/4 1198/2/4
f 1198/2/4 1192/2/4 1199/2/4
f 1193/2/4 1196/2/4 1200/2/4
f 1200/2/4 1196/2/4 1201/2/4
f 1199/2/4 1192/2/4 1202/2/4
f 1202/2/4 1192/2/4 1203/2/4
f 1193/2/4 1200/2/4 1204/2/4
f 1204/2/4 1200/2/4 1205/2/4
f 1203/2/4 1192/2/4 1206/2/4
f 1206/2/4 1192/2/4 1207/2/4
f 1207/2/4 1192/2/4 1208/2/4
f 1193/2/4 1204/2/4 1209/2/4
f 1209/2/4 1204/2/4 1210/2/4
f 1210/2/4 1204/2/4 1211/2/4
f 1207/2/4 1208/2/4 1212/2/4
f 1209/2/4 1210/2/4 1212/2/4
f 1208/2/4 1209/2/4 1212/2/4
f 1212/2/4 1210/2/4 1213/2/4
f 1214/1/4 1215/1/4 1218/1/4
f 1216/1/4 1217/1/4 1219/1/4
f 1217/2/4 1218/2/4 1220/2/4
f 1219/1/4 1217/1/4 1220/1/4
f 1218/1/4 1215/1/4 1221/1/4
f 1220/2/4 1218/2/4 1221/2/4
f 1221/1/4 1215/1/4 1224/1/4
f 1222/1/4 1223/1/4 1225/1/4
f 1223/2/4 1224/2/4 1226/2/4
f 1225/1/4 1223/1/4 1226/1/4
f 1224/1/4 1215/1/4 1227/1/4
f 1226/2/4 1224/2/4 1227/2/4
f 1227/1/4 1215/1/4 1228/1/4
f 1234/1/5 1230/1/5 1229/1/5
f 1235/1/5 1230/1/5 1234/1/5
f 1236/1/5 1232/1/5 1231/1/5
f 1237/1/5 1235/1/5 1234/1/5
f 1237/1/5 1236/1/5 1235/1/5
f 1237/1/5 1234/1/5 1233/1/5
f 1238/1/5 1236/1/5 1237/1/5
f 1239/1/5 1236/1/5 1238/1/5
f 1240/1/5 1232/1/5 1236/1/5
f 1240/1/5 1236/1/5 1239/1/5
f 1241/1/5 1239/1/5 1238/1/5
f 1242/1/5 1239/1/5 1241/1/5
f 1243/1/5 1232/1/5 1240/1/5
f 1244/1/5 1232/1/5 1243/1/5
f 1249/2/5 1246/2/5 1245/2/5
f 1250/2/5 1246/2/5 1249/2/5
f 1251/2/5 1248/2/5 1247/2/5
f 1252/2/5 1248/2/5 1251/2/5
f 1257/2/5 1254/2/5 1253/2/5
f 1258/2/5 1254/2/5 1257/2/5
f 1259/2/5 1256/2/5 1255/2/5
f 1260/2/5 1256/2/5 1259/2/5
f 1269/2/5 1262/2/5 1261/2/5
f 1270/2/5 1262/2/5 1269/2/5
f 1271/2/5 1264/2/5 1263/2/5
f 1272/2/5 1264/2/5 1271/2/5
f 1273/2/5 1266/2/5 1265/2/5
f 1274/2/5 1266/2/5 1273/2/5
f 1275/2/5 1268/2/5 1267/2/5
f 1276/2/5 1268/2/5 1275/2/5
f 1285/2/5 1278/2/5 1277/2/5
f 1286/2/5 1278/2/5 1285/2/5
f 1287/2/5 1280/2/5 1279/2/5
f 1288/2/5 1280/2/5 1287/2/5
f 1289/2/5 1282/2/5 1281/2/5
f 1290/2/5 1282/2/5 1289/2/5
f 1291/2/5 1284/2/5 1283/2/5
f 1292/2/5 1284/2/5 1291/2/5
f 1301/2/5 1294/2/5 1293/2/5
f 1302/2/5 1294/2/5 1301/2/5
f 1303/2/5 1296/2/5 1295/2/5
f 1304/2/5 1296/2/5 1303/2/5
f 1305/2/5 1298/2/5 1297/2/5
f 1306/2/5 1298/2/5 1305/2/5
f 1307/2/5 1300/2/5 1299/2/5
f 1308/2/5 1300/2/5 1307/2/5
f 1317/2/5 1310/2/5 1309/2/5
f 1318/2/5 1310/2/5 1317/2/5
f 1319/2/5 1312/2/5 1311/2/5
f 1320/2/5 1312/2/5 1319/2/5
f 1321/2/5 1314/2/5 1313/2/5
f 1322/2/5 1314/2/5 1321/2/5
f 1323/2/5 1316/2/5 1315/2/5
f 1324/2/5 1316/2/5 1323/2/5
f 1333/2/5 1326/2/5 1325/2/5
f 1334/2/5 1326/2/5 1333/2/5
f 1335/2/5 1328/2/5 1327/2/5
f 1336/2/5 1328/2/5 1335/2/5
f 1337/2/5 1330/2/5 1329/2/5
f 1338/2/5 1330/2/5 1337/2/5
f 1339/2/5 1332/2/5 1331/2/5
f 1340/2/5 1332/2/5 1339/2/5
f 1349/2/5 1342/2/5 1341/2/5
f 1350/2/5 1342/2/5 1349/2/5
f 1351/2/5 1344/2/5 1343/2/5
f 1352/2/5 1344/2/5 1351/2/5
f 1353/2/5 1346/2/5 1345/2/5
f 1354/2/5 1346/2/5 1353/2/5
f 1355/2/5 1348/2/5 1347/2/5
f 1356/2/5 1348/2/5 1355/2/5
f 1365/2/5 1358/2/5 1357/2/5
f 1366/2/5 1358/2/5 1365/2/5
f 1367/2/5 1360/2/5 1359/2/5
f 1368/2/5 1360/2/5 1367/2/5
f 1369/2/5 1362/2/5 1361/2/5
f 1370/2/5 1362/2/5 1369/2/5
f 1371/2/5 1364/2/5 1363/2/5
f 1372/2/5 1364/2/5 1371/2/5
f 1381/2/5 1374/2/5 1373/2/5
f 1382/2/5 1374/2/5 1381/2/5
f 1383/2/5 1376/2/5 1375/2/5
f 1384/2/5 1376/2/5 1383/2/5
f 1385/2/5 1378/2/5 1377/2/5
f 1386/2/5 1378/2/5 1385/2/5
f 1387/2/5 1380/2/5 1379/2/5
f 1388/2/5 1380/2/5 1387/2/5
f 1397/2/5 1390/2/5 1389/2/5
f 1398/2/5 1390/2/5 1397/2/5
f 1399/2/5 1392/2/5 1391/2/5
f 1400/2/5 1392/2/5 1399/2/5
f 1401/2/5 1394/2/5 1393/2/5
f 1402/2/5 1394/2/5 1401/2/5
f 1403/2/5 1396/2/5 1395/2/5
f 1404/2/5 1396/2/5 1403/2/5
f 1413/2/5 1406/2/5 1405/2/5
f 1414/2/5 1406/2/5 1413/2/5
f 1415/2/5 1408/2/5 1407/2/5
f 1416/2/5 1408/2/5 1415/2/5
f 1417/2/5 1410/2/5 1409/2/5
f 1418/2/5 1410/2/5 1417/2/5
f 1419/2/5 1412/2/5 1411/2/5
f 1420/2/5 1412/2/5 1419/2/5
f 1437/2/5 1422/2/5 1421/2/5
f 1438/2/5 1422/2/5 1437/2/5
f 1439/2/5 1424/2/5 1423/2/5
f 1440/2/5 1424/2/5 1439/2/5
f 1441/2/5 1426/2/5 1425/2/5
f 1442/2/5 1426/2/5 1441/2/5
f 1443/2/5 1428/2/5 1427/2/5
f 1444/2/5 1428/2/5 1443/2/5
f 1445/2/5 1430/2/5 1429/2/5
f 1446/2/5 1430/2/5 1445/2/5
f 1447/2/5 1432/2/5 1431/2/5
f 1448/2/5 1432/2/5 1447/2/5
f 1449/2/5 1434/2/5 1433/2/5
f 1450/2/5 1434/2/5 1449/2/5
f 1451/2/5 1436/2/5 1435/2/5
f 1452/2/5 1436/2/5 1451/2/5
f 1453/1/5 1438/1/5 1437/1/5
f 1454/1/5 1438/1/5 1453/1/5
f 1455/1/5 1440/1/5 1439/1/5
f 1456/1/5 1440/1/5 1455/1/5
f 1457/1/5 1442/1/5 1441/1/5
f 1458/1/5 1442/1/5 1457/1/5
f 1459/1/5 1444/1/5 1443/1/5
f 1460/1/5 1444/1/5 1459/1/5
f 1461/1/5 1446/1/5 1445/1/5
f 1462/1/5 1446/1/5 1461/1/5
f 1463/1/5 1448/1/5 1447/1/5
f 1464/1/5 1448/1/5 1463/1/5
f 1465/1/5 1450/1/5 1449/1/5
f 1466/1/5 1450/1/5 1465/1/5
f 1467/1/5 1452/1/5 1451/1/5
f 1468/1/5 1452/1/5 1467/1/5
f 1485/2/5 1470/2/5 1469/2/5
f 1486/2/5 1470/2/5 1485/2/5
f 1487/2/5 1472/2/5 1471/2/5
f 1488/2/5 1472/2/5 1487/2/5
f 1489/2/5 1474/2/5 1473/2/5
f 1490/2/5 1474/2/5 1489/2/5
f 1491/2/5 1476/2/5 1475/2/5
f 1492/2/5 1476/2/5 1491/2/5
f 1493/2/5 1478/2/5 1477/2/5
f 1494/2/5 1478/2/5 1493/2/5
f 1495/2/5 1480/2/5 1479/2/5
f 1496/2/5 1480/2/5 1495/2/5
f 1497/2/5 1482/2/5 1481/2/5
f 1498/2/5 1482/2/5 1497/2/5
f 1499/2/5 1484/2/5 1483/2/5
f 1500/2/5 1484/2/5 1499/2/5
f 1517/2/5 1502/2/5 1501/2/5
f 1518/2/5 1502/2/5 1517/2/5
f 1519/2/5 1504/2/5 1503/2/5
f 1520/2/5 1504/2/5 1519/2/5
f 1521/2/5 1506/2/5 1505/2/5
f 1522/2/5 1506/2/5 1521/2/5
f 1523/2/5 1508/2/5 1507/2/5
f 1524/2/5 1508/2/5 1523/2/5
f 1525/2/5 1510/2/5 1509/2/5
f 1526/2/5 1510/2/5 1525/2/5
f 1527/2/5 1512/2/5 1511/2/5
f 1528/2/5 1512/2/5 1527/2/5
f 1529/2/5 1514/2/5 1513/2/5
f 1530/2/5 1514/2/5 1529/2/5
f 1531/2/5 1516/2/5 1515/2/5
f 1532/2/5 1516/2/5 1531/2/5
f 1537/1/5 1534/1/5 1533/1/5
f 1538/1/5 1534/1/5 1537/1/5
f 1539/1/5 1536/1/5 1535/1/5
f 1540/1/5 1536/1/5 1539/1/5
f 1545/1/5 1542/1/5 1541/1/5
f 1546/1/5 1542/1/5 1545/1/5
f 1547/1/5 1544/1/5 1543/1/5
f 1548/1/5 1544/1/5 1547/1/5
f 1549/2/6 1550/2/6 1565/2/6
f 1565/2/6 1550/2/6 1566/2/6
f 1551/2/6 1552/2/6 1567/2/6
f 1567/2/6 1552/2/6 1568/2/6
f 1553/2/6 1554/2/6 1569/2/6
f 1569/2/6 1554/2/6 1570/2/6
f 1555/2/6 1556/2/6 1571/2/6
f 1571/2/6 1556/2/6 1572/2/6
f 1557/2/6 1558/2/6 1573/2/6
f 1573/2/6 1558/2/6 1574/2/6
f 1559/2/6 1560/2/6 1575/2/6
f 1575/2/6 1560/2/6 1576/2/6
f 1561/2/6 1562/2/6 1577/2/6
f 1577/2/6 1562/2/6 1578/2/6
f 1563/2/6 1564/2/6 1579/2/6
f 1579/2/6 1564/2/6 1580/2/6
f 1581/2/6 1582/2/6 1597/2/6
f 1597/2/6 1582/2/6 1598/2/6
f 1583/2/6 1584/2/6 1599/2/6
f 1599/2/6 1584/2/6 1600/2/6
f 1585/2/6 1586/2/6 1601/2/6
f 1601/2/6 1586/2/6 1602/2/6
f 1587/2/6 1588/2/6 1603/2/6
f 1603/2/6 1588/2/6 1604/2/6
f 1589/2/6 1590/2/6 1605/2/6
f 1605/2/6 1590/2/6 1606/2/6
f 1591/2/6 1592/2/6 1607/2/6
f 1607/2/6 1592/2/6 1608/2/6
f 1593/2/6 1594/2/6 1609/2/6
f 1609/2/6 1594/2/6 1610/2/6
f 1595/2/6 1596/2/6 1611/2/6
f 1611/2/6 1596/2/6 1612/2/6
f 1613/2/6 1614/2/6 1629/2/6
f 1629/2/6 1614/2/6 1630/2/6
f 1615/2/6 1616/2/6 1631/2/6
f 1631/2/6 1616/2/6 1632/2/6
f 1617/2/6 1618/2/6 1633/2/6
f 1633/2/6 1618/2/6 1634/2/6
f 1619/2/6 1620/2/6 1635/2/6
f 1635/2/6 1620/2/6 1636/2/6
f 1621/2/6 1622/2/6 1637/2/6
f 1637/2/6 1622/2/6 1638/2/6
f 1623/2/6 1624/2/6 1639/2/6
f 1639/2/6 1624/2/6 1640/2/6
f 1625/2/6 1626/2/6 1641/2/6
f 1641/2/6 1626/2/6 1642/2/6
f 1627/2/6 1628/2/6 1643/2/6
f 1643/2/6 1628/2/6 1644/2/6
f 1629/1/6 1630/1/6 1645/1/6
f 1645/1/6 1630/1/6 1646/1/6
f 1631/1/6 1632/1/6 1647/1/6
f 1647/1/6 1632/1/6 1648/1/6
f 1633/1/6 1634/1/6 1649/1/6
f 1649/1/6 1634/1/6 1650/1/6
f 1635/1/6 1636/1/6 1651/1/6
f 1651/1/6 1636/1/6 1652/1/6
f 1637/1/6 1638/1/6 1653/1/6
f 1653/1/6 1638/1/6 1654/1/6
f 1639/1/6 1640/1/6 1655/1/6
f 1655/1/6 1640/1/6 1656/1/6
f 1641/1/6 1642/1/6 1657/1/6
f 1657/1/6 1642/1/6 1658/1/6
f 1643/1/6 1644/1/6 1659/1/6
f 1659/1/6 1644/1/6 1660/1/6
f 1661/2/6 1662/2/6 1669/2/6
f 1669/2/6 1662/2/6 1670/2/6
f 1663/2/6 1664/2/6 1671/2/6
f 1671/2/6 1664/2/6 1672/2/6
f 1665/2/6 1666/2/6 1673/2/6
f 1673/2/6 1666/2/6 1674/2/6
f 1667/2/6 1668/2/6 1675/2/6
f 1675/2/6 1668/2/6 1676/2/6
f 1677/2/6 1678/2/6 1685/2/6
f 1685/2/6 1678/2/6 1686/2/6
f 1679/2/6 1680/2/6 1687/2/6
f 1687/2/6 1680/2/6 1688/2/6
f 1681/2/6 1682/2/6 1689/2/6
f 1689/2/6 1682/2/6 1690/2/6
f 1683/2/6 1684/2/6 1691/2/6
f 1691/2/6 1684/2/6 1692/2/6
f 1693/2/6 1694/2/6 1701/2/6
f 1701/2/6 1694/2/6 1702/2/6
f 1695/2/6 1696/2/6 1703/2/6
f 1703/2/6 1696/2/6 1704/2/6
f 1697/2/6 1698/2/6 1705/2/6
f 1705/2/6 1698/2/6 1706/2/6
f 1699/2/6 1700/2/6 1707/2/6
f 1707/2/6 1700/2/6 1708/2/6
f 1709/2/6 1710/2/6 1717/2/6
f 1717/2/6 1710/2/6 1718/2/6
f 1711/2/6 1712/2/6 1719/2/6
f 1719/2/6 1712/2/6 1720/2/6
f 1713/2/6 1714/2/6 1721/2/6
f 1721/2/6 1714/2/6 1722/2/6
f 1715/2/6 1716/2/6 1723/2/6
f 1723/2/6 1716/2/6 1724/2/6
f 1725/2/6 1726/2/6 1733/2/6
f 1733/2/6 1726/2/6 1734/2/6
f 1727/2/6 1728/2/6 1735/2/6
f 1735/2/6 1728/2/6 1736/2/6
f 1729/2/6 1730/2/6 1737/2/6
f 1737/2/6 1730/2/6 1738/2/6
f 1731/2/6 1732/2/6 1739/2/6
f 1739/2/6 1732/2/6 1740/2/6
f 1741/2/6 1742/2/6 1749/2/6
f 1749/2/6 1742/2/6 1750/2/6
f 1743/2/6 1744/2/6 1751/2/6
f 1751/2/6 1744/2/6 1752/2/6
f 1745/2/6 1746/2/6 1753/2/6
f 1753/2/6 1746/2/6 1754/2/6
f 1747/2/6 1748/2/6 1755/2/6
f 1755/2/6 1748/2/6 1756/2/6
f 1757/2/6 1758/2/6 1765/2/6
f 1765/2/6 1758/2/6 1766/2/6
f 1759/2/6 1760/2/6 1767/2/6
f 1767/2/6 1760/2/6 1768/2/6
f 1761/2/6 1762/2/6 1769/2/6
f 1769/2/6 1762/2/6 1770/2/6
f 1763/2/6 1764/2/6 1771/2/6
f 1771/2/6 1764/2/6 1772/2/6
f 1773/2/6 1774/2/6 1781/2/6
f 1781/2/6 1774/2/6 1782/2/6
f 1775/2/6 1776/2/6 1783/2/6
f 1783/2/6 1776/2/6 1784/2/6
f 1777/2/6 1778/2/6 1785/2/6
f 1785/2/6 1778/2/6 1786/2/6
f 1779/2/6 1780/2/6 1787/2/6
f 1787/2/6 1780/2/6 1788/2/6
f 1789/2/6 1790/2/6 1797/2/6
f 1797/2/6 1790/2/6 1798/2/6
f 1791/2/6 1792/2/6 1799/2/6
f 1799/2/6 1792/2/6 1800/2/6
f 1793/2/6 1794/2/6 1801/2/6
f 1801/2/6 1794/2/6 1802/2/6
f 1795/2/6 1796/2/6 1803/2/6
f 1803/2/6 1796/2/6 1804/2/6
f 1805/2/6 1806/2/6 1813/2/6
f 1813/2/6 1806/2/6 1814/2/6
f 1807/2/6 1808/2/6 1815/2/6
f 1815/2/6 1808/2/6 1816/2/6
f 1809/2/6 1810/2/6 1817/2/6
f 1817/2/6 1810/2/6 1818/2/6
f 1811/2/6 1812/2/6 1819/2/6
f 1819/2/6 1812/2/6 1820/2/6
f 1821/2/6 1822/2/6 1825/2/6
f 1825/2/6 1822/2/6 1826/2/6
f 1823/2/6 1824/2/6 1827/2/6
f 1827/2/6 1824/2/6 1828/2/6
f 1829/2/6 1830/2/6 1833/2/6
f 1833/2/6 1830/2/6 1834/2/6
f 1831/2/6 1832/2/6 1835/2/6
f 1835/2/6 1832/2/6 1836/2/6
f 1837/1/6 1838/1/6 1839/1/6
f 1839/1/6 1838/1/6 1840/1/6
