# MagicaVoxel @ Ephtracy

# group
o 

# material
mtllib inside_classroom_divide_corridor_2.mtl
usemtl palette

# normals
vn -1 0 0
vn 1 0 0
vn 0 0 1
vn 0 0 -1
vn 0 -1 0
vn 0 1 0

# texcoords
vt 0.193359 0.5
vt 0.251953 0.5
vt 0.310547 0.5
vt 0.349609 0.5

# verts
v -6.4 0 1.6
v -6.4 0 0.8
v -6.4 2.8 1.6
v -6.4 2.8 1.3
v -6.4 2.8 1.1
v -6.4 2.8 0.8
v -6.4 3.3 1.6
v -6.4 3.3 1.3
v -6.4 3.3 1.1
v -6.4 3.3 0.8
v -6.4 3.6 1.6
v -6.4 3.6 0.8
v -5.1 2.3 1.4
v -5.1 2.3 1.3
v -5.1 2.4 1.4
v -5.1 2.4 1.3
v -4 1.2 1.3
v -4 1.2 1.2
v -4 2.3 1.3
v -4 2.3 1.2
v -2.9 1.2 1.3
v -2.9 1.2 1.2
v -2.9 2.3 1.3
v -2.9 2.3 1.2
v -1.8 1.2 1.3
v -1.8 1.2 1.2
v -1.8 2.3 1.3
v -1.8 2.3 1.2
v -0.7 1.2 1.3
v -0.7 1.2 1.2
v -0.7 2.3 1.3
v -0.7 2.3 1.2
v -0.6 1.1 1.2
v -0.6 1.1 1.1
v -0.6 2.4 1.2
v -0.6 2.4 1.1
v 0 0 1.6
v 0 0 1.3
v 0 0 1.1
v 0 0 0.8
v 0 2.8 1.6
v 0 2.8 1.3
v 0 2.8 1.1
v 0 2.8 0.8
v 0 2.9 1.1
v 0 3.3 1.6
v 0 3.3 1.3
v 0 3.3 1.1
v 0 3.3 0.8
v 2.3 1.2 1.1
v 2.3 1.2 1
v 2.3 1.5 1.1
v 2.3 1.5 1
v 4.7 0 1.3
v 4.7 0 1.2
v 4.7 0 1.1
v 4.7 2.1 1.3
v 4.7 2.1 1.2
v 4.7 2.1 1.1
v -5.6 0 1.6
v -5.6 0 1.3
v -5.6 0 1.1
v -5.6 0 0.8
v -5.6 2.8 1.6
v -5.6 2.8 1.3
v -5.6 2.8 1.1
v -5.6 2.8 0.8
v -5.6 2.9 1.1
v -5.6 3.3 1.6
v -5.6 3.3 1.3
v -5.6 3.3 1.1
v -5.6 3.3 0.8
v -5 1.1 1.2
v -5 1.1 1.1
v -5 2.4 1.2
v -5 2.4 1.1
v -4.9 1.2 1.3
v -4.9 1.2 1.2
v -4.9 2.3 1.3
v -4.9 2.3 1.2
v -3.8 1.2 1.3
v -3.8 1.2 1.2
v -3.8 2.3 1.3
v -3.8 2.3 1.2
v -2.7 1.2 1.3
v -2.7 1.2 1.2
v -2.7 2.3 1.3
v -2.7 2.3 1.2
v -1.6 1.2 1.3
v -1.6 1.2 1.2
v -1.6 2.3 1.3
v -1.6 2.3 1.2
v -0.5 2.3 1.4
v -0.5 2.3 1.3
v -0.5 2.4 1.4
v -0.5 2.4 1.3
v 0.8 0 1.6
v 0.8 0 1.3
v 0.8 0 1.1
v 0.8 0 0.8
v 0.8 2.8 1.6
v 0.8 2.8 1.3
v 0.8 2.8 1.1
v 0.8 2.8 0.8
v 0.8 3.3 1.6
v 0.8 3.3 1.3
v 0.8 3.3 1.1
v 0.8 3.3 0.8
v 2.5 1.2 1.1
v 2.5 1.2 1
v 2.5 1.5 1.1
v 2.5 1.5 1
v 3.1 0 1.3
v 3.1 0 1.2
v 3.1 0 1.1
v 3.1 2.1 1.3
v 3.1 2.1 1.2
v 3.1 2.1 1.1
v 6.4 0 1.3
v 6.4 0 1.1
v 6.4 2.8 1.3
v 6.4 2.8 1.2
v 6.4 2.8 1.1
v 6.4 3.3 1.6
v 6.4 3.3 1.3
v 6.4 3.3 1.2
v 6.4 3.3 1.1
v 6.4 3.3 0.8
v 6.4 3.6 1.6
v 6.4 3.6 0.8
v -6.4 0 1.6
v -6.4 2.8 1.6
v -6.4 3.3 1.6
v -6.4 3.6 1.6
v -5.6 0 1.6
v -5.6 2.8 1.6
v -5.6 3.3 1.6
v 0 0 1.6
v 0 2.8 1.6
v 0 3.3 1.6
v 0.8 0 1.6
v 0.8 2.8 1.6
v 0.8 3.3 1.6
v 6.4 3.3 1.6
v 6.4 3.6 1.6
v -5.1 2.3 1.4
v -5.1 2.4 1.4
v -0.5 2.3 1.4
v -0.5 2.4 1.4
v -5.6 0 1.3
v -5.6 2.8 1.3
v -5.6 3.3 1.3
v -5.1 2.3 1.3
v -5.1 2.4 1.3
v -5 1.1 1.3
v -5 2.3 1.3
v -5 2.4 1.3
v -5 2.5 1.3
v -4.9 1.2 1.3
v -4.9 2.3 1.3
v -4 1.2 1.3
v -4 2.3 1.3
v -3.8 1.2 1.3
v -3.8 2.3 1.3
v -2.9 1.2 1.3
v -2.9 2.3 1.3
v -2.7 1.2 1.3
v -2.7 2.3 1.3
v -1.8 1.2 1.3
v -1.8 2.3 1.3
v -1.6 1.2 1.3
v -1.6 2.3 1.3
v -0.7 1.2 1.3
v -0.7 2.3 1.3
v -0.6 1.1 1.3
v -0.6 2.3 1.3
v -0.6 2.4 1.3
v -0.6 2.5 1.3
v -0.5 2.3 1.3
v -0.5 2.4 1.3
v 0 0 1.3
v 0 2.8 1.3
v 0 3.3 1.3
v 0.8 0 1.3
v 0.8 2.8 1.3
v 0.8 3.3 1.3
v 2.9 0 1.3
v 2.9 2.3 1.3
v 3.1 0 1.3
v 3.1 2.1 1.3
v 4.7 0 1.3
v 4.7 2.1 1.3
v 4.9 0 1.3
v 4.9 2.3 1.3
v 6.4 0 1.3
v 6.4 2.8 1.3
v 6.4 3.3 1.3
v -5 1.1 1.2
v -5 2.4 1.2
v -4.9 1.2 1.2
v -4.9 2.3 1.2
v -4 1.2 1.2
v -4 2.3 1.2
v -3.8 1.2 1.2
v -3.8 2.3 1.2
v -2.9 1.2 1.2
v -2.9 2.3 1.2
v -2.7 1.2 1.2
v -2.7 2.3 1.2
v -1.8 1.2 1.2
v -1.8 2.3 1.2
v -1.6 1.2 1.2
v -1.6 2.3 1.2
v -0.7 1.2 1.2
v -0.7 2.3 1.2
v -0.6 1.1 1.2
v -0.6 2.4 1.2
v -5.6 0 1.1
v -5.6 2.8 1.1
v -5.6 2.9 1.1
v -5.6 3.3 1.1
v -5 1.1 1.1
v -5 2.4 1.1
v -0.6 1.1 1.1
v -0.6 2.4 1.1
v 0 0 1.1
v 0 2.8 1.1
v 0 2.9 1.1
v 0 3.3 1.1
v 0.8 0 1.1
v 0.8 2.8 1.1
v 0.8 3.3 1.1
v 2.3 1.2 1.1
v 2.3 1.5 1.1
v 2.3 2.8 1.1
v 2.4 1.5 1.1
v 2.4 2.8 1.1
v 2.5 1.2 1.1
v 2.5 1.5 1.1
v 2.9 0 1.1
v 2.9 2.3 1.1
v 3.1 0 1.1
v 3.1 2.1 1.1
v 4.7 0 1.1
v 4.7 2.1 1.1
v 4.9 0 1.1
v 4.9 2.3 1.1
v 6.4 0 1.1
v 6.4 2.8 1.1
v 6.4 3.3 1.1
v 2.3 1.2 1
v 2.3 1.5 1
v 2.5 1.2 1
v 2.5 1.5 1
v -6.4 0 0.8
v -6.4 2.8 0.8
v -6.4 3.3 0.8
v -6.4 3.6 0.8
v -5.6 0 0.8
v -5.6 2.8 0.8
v -5.6 3.3 0.8
v 0 0 0.8
v 0 2.8 0.8
v 0 3.3 0.8
v 0.8 0 0.8
v 0.8 2.8 0.8
v 0.8 3.3 0.8
v 6.4 3.3 0.8
v 6.4 3.6 0.8
v -6.4 0 1.6
v -5.6 0 1.6
v 0 0 1.6
v 0.8 0 1.6
v -5.6 0 1.3
v 0 0 1.3
v 0.8 0 1.3
v 2.9 0 1.3
v 3.1 0 1.3
v 4.7 0 1.3
v 4.9 0 1.3
v 6.4 0 1.3
v 2.9 0 1.2
v 3.1 0 1.2
v 4.7 0 1.2
v 4.9 0 1.2
v -5.6 0 1.1
v 0 0 1.1
v 0.8 0 1.1
v 2.9 0 1.1
v 3.1 0 1.1
v 4.7 0 1.1
v 4.9 0 1.1
v 6.4 0 1.1
v -6.4 0 0.8
v -5.6 0 0.8
v 0 0 0.8
v 0.8 0 0.8
v 2.3 1.2 1.1
v 2.5 1.2 1.1
v 2.3 1.2 1
v 2.5 1.2 1
v 3.1 2.1 1.3
v 4.7 2.1 1.3
v 3.1 2.1 1.2
v 4.7 2.1 1.2
v 3.1 2.1 1.1
v 4.7 2.1 1.1
v -5.1 2.3 1.4
v -0.5 2.3 1.4
v -5.1 2.3 1.3
v -5 2.3 1.3
v -4.9 2.3 1.3
v -4 2.3 1.3
v -3.8 2.3 1.3
v -2.9 2.3 1.3
v -2.7 2.3 1.3
v -1.8 2.3 1.3
v -1.6 2.3 1.3
v -0.7 2.3 1.3
v -0.6 2.3 1.3
v -0.5 2.3 1.3
v -4.9 2.3 1.2
v -4 2.3 1.2
v -3.8 2.3 1.2
v -2.9 2.3 1.2
v -2.7 2.3 1.2
v -1.8 2.3 1.2
v -1.6 2.3 1.2
v -0.7 2.3 1.2
v -5 2.4 1.2
v -0.6 2.4 1.2
v -5 2.4 1.1
v -0.6 2.4 1.1
v -5.6 3.3 1.6
v 0 3.3 1.6
v 0.8 3.3 1.6
v 6.4 3.3 1.6
v -5.6 3.3 1.3
v 0 3.3 1.3
v 0.8 3.3 1.3
v 6.4 3.3 1.3
v -5.6 3.3 1.1
v 0 3.3 1.1
v 0.8 3.3 1.1
v 6.4 3.3 1.1
v -5.6 3.3 0.8
v 0 3.3 0.8
v 0.8 3.3 0.8
v 6.4 3.3 0.8
v -5 1.1 1.2
v -0.6 1.1 1.2
v -5 1.1 1.1
v -0.6 1.1 1.1
v -4.9 1.2 1.3
v -4 1.2 1.3
v -3.8 1.2 1.3
v -2.9 1.2 1.3
v -2.7 1.2 1.3
v -1.8 1.2 1.3
v -1.6 1.2 1.3
v -0.7 1.2 1.3
v -4.9 1.2 1.2
v -4 1.2 1.2
v -3.8 1.2 1.2
v -2.9 1.2 1.2
v -2.7 1.2 1.2
v -1.8 1.2 1.2
v -1.6 1.2 1.2
v -0.7 1.2 1.2
v 2.3 1.5 1.1
v 2.4 1.5 1.1
v 2.5 1.5 1.1
v 2.3 1.5 1
v 2.5 1.5 1
v -5.1 2.4 1.4
v -0.5 2.4 1.4
v -5.1 2.4 1.3
v -5 2.4 1.3
v -0.6 2.4 1.3
v -0.5 2.4 1.3
v -6.4 3.6 1.6
v 6.4 3.6 1.6
v -6.4 3.6 0.8
v 6.4 3.6 0.8

# faces
f 3/4/1 2/4/1 1/4/1
f 4/4/1 2/4/1 3/4/1
f 5/4/1 2/4/1 4/4/1
f 6/4/1 2/4/1 5/4/1
f 7/2/1 4/2/1 3/2/1
f 8/4/1 5/4/1 4/4/1
f 8/2/1 4/2/1 7/2/1
f 9/1/1 6/1/1 5/1/1
f 9/4/1 5/4/1 8/4/1
f 10/1/1 6/1/1 9/1/1
f 11/4/1 8/4/1 7/4/1
f 11/4/1 9/4/1 8/4/1
f 11/4/1 10/4/1 9/4/1
f 12/4/1 10/4/1 11/4/1
f 15/2/1 14/2/1 13/2/1
f 16/2/1 14/2/1 15/2/1
f 19/2/1 18/2/1 17/2/1
f 20/2/1 18/2/1 19/2/1
f 23/2/1 22/2/1 21/2/1
f 24/2/1 22/2/1 23/2/1
f 27/2/1 26/2/1 25/2/1
f 28/2/1 26/2/1 27/2/1
f 31/2/1 30/2/1 29/2/1
f 32/2/1 30/2/1 31/2/1
f 35/4/1 34/4/1 33/4/1
f 36/4/1 34/4/1 35/4/1
f 41/4/1 38/4/1 37/4/1
f 42/4/1 38/4/1 41/4/1
f 43/4/1 40/4/1 39/4/1
f 44/4/1 40/4/1 43/4/1
f 45/1/1 44/1/1 43/1/1
f 46/2/1 42/2/1 41/2/1
f 47/2/1 42/2/1 46/2/1
f 48/1/1 44/1/1 45/1/1
f 49/1/1 44/1/1 48/1/1
f 52/4/1 51/4/1 50/4/1
f 53/4/1 51/4/1 52/4/1
f 57/2/1 55/2/1 54/2/1
f 58/1/1 56/1/1 55/1/1
f 58/2/1 55/2/1 57/2/1
f 59/1/1 56/1/1 58/1/1
f 60/4/2 61/4/2 64/4/2
f 64/4/2 61/4/2 65/4/2
f 62/4/2 63/4/2 66/4/2
f 66/4/2 63/4/2 67/4/2
f 66/1/2 67/1/2 68/1/2
f 64/2/2 65/2/2 69/2/2
f 69/2/2 65/2/2 70/2/2
f 68/1/2 67/1/2 71/1/2
f 71/1/2 67/1/2 72/1/2
f 73/4/2 74/4/2 75/4/2
f 75/4/2 74/4/2 76/4/2
f 77/2/2 78/2/2 79/2/2
f 79/2/2 78/2/2 80/2/2
f 81/2/2 82/2/2 83/2/2
f 83/2/2 82/2/2 84/2/2
f 85/2/2 86/2/2 87/2/2
f 87/2/2 86/2/2 88/2/2
f 89/2/2 90/2/2 91/2/2
f 91/2/2 90/2/2 92/2/2
f 93/2/2 94/2/2 95/2/2
f 95/2/2 94/2/2 96/2/2
f 97/4/2 98/4/2 101/4/2
f 101/4/2 98/4/2 102/4/2
f 99/4/2 100/4/2 103/4/2
f 103/4/2 100/4/2 104/4/2
f 101/2/2 102/2/2 105/2/2
f 105/2/2 102/2/2 106/2/2
f 103/1/2 104/1/2 107/1/2
f 107/1/2 104/1/2 108/1/2
f 109/4/2 110/4/2 111/4/2
f 111/4/2 110/4/2 112/4/2
f 113/2/2 114/2/2 116/2/2
f 114/1/2 115/1/2 117/1/2
f 116/2/2 114/2/2 117/2/2
f 117/1/2 115/1/2 118/1/2
f 119/4/2 120/4/2 121/4/2
f 121/4/2 120/4/2 122/4/2
f 122/4/2 120/4/2 123/4/2
f 121/2/2 122/2/2 125/2/2
f 122/1/2 123/1/2 126/1/2
f 125/2/2 122/2/2 126/2/2
f 126/1/2 123/1/2 127/1/2
f 126/4/2 127/4/2 129/4/2
f 127/4/2 128/4/2 129/4/2
f 125/4/2 126/4/2 129/4/2
f 124/4/2 125/4/2 129/4/2
f 129/4/2 128/4/2 130/4/2
f 135/4/3 132/4/3 131/4/3
f 136/2/3 133/2/3 132/2/3
f 136/4/3 132/4/3 135/4/3
f 137/4/3 134/4/3 133/4/3
f 137/2/3 133/2/3 136/2/3
f 140/4/3 134/4/3 137/4/3
f 141/4/3 139/4/3 138/4/3
f 142/2/3 140/2/3 139/2/3
f 142/4/3 139/4/3 141/4/3
f 143/4/3 134/4/3 140/4/3
f 143/2/3 140/2/3 142/2/3
f 144/4/3 134/4/3 143/4/3
f 145/4/3 134/4/3 144/4/3
f 148/2/3 147/2/3 146/2/3
f 149/2/3 147/2/3 148/2/3
f 153/4/3 151/4/3 150/4/3
f 154/4/3 151/4/3 153/4/3
f 155/4/3 153/4/3 150/4/3
f 156/4/3 153/4/3 155/4/3
f 157/4/3 151/4/3 154/4/3
f 158/4/3 151/4/3 157/4/3
f 159/2/3 156/2/3 155/2/3
f 160/2/3 156/2/3 159/2/3
f 161/2/3 159/2/3 155/2/3
f 163/2/3 161/2/3 155/2/3
f 163/2/3 162/2/3 161/2/3
f 164/2/3 162/2/3 163/2/3
f 165/2/3 163/2/3 155/2/3
f 167/2/3 165/2/3 155/2/3
f 167/2/3 166/2/3 165/2/3
f 168/2/3 166/2/3 167/2/3
f 169/2/3 167/2/3 155/2/3
f 171/2/3 169/2/3 155/2/3
f 171/2/3 170/2/3 169/2/3
f 172/2/3 170/2/3 171/2/3
f 173/2/3 171/2/3 155/2/3
f 175/4/3 155/4/3 150/4/3
f 175/2/3 174/2/3 173/2/3
f 175/2/3 173/2/3 155/2/3
f 176/2/3 174/2/3 175/2/3
f 177/2/3 158/2/3 157/2/3
f 178/4/3 151/4/3 158/4/3
f 178/2/3 158/2/3 177/2/3
f 179/4/3 176/4/3 175/4/3
f 180/4/3 178/4/3 177/4/3
f 181/4/3 175/4/3 150/4/3
f 181/4/3 180/4/3 179/4/3
f 181/4/3 179/4/3 175/4/3
f 182/2/3 152/2/3 151/2/3
f 182/4/3 180/4/3 181/4/3
f 182/4/3 151/4/3 178/4/3
f 182/4/3 178/4/3 180/4/3
f 183/2/3 152/2/3 182/2/3
f 187/4/3 185/4/3 184/4/3
f 188/4/3 185/4/3 187/4/3
f 189/2/3 188/2/3 187/2/3
f 190/2/3 188/2/3 189/2/3
f 192/2/3 188/2/3 190/2/3
f 193/2/3 192/2/3 191/2/3
f 194/4/3 185/4/3 188/4/3
f 194/2/3 192/2/3 193/2/3
f 194/2/3 188/2/3 192/2/3
f 195/4/3 194/4/3 193/4/3
f 196/2/3 186/2/3 185/2/3
f 196/4/3 194/4/3 195/4/3
f 196/4/3 185/4/3 194/4/3
f 197/2/3 186/2/3 196/2/3
f 198/2/4 199/2/4 200/2/4
f 200/2/4 199/2/4 201/2/4
f 198/2/4 200/2/4 202/2/4
f 201/2/4 199/2/4 203/2/4
f 198/2/4 202/2/4 204/2/4
f 202/2/4 203/2/4 204/2/4
f 203/2/4 199/2/4 205/2/4
f 204/2/4 203/2/4 205/2/4
f 198/2/4 204/2/4 206/2/4
f 205/2/4 199/2/4 207/2/4
f 198/2/4 206/2/4 208/2/4
f 206/2/4 207/2/4 208/2/4
f 207/2/4 199/2/4 209/2/4
f 208/2/4 207/2/4 209/2/4
f 198/2/4 208/2/4 210/2/4
f 209/2/4 199/2/4 211/2/4
f 198/2/4 210/2/4 212/2/4
f 210/2/4 211/2/4 212/2/4
f 211/2/4 199/2/4 213/2/4
f 212/2/4 211/2/4 213/2/4
f 198/2/4 212/2/4 214/2/4
f 213/2/4 199/2/4 215/2/4
f 198/2/4 214/2/4 216/2/4
f 214/2/4 215/2/4 216/2/4
f 215/2/4 199/2/4 217/2/4
f 216/2/4 215/2/4 217/2/4
f 218/4/4 219/4/4 222/4/4
f 219/4/4 220/4/4 222/4/4
f 222/4/4 220/4/4 223/4/4
f 218/4/4 222/4/4 224/4/4
f 223/4/4 220/4/4 225/4/4
f 218/4/4 224/4/4 226/4/4
f 224/4/4 225/4/4 226/4/4
f 225/4/4 220/4/4 227/4/4
f 226/4/4 225/4/4 227/4/4
f 220/1/4 221/1/4 228/1/4
f 227/4/4 220/4/4 228/4/4
f 228/1/4 221/1/4 229/1/4
f 230/4/4 231/4/4 233/4/4
f 233/4/4 231/4/4 234/4/4
f 231/1/4 232/1/4 235/1/4
f 234/4/4 231/4/4 235/4/4
f 234/3/4 235/3/4 236/3/4
f 235/1/4 232/1/4 237/1/4
f 236/3/4 235/3/4 237/3/4
f 230/4/4 233/4/4 238/4/4
f 236/4/4 237/4/4 239/4/4
f 230/4/4 238/4/4 240/4/4
f 238/4/4 239/4/4 240/4/4
f 239/4/4 237/4/4 241/4/4
f 240/4/4 239/4/4 241/4/4
f 240/1/4 241/1/4 242/1/4
f 242/1/4 241/1/4 243/1/4
f 243/1/4 241/1/4 245/1/4
f 244/1/4 245/1/4 246/1/4
f 241/4/4 237/4/4 247/4/4
f 246/1/4 245/1/4 247/1/4
f 245/1/4 241/1/4 247/1/4
f 246/4/4 247/4/4 248/4/4
f 237/1/4 232/1/4 249/1/4
f 248/4/4 247/4/4 249/4/4
f 247/4/4 237/4/4 249/4/4
f 249/1/4 232/1/4 250/1/4
f 251/4/4 252/4/4 253/4/4
f 253/4/4 252/4/4 254/4/4
f 255/4/4 256/4/4 259/4/4
f 256/1/4 257/1/4 260/1/4
f 259/4/4 256/4/4 260/4/4
f 257/4/4 258/4/4 261/4/4
f 260/1/4 257/1/4 261/1/4
f 261/4/4 258/4/4 264/4/4
f 262/4/4 263/4/4 265/4/4
f 263/1/4 264/1/4 266/1/4
f 265/4/4 263/4/4 266/4/4
f 264/4/4 258/4/4 267/4/4
f 266/1/4 264/1/4 267/1/4
f 267/4/4 258/4/4 268/4/4
f 268/4/4 258/4/4 269/4/4
f 274/4/5 271/4/5 270/4/5
f 275/4/5 273/4/5 272/4/5
f 276/4/5 273/4/5 275/4/5
f 282/4/5 275/4/5 274/4/5
f 282/4/5 276/4/5 275/4/5
f 282/4/5 277/4/5 276/4/5
f 282/2/5 278/2/5 277/2/5
f 283/2/5 278/2/5 282/2/5
f 284/2/5 280/2/5 279/2/5
f 285/4/5 281/4/5 280/4/5
f 285/2/5 280/2/5 284/2/5
f 286/4/5 274/4/5 270/4/5
f 286/4/5 282/4/5 274/4/5
f 287/4/5 282/4/5 286/4/5
f 288/4/5 282/4/5 287/4/5
f 289/1/5 283/1/5 282/1/5
f 289/4/5 282/4/5 288/4/5
f 290/1/5 283/1/5 289/1/5
f 291/1/5 285/1/5 284/1/5
f 292/4/5 281/4/5 285/4/5
f 292/1/5 285/1/5 291/1/5
f 293/4/5 281/4/5 292/4/5
f 294/4/5 286/4/5 270/4/5
f 295/4/5 286/4/5 294/4/5
f 296/4/5 288/4/5 287/4/5
f 297/4/5 288/4/5 296/4/5
f 300/4/5 299/4/5 298/4/5
f 301/4/5 299/4/5 300/4/5
f 304/2/5 303/2/5 302/2/5
f 305/2/5 303/2/5 304/2/5
f 306/1/5 305/1/5 304/1/5
f 307/1/5 305/1/5 306/1/5
f 310/2/5 309/2/5 308/2/5
f 311/2/5 309/2/5 310/2/5
f 312/2/5 309/2/5 311/2/5
f 313/2/5 309/2/5 312/2/5
f 314/2/5 309/2/5 313/2/5
f 315/2/5 309/2/5 314/2/5
f 316/2/5 309/2/5 315/2/5
f 317/2/5 309/2/5 316/2/5
f 318/2/5 309/2/5 317/2/5
f 319/2/5 309/2/5 318/2/5
f 320/2/5 309/2/5 319/2/5
f 321/2/5 309/2/5 320/2/5
f 322/2/5 313/2/5 312/2/5
f 323/2/5 313/2/5 322/2/5
f 324/2/5 315/2/5 314/2/5
f 325/2/5 315/2/5 324/2/5
f 326/2/5 317/2/5 316/2/5
f 327/2/5 317/2/5 326/2/5
f 328/2/5 319/2/5 318/2/5
f 329/2/5 319/2/5 328/2/5
f 332/4/5 331/4/5 330/4/5
f 333/4/5 331/4/5 332/4/5
f 338/4/5 335/4/5 334/4/5
f 339/4/5 335/4/5 338/4/5
f 340/4/5 337/4/5 336/4/5
f 341/4/5 337/4/5 340/4/5
f 346/4/5 343/4/5 342/4/5
f 347/4/5 343/4/5 346/4/5
f 348/4/5 345/4/5 344/4/5
f 349/4/5 345/4/5 348/4/5
f 350/4/6 351/4/6 352/4/6
f 352/4/6 351/4/6 353/4/6
f 354/2/6 355/2/6 362/2/6
f 362/2/6 355/2/6 363/2/6
f 356/2/6 357/2/6 364/2/6
f 364/2/6 357/2/6 365/2/6
f 358/2/6 359/2/6 366/2/6
f 366/2/6 359/2/6 367/2/6
f 360/2/6 361/2/6 368/2/6
f 368/2/6 361/2/6 369/2/6
f 370/4/6 371/4/6 373/4/6
f 371/4/6 372/4/6 373/4/6
f 373/4/6 372/4/6 374/4/6
f 375/2/6 376/2/6 377/2/6
f 377/2/6 376/2/6 378/2/6
f 378/2/6 376/2/6 379/2/6
f 379/2/6 376/2/6 380/2/6
f 381/4/6 382/4/6 383/4/6
f 383/4/6 382/4/6 384/4/6
