# MagicaVoxel @ Ephtracy

# group
o 

# material
mtllib penghubung_corridor_lantai_2_1_tembok.mtl
usemtl palette

# normals
vn -1 0 0
vn 1 0 0
vn 0 0 1
vn 0 0 -1
vn 0 -1 0
vn 0 1 0

# texcoords
vt 0.349609 0.5
vt 0.439453 0.5

# verts
v -5.6 0 -5.4
v -5.6 0 -5.6
v -5.6 4 -5.4
v -5.6 4 -5.6
v -5.6 4.5 -5.1
v -5.6 4.5 -5.4
v -5.6 4.5 -5.6
v -5.6 4.5 -5.9
v -5.6 4.8 -5.1
v -5.6 4.8 -5.9
v 4.76837e-07 0 -5.4
v 4.76837e-07 0 -5.6
v 4.76837e-07 4 -5.4
v 4.76837e-07 4 -5.6
v 4.76837e-07 4.5 -5.1
v 4.76837e-07 4.5 -5.4
v 4.76837e-07 4.5 -5.6
v 4.76837e-07 4.5 -5.9
v 4.76837e-07 4.8 -5.1
v 4.76837e-07 4.8 -5.9
v -5.6 4.5 -5.1
v -5.6 4.8 -5.1
v 4.76837e-07 4.5 -5.1
v 4.76837e-07 4.8 -5.1
v -5.6 0 -5.4
v -5.6 4 -5.4
v -5.6 4.5 -5.4
v 4.76837e-07 0 -5.4
v 4.76837e-07 4 -5.4
v 4.76837e-07 4.5 -5.4
v -5.6 0 -5.6
v -5.6 4 -5.6
v -5.6 4.5 -5.6
v 4.76837e-07 0 -5.6
v 4.76837e-07 4 -5.6
v 4.76837e-07 4.5 -5.6
v -5.6 4.5 -5.9
v -5.6 4.8 -5.9
v 4.76837e-07 4.5 -5.9
v 4.76837e-07 4.8 -5.9
v -5.6 0 -5.4
v 4.76837e-07 0 -5.4
v -5.6 0 -5.6
v 4.76837e-07 0 -5.6
v -5.6 4.5 -5.1
v 4.76837e-07 4.5 -5.1
v -5.6 4.5 -5.4
v 4.76837e-07 4.5 -5.4
v -5.6 4.5 -5.6
v 4.76837e-07 4.5 -5.6
v -5.6 4.5 -5.9
v 4.76837e-07 4.5 -5.9
v -5.6 4.8 -5.1
v 4.76837e-07 4.8 -5.1
v -5.6 4.8 -5.9
v 4.76837e-07 4.8 -5.9

# faces
f 3/1/1 2/1/1 1/1/1
f 4/1/1 2/1/1 3/1/1
f 6/2/1 4/2/1 3/2/1
f 7/2/1 4/2/1 6/2/1
f 9/1/1 7/1/1 6/1/1
f 9/1/1 8/1/1 7/1/1
f 9/1/1 6/1/1 5/1/1
f 10/1/1 8/1/1 9/1/1
f 11/1/2 12/1/2 13/1/2
f 13/1/2 12/1/2 14/1/2
f 13/2/2 14/2/2 16/2/2
f 16/2/2 14/2/2 17/2/2
f 16/1/2 17/1/2 19/1/2
f 17/1/2 18/1/2 19/1/2
f 15/1/2 16/1/2 19/1/2
f 19/1/2 18/1/2 20/1/2
f 23/1/3 22/1/3 21/1/3
f 24/1/3 22/1/3 23/1/3
f 28/1/3 26/1/3 25/1/3
f 29/2/3 27/2/3 26/2/3
f 29/1/3 26/1/3 28/1/3
f 30/2/3 27/2/3 29/2/3
f 31/1/4 32/1/4 34/1/4
f 32/2/4 33/2/4 35/2/4
f 34/1/4 32/1/4 35/1/4
f 35/2/4 33/2/4 36/2/4
f 37/1/4 38/1/4 39/1/4
f 39/1/4 38/1/4 40/1/4
f 43/1/5 42/1/5 41/1/5
f 44/1/5 42/1/5 43/1/5
f 47/1/5 46/1/5 45/1/5
f 48/1/5 46/1/5 47/1/5
f 51/1/5 50/1/5 49/1/5
f 52/1/5 50/1/5 51/1/5
f 53/1/6 54/1/6 55/1/6
f 55/1/6 54/1/6 56/1/6
