# MagicaVoxel @ Ephtracy

# group
o 

# material
mtllib penghubung_toilet_corridor_lantai_2.mtl
usemtl palette

# normals
vn -1 0 0
vn 1 0 0
vn 0 0 1
vn 0 0 -1
vn 0 -1 0
vn 0 1 0

# texcoords
vt 0.189453 0.5
vt 0.349609 0.5

# verts
v -6.4 0 -5.1
v -6.4 0 -5.9
v -6.4 4 -5.1
v -6.4 4 -5.9
v -6.4 4.5 -5.1
v -6.4 4.5 -5.9
v -6.4 4.8 -5.1
v -6.4 4.8 -5.9
v -2.2 0 -5.4
v -2.2 0 -5.6
v -2.2 2.5 -5.4
v -2.2 2.5 -5.6
v 0 0 -5.1
v 0 0 -5.4
v 0 0 -5.6
v 0 0 -5.9
v 0 4 -5.1
v 0 4 -5.4
v 0 4 -5.6
v 0 4 -5.9
v 0 4.5 -5.1
v 0 4.5 -5.4
v 0 4.5 -5.6
v 0 4.5 -5.9
v 4.5 0 -5.4
v 4.5 0 -5.6
v 4.5 2.5 -5.4
v 4.5 2.5 -5.6
v -5.6 0 -5.1
v -5.6 0 -5.4
v -5.6 0 -5.6
v -5.6 0 -5.9
v -5.6 4 -5.1
v -5.6 4 -5.4
v -5.6 4 -5.6
v -5.6 4 -5.9
v -5.6 4.5 -5.1
v -5.6 4.5 -5.4
v -5.6 4.5 -5.6
v -5.6 4.5 -5.9
v -3.4 0 -5.4
v -3.4 0 -5.6
v -3.4 2.5 -5.4
v -3.4 2.5 -5.6
v 0.8 0 -5.1
v 0.8 0 -5.4
v 0.8 0 -5.6
v 0.8 0 -5.9
v 0.8 4 -5.1
v 0.8 4 -5.4
v 0.8 4 -5.6
v 0.8 4 -5.9
v 0.8 4.5 -5.1
v 0.8 4.5 -5.4
v 0.8 4.5 -5.6
v 0.8 4.5 -5.9
v 3.3 0 -5.4
v 3.3 0 -5.6
v 3.3 2.5 -5.4
v 3.3 2.5 -5.6
v 6.4 0 -5.4
v 6.4 0 -5.6
v 6.4 4 -5.4
v 6.4 4 -5.6
v 6.4 4.5 -5.1
v 6.4 4.5 -5.4
v 6.4 4.5 -5.6
v 6.4 4.5 -5.9
v 6.4 4.8 -5.1
v 6.4 4.8 -5.9
v -6.4 0 -5.1
v -6.4 4 -5.1
v -6.4 4.5 -5.1
v -6.4 4.8 -5.1
v -5.6 0 -5.1
v -5.6 4 -5.1
v -5.6 4.5 -5.1
v 0 0 -5.1
v 0 4 -5.1
v 0 4.5 -5.1
v 0.8 0 -5.1
v 0.8 4 -5.1
v 0.8 4.5 -5.1
v 6.4 4.5 -5.1
v 6.4 4.8 -5.1
v -5.6 0 -5.4
v -5.6 4 -5.4
v -5.6 4.5 -5.4
v -3.6 0 -5.4
v -3.6 2.7 -5.4
v -3.4 0 -5.4
v -3.4 2.5 -5.4
v -2.2 0 -5.4
v -2.2 2.5 -5.4
v -2 0 -5.4
v -2 2.7 -5.4
v 0 0 -5.4
v 0 4 -5.4
v 0 4.5 -5.4
v 0.8 0 -5.4
v 0.8 4 -5.4
v 0.8 4.5 -5.4
v 3.1 0 -5.4
v 3.1 2.7 -5.4
v 3.3 0 -5.4
v 3.3 2.5 -5.4
v 4.5 0 -5.4
v 4.5 2.5 -5.4
v 4.7 0 -5.4
v 4.7 2.7 -5.4
v 6.4 0 -5.4
v 6.4 4 -5.4
v 6.4 4.5 -5.4
v -5.6 0 -5.6
v -5.6 4 -5.6
v -5.6 4.5 -5.6
v -3.6 0 -5.6
v -3.6 2.7 -5.6
v -3.4 0 -5.6
v -3.4 2.5 -5.6
v -2.2 0 -5.6
v -2.2 2.5 -5.6
v -2 0 -5.6
v -2 2.7 -5.6
v 0 0 -5.6
v 0 4 -5.6
v 0 4.5 -5.6
v 0.8 0 -5.6
v 0.8 4 -5.6
v 0.8 4.5 -5.6
v 3.1 0 -5.6
v 3.1 2.7 -5.6
v 3.3 0 -5.6
v 3.3 2.5 -5.6
v 4.5 0 -5.6
v 4.5 2.5 -5.6
v 4.7 0 -5.6
v 4.7 2.7 -5.6
v 6.4 0 -5.6
v 6.4 4 -5.6
v 6.4 4.5 -5.6
v -6.4 0 -5.9
v -6.4 4 -5.9
v -6.4 4.5 -5.9
v -6.4 4.8 -5.9
v -5.6 0 -5.9
v -5.6 4 -5.9
v -5.6 4.5 -5.9
v 0 0 -5.9
v 0 4 -5.9
v 0 4.5 -5.9
v 0.8 0 -5.9
v 0.8 4 -5.9
v 0.8 4.5 -5.9
v 6.4 4.5 -5.9
v 6.4 4.8 -5.9
v -6.4 0 -5.1
v -5.6 0 -5.1
v 0 0 -5.1
v 0.8 0 -5.1
v -5.6 0 -5.4
v -3.6 0 -5.4
v -3.4 0 -5.4
v -2.2 0 -5.4
v -2 0 -5.4
v 0 0 -5.4
v 0.8 0 -5.4
v 3.1 0 -5.4
v 3.3 0 -5.4
v 4.5 0 -5.4
v 4.7 0 -5.4
v 6.4 0 -5.4
v -5.6 0 -5.6
v -3.6 0 -5.6
v -3.4 0 -5.6
v -2.2 0 -5.6
v -2 0 -5.6
v 0 0 -5.6
v 0.8 0 -5.6
v 3.1 0 -5.6
v 3.3 0 -5.6
v 4.5 0 -5.6
v 4.7 0 -5.6
v 6.4 0 -5.6
v -6.4 0 -5.9
v -5.6 0 -5.9
v 0 0 -5.9
v 0.8 0 -5.9
v -3.4 2.5 -5.4
v -2.2 2.5 -5.4
v 3.3 2.5 -5.4
v 4.5 2.5 -5.4
v -3.4 2.5 -5.6
v -2.2 2.5 -5.6
v 3.3 2.5 -5.6
v 4.5 2.5 -5.6
v -5.6 4.5 -5.1
v 0 4.5 -5.1
v 0.8 4.5 -5.1
v 6.4 4.5 -5.1
v -5.6 4.5 -5.4
v 0 4.5 -5.4
v 0.8 4.5 -5.4
v 6.4 4.5 -5.4
v -5.6 4.5 -5.6
v 0 4.5 -5.6
v 0.8 4.5 -5.6
v 6.4 4.5 -5.6
v -5.6 4.5 -5.9
v 0 4.5 -5.9
v 0.8 4.5 -5.9
v 6.4 4.5 -5.9
v -6.4 4.8 -5.1
v 6.4 4.8 -5.1
v -6.4 4.8 -5.9
v 6.4 4.8 -5.9

# faces
f 3/2/1 2/2/1 1/2/1
f 4/2/1 2/2/1 3/2/1
f 5/1/1 4/1/1 3/1/1
f 6/1/1 4/1/1 5/1/1
f 7/2/1 6/2/1 5/2/1
f 8/2/1 6/2/1 7/2/1
f 11/1/1 10/1/1 9/1/1
f 12/1/1 10/1/1 11/1/1
f 17/2/1 14/2/1 13/2/1
f 18/2/1 14/2/1 17/2/1
f 19/2/1 16/2/1 15/2/1
f 20/2/1 16/2/1 19/2/1
f 21/1/1 18/1/1 17/1/1
f 22/1/1 18/1/1 21/1/1
f 23/1/1 20/1/1 19/1/1
f 24/1/1 20/1/1 23/1/1
f 27/1/1 26/1/1 25/1/1
f 28/1/1 26/1/1 27/1/1
f 29/2/2 30/2/2 33/2/2
f 33/2/2 30/2/2 34/2/2
f 31/2/2 32/2/2 35/2/2
f 35/2/2 32/2/2 36/2/2
f 33/1/2 34/1/2 37/1/2
f 37/1/2 34/1/2 38/1/2
f 35/1/2 36/1/2 39/1/2
f 39/1/2 36/1/2 40/1/2
f 41/1/2 42/1/2 43/1/2
f 43/1/2 42/1/2 44/1/2
f 45/2/2 46/2/2 49/2/2
f 49/2/2 46/2/2 50/2/2
f 47/2/2 48/2/2 51/2/2
f 51/2/2 48/2/2 52/2/2
f 49/1/2 50/1/2 53/1/2
f 53/1/2 50/1/2 54/1/2
f 51/1/2 52/1/2 55/1/2
f 55/1/2 52/1/2 56/1/2
f 57/1/2 58/1/2 59/1/2
f 59/1/2 58/1/2 60/1/2
f 61/2/2 62/2/2 63/2/2
f 63/2/2 62/2/2 64/2/2
f 63/1/2 64/1/2 66/1/2
f 66/1/2 64/1/2 67/1/2
f 66/2/2 67/2/2 69/2/2
f 67/2/2 68/2/2 69/2/2
f 65/2/2 66/2/2 69/2/2
f 69/2/2 68/2/2 70/2/2
f 75/2/3 72/2/3 71/2/3
f 76/1/3 73/1/3 72/1/3
f 76/2/3 72/2/3 75/2/3
f 77/2/3 74/2/3 73/2/3
f 77/1/3 73/1/3 76/1/3
f 80/2/3 74/2/3 77/2/3
f 81/2/3 79/2/3 78/2/3
f 82/1/3 80/1/3 79/1/3
f 82/2/3 79/2/3 81/2/3
f 83/2/3 74/2/3 80/2/3
f 83/1/3 80/1/3 82/1/3
f 84/2/3 74/2/3 83/2/3
f 85/2/3 74/2/3 84/2/3
f 89/2/3 87/2/3 86/2/3
f 90/2/3 87/2/3 89/2/3
f 91/1/3 90/1/3 89/1/3
f 92/1/3 90/1/3 91/1/3
f 94/1/3 90/1/3 92/1/3
f 95/1/3 94/1/3 93/1/3
f 96/2/3 87/2/3 90/2/3
f 96/1/3 94/1/3 95/1/3
f 96/1/3 90/1/3 94/1/3
f 97/2/3 96/2/3 95/2/3
f 98/1/3 88/1/3 87/1/3
f 98/2/3 96/2/3 97/2/3
f 98/2/3 87/2/3 96/2/3
f 99/1/3 88/1/3 98/1/3
f 103/2/3 101/2/3 100/2/3
f 104/2/3 101/2/3 103/2/3
f 105/1/3 104/1/3 103/1/3
f 106/1/3 104/1/3 105/1/3
f 108/1/3 104/1/3 106/1/3
f 109/1/3 108/1/3 107/1/3
f 110/2/3 101/2/3 104/2/3
f 110/1/3 108/1/3 109/1/3
f 110/1/3 104/1/3 108/1/3
f 111/2/3 110/2/3 109/2/3
f 112/1/3 102/1/3 101/1/3
f 112/2/3 110/2/3 111/2/3
f 112/2/3 101/2/3 110/2/3
f 113/1/3 102/1/3 112/1/3
f 114/2/4 115/2/4 117/2/4
f 117/2/4 115/2/4 118/2/4
f 117/1/4 118/1/4 119/1/4
f 119/1/4 118/1/4 120/1/4
f 120/1/4 118/1/4 122/1/4
f 121/1/4 122/1/4 123/1/4
f 118/2/4 115/2/4 124/2/4
f 123/1/4 122/1/4 124/1/4
f 122/1/4 118/1/4 124/1/4
f 123/2/4 124/2/4 125/2/4
f 115/1/4 116/1/4 126/1/4
f 125/2/4 124/2/4 126/2/4
f 124/2/4 115/2/4 126/2/4
f 126/1/4 116/1/4 127/1/4
f 128/2/4 129/2/4 131/2/4
f 131/2/4 129/2/4 132/2/4
f 131/1/4 132/1/4 133/1/4
f 133/1/4 132/1/4 134/1/4
f 134/1/4 132/1/4 136/1/4
f 135/1/4 136/1/4 137/1/4
f 132/2/4 129/2/4 138/2/4
f 137/1/4 136/1/4 138/1/4
f 136/1/4 132/1/4 138/1/4
f 137/2/4 138/2/4 139/2/4
f 129/1/4 130/1/4 140/1/4
f 139/2/4 138/2/4 140/2/4
f 138/2/4 129/2/4 140/2/4
f 140/1/4 130/1/4 141/1/4
f 142/2/4 143/2/4 146/2/4
f 143/1/4 144/1/4 147/1/4
f 146/2/4 143/2/4 147/2/4
f 144/2/4 145/2/4 148/2/4
f 147/1/4 144/1/4 148/1/4
f 148/2/4 145/2/4 151/2/4
f 149/2/4 150/2/4 152/2/4
f 150/1/4 151/1/4 153/1/4
f 152/2/4 150/2/4 153/2/4
f 151/2/4 145/2/4 154/2/4
f 153/1/4 151/1/4 154/1/4
f 154/2/4 145/2/4 155/2/4
f 155/2/4 145/2/4 156/2/4
f 161/2/5 158/2/5 157/2/5
f 166/2/5 160/2/5 159/2/5
f 167/2/5 160/2/5 166/2/5
f 173/2/5 161/2/5 157/2/5
f 173/2/5 162/2/5 161/2/5
f 174/1/5 163/1/5 162/1/5
f 174/2/5 162/2/5 173/2/5
f 175/1/5 163/1/5 174/1/5
f 176/1/5 165/1/5 164/1/5
f 177/2/5 166/2/5 165/2/5
f 177/1/5 165/1/5 176/1/5
f 177/2/5 167/2/5 166/2/5
f 177/2/5 168/2/5 167/2/5
f 178/2/5 168/2/5 177/2/5
f 179/2/5 168/2/5 178/2/5
f 180/1/5 169/1/5 168/1/5
f 180/2/5 168/2/5 179/2/5
f 181/1/5 169/1/5 180/1/5
f 182/1/5 171/1/5 170/1/5
f 183/2/5 172/2/5 171/2/5
f 183/1/5 171/1/5 182/1/5
f 184/2/5 172/2/5 183/2/5
f 185/2/5 173/2/5 157/2/5
f 186/2/5 173/2/5 185/2/5
f 187/2/5 179/2/5 178/2/5
f 188/2/5 179/2/5 187/2/5
f 193/1/5 190/1/5 189/1/5
f 194/1/5 190/1/5 193/1/5
f 195/1/5 192/1/5 191/1/5
f 196/1/5 192/1/5 195/1/5
f 201/2/5 198/2/5 197/2/5
f 202/2/5 198/2/5 201/2/5
f 203/2/5 200/2/5 199/2/5
f 204/2/5 200/2/5 203/2/5
f 209/2/5 206/2/5 205/2/5
f 210/2/5 206/2/5 209/2/5
f 211/2/5 208/2/5 207/2/5
f 212/2/5 208/2/5 211/2/5
f 213/2/6 214/2/6 215/2/6
f 215/2/6 214/2/6 216/2/6
