# MagicaVoxel @ Ephtracy

# group
o 

# material
mtllib lantai_3_corridor_window.mtl
usemtl palette

# normals
vn -1 0 0
vn 1 0 0
vn 0 0 1
vn 0 0 -1
vn 0 -1 0
vn 0 1 0

# texcoords
vt 0.306641 0.5
vt 0.455078 0.5

# verts
v -3.2 0 4.5
v -3.2 0 3.9
v -3.2 3.5 4.5
v -3.2 3.5 3.9
v -3.2 6.9 4.8
v -3.2 6.9 4.5
v -3.2 6.9 3.9
v -3.2 7 4.8
v -3.2 7 4.7
v -3.2 7.1 4.7
v -3.2 7.1 4.6
v -3.2 7.2 4.6
v -3.2 7.2 4.5
v -3.2 7.4 4.5
v -3.2 7.4 4.4
v -3.2 7.4 4
v -3.2 7.4 3.9
v -3.2 7.5 4.4
v -3.2 7.5 4
v -3.2 8.4 4.4
v -3.2 8.4 3.9
v -3.2 8.5 4.7
v -3.2 8.5 4.5
v -3.2 8.5 4.4
v -3.2 8.6 4.8
v -3.2 8.6 4.7
v -3.2 9.2 4.8
v -3.2 9.2 3.9
v -3.1 8.4 4.6
v -3.1 8.4 4.5
v -3.1 8.5 4.6
v -3.1 8.5 4.5
v -1.5 3.7 4.5
v -1.5 3.7 4
v -1.5 6.7 4.5
v -1.5 6.7 4
v -0.2 7.6 4.5
v -0.2 7.6 4.4
v -0.2 7.6 4
v -0.2 7.6 3.9
v -0.2 8.3 4.5
v -0.2 8.3 4.4
v -0.2 8.3 4
v -0.2 8.3 3.9
v -0.0999999 3.6 4.5
v -0.0999999 3.6 4.4
v -0.0999999 3.7 4.4
v -0.0999999 3.7 4
v -0.0999999 6.7 4.4
v -0.0999999 6.7 4
v -0.0999999 6.8 4.5
v -0.0999999 6.8 4.4
v 1.5 3.7 4.5
v 1.5 3.7 4
v 1.5 6.7 4.5
v 1.5 6.7 4.4
v 1.5 6.7 4
v 2.9 3.7 4.4
v 2.9 3.7 4
v 2.9 6.7 4.4
v 2.9 6.7 4
v 2.9 7.6 4.5
v 2.9 7.6 4.4
v 2.9 7.6 4
v 2.9 7.6 3.9
v 2.9 8.3 4.5
v 2.9 8.3 4.4
v 2.9 8.3 4
v 2.9 8.3 3.9
v 3 3.6 4.5
v 3 3.6 4.4
v 3 3.6 4
v 3 3.6 3.9
v 3 6.8 4.5
v 3 6.8 4.4
v 3 6.8 4
v 3 6.8 3.9
v -3 3.6 4
v -3 3.6 3.9
v -3 6.8 4
v -3 6.8 3.9
v -2.9 3.7 4.5
v -2.9 3.7 4
v -2.9 6.7 4.5
v -2.9 6.7 4
v -2.9 7.6 4.5
v -2.9 7.6 4.4
v -2.9 7.6 4
v -2.9 7.6 3.9
v -2.9 8.3 4.5
v -2.9 8.3 4.4
v -2.9 8.3 4
v -2.9 8.3 3.9
v -1.4 3.6 4.5
v -1.4 3.6 4.4
v -1.4 3.7 4.4
v -1.4 3.7 4
v -1.4 6.7 4.4
v -1.4 6.7 4
v -1.4 6.8 4.5
v -1.4 6.8 4.4
v 0.2 3.7 4.5
v 0.2 3.7 4
v 0.2 6.7 4.5
v 0.2 6.7 4.4
v 0.2 6.7 4
v 0.2 7.6 4.5
v 0.2 7.6 4.4
v 0.2 7.6 4
v 0.2 7.6 3.9
v 0.2 8.3 4.5
v 0.2 8.3 4.4
v 0.2 8.3 4
v 0.2 8.3 3.9
v 1.6 3.6 4.5
v 1.6 3.6 4.4
v 1.6 3.7 4.4
v 1.6 3.7 4
v 1.6 6.7 4.4
v 1.6 6.7 4
v 1.6 6.8 4.5
v 1.6 6.8 4.4
v 3.1 8.4 4.6
v 3.1 8.4 4.5
v 3.1 8.5 4.6
v 3.1 8.5 4.5
v 3.2 0 4.5
v 3.2 0 3.9
v 3.2 3.5 4.5
v 3.2 3.5 3.9
v 3.2 6.9 4.8
v 3.2 6.9 4.5
v 3.2 6.9 3.9
v 3.2 7 4.8
v 3.2 7 4.7
v 3.2 7.1 4.7
v 3.2 7.1 4.6
v 3.2 7.2 4.6
v 3.2 7.2 4.5
v 3.2 7.4 4.5
v 3.2 7.4 4.4
v 3.2 7.4 4
v 3.2 7.4 3.9
v 3.2 7.5 4.4
v 3.2 7.5 4
v 3.2 8.4 4.4
v 3.2 8.4 3.9
v 3.2 8.5 4.7
v 3.2 8.5 4.5
v 3.2 8.5 4.4
v 3.2 8.6 4.8
v 3.2 8.6 4.7
v 3.2 9.2 4.8
v 3.2 9.2 3.9
v -3.2 6.9 4.8
v -3.2 7 4.8
v -3.2 8.6 4.8
v -3.2 9.2 4.8
v 3.2 6.9 4.8
v 3.2 7 4.8
v 3.2 8.6 4.8
v 3.2 9.2 4.8
v -3.2 7 4.7
v -3.2 7.1 4.7
v -3.2 8.5 4.7
v -3.2 8.6 4.7
v 3.2 7 4.7
v 3.2 7.1 4.7
v 3.2 8.5 4.7
v 3.2 8.6 4.7
v -3.2 7.1 4.6
v -3.2 7.2 4.6
v -3.1 8.4 4.6
v -3.1 8.5 4.6
v 3.1 8.4 4.6
v 3.1 8.5 4.6
v 3.2 7.1 4.6
v 3.2 7.2 4.6
v -3.2 0 4.5
v -3.2 3.5 4.5
v -3.2 6.9 4.5
v -3.2 7.2 4.5
v -3.2 7.4 4.5
v -3.2 8.5 4.5
v -3.1 8.4 4.5
v -3.1 8.5 4.5
v -3 3.6 4.5
v -3 6.8 4.5
v -3 7.5 4.5
v -3 8.4 4.5
v -2.9 3.7 4.5
v -2.9 6.7 4.5
v -2.9 7.6 4.5
v -2.9 8.3 4.5
v -1.5 3.7 4.5
v -1.5 6.7 4.5
v -1.4 3.6 4.5
v -1.4 6.8 4.5
v -0.2 7.6 4.5
v -0.2 8.3 4.5
v -0.0999999 3.6 4.5
v -0.0999999 6.8 4.5
v -0.0999999 7.5 4.5
v -0.0999999 8.4 4.5
v 0.1 3.6 4.5
v 0.1 6.8 4.5
v 0.1 7.5 4.5
v 0.1 8.4 4.5
v 0.2 3.7 4.5
v 0.2 6.7 4.5
v 0.2 7.6 4.5
v 0.2 8.3 4.5
v 1.5 3.7 4.5
v 1.5 6.7 4.5
v 1.6 3.6 4.5
v 1.6 6.8 4.5
v 2.9 7.6 4.5
v 2.9 8.3 4.5
v 3 3.6 4.5
v 3 6.8 4.5
v 3 7.5 4.5
v 3 8.4 4.5
v 3.1 8.4 4.5
v 3.1 8.5 4.5
v 3.2 0 4.5
v 3.2 3.5 4.5
v 3.2 6.9 4.5
v 3.2 7.2 4.5
v 3.2 7.4 4.5
v 3.2 8.5 4.5
v -1.4 3.6 4.4
v -1.4 3.7 4.4
v -1.4 6.7 4.4
v -1.4 6.8 4.4
v -0.0999999 3.6 4.4
v -0.0999999 3.7 4.4
v -0.0999999 6.7 4.4
v -0.0999999 6.8 4.4
v 1.6 3.6 4.4
v 1.6 3.7 4.4
v 1.6 6.7 4.4
v 1.6 6.8 4.4
v 2.9 3.7 4.4
v 2.9 6.7 4.4
v 3 3.6 4.4
v 3 6.8 4.4
v -3 3.6 4
v -3 6.8 4
v -2.9 3.7 4
v -2.9 6.7 4
v -1.5 3.7 4
v -1.5 6.7 4
v -1.4 3.6 4
v -1.4 3.7 4
v -1.4 6.7 4
v -1.4 6.8 4
v -0.0999999 3.7 4
v -0.0999999 6.7 4
v 0.1 3.6 4
v 0.1 6.7 4
v 0.2 3.7 4
v 0.2 6.7 4
v 1.5 3.6 4
v 1.5 3.7 4
v 1.5 6.7 4
v 1.6 3.7 4
v 1.6 6.7 4
v 2.9 3.7 4
v 2.9 6.7 4
v 3 3.6 4
v 3 6.8 4
v -3.2 0 3.9
v -3.2 3.5 3.9
v -3.2 6.9 3.9
v -3.2 7.4 3.9
v -3.2 8.4 3.9
v -3.2 9.2 3.9
v -3 3.6 3.9
v -3 6.8 3.9
v -3 7.5 3.9
v -3 8.4 3.9
v -2.9 7.6 3.9
v -2.9 8.3 3.9
v -0.2 7.6 3.9
v -0.2 8.3 3.9
v 0.2 7.6 3.9
v 0.2 8.3 3.9
v 2.9 7.6 3.9
v 2.9 8.3 3.9
v 3 3.6 3.9
v 3 6.8 3.9
v 3 7.5 3.9
v 3 8.4 3.9
v 3.2 0 3.9
v 3.2 3.5 3.9
v 3.2 6.9 3.9
v 3.2 7.4 3.9
v 3.2 8.4 3.9
v 3.2 9.2 3.9
v -3.2 0 4.5
v 3.2 0 4.5
v -3.2 0 3.9
v 3.2 0 3.9
v -2.9 6.7 4.5
v -1.5 6.7 4.5
v 0.2 6.7 4.5
v 1.5 6.7 4.5
v -1.4 6.7 4.4
v -0.0999999 6.7 4.4
v 0.2 6.7 4.4
v 1.5 6.7 4.4
v 1.6 6.7 4.4
v 2.9 6.7 4.4
v -2.9 6.7 4
v -1.5 6.7 4
v -1.4 6.7 4
v -0.0999999 6.7 4
v 0.2 6.7 4
v 1.5 6.7 4
v 1.6 6.7 4
v 2.9 6.7 4
v -1.4 6.8 4.5
v -0.0999999 6.8 4.5
v 1.6 6.8 4.5
v 3 6.8 4.5
v -1.4 6.8 4.4
v -0.0999999 6.8 4.4
v 1.6 6.8 4.4
v 3 6.8 4.4
v -3 6.8 4
v -1.4 6.8 4
v 3 6.8 4
v -3 6.8 3.9
v 3 6.8 3.9
v -3.2 6.9 4.8
v 3.2 6.9 4.8
v -3.2 6.9 4.5
v 3.2 6.9 4.5
v -2.9 8.3 4.5
v -0.2 8.3 4.5
v 0.2 8.3 4.5
v 2.9 8.3 4.5
v -2.9 8.3 4.4
v -0.2 8.3 4.4
v 0.2 8.3 4.4
v 2.9 8.3 4.4
v -2.9 8.3 4
v -0.2 8.3 4
v 0.2 8.3 4
v 2.9 8.3 4
v -2.9 8.3 3.9
v -0.2 8.3 3.9
v 0.2 8.3 3.9
v 2.9 8.3 3.9
v -3.1 8.4 4.6
v 3.1 8.4 4.6
v -3.1 8.4 4.5
v -3 8.4 4.5
v -0.0999999 8.4 4.5
v 0.1 8.4 4.5
v 3 8.4 4.5
v 3.1 8.4 4.5
v -3.2 8.5 4.7
v 3.2 8.5 4.7
v -3.1 8.5 4.6
v 3.1 8.5 4.6
v -3.2 8.5 4.5
v -3.1 8.5 4.5
v 3.1 8.5 4.5
v 3.2 8.5 4.5
v -3.2 8.6 4.8
v 3.2 8.6 4.8
v -3.2 8.6 4.7
v 3.2 8.6 4.7
v -1.4 3.6 4.5
v -0.0999999 3.6 4.5
v 1.6 3.6 4.5
v 3 3.6 4.5
v -1.4 3.6 4.4
v -0.0999999 3.6 4.4
v 1.6 3.6 4.4
v 3 3.6 4.4
v -3 3.6 4
v -1.4 3.6 4
v 0.1 3.6 4
v 1.5 3.6 4
v 3 3.6 4
v -3 3.6 3.9
v 3 3.6 3.9
v -2.9 3.7 4.5
v -1.5 3.7 4.5
v 0.2 3.7 4.5
v 1.5 3.7 4.5
v -1.4 3.7 4.4
v -0.0999999 3.7 4.4
v 1.6 3.7 4.4
v 2.9 3.7 4.4
v -2.9 3.7 4
v -1.5 3.7 4
v -1.4 3.7 4
v -0.0999999 3.7 4
v 0.2 3.7 4
v 1.5 3.7 4
v 1.6 3.7 4
v 2.9 3.7 4
v -3.2 7 4.8
v 3.2 7 4.8
v -3.2 7 4.7
v 3.2 7 4.7
v -3.2 7.1 4.7
v 3.2 7.1 4.7
v -3.2 7.1 4.6
v 3.2 7.1 4.6
v -3.2 7.2 4.6
v 3.2 7.2 4.6
v -3.2 7.2 4.5
v 3.2 7.2 4.5
v -2.9 7.6 4.5
v -0.2 7.6 4.5
v 0.2 7.6 4.5
v 2.9 7.6 4.5
v -2.9 7.6 4.4
v -0.2 7.6 4.4
v 0.2 7.6 4.4
v 2.9 7.6 4.4
v -2.9 7.6 4
v -0.2 7.6 4
v 0.2 7.6 4
v 2.9 7.6 4
v -2.9 7.6 3.9
v -0.2 7.6 3.9
v 0.2 7.6 3.9
v 2.9 7.6 3.9
v -3.2 9.2 4.8
v 3.2 9.2 4.8
v -3.2 9.2 3.9
v 3.2 9.2 3.9

# faces
f 3/1/1 2/1/1 1/1/1
f 4/1/1 2/1/1 3/1/1
f 6/2/1 4/2/1 3/2/1
f 7/2/1 4/2/1 6/2/1
f 8/1/1 6/1/1 5/1/1
f 8/1/1 7/1/1 6/1/1
f 9/1/1 7/1/1 8/1/1
f 10/1/1 7/1/1 9/1/1
f 11/1/1 7/1/1 10/1/1
f 12/1/1 7/1/1 11/1/1
f 13/1/1 7/1/1 12/1/1
f 14/1/1 7/1/1 13/1/1
f 15/1/1 7/1/1 14/1/1
f 16/1/1 7/1/1 15/1/1
f 17/1/1 7/1/1 16/1/1
f 18/2/1 15/2/1 14/2/1
f 18/1/1 16/1/1 15/1/1
f 19/2/1 17/2/1 16/2/1
f 19/1/1 16/1/1 18/1/1
f 20/2/1 18/2/1 14/2/1
f 20/2/1 19/2/1 18/2/1
f 21/2/1 17/2/1 19/2/1
f 21/2/1 19/2/1 20/2/1
f 23/2/1 20/2/1 14/2/1
f 24/1/1 21/1/1 20/1/1
f 24/2/1 20/2/1 23/2/1
f 26/1/1 23/1/1 22/1/1
f 26/1/1 24/1/1 23/1/1
f 27/1/1 26/1/1 25/1/1
f 28/1/1 21/1/1 24/1/1
f 28/1/1 26/1/1 27/1/1
f 28/1/1 24/1/1 26/1/1
f 31/1/1 30/1/1 29/1/1
f 32/1/1 30/1/1 31/1/1
f 35/1/1 34/1/1 33/1/1
f 36/1/1 34/1/1 35/1/1
f 41/1/1 38/1/1 37/1/1
f 41/1/1 40/1/1 39/1/1
f 41/1/1 39/1/1 38/1/1
f 42/1/1 40/1/1 41/1/1
f 43/1/1 40/1/1 42/1/1
f 44/1/1 40/1/1 43/1/1
f 47/2/1 46/2/1 45/2/1
f 49/2/1 47/2/1 45/2/1
f 49/2/1 48/2/1 47/2/1
f 50/2/1 48/2/1 49/2/1
f 51/2/1 49/2/1 45/2/1
f 52/2/1 49/2/1 51/2/1
f 55/1/1 54/1/1 53/1/1
f 56/1/1 54/1/1 55/1/1
f 57/1/1 54/1/1 56/1/1
f 60/2/1 59/2/1 58/2/1
f 61/2/1 59/2/1 60/2/1
f 66/1/1 64/1/1 63/1/1
f 66/1/1 65/1/1 64/1/1
f 66/1/1 63/1/1 62/1/1
f 67/1/1 65/1/1 66/1/1
f 68/1/1 65/1/1 67/1/1
f 69/1/1 65/1/1 68/1/1
f 74/2/1 71/2/1 70/2/1
f 75/2/1 71/2/1 74/2/1
f 76/2/1 73/2/1 72/2/1
f 77/2/1 73/2/1 76/2/1
f 78/2/2 79/2/2 80/2/2
f 80/2/2 79/2/2 81/2/2
f 82/1/2 83/1/2 84/1/2
f 84/1/2 83/1/2 85/1/2
f 87/1/2 88/1/2 90/1/2
f 88/1/2 89/1/2 90/1/2
f 86/1/2 87/1/2 90/1/2
f 90/1/2 89/1/2 91/1/2
f 91/1/2 89/1/2 92/1/2
f 92/1/2 89/1/2 93/1/2
f 94/1/2 95/1/2 96/1/2
f 94/1/2 96/1/2 98/1/2
f 96/1/2 97/1/2 98/1/2
f 98/1/2 97/1/2 99/1/2
f 94/1/2 98/1/2 100/1/2
f 100/1/2 98/1/2 101/1/2
f 102/1/2 103/1/2 104/1/2
f 104/1/2 103/1/2 105/1/2
f 105/1/2 103/1/2 106/1/2
f 108/1/2 109/1/2 111/1/2
f 109/1/2 110/1/2 111/1/2
f 107/1/2 108/1/2 111/1/2
f 111/1/2 110/1/2 112/1/2
f 112/1/2 110/1/2 113/1/2
f 113/1/2 110/1/2 114/1/2
f 115/1/2 116/1/2 117/1/2
f 115/1/2 117/1/2 119/1/2
f 117/1/2 118/1/2 119/1/2
f 119/1/2 118/1/2 120/1/2
f 115/1/2 119/1/2 121/1/2
f 121/1/2 119/1/2 122/1/2
f 123/1/2 124/1/2 125/1/2
f 125/1/2 124/1/2 126/1/2
f 127/1/2 128/1/2 129/1/2
f 129/1/2 128/1/2 130/1/2
f 129/2/2 130/2/2 132/2/2
f 132/2/2 130/2/2 133/2/2
f 131/1/2 132/1/2 134/1/2
f 132/1/2 133/1/2 134/1/2
f 134/1/2 133/1/2 135/1/2
f 135/1/2 133/1/2 136/1/2
f 136/1/2 133/1/2 137/1/2
f 137/1/2 133/1/2 138/1/2
f 138/1/2 133/1/2 139/1/2
f 139/1/2 133/1/2 140/1/2
f 140/1/2 133/1/2 141/1/2
f 141/1/2 133/1/2 142/1/2
f 142/1/2 133/1/2 143/1/2
f 140/2/2 141/2/2 144/2/2
f 141/1/2 142/1/2 144/1/2
f 142/2/2 143/2/2 145/2/2
f 144/1/2 142/1/2 145/1/2
f 140/2/2 144/2/2 146/2/2
f 144/2/2 145/2/2 146/2/2
f 145/2/2 143/2/2 147/2/2
f 146/2/2 145/2/2 147/2/2
f 140/2/2 146/2/2 149/2/2
f 146/1/2 147/1/2 150/1/2
f 149/2/2 146/2/2 150/2/2
f 148/1/2 149/1/2 152/1/2
f 149/1/2 150/1/2 152/1/2
f 151/1/2 152/1/2 153/1/2
f 150/1/2 147/1/2 154/1/2
f 153/1/2 152/1/2 154/1/2
f 152/1/2 150/1/2 154/1/2
f 159/1/3 156/1/3 155/1/3
f 160/1/3 156/1/3 159/1/3
f 161/1/3 158/1/3 157/1/3
f 162/1/3 158/1/3 161/1/3
f 167/1/3 164/1/3 163/1/3
f 168/1/3 164/1/3 167/1/3
f 169/1/3 166/1/3 165/1/3
f 170/1/3 166/1/3 169/1/3
f 175/1/3 174/1/3 173/1/3
f 176/1/3 174/1/3 175/1/3
f 177/1/3 172/1/3 171/1/3
f 178/1/3 172/1/3 177/1/3
f 185/2/3 184/2/3 183/2/3
f 186/2/3 184/2/3 185/2/3
f 187/2/3 181/2/3 180/2/3
f 188/2/3 181/2/3 187/2/3
f 189/2/3 185/2/3 183/2/3
f 190/2/3 185/2/3 189/2/3
f 191/1/3 188/1/3 187/1/3
f 192/1/3 188/1/3 191/1/3
f 193/1/3 190/1/3 189/1/3
f 194/1/3 190/1/3 193/1/3
f 195/1/3 191/1/3 187/1/3
f 196/1/3 188/1/3 192/1/3
f 197/2/3 187/2/3 180/2/3
f 197/1/3 196/1/3 195/1/3
f 197/1/3 195/1/3 187/1/3
f 198/2/3 181/2/3 188/2/3
f 198/1/3 196/1/3 197/1/3
f 198/1/3 188/1/3 196/1/3
f 199/1/3 193/1/3 189/1/3
f 200/1/3 190/1/3 194/1/3
f 201/2/3 197/2/3 180/2/3
f 202/2/3 181/2/3 198/2/3
f 203/1/3 200/1/3 199/1/3
f 203/2/3 189/2/3 183/2/3
f 203/1/3 199/1/3 189/1/3
f 204/1/3 190/1/3 200/1/3
f 204/1/3 200/1/3 203/1/3
f 205/2/3 202/2/3 201/2/3
f 205/2/3 201/2/3 180/2/3
f 206/2/3 181/2/3 202/2/3
f 206/2/3 202/2/3 205/2/3
f 207/2/3 204/2/3 203/2/3
f 207/2/3 203/2/3 183/2/3
f 208/2/3 204/2/3 207/2/3
f 209/1/3 206/1/3 205/1/3
f 210/1/3 206/1/3 209/1/3
f 211/1/3 208/1/3 207/1/3
f 212/1/3 208/1/3 211/1/3
f 213/1/3 209/1/3 205/1/3
f 214/1/3 206/1/3 210/1/3
f 215/2/3 205/2/3 180/2/3
f 215/1/3 214/1/3 213/1/3
f 215/1/3 213/1/3 205/1/3
f 216/2/3 181/2/3 206/2/3
f 216/1/3 214/1/3 215/1/3
f 216/1/3 206/1/3 214/1/3
f 217/1/3 211/1/3 207/1/3
f 218/1/3 208/1/3 212/1/3
f 219/2/3 215/2/3 180/2/3
f 220/2/3 181/2/3 216/2/3
f 221/1/3 218/1/3 217/1/3
f 221/2/3 207/2/3 183/2/3
f 221/1/3 217/1/3 207/1/3
f 222/1/3 208/1/3 218/1/3
f 222/1/3 218/1/3 221/1/3
f 223/2/3 222/2/3 221/2/3
f 225/1/3 180/1/3 179/1/3
f 226/2/3 220/2/3 219/2/3
f 226/1/3 180/1/3 225/1/3
f 226/2/3 219/2/3 180/2/3
f 227/2/3 181/2/3 220/2/3
f 227/2/3 220/2/3 226/2/3
f 228/1/3 183/1/3 182/1/3
f 229/2/3 224/2/3 223/2/3
f 229/1/3 183/1/3 228/1/3
f 229/2/3 223/2/3 221/2/3
f 229/2/3 221/2/3 183/2/3
f 230/2/3 224/2/3 229/2/3
f 235/2/3 232/2/3 231/2/3
f 236/2/3 232/2/3 235/2/3
f 237/2/3 234/2/3 233/2/3
f 238/2/3 234/2/3 237/2/3
f 243/2/3 240/2/3 239/2/3
f 244/2/3 242/2/3 241/2/3
f 245/2/3 243/2/3 239/2/3
f 245/2/3 244/2/3 243/2/3
f 246/2/3 242/2/3 244/2/3
f 246/2/3 244/2/3 245/2/3
f 247/1/4 248/1/4 249/1/4
f 249/1/4 248/1/4 250/1/4
f 247/1/4 249/1/4 251/1/4
f 250/1/4 248/1/4 252/1/4
f 247/1/4 251/1/4 253/1/4
f 251/1/4 252/1/4 253/1/4
f 253/1/4 252/1/4 254/1/4
f 252/1/4 248/1/4 255/1/4
f 254/1/4 252/1/4 255/1/4
f 255/1/4 248/1/4 256/1/4
f 253/2/4 254/2/4 257/2/4
f 255/2/4 256/2/4 258/2/4
f 253/2/4 257/2/4 259/2/4
f 257/2/4 258/2/4 259/2/4
f 258/2/4 256/2/4 260/2/4
f 259/2/4 258/2/4 260/2/4
f 259/1/4 260/1/4 261/1/4
f 260/2/4 256/2/4 262/2/4
f 261/1/4 260/1/4 262/1/4
f 259/1/4 261/1/4 263/1/4
f 263/1/4 261/1/4 264/1/4
f 262/2/4 256/2/4 265/2/4
f 263/2/4 264/2/4 266/2/4
f 264/1/4 265/1/4 266/1/4
f 265/2/4 256/2/4 267/2/4
f 266/1/4 265/1/4 267/1/4
f 263/2/4 266/2/4 268/2/4
f 267/2/4 256/2/4 269/2/4
f 263/2/4 268/2/4 270/2/4
f 268/2/4 269/2/4 270/2/4
f 269/2/4 256/2/4 271/2/4
f 270/2/4 269/2/4 271/2/4
f 273/2/4 274/2/4 278/2/4
f 278/2/4 274/2/4 279/2/4
f 275/2/4 276/2/4 280/2/4
f 276/1/4 277/1/4 281/1/4
f 280/2/4 276/2/4 281/2/4
f 280/1/4 281/1/4 282/1/4
f 282/1/4 281/1/4 283/1/4
f 280/1/4 282/1/4 284/1/4
f 283/1/4 281/1/4 285/1/4
f 280/1/4 284/1/4 286/1/4
f 284/1/4 285/1/4 286/1/4
f 285/1/4 281/1/4 287/1/4
f 286/1/4 285/1/4 287/1/4
f 280/1/4 286/1/4 288/1/4
f 287/1/4 281/1/4 289/1/4
f 273/2/4 278/2/4 290/2/4
f 279/2/4 274/2/4 291/2/4
f 275/2/4 280/2/4 292/2/4
f 288/1/4 289/1/4 292/1/4
f 280/1/4 288/1/4 292/1/4
f 281/1/4 277/1/4 293/1/4
f 292/1/4 289/1/4 293/1/4
f 289/1/4 281/1/4 293/1/4
f 272/1/4 273/1/4 294/1/4
f 290/2/4 291/2/4 295/2/4
f 294/1/4 273/1/4 295/1/4
f 273/2/4 290/2/4 295/2/4
f 274/1/4 275/1/4 296/1/4
f 295/2/4 291/2/4 296/2/4
f 291/2/4 274/2/4 296/2/4
f 292/2/4 293/2/4 297/2/4
f 296/1/4 275/1/4 297/1/4
f 275/2/4 292/2/4 297/2/4
f 293/1/4 277/1/4 298/1/4
f 297/2/4 293/2/4 298/2/4
f 298/1/4 277/1/4 299/1/4
f 302/1/5 301/1/5 300/1/5
f 303/1/5 301/1/5 302/1/5
f 310/1/5 307/1/5 306/1/5
f 311/1/5 307/1/5 310/1/5
f 314/1/5 305/1/5 304/1/5
f 315/1/5 305/1/5 314/1/5
f 316/2/5 309/2/5 308/2/5
f 317/2/5 309/2/5 316/2/5
f 318/2/5 311/2/5 310/2/5
f 319/2/5 311/2/5 318/2/5
f 320/2/5 313/2/5 312/2/5
f 321/2/5 313/2/5 320/2/5
f 326/2/5 323/2/5 322/2/5
f 327/2/5 323/2/5 326/2/5
f 328/2/5 325/2/5 324/2/5
f 329/2/5 325/2/5 328/2/5
f 333/2/5 331/2/5 330/2/5
f 333/2/5 332/2/5 331/2/5
f 334/2/5 332/2/5 333/2/5
f 337/1/5 336/1/5 335/1/5
f 338/1/5 336/1/5 337/1/5
f 343/1/5 340/1/5 339/1/5
f 344/1/5 340/1/5 343/1/5
f 345/1/5 342/1/5 341/1/5
f 346/1/5 342/1/5 345/1/5
f 347/2/5 344/2/5 343/2/5
f 348/2/5 344/2/5 347/2/5
f 349/2/5 346/2/5 345/2/5
f 350/2/5 346/2/5 349/2/5
f 351/1/5 348/1/5 347/1/5
f 352/1/5 348/1/5 351/1/5
f 353/1/5 350/1/5 349/1/5
f 354/1/5 350/1/5 353/1/5
f 357/1/5 356/1/5 355/1/5
f 358/1/5 356/1/5 357/1/5
f 359/1/5 356/1/5 358/1/5
f 360/1/5 356/1/5 359/1/5
f 361/1/5 356/1/5 360/1/5
f 362/1/5 356/1/5 361/1/5
f 365/1/5 364/1/5 363/1/5
f 366/1/5 364/1/5 365/1/5
f 367/1/5 365/1/5 363/1/5
f 368/1/5 365/1/5 367/1/5
f 369/1/5 364/1/5 366/1/5
f 370/1/5 364/1/5 369/1/5
f 373/1/5 372/1/5 371/1/5
f 374/1/5 372/1/5 373/1/5
f 375/2/6 376/2/6 379/2/6
f 379/2/6 376/2/6 380/2/6
f 377/2/6 378/2/6 381/2/6
f 381/2/6 378/2/6 382/2/6
f 383/2/6 384/2/6 388/2/6
f 386/2/6 387/2/6 388/2/6
f 385/2/6 386/2/6 388/2/6
f 384/2/6 385/2/6 388/2/6
f 388/2/6 387/2/6 389/2/6
f 390/1/6 391/1/6 398/1/6
f 398/1/6 391/1/6 399/1/6
f 394/2/6 395/2/6 400/2/6
f 400/2/6 395/2/6 401/2/6
f 392/1/6 393/1/6 402/1/6
f 402/1/6 393/1/6 403/1/6
f 396/2/6 397/2/6 404/2/6
f 404/2/6 397/2/6 405/2/6
f 406/1/6 407/1/6 408/1/6
f 408/1/6 407/1/6 409/1/6
f 410/1/6 411/1/6 412/1/6
f 412/1/6 411/1/6 413/1/6
f 414/1/6 415/1/6 416/1/6
f 416/1/6 415/1/6 417/1/6
f 418/1/6 419/1/6 422/1/6
f 422/1/6 419/1/6 423/1/6
f 420/1/6 421/1/6 424/1/6
f 424/1/6 421/1/6 425/1/6
f 422/2/6 423/2/6 426/2/6
f 426/2/6 423/2/6 427/2/6
f 424/2/6 425/2/6 428/2/6
f 428/2/6 425/2/6 429/2/6
f 426/1/6 427/1/6 430/1/6
f 430/1/6 427/1/6 431/1/6
f 428/1/6 429/1/6 432/1/6
f 432/1/6 429/1/6 433/1/6
f 434/1/6 435/1/6 436/1/6
f 436/1/6 435/1/6 437/1/6
