# MagicaVoxel @ Ephtracy

# group
o 

# material
mtllib lantai_3_corridor_wall.mtl
usemtl palette

# normals
vn -1 0 0
vn 1 0 0
vn 0 0 1
vn 0 0 -1
vn 0 -1 0
vn 0 1 0

# texcoords
vt 0.306641 0.5
vt 0.455078 0.5

# verts
v -3.2 0 4.5
v -3.2 0 3.9
v -3.2 3.5 4.5
v -3.2 3.5 3.9
v -3.2 8.4 4.4
v -3.2 8.4 3.9
v -3.2 8.5 4.7
v -3.2 8.5 4.5
v -3.2 8.5 4.4
v -3.2 8.6 4.8
v -3.2 8.6 4.7
v -3.2 9.2 4.8
v -3.2 9.2 3.9
v -3.1 8.4 4.6
v -3.1 8.4 4.5
v -3.1 8.5 4.6
v -3.1 8.5 4.5
v -0.2 7.6 4.5
v -0.2 7.6 4.4
v -0.2 7.6 4
v -0.2 7.6 3.9
v -0.2 8.3 4.5
v -0.2 8.3 4.4
v -0.2 8.3 4
v -0.2 8.3 3.9
v 2.9 7.6 4.5
v 2.9 7.6 4.4
v 2.9 7.6 4
v 2.9 7.6 3.9
v 2.9 8.3 4.5
v 2.9 8.3 4.4
v 2.9 8.3 4
v 2.9 8.3 3.9
v 3.1 3.6 4.5
v 3.1 3.6 3.9
v 3.1 7.3 4.5
v 3.1 7.3 3.9
v -3.1 3.6 4.5
v -3.1 3.6 3.9
v -3.1 7.3 4.5
v -3.1 7.3 3.9
v -2.9 7.6 4.5
v -2.9 7.6 4.4
v -2.9 7.6 4
v -2.9 7.6 3.9
v -2.9 8.3 4.5
v -2.9 8.3 4.4
v -2.9 8.3 4
v -2.9 8.3 3.9
v 0.2 7.6 4.5
v 0.2 7.6 4.4
v 0.2 7.6 4
v 0.2 7.6 3.9
v 0.2 8.3 4.5
v 0.2 8.3 4.4
v 0.2 8.3 4
v 0.2 8.3 3.9
v 3.1 8.4 4.6
v 3.1 8.4 4.5
v 3.1 8.5 4.6
v 3.1 8.5 4.5
v 3.2 0 4.5
v 3.2 0 3.9
v 3.2 3.5 4.5
v 3.2 3.5 3.9
v 3.2 7.4 4.4
v 3.2 7.4 4
v 3.2 7.5 4.4
v 3.2 7.5 4
v 3.2 8.4 4.4
v 3.2 8.4 3.9
v 3.2 8.5 4.7
v 3.2 8.5 4.5
v 3.2 8.5 4.4
v 3.2 8.6 4.8
v 3.2 8.6 4.7
v 3.2 9.2 4.8
v 3.2 9.2 3.9
v -3.2 8.6 4.8
v -3.2 9.2 4.8
v 3.2 8.6 4.8
v 3.2 9.2 4.8
v -3.2 8.5 4.7
v -3.2 8.6 4.7
v 3.2 8.5 4.7
v 3.2 8.6 4.7
v -3.1 8.4 4.6
v -3.1 8.5 4.6
v 3.1 8.4 4.6
v 3.1 8.5 4.6
v -3.2 0 4.5
v -3.2 3.5 4.5
v -3.2 8.5 4.5
v -3.1 3.6 4.5
v -3.1 7.3 4.5
v -3.1 8.4 4.5
v -3.1 8.5 4.5
v -3 7.5 4.5
v -3 8.4 4.5
v -2.9 7.6 4.5
v -2.9 8.3 4.5
v -0.2 7.6 4.5
v -0.2 8.3 4.5
v -0.0999999 7.5 4.5
v -0.0999999 8.4 4.5
v 0.1 7.5 4.5
v 0.1 8.4 4.5
v 0.2 7.6 4.5
v 0.2 8.3 4.5
v 2.9 7.6 4.5
v 2.9 8.3 4.5
v 3 7.5 4.5
v 3 8.4 4.5
v 3.1 3.6 4.5
v 3.1 7.3 4.5
v 3.1 8.4 4.5
v 3.1 8.5 4.5
v 3.2 0 4.5
v 3.2 3.5 4.5
v 3.2 8.5 4.5
v -3.2 0 3.9
v -3.2 3.5 3.9
v -3.2 8.4 3.9
v -3.2 9.2 3.9
v -3.1 3.6 3.9
v -3.1 7.3 3.9
v -3 7.5 3.9
v -3 8.4 3.9
v -2.9 7.6 3.9
v -2.9 8.3 3.9
v -0.2 7.6 3.9
v -0.2 8.3 3.9
v 0.2 7.6 3.9
v 0.2 8.3 3.9
v 2.9 7.6 3.9
v 2.9 8.3 3.9
v 3 7.5 3.9
v 3 8.4 3.9
v 3.1 3.6 3.9
v 3.1 7.3 3.9
v 3.2 0 3.9
v 3.2 3.5 3.9
v 3.2 8.4 3.9
v 3.2 9.2 3.9
v -3.2 0 4.5
v 3.2 0 4.5
v -3.2 0 3.9
v 3.2 0 3.9
v -3.1 7.3 4.5
v 3.1 7.3 4.5
v -3.1 7.3 3.9
v 3.1 7.3 3.9
v -2.9 8.3 4.5
v -0.2 8.3 4.5
v 0.2 8.3 4.5
v 2.9 8.3 4.5
v -2.9 8.3 4.4
v -0.2 8.3 4.4
v 0.2 8.3 4.4
v 2.9 8.3 4.4
v -2.9 8.3 4
v -0.2 8.3 4
v 0.2 8.3 4
v 2.9 8.3 4
v -2.9 8.3 3.9
v -0.2 8.3 3.9
v 0.2 8.3 3.9
v 2.9 8.3 3.9
v -3.1 8.4 4.6
v 3.1 8.4 4.6
v -3.1 8.4 4.5
v -3 8.4 4.5
v -0.0999999 8.4 4.5
v 0.1 8.4 4.5
v 3 8.4 4.5
v 3.1 8.4 4.5
v -3.2 8.5 4.7
v 3.2 8.5 4.7
v -3.1 8.5 4.6
v 3.1 8.5 4.6
v -3.2 8.5 4.5
v -3.1 8.5 4.5
v 3.1 8.5 4.5
v 3.2 8.5 4.5
v -3.2 8.6 4.8
v 3.2 8.6 4.8
v -3.2 8.6 4.7
v 3.2 8.6 4.7
v -3.1 3.6 4.5
v 3.1 3.6 4.5
v -3.1 3.6 3.9
v 3.1 3.6 3.9
v -2.9 7.6 4.5
v -0.2 7.6 4.5
v 0.2 7.6 4.5
v 2.9 7.6 4.5
v -2.9 7.6 4.4
v -0.2 7.6 4.4
v 0.2 7.6 4.4
v 2.9 7.6 4.4
v -2.9 7.6 4
v -0.2 7.6 4
v 0.2 7.6 4
v 2.9 7.6 4
v -2.9 7.6 3.9
v -0.2 7.6 3.9
v 0.2 7.6 3.9
v 2.9 7.6 3.9
v -3.2 9.2 4.8
v 3.2 9.2 4.8
v -3.2 9.2 3.9
v 3.2 9.2 3.9

# faces
f 3/1/1 2/1/1 1/1/1
f 4/1/1 2/1/1 3/1/1
f 5/2/1 4/2/1 3/2/1
f 6/2/1 4/2/1 5/2/1
f 8/2/1 5/2/1 3/2/1
f 9/1/1 6/1/1 5/1/1
f 9/2/1 5/2/1 8/2/1
f 11/1/1 8/1/1 7/1/1
f 11/1/1 9/1/1 8/1/1
f 12/1/1 11/1/1 10/1/1
f 13/1/1 6/1/1 9/1/1
f 13/1/1 11/1/1 12/1/1
f 13/1/1 9/1/1 11/1/1
f 16/1/1 15/1/1 14/1/1
f 17/1/1 15/1/1 16/1/1
f 22/1/1 19/1/1 18/1/1
f 22/1/1 21/1/1 20/1/1
f 22/1/1 20/1/1 19/1/1
f 23/1/1 21/1/1 22/1/1
f 24/1/1 21/1/1 23/1/1
f 25/1/1 21/1/1 24/1/1
f 30/1/1 27/1/1 26/1/1
f 30/1/1 29/1/1 28/1/1
f 30/1/1 28/1/1 27/1/1
f 31/1/1 29/1/1 30/1/1
f 32/1/1 29/1/1 31/1/1
f 33/1/1 29/1/1 32/1/1
f 36/2/1 35/2/1 34/2/1
f 37/2/1 35/2/1 36/2/1
f 38/2/2 39/2/2 40/2/2
f 40/2/2 39/2/2 41/2/2
f 42/1/2 43/1/2 46/1/2
f 44/1/2 45/1/2 46/1/2
f 43/1/2 44/1/2 46/1/2
f 46/1/2 45/1/2 47/1/2
f 47/1/2 45/1/2 48/1/2
f 48/1/2 45/1/2 49/1/2
f 50/1/2 51/1/2 54/1/2
f 52/1/2 53/1/2 54/1/2
f 51/1/2 52/1/2 54/1/2
f 54/1/2 53/1/2 55/1/2
f 55/1/2 53/1/2 56/1/2
f 56/1/2 53/1/2 57/1/2
f 58/1/2 59/1/2 60/1/2
f 60/1/2 59/1/2 61/1/2
f 62/1/2 63/1/2 64/1/2
f 64/1/2 63/1/2 65/1/2
f 64/2/2 65/2/2 66/2/2
f 66/2/2 65/2/2 67/2/2
f 64/2/2 66/2/2 68/2/2
f 66/1/2 67/1/2 68/1/2
f 67/2/2 65/2/2 69/2/2
f 68/1/2 67/1/2 69/1/2
f 64/2/2 68/2/2 70/2/2
f 68/2/2 69/2/2 70/2/2
f 69/2/2 65/2/2 71/2/2
f 70/2/2 69/2/2 71/2/2
f 64/2/2 70/2/2 73/2/2
f 70/1/2 71/1/2 74/1/2
f 73/2/2 70/2/2 74/2/2
f 72/1/2 73/1/2 76/1/2
f 73/1/2 74/1/2 76/1/2
f 75/1/2 76/1/2 77/1/2
f 74/1/2 71/1/2 78/1/2
f 77/1/2 76/1/2 78/1/2
f 76/1/2 74/1/2 78/1/2
f 81/1/3 80/1/3 79/1/3
f 82/1/3 80/1/3 81/1/3
f 85/1/3 84/1/3 83/1/3
f 86/1/3 84/1/3 85/1/3
f 89/1/3 88/1/3 87/1/3
f 90/1/3 88/1/3 89/1/3
f 94/2/3 93/2/3 92/2/3
f 95/2/3 93/2/3 94/2/3
f 96/2/3 93/2/3 95/2/3
f 97/2/3 93/2/3 96/2/3
f 98/2/3 96/2/3 95/2/3
f 99/2/3 96/2/3 98/2/3
f 100/1/3 99/1/3 98/1/3
f 101/1/3 99/1/3 100/1/3
f 102/1/3 100/1/3 98/1/3
f 103/1/3 99/1/3 101/1/3
f 104/2/3 98/2/3 95/2/3
f 104/1/3 103/1/3 102/1/3
f 104/1/3 102/1/3 98/1/3
f 105/1/3 99/1/3 103/1/3
f 105/1/3 103/1/3 104/1/3
f 106/2/3 104/2/3 95/2/3
f 106/2/3 105/2/3 104/2/3
f 107/2/3 105/2/3 106/2/3
f 108/1/3 107/1/3 106/1/3
f 109/1/3 107/1/3 108/1/3
f 110/1/3 108/1/3 106/1/3
f 111/1/3 107/1/3 109/1/3
f 112/2/3 106/2/3 95/2/3
f 112/1/3 111/1/3 110/1/3
f 112/1/3 110/1/3 106/1/3
f 113/1/3 107/1/3 111/1/3
f 113/1/3 111/1/3 112/1/3
f 114/2/3 94/2/3 92/2/3
f 115/2/3 112/2/3 95/2/3
f 115/2/3 113/2/3 112/2/3
f 116/2/3 113/2/3 115/2/3
f 118/1/3 92/1/3 91/1/3
f 119/2/3 117/2/3 116/2/3
f 119/1/3 92/1/3 118/1/3
f 119/2/3 116/2/3 115/2/3
f 119/2/3 115/2/3 114/2/3
f 119/2/3 114/2/3 92/2/3
f 120/2/3 117/2/3 119/2/3
f 122/2/4 123/2/4 125/2/4
f 125/2/4 123/2/4 126/2/4
f 126/2/4 123/2/4 127/2/4
f 123/1/4 124/1/4 128/1/4
f 127/2/4 123/2/4 128/2/4
f 127/1/4 128/1/4 129/1/4
f 129/1/4 128/1/4 130/1/4
f 127/1/4 129/1/4 131/1/4
f 130/1/4 128/1/4 132/1/4
f 127/1/4 131/1/4 133/1/4
f 131/1/4 132/1/4 133/1/4
f 132/1/4 128/1/4 134/1/4
f 133/1/4 132/1/4 134/1/4
f 127/1/4 133/1/4 135/1/4
f 134/1/4 128/1/4 136/1/4
f 126/2/4 127/2/4 137/2/4
f 135/1/4 136/1/4 137/1/4
f 127/1/4 135/1/4 137/1/4
f 136/1/4 128/1/4 138/1/4
f 137/1/4 136/1/4 138/1/4
f 128/1/4 124/1/4 138/1/4
f 122/2/4 125/2/4 139/2/4
f 126/2/4 137/2/4 140/2/4
f 137/2/4 138/2/4 140/2/4
f 121/1/4 122/1/4 141/1/4
f 139/2/4 140/2/4 142/2/4
f 141/1/4 122/1/4 142/1/4
f 122/2/4 139/2/4 142/2/4
f 140/2/4 138/2/4 143/2/4
f 142/2/4 140/2/4 143/2/4
f 138/1/4 124/1/4 143/1/4
f 143/1/4 124/1/4 144/1/4
f 147/1/5 146/1/5 145/1/5
f 148/1/5 146/1/5 147/1/5
f 151/2/5 150/2/5 149/2/5
f 152/2/5 150/2/5 151/2/5
f 157/1/5 154/1/5 153/1/5
f 158/1/5 154/1/5 157/1/5
f 159/1/5 156/1/5 155/1/5
f 160/1/5 156/1/5 159/1/5
f 161/2/5 158/2/5 157/2/5
f 162/2/5 158/2/5 161/2/5
f 163/2/5 160/2/5 159/2/5
f 164/2/5 160/2/5 163/2/5
f 165/1/5 162/1/5 161/1/5
f 166/1/5 162/1/5 165/1/5
f 167/1/5 164/1/5 163/1/5
f 168/1/5 164/1/5 167/1/5
f 171/1/5 170/1/5 169/1/5
f 172/1/5 170/1/5 171/1/5
f 173/1/5 170/1/5 172/1/5
f 174/1/5 170/1/5 173/1/5
f 175/1/5 170/1/5 174/1/5
f 176/1/5 170/1/5 175/1/5
f 179/1/5 178/1/5 177/1/5
f 180/1/5 178/1/5 179/1/5
f 181/1/5 179/1/5 177/1/5
f 182/1/5 179/1/5 181/1/5
f 183/1/5 178/1/5 180/1/5
f 184/1/5 178/1/5 183/1/5
f 187/1/5 186/1/5 185/1/5
f 188/1/5 186/1/5 187/1/5
f 189/2/6 190/2/6 191/2/6
f 191/2/6 190/2/6 192/2/6
f 193/1/6 194/1/6 197/1/6
f 197/1/6 194/1/6 198/1/6
f 195/1/6 196/1/6 199/1/6
f 199/1/6 196/1/6 200/1/6
f 197/2/6 198/2/6 201/2/6
f 201/2/6 198/2/6 202/2/6
f 199/2/6 200/2/6 203/2/6
f 203/2/6 200/2/6 204/2/6
f 201/1/6 202/1/6 205/1/6
f 205/1/6 202/1/6 206/1/6
f 203/1/6 204/1/6 207/1/6
f 207/1/6 204/1/6 208/1/6
f 209/1/6 210/1/6 211/1/6
f 211/1/6 210/1/6 212/1/6
