# MagicaVoxel @ Ephtracy

# group
o 

# material
mtllib lantai_3_ceiling_lamp.mtl
usemtl palette

# normals
vn -1 0 0
vn 1 0 0
vn 0 0 1
vn 0 0 -1
vn 0 -1 0
vn 0 1 0

# texcoords
vt 0.173828 0.5
vt 0.302734 0.5
vt 0.349609 0.5

# verts
v -3.2 3.8 4.8
v -3.2 3.8 -4.8
v -3.2 4 4.8
v -3.2 4 -4.8
v 3.2 3.8 4.8
v 3.2 3.8 -4.8
v 3.2 4 4.8
v 3.2 4 -4.8
v -3.2 3.8 4.8
v -3.2 4 4.8
v 3.2 3.8 4.8
v 3.2 4 4.8
v -3.2 3.8 -4.8
v -3.2 4 -4.8
v 3.2 3.8 -4.8
v 3.2 4 -4.8
v -3.2 3.8 4.8
v 3.2 3.8 4.8
v -2.8 3.8 2.9
v -1.1 3.8 2.9
v 0 3.8 2.9
v 1.7 3.8 2.9
v -2.8 3.8 1.2
v -1.1 3.8 1.2
v 0 3.8 1.2
v 1.7 3.8 1.2
v -2 3.8 -1.7
v -0.3 3.8 -1.7
v 0.9 3.8 -1.7
v 2.6 3.8 -1.7
v -2 3.8 -3.4
v -0.3 3.8 -3.4
v 0.9 3.8 -3.4
v 2.6 3.8 -3.4
v -3.2 3.8 -4.8
v 3.2 3.8 -4.8
v -3.2 4 4.8
v 3.2 4 4.8
v -3.2 4 -4.8
v 3.2 4 -4.8

# faces
f 3/2/1 2/2/1 1/2/1
f 4/2/1 2/2/1 3/2/1
f 5/2/2 6/2/2 7/2/2
f 7/2/2 6/2/2 8/2/2
f 11/2/3 10/2/3 9/2/3
f 12/2/3 10/2/3 11/2/3
f 13/2/4 14/2/4 15/2/4
f 15/2/4 14/2/4 16/2/4
f 19/2/5 18/2/5 17/2/5
f 20/2/5 18/2/5 19/2/5
f 21/2/5 18/2/5 20/2/5
f 22/2/5 18/2/5 21/2/5
f 23/2/5 19/2/5 17/2/5
f 23/1/5 20/1/5 19/1/5
f 24/2/5 21/2/5 20/2/5
f 24/1/5 20/1/5 23/1/5
f 25/3/5 22/3/5 21/3/5
f 25/2/5 21/2/5 24/2/5
f 26/2/5 18/2/5 22/2/5
f 26/3/5 22/3/5 25/3/5
f 27/2/5 25/2/5 24/2/5
f 27/2/5 24/2/5 23/2/5
f 27/2/5 26/2/5 25/2/5
f 28/2/5 26/2/5 27/2/5
f 29/2/5 26/2/5 28/2/5
f 30/2/5 18/2/5 26/2/5
f 30/2/5 26/2/5 29/2/5
f 31/2/5 27/2/5 23/2/5
f 31/3/5 28/3/5 27/3/5
f 32/2/5 29/2/5 28/2/5
f 32/3/5 28/3/5 31/3/5
f 33/1/5 30/1/5 29/1/5
f 33/2/5 29/2/5 32/2/5
f 34/2/5 18/2/5 30/2/5
f 34/1/5 30/1/5 33/1/5
f 35/2/5 31/2/5 23/2/5
f 35/2/5 23/2/5 17/2/5
f 35/2/5 34/2/5 33/2/5
f 35/2/5 32/2/5 31/2/5
f 35/2/5 33/2/5 32/2/5
f 36/2/5 18/2/5 34/2/5
f 36/2/5 34/2/5 35/2/5
f 37/2/6 38/2/6 39/2/6
f 39/2/6 38/2/6 40/2/6
